<?xml version="1.0" encoding="UTF-8"?>
<svg version="1.1" xmlns="http://www.w3.org/2000/svg" width="531" height="241">
<path d="M0 0 C2.1875 1.9375 2.1875 1.9375 3.1875 3.9375 C3.10098369 5.48363014 2.94747364 7.02659387 2.75 8.5625 C2.64816406 9.37976562 2.54632813 10.19703125 2.44140625 11.0390625 C2.35761719 11.66554688 2.27382813 12.29203125 2.1875 12.9375 C-1.94927777 14.82412668 -6.0298917 15.57547116 -10.49609375 16.19921875 C-12.06040417 16.42963278 -13.62469358 16.66018944 -15.18896484 16.89086914 C-16.01273621 17.01011749 -16.83650757 17.12936584 -17.6852417 17.25222778 C-37.78939046 20.17424507 -57.7539519 23.70827783 -77.70355225 27.53393555 C-79.75060703 27.92565627 -81.79827788 28.31396847 -83.84619141 28.70117188 C-87.399228 29.37533077 -90.95005358 30.05977633 -94.5 30.75 C-95.5214209 30.944729 -96.5428418 31.13945801 -97.59521484 31.34008789 C-98.97700928 31.61453735 -98.97700928 31.61453735 -100.38671875 31.89453125 C-101.17651123 32.04897705 -101.96630371 32.20342285 -102.7800293 32.36254883 C-105.09782119 32.90579711 -105.09782119 32.90579711 -107.8125 34.9375 C-108.20676433 38.04838527 -108.40808391 40.96894139 -108.48291016 44.09179688 C-108.5157139 45.02803642 -108.54851765 45.96427597 -108.58231544 46.92888641 C-108.67938917 49.93160661 -108.7506268 52.93385818 -108.8125 55.9375 C-108.84189289 57.3535704 -108.84189289 57.3535704 -108.87187958 58.79824829 C-109.00056839 65.68814707 -109.05316868 72.57780503 -109.0859375 79.46875 C-109.09392302 81.06883659 -109.09392302 81.06883659 -109.10206985 82.70124817 C-109.12846221 88.3156359 -109.14796633 93.93000369 -109.16259766 99.54443359 C-109.17606809 104.16865233 -109.20420526 108.79244345 -109.24462891 113.41650391 C-109.29381754 119.04933352 -109.31869483 124.68176892 -109.32582474 130.31480408 C-109.33253384 132.44868828 -109.34774694 134.58256371 -109.37171555 136.71632385 C-109.40322585 139.68310502 -109.40342901 142.64833086 -109.39599609 145.61523438 C-109.41240143 146.48998917 -109.42880676 147.36474396 -109.44570923 148.26600647 C-109.40106544 152.61058751 -109.24878227 154.38008202 -106.48928833 157.90576172 C-103.33657411 160.2987377 -100.09112452 161.93825707 -96.46875 163.46875 C-95.75456406 163.78194687 -95.04037811 164.09514374 -94.30455017 164.41783142 C-91.97842079 165.43522982 -89.6456461 166.43631177 -87.3125 167.4375 C-85.70006104 168.13946458 -84.08816774 168.84268383 -82.47680664 169.54711914 C-79.19487474 170.98116589 -75.91083533 172.41022246 -72.62548828 173.83642578 C-65.47091225 176.95026856 -58.36146632 180.16426035 -51.25 183.375 C-48.8953465 184.43803511 -46.53979483 185.49898425 -44.18359375 186.55859375 C-43.21349365 186.9961499 -42.24339355 187.43370605 -41.24389648 187.88452148 C-38.74780097 189.00730567 -38.74780097 189.00730567 -35.8125 189.9375 C-35.8125 190.5975 -35.8125 191.2575 -35.8125 191.9375 C-44.35822328 191.98407127 -52.90389253 192.01949411 -61.4497118 192.04112434 C-65.41891308 192.05151164 -69.38802682 192.06557714 -73.35717773 192.08837891 C-77.19567906 192.1102893 -81.03409678 192.12210652 -84.87265587 192.12725449 C-86.32889813 192.13091788 -87.7851364 192.13807041 -89.24134254 192.14896011 C-105.37562873 192.26469232 -118.4738603 190.87920752 -130.57421875 179.4375 C-139.62875605 169.32422972 -138.92634168 157.8016094 -138.8125 144.9375 C-139.37126328 144.91669876 -139.93002655 144.89589752 -140.50572205 144.87446594 C-153.2727791 144.38434765 -165.96447175 143.59064548 -178.68276978 142.38049316 C-197.48037361 140.59659696 -216.29543643 139.08972698 -235.125 137.6875 C-236.31489532 137.5988266 -237.50479065 137.5101532 -238.73074341 137.41879272 C-245.42435826 136.9208649 -252.11825003 136.42681448 -258.8125 135.9375 C-258.4825 135.2775 -258.1525 134.6175 -257.8125 133.9375 C-256.48542023 133.86899338 -256.48542023 133.86899338 -255.13153076 133.79910278 C-246.60734371 133.35893936 -238.08319304 132.91807856 -229.55907822 132.47651863 C-225.18149368 132.24977661 -220.8038976 132.0232635 -216.42626953 131.79736328 C-211.34143224 131.53493222 -206.25664056 131.27162957 -201.171875 131.0078125 C-200.33101852 130.96423866 -199.49016205 130.92066483 -198.62382507 130.87577057 C-189.22928386 130.38820947 -179.8356405 129.88783924 -170.44335938 129.35839844 C-169.61105427 129.3115711 -168.77874916 129.26474377 -167.92122269 129.21649742 C-163.96976787 128.99378988 -160.01845457 128.76890682 -156.06732178 128.54055786 C-154.65849013 128.46043125 -153.24965643 128.38034089 -151.84082031 128.30029297 C-150.62340149 128.23002899 -149.40598267 128.15976501 -148.15167236 128.08737183 C-145.04134535 127.94777125 -141.92595828 127.9375 -138.8125 127.9375 C-138.8125 122.6575 -138.8125 117.3775 -138.8125 111.9375 C-140.59897949 112.0929126 -142.38545898 112.2483252 -144.22607422 112.40844727 C-152.54478023 113.04540973 -160.85778216 113.23164444 -169.1953125 113.40234375 C-170.90186785 113.43999364 -172.60841575 113.47798237 -174.31495667 113.51628113 C-177.95817094 113.59742129 -181.6014223 113.67644199 -185.24472046 113.75372314 C-190.99761636 113.87580219 -196.75040279 114.00255765 -202.50317383 114.13037109 C-203.47526952 114.15195786 -204.44736521 114.17354462 -205.44891834 114.19578552 C-207.4323962 114.2398334 -209.41587379 114.28389323 -211.39935112 114.32796478 C-214.42109831 114.39494698 -217.44285542 114.46146597 -220.46461487 114.52789307 C-234.60312058 114.8393809 -248.7411226 115.16906846 -262.87890625 115.51171875 C-263.84157661 115.53504461 -264.80424698 115.55837048 -265.79608917 115.58240318 C-273.28403623 115.76403726 -280.77195344 115.94688707 -288.25986481 116.12998581 C-293.48287996 116.25769118 -298.70590253 116.38508167 -303.92893791 116.51195717 C-306.26151893 116.56878497 -308.59408519 116.62619155 -310.926651 116.68363953 C-312.32439102 116.71766855 -313.72213166 116.75167183 -315.11987305 116.78564453 C-316.32306686 116.81514191 -317.52626068 116.84463928 -318.76591492 116.87503052 C-321.11437526 116.92318512 -323.46354601 116.9375 -325.8125 116.9375 C-325.8125 116.2775 -325.8125 115.6175 -325.8125 114.9375 C-313.35495956 113.45163073 -300.89653103 111.97331675 -288.4375 110.5 C-287.49724346 110.38878437 -286.55698692 110.27756874 -285.58823776 110.16298294 C-252.67910783 106.27234736 -219.75252353 102.56415696 -186.80629253 99.00176239 C-183.44188297 98.63787434 -180.07758179 98.27298887 -176.713274 97.90816116 C-174.41678867 97.65981972 -172.1200848 97.4135846 -169.823349 97.16757202 C-168.43959746 97.01795966 -167.05585369 96.86827532 -165.67211914 96.71850586 C-164.48509903 96.59100449 -163.29807892 96.46350311 -162.0750885 96.33213806 C-158.9753512 95.95719825 -155.89234838 95.45080806 -152.8125 94.9375 C-188.7825 94.2775 -224.7525 93.6175 -261.8125 92.9375 C-258.3334599 90.61813993 -255.50673038 90.35314297 -251.46826172 89.94775391 C-250.72103851 89.86610489 -249.97381531 89.78445587 -249.20394897 89.70033264 C-246.71745856 89.43052841 -244.22989337 89.17239879 -241.7421875 88.9140625 C-239.98698634 88.72550512 -238.23187077 88.53614938 -236.47683716 88.34603882 C-231.82461453 87.84397368 -227.1714333 87.35143885 -222.51794434 86.86126709 C-215.20029324 86.08885362 -207.8841545 85.30217124 -200.56793976 84.51628876 C-198.76775791 84.32317221 -196.96752077 84.13057049 -195.1672287 83.93848419 C-181.39136105 82.46829401 -167.63452927 80.87655003 -153.89157104 79.12442017 C-152.0196257 78.88953384 -152.0196257 78.88953384 -150.10986328 78.64990234 C-149.03165314 78.51176117 -147.95344299 78.37362 -146.84255981 78.23129272 C-143.81179624 77.93743176 -140.85538549 77.88551866 -137.8125 77.9375 C-137.82249275 76.89299683 -137.82249275 76.89299683 -137.83268738 75.82739258 C-137.89301607 69.23709592 -137.93858428 62.64687731 -137.96793652 56.05636597 C-137.9835346 52.66880428 -138.00466406 49.28147242 -138.03881836 45.89404297 C-138.07533475 41.99180097 -138.0922575 38.08988209 -138.10546875 34.1875 C-138.12095261 32.98198486 -138.13643646 31.77646973 -138.15238953 30.53442383 C-138.15368751 24.00088546 -138.04708572 18.70469926 -134.8125 12.9375 C-130.0460793 9.72942671 -126.34135323 8.36182168 -120.57739258 7.62890625 C-119.8898288 7.53721161 -119.20226501 7.44551697 -118.49386597 7.3510437 C-116.23318124 7.05309509 -113.97042325 6.77656062 -111.70703125 6.5 C-110.10241662 6.29247167 -108.49798289 6.0835404 -106.89372253 5.87329102 C-102.66302376 5.3223888 -98.43027114 4.78931254 -94.19677734 4.26037598 C-89.99387443 3.73271895 -85.7928599 3.19051798 -81.59179688 2.6484375 C-76.6658497 2.01306068 -71.73982742 1.37849253 -66.81268311 0.75245667 C-55.72801597 -0.65969658 -44.66514514 -2.1817111 -33.61665344 -3.85632324 C-10.03158099 -7.35649272 -10.03158099 -7.35649272 0 0 Z " fill="#1F4E8A" transform="translate(325.8125,5.0625)"/>
<path d="M0 0 C2.30866821 1.64284354 4.07481111 3.15839928 5.89453125 5.34814453 C6.30635071 8.08630371 6.30635071 8.08630371 6.1809082 11.26806641 C6.14379227 12.46451782 6.10667633 13.66096924 6.06843567 14.89367676 C5.9765522 16.83566956 5.9765522 16.83566956 5.8828125 18.81689453 C5.83288882 20.17567697 5.78475899 21.53452638 5.73832703 22.89343262 C5.61065998 26.48366198 5.45803081 30.07241837 5.300354 33.66143799 C5.14774048 37.23742527 5.01921909 40.81426443 4.88867188 44.39111328 C4.68647773 49.88863087 4.45353349 55.38394937 4.20166016 60.87939453 C3.99579432 65.46589045 3.85872611 70.03846234 3.83349609 74.62939453 C3.81091988 76.01402893 3.81091988 76.01402893 3.78788757 77.42663574 C3.76369868 79.07237662 3.76473047 80.71881101 3.79866028 82.36437988 C3.73285957 85.33728982 3.40537274 87.68118428 1.57151794 90.07548523 C-2.5630653 93.90628211 -7.12377969 95.90572407 -12.40625 97.68017578 C-13.19253281 97.95841187 -13.97881561 98.23664795 -14.78892517 98.52331543 C-17.32698202 99.41739956 -19.87205294 100.28922148 -22.41796875 101.16064453 C-24.17137633 101.7734553 -25.92430385 102.3876413 -27.67675781 103.00317383 C-32.011474 104.5217447 -36.3520906 106.02251205 -40.69512939 107.51708984 C-44.25058758 108.7429671 -47.8010524 109.98302636 -51.3515625 111.22314453 C-71.94827956 118.40148031 -71.94827956 118.40148031 -74.75749207 117.44828796 C-77.10546875 115.34814453 -77.10546875 115.34814453 -77.70674133 111.57063293 C-77.72125925 109.96239825 -77.70788786 108.35377345 -77.6730957 106.74584961 C-77.67382584 105.86759018 -77.67455597 104.98933075 -77.67530823 104.0844574 C-77.67182161 101.17823766 -77.63291017 98.27361588 -77.59375 95.36767578 C-77.58442569 93.35415014 -77.57730777 91.34061317 -77.5723114 89.32707214 C-77.55321162 84.02491998 -77.50408482 78.72345162 -77.4487915 73.42156982 C-77.39766344 68.01242321 -77.37481112 62.60316621 -77.34960938 57.19384766 C-77.29596924 46.57831268 -77.21062015 35.96328544 -77.10546875 25.34814453 C-71.61861342 22.82345644 -66.14910676 20.55262273 -60.40625 18.68408203 C-59.34763008 18.33310455 -59.34763008 18.33310455 -58.2676239 17.97503662 C-55.98592647 17.21970105 -53.70213831 16.47096802 -51.41796875 15.72314453 C-48.20533115 14.66706059 -44.99327655 13.60921024 -41.78125 12.55126953 C-40.97390411 12.28593414 -40.16655823 12.02059875 -39.33474731 11.7472229 C-33.94261629 9.97023151 -28.57260347 8.13668404 -23.2109375 6.27001953 C-21.16126302 5.56273823 -19.11116361 4.85670493 -17.06088257 4.15118408 C-15.76335233 3.7012656 -14.46759881 3.24618823 -13.17373657 2.78582764 C-11.38485153 2.14997754 -9.58904403 1.53370383 -7.79296875 0.91845703 C-6.78621094 0.56541504 -5.77945313 0.21237305 -4.7421875 -0.15136719 C-2.10546875 -0.65185547 -2.10546875 -0.65185547 0 0 Z " fill="#CC1114" transform="translate(401.10546875,68.65185546875)"/>
<path d="M0 0 C4.07906773 0.62747673 7.325517 1.95963293 11.0234375 3.7734375 C12.1980957 4.34562012 13.37275391 4.91780273 14.58300781 5.50732422 C15.84701718 6.12985851 17.1110143 6.75241767 18.375 7.375 C19.68034434 8.01253656 20.9860121 8.64941131 22.29199219 9.28564453 C24.93556677 10.57381877 27.57801717 11.86425548 30.21972656 13.15625 C35.54876023 15.7592326 40.89827843 18.31906318 46.25 20.875 C47.17651367 21.31972656 48.10302734 21.76445313 49.05761719 22.22265625 C53.36138934 24.28452778 57.67417596 26.31695659 62.0234375 28.28125 C63.19471191 28.81516357 63.19471191 28.81516357 64.38964844 29.35986328 C65.81820339 30.00861071 67.25082618 30.64852128 68.68847656 31.27685547 C73.09297436 33.2834988 76.13984779 35.07391143 79 39 C79.7210978 43.26988811 79.603871 47.49260273 79.5234375 51.8125 C79.51873444 53.09060547 79.51403137 54.36871094 79.50918579 55.68554688 C79.49576918 59.1009121 79.45161862 62.51523877 79.40161133 65.93023682 C79.35840559 69.29067211 79.34726029 72.65103953 79.33203125 76.01171875 C79.22108522 93.68857925 78.70381119 111.33791689 78 129 C72.13019944 128.46231206 67.47115995 126.73018429 62.12109375 124.31640625 C61.27966324 123.94509079 60.43823273 123.57377533 59.57130432 123.19120789 C56.85608597 121.99032135 54.14668335 120.77693263 51.4375 119.5625 C49.57512184 118.73413362 47.71249087 117.90633539 45.84960938 117.07910156 C42.20187238 115.45728502 38.55666226 113.8299855 34.91357422 112.19775391 C30.85661734 110.38063906 26.7918607 108.58247031 22.72265625 106.79296875 C20.81473185 105.94615085 18.907136 105.09859199 17 104.25 C16.18587646 103.89365479 15.37175293 103.53730957 14.53295898 103.17016602 C12.31943594 102.17193837 10.16421042 101.10073756 8 100 C7.22395416 99.62836227 6.44790833 99.25672455 5.64834595 98.87382507 C-0.51493956 95.46186807 -0.51493956 95.46186807 -1.79473877 91.60482788 C-2.06195868 88.61648458 -2.03779944 85.75181291 -1.9140625 82.75390625 C-1.90406219 81.64575562 -1.89406189 80.53760498 -1.88375854 79.39587402 C-1.84052492 75.78261172 -1.73345923 72.17434124 -1.625 68.5625 C-1.58272581 66.08201269 -1.54433599 63.60145624 -1.50976562 61.12084961 C-1.41238445 54.91492353 -1.26241845 48.71165583 -1.09289551 42.50732422 C-0.97880146 38.19963654 -0.88868612 33.89168366 -0.80111694 29.58338928 C-0.60040035 19.71984755 -0.33432518 9.85992532 0 0 Z " fill="#FBAC14" transform="translate(231,56)"/>
<path d="M0 0 C0.66 0 1.32 0 2 0 C2.495 1.175625 2.99 2.35125 3.5 3.5625 C7.97218088 12.32116567 14.95750118 15.80259324 23.94921875 19.0546875 C54.49148236 28.51848749 96.44329156 19.75976941 128.07919312 18.46519089 C139.05270463 18.01622018 150.0263113 17.5696188 161 17.125 C162.03825676 17.08289398 163.07651352 17.04078796 164.1462326 16.99740601 C201.17556363 15.49716776 238.20925766 14.14592793 275.24737549 12.88448334 C279.16421247 12.75079484 283.08101114 12.61602922 286.99780273 12.48101807 C293.1883625 12.26795009 299.37902612 12.05819644 305.56978798 11.85108566 C307.84434365 11.77465287 310.11886987 11.69733708 312.39336205 11.61903763 C324.93432762 11.18861967 337.45126243 10.8873699 350 11 C349.67 11.66 349.34 12.32 349 13 C346.97453308 13.49902344 346.97453308 13.49902344 344.22338867 13.859375 C342.64046272 14.07339966 342.64046272 14.07339966 341.02555847 14.29174805 C339.83505386 14.44297119 338.64454926 14.59419434 337.41796875 14.75 C336.13783401 14.91991455 334.85769928 15.0898291 333.53877258 15.26489258 C329.87783737 15.75021545 326.21541029 16.22337306 322.55264282 16.69464111 C319.35321091 17.1077134 316.15465406 17.5273533 312.95607567 17.94697571 C303.43380113 19.19603693 293.90952354 20.42934601 284.38466454 21.65852356 C276.3010167 22.7019562 268.21793935 23.74974359 260.13510394 24.79944825 C142.43341247 40.0844088 142.43341247 40.0844088 87.04879761 46.80731201 C84.46411989 47.12176145 81.87973363 47.4385129 79.29541016 47.75585938 C75.348845 48.23992535 71.40150734 48.71706095 67.45337105 49.18813705 C66.06007118 49.35520452 64.66701151 49.52429211 63.27424431 49.69574356 C47.39767996 51.64510995 33.24919354 52.47156532 19.53515625 43 C9.36032921 34.97301781 3.25926612 23.7340454 1 11 C0.58494087 7.33771352 0.25682329 3.67662817 0 0 Z " fill="#224E89" transform="translate(181,190)"/>
<path d="M0 0 C1.64524658 0.74165405 1.64524658 0.74165405 3.32373047 1.49829102 C5.54375335 2.49919531 7.76204127 3.50395728 9.97851562 4.51269531 C12.81570117 5.79744196 15.66134166 7.05849662 18.515625 8.3046875 C19.32273926 8.65781006 20.12985352 9.01093262 20.96142578 9.37475586 C22.43300232 10.01792303 23.9052777 10.65949485 25.37841797 11.29907227 C29.80561715 13.2527559 33.95798241 15.47517142 38.125 17.9375 C37.125 19.9375 37.125 19.9375 35.13156128 20.72055054 C33.81709518 21.09550156 33.81709518 21.09550156 32.47607422 21.47802734 C30.98719193 21.90890152 30.98719193 21.90890152 29.4682312 22.34848022 C28.38301178 22.65371613 27.29779236 22.95895203 26.1796875 23.2734375 C25.06248322 23.59406158 23.94527893 23.91468567 22.79421997 24.24502563 C19.19820989 25.27490091 15.59914662 26.2936469 12 27.3125 C9.62610411 27.99149572 7.25240367 28.67117519 4.87890625 29.3515625 C-0.73268209 30.95774075 -6.35078122 32.53958716 -11.97131348 34.11413574 C-14.51600557 34.83570417 -17.05149328 35.5810168 -19.58496094 36.34082031 C-32.81152446 40.24767129 -40.03342017 37.89299578 -52.375 32.125 C-53.6487944 31.54027825 -54.92297037 30.95638708 -56.19750977 30.37329102 C-60.09953893 28.58154949 -63.98793874 26.7614297 -67.875 24.9375 C-69.10526455 24.36254152 -70.33556968 23.78766988 -71.56591797 23.21289062 C-74.98620443 21.61008642 -78.40100665 19.99642736 -81.8125 18.375 C-82.84117187 17.88733154 -83.86984375 17.39966309 -84.9296875 16.8972168 C-89.83835364 14.53389171 -94.44902049 12.12031099 -98.875 8.9375 C-96.1458629 6.2083629 -94.02492798 6.2557093 -90.22558594 5.62475586 C-89.54242813 5.50902725 -88.85927032 5.39329865 -88.15541077 5.27406311 C-85.89127695 4.89248053 -83.62541915 4.52239791 -81.359375 4.15234375 C-79.78465197 3.88925858 -78.210048 3.62545981 -76.63555908 3.36097717 C-72.48303617 2.66541462 -68.32896379 1.97957325 -64.17449951 1.29571533 C-59.96301958 0.600742 -55.75306027 -0.10331432 -51.54296875 -0.80664062 C-44.12266088 -2.04499928 -36.70106974 -3.27539162 -29.27850342 -4.50013733 C-27.06767035 -4.86543445 -24.85926921 -5.24588915 -22.65411377 -5.64402771 C-14.22119491 -6.91383642 -7.48775897 -3.4429043 0 0 Z " fill="#FCA213" transform="translate(348.875,38.0625)"/>
<path d="M0 0 C26.72218433 1.40643075 55.64333486 18.62490586 78.8125 31.1875 C79.91561523 31.77543335 79.91561523 31.77543335 81.04101562 32.37524414 C83.08544777 33.51016974 85.04242372 34.72194669 87 36 C87.60763184 36.35400879 88.21526367 36.70801758 88.84130859 37.07275391 C90.88458946 38.5749028 91.86154658 39.72124288 93 42 C93.62053985 46.40785435 93.36585767 50.73924436 93.13317871 55.16662598 C92.98011767 58.4229962 92.89731122 61.67744371 92.82128906 64.93652344 C92.38827502 83.37433306 91.76625511 101.80810169 91.12957764 120.23986816 C91.04848875 122.59293536 90.96844436 124.94603904 90.88995361 127.29919434 C90.71832118 132.42187481 90.52848805 137.54244021 90.28338623 142.66217041 C90.1904647 144.68544657 90.11952675 146.70969519 90.04931641 148.73388672 C89.54407375 158.02042482 89.54407375 158.02042482 86.76953125 161.65234375 C67.12867021 178.301367 29.13878435 183.37648201 4 186 C3.67 185.34 3.34 184.68 3 184 C3.5355249 183.80700821 4.0710498 183.61401642 4.62280273 183.41517639 C16.8052983 179.02412039 28.98418706 174.62325286 41.15718079 170.20591736 C46.26625372 168.3521164 51.37686387 166.50295416 56.49240112 164.66706848 C59.22735064 163.68278282 61.95721626 162.6846413 64.6875 161.6875 C65.61498047 161.3582251 66.54246094 161.0289502 67.49804688 160.68969727 C68.32755859 160.38346436 69.15707031 160.07723145 70.01171875 159.76171875 C70.69709717 159.51381592 71.38247559 159.26591309 72.08862305 159.01049805 C74.81986263 157.56655877 76.1839878 156.56576474 78 154 C78.62837846 150.60801534 78.60504036 147.24306843 78.609375 143.80078125 C78.62595657 142.76125809 78.64253815 141.72173492 78.65962219 140.65071106 C78.70914191 137.20457971 78.72991694 133.75891886 78.75 130.3125 C78.77786067 127.91713881 78.80709661 125.52179325 78.83764648 123.12646484 C79.14566712 96.42031504 79.0998108 69.70719747 79 43 C68.71374747 37.80741653 58.37807831 32.74961693 47.9375 27.875 C47.26976562 27.56239227 46.60203125 27.24978455 45.9140625 26.92770386 C30.67932096 19.79742263 15.35105138 12.875591 0 6 C0 4.02 0 2.04 0 0 Z " fill="#CB6D16" transform="translate(340,12)"/>
<path d="M0 0 C29.55190923 1.55536364 61.76232742 21.55693529 87 36 C86.01 36.99 86.01 36.99 85 38 C84.67413144 40.82170399 84.67413144 40.82170399 84.69702148 44.17675781 C84.68037949 45.48122864 84.66373749 46.78569946 84.64659119 48.12969971 C84.63800469 49.57084095 84.62950819 51.01198274 84.62109375 52.453125 C84.60488194 53.9478256 84.58769822 55.44251593 84.56959534 56.93719482 C84.52373077 60.90408366 84.48911132 64.87098839 84.45739746 68.8380127 C84.40601664 75.06643994 84.33942742 81.29473178 84.27125931 87.522995 C84.25449342 89.0587267 84.23813292 90.59446289 84.22217941 92.13020325 C84.06003919 107.42999753 83.59764602 122.71118082 83 138 C81.68 138.33 80.36 138.66 79 139 C79 107.32 79 75.64 79 43 C68.68738422 37.84369211 58.380377 32.75069017 47.9375 27.875 C47.26976562 27.56239227 46.60203125 27.24978455 45.9140625 26.92770386 C30.67932096 19.79742263 15.35105138 12.875591 0 6 C0 4.02 0 2.04 0 0 Z " fill="#EE961A" transform="translate(340,12)"/>
<path d="M0 0 C3.65316671 1.24976756 4.78065836 1.67098753 7 5 C7.17131042 7.61790466 7.17131042 7.61790466 7.05932617 10.80639648 C7.0223613 12.00292343 6.98539642 13.19945038 6.9473114 14.43223572 C6.87091179 16.38197044 6.87091179 16.38197044 6.79296875 18.37109375 C6.74679854 19.73133987 6.70151045 21.09161619 6.65705872 22.45191956 C6.53690028 26.0498648 6.40390003 29.64722976 6.26849365 33.24462891 C6.13615978 36.82751622 6.01700111 40.41083983 5.89648438 43.99414062 C5.75595307 48.16291491 5.60988913 52.33121089 5.43917847 56.49887085 C5.19653697 62.42909508 4.97579015 68.34978224 4.94775391 74.28564453 C4.93279373 75.20877945 4.91783356 76.13191437 4.90242004 77.08302307 C4.87743342 78.72829247 4.87755739 80.37426351 4.91044617 82.01939392 C4.84199699 84.99137065 4.51021023 87.33424627 2.67643738 89.72706604 C-1.45814656 93.55807389 -6.01816414 95.55753023 -11.30078125 97.33203125 C-12.08706406 97.61026733 -12.87334686 97.88850342 -13.68345642 98.1751709 C-16.22151327 99.06925503 -18.76658419 99.94107694 -21.3125 100.8125 C-23.06590758 101.42531076 -24.8188351 102.03949677 -26.57128906 102.6550293 C-30.90600525 104.17360017 -35.24662185 105.67436752 -39.58966064 107.16894531 C-43.14511883 108.39482257 -46.69558365 109.63488183 -50.24609375 110.875 C-57.15296174 113.28217088 -64.06092992 115.68697664 -71 118 C-71.99 117.34 -72.98 116.68 -74 116 C-74 115.34 -74 114.68 -74 114 C-73.34 114 -72.68 114 -72 114 C-71.67 113.01 -71.34 112.02 -71 111 C-70.34 111 -69.68 111 -69 111 C-69 110.34 -69 109.68 -69 109 C-68.34628418 108.78384033 -67.69256836 108.56768066 -67.01904297 108.3449707 C-54.96561867 104.35506896 -42.92702833 100.3553052 -31 96 C-29.12377812 95.31748781 -27.24746811 94.63521787 -25.37109375 93.953125 C-22.37112305 92.86257875 -19.37136793 91.77147051 -16.37255859 90.67773438 C-15.46199707 90.34580078 -14.55143555 90.01386719 -13.61328125 89.671875 C-12.79641846 89.3737793 -11.97955566 89.07568359 -11.13793945 88.76855469 C-9.43346052 88.15582205 -7.71831916 87.57277305 -6 87 C-5.04338001 82.89422006 -4.78431586 78.94359414 -4.62695312 74.73461914 C-4.59915268 74.02176254 -4.57135223 73.30890594 -4.54270935 72.57444763 C-4.48311161 71.03311377 -4.42535505 69.49170785 -4.36924744 67.950243 C-4.28024148 65.50747752 -4.18623454 63.06494909 -4.09094238 60.62242126 C-3.88949957 55.43594642 -3.69435754 50.24924453 -3.5 45.0625 C-3.27466523 39.05352642 -3.04672463 33.0446729 -2.81248474 27.03603935 C-2.72020344 24.63546562 -2.63252719 22.23475231 -2.54504395 19.83399963 C-2.48793417 18.35424961 -2.43061293 16.87450773 -2.37304688 15.39477539 C-2.32498901 14.10857803 -2.27693115 12.82238068 -2.22741699 11.49720764 C-1.70100058 3.40200115 -1.70100058 3.40200115 0 0 Z " fill="#961818" transform="translate(400,69)"/>
<path d="M0 0 C0 0.66 0 1.32 0 2 C-0.969375 2.804375 -1.93875 3.60875 -2.9375 4.4375 C-6.19375327 6.70684377 -6.19375327 6.70684377 -7 10 C-7.10472943 11.55639174 -7.15577972 13.1167039 -7.17358398 14.67651367 C-7.18707382 15.62568161 -7.20056366 16.57484955 -7.21446228 17.55278015 C-7.22490067 18.58079239 -7.23533905 19.60880463 -7.24609375 20.66796875 C-7.27908178 22.86393553 -7.31229244 25.05989898 -7.34570312 27.25585938 C-7.39272197 30.70236478 -7.43705436 34.1488619 -7.47680664 37.59545898 C-7.63325509 50.53196582 -7.93883056 63.20773916 -10 76 C-10.96188232 76.04487549 -11.92376465 76.08975098 -12.91479492 76.13598633 C-16.54793272 76.30866284 -20.18012797 76.49703036 -23.81225586 76.68969727 C-25.37226785 76.7703516 -26.93249439 76.8469766 -28.49291992 76.91918945 C-42.96713279 77.57813221 -42.96713279 77.57813221 -57 81 C-57.33 81.66 -57.66 82.32 -58 83 C-57.4406778 82.99555878 -56.88135559 82.99111755 -56.30508423 82.98654175 C-50.49801176 82.94238851 -44.69098675 82.91216706 -38.88378906 82.89013672 C-36.71482406 82.88006211 -34.54587269 82.86640202 -32.37695312 82.84912109 C-29.26428874 82.82493677 -26.15180349 82.81353168 -23.0390625 82.8046875 C-22.065065 82.79436493 -21.0910675 82.78404236 -20.08755493 82.77340698 C-19.18677216 82.77325592 -18.28598938 82.77310486 -17.35791016 82.77294922 C-16.56293121 82.768508 -15.76795227 82.76406677 -14.94888306 82.75949097 C-13 83 -13 83 -11 85 C-22.87504917 84.8580873 -34.7500449 84.71207691 -46.625 84.5625 C-47.50017147 84.55147877 -48.37534294 84.54045753 -49.27703476 84.52910233 C-77.52201943 84.17211377 -105.76144674 83.71452201 -134 83 C-130.5209599 80.68063993 -127.69423038 80.41564297 -123.65576172 80.01025391 C-122.90853851 79.92860489 -122.16131531 79.84695587 -121.39144897 79.76283264 C-118.90495856 79.49302841 -116.41739337 79.23489879 -113.9296875 78.9765625 C-112.17448634 78.78800512 -110.41937077 78.59864938 -108.66433716 78.40853882 C-104.01211453 77.90647368 -99.3589333 77.41393885 -94.70544434 76.92376709 C-87.38779324 76.15135362 -80.0716545 75.36467124 -72.75543976 74.57878876 C-70.95525791 74.38567221 -69.15502077 74.19307049 -67.3547287 74.00098419 C-53.57886105 72.53079401 -39.82202927 70.93905003 -26.07907104 69.18692017 C-24.2071257 68.95203384 -24.2071257 68.95203384 -22.29736328 68.71240234 C-21.21915314 68.57426117 -20.14094299 68.43612 -19.03005981 68.29379272 C-15.99929624 67.99993176 -13.04288549 67.94801866 -10 68 C-10.00999275 66.95549683 -10.00999275 66.95549683 -10.02018738 65.88989258 C-10.08051607 59.29959592 -10.12608428 52.70937731 -10.15543652 46.11886597 C-10.1710346 42.73130428 -10.19216406 39.34397242 -10.22631836 35.95654297 C-10.26283475 32.05430097 -10.2797575 28.15238209 -10.29296875 24.25 C-10.30845261 23.04448486 -10.32393646 21.83896973 -10.33988953 20.59692383 C-10.34119662 14.01755689 -9.9532498 8.93021343 -7 3 C-4.53019987 1.07235112 -3.14167226 0 0 0 Z " fill="#3375AB" transform="translate(198,15)"/>
<path d="M0 0 C0 0.66 0 1.32 0 2 C0.99 2 1.98 2 3 2 C3 2.99 3 3.98 3 5 C3.66 5.2475 4.32 5.495 5 5.75 C8.13242603 7.05517751 11.11839936 8.54353274 14.1328125 10.09765625 C16.14664322 11.12002876 16.14664322 11.12002876 19 12 C19.6875 14.0625 19.6875 14.0625 20 16 C18.41800369 16.64910154 16.83434276 17.29414694 15.25 17.9375 C14.36828125 18.29714844 13.4865625 18.65679687 12.578125 19.02734375 C5.33026876 21.76176224 -1.069893 22.08774195 -8.26953125 18.98828125 C-10.12509054 18.11291432 -11.97262004 17.22035972 -13.8125 16.3125 C-15.7597999 15.38802265 -17.70771177 14.46483319 -19.65625 13.54296875 C-21.04263672 12.8785376 -21.04263672 12.8785376 -22.45703125 12.20068359 C-26.41705408 10.33092627 -30.44936854 8.68093605 -34.50390625 7.02734375 C-38.37299409 5.43490228 -42.18771612 3.72322933 -46 2 C-43.35261084 0.5393715 -42.10551666 0 -39 0 C-37.59183503 -0.44161387 -36.19662548 -0.92549606 -34.8125 -1.4375 C-22.7661885 -5.53713182 -12.04924054 -3.29180283 0 0 Z " fill="#FEF066" transform="translate(313,49)"/>
<path d="M0 0 C0 0.33 0 0.66 0 1 C-1.13179687 1.13277344 -2.26359375 1.26554687 -3.4296875 1.40234375 C-4.91148179 1.5805342 -6.39325136 1.75893029 -7.875 1.9375 C-8.99455078 2.06801758 -8.99455078 2.06801758 -10.13671875 2.20117188 C-14.1953231 2.63326063 -14.1953231 2.63326063 -18 4 C-19.155 3.979375 -20.31 3.95875 -21.5 3.9375 C-25.05878466 3.59587188 -25.05878466 3.59587188 -27 6 C-24.03 6.33 -21.06 6.66 -18 7 C-18 7.33 -18 7.66 -18 8 C-19.50240234 8.19916016 -19.50240234 8.19916016 -21.03515625 8.40234375 C-22.37760654 8.58071127 -23.72005433 8.7590977 -25.0625 8.9375 C-25.71927734 9.02451172 -26.37605469 9.11152344 -27.05273438 9.20117188 C-31.37231192 9.77569697 -35.68707577 10.37745827 -40 11 C-40 11.33 -40 11.66 -40 12 C-36.85434954 12.08845016 -33.70902625 12.14086835 -30.5625 12.1875 C-29.68400391 12.21263672 -28.80550781 12.23777344 -27.90039062 12.26367188 C-22.3735935 12.32485413 -18.02021584 11.64953188 -12.89038086 9.55200195 C-11 9 -11 9 -8 10 C-8.33 10.33 -8.66 10.66 -9 11 C5.85 11.33 20.7 11.66 36 12 C36 12.33 36 12.66 36 13 C35.09436813 13.02061493 34.18873627 13.04122986 33.25566101 13.06246948 C21.39958835 13.33248404 9.54353839 13.60348497 -2.3125 13.875 C-3.27536045 13.89704247 -4.2382209 13.91908493 -5.23025894 13.94179535 C-28.52619184 14.47524567 -51.82193852 15.01552511 -75.1171875 15.578125 C-76.5589224 15.61293913 -76.5589224 15.61293913 -78.02978325 15.64845657 C-87.31561627 15.87283168 -96.60142204 16.09830732 -105.88719177 16.32528687 C-109.29666188 16.40856367 -112.70614018 16.49150222 -116.11561966 16.57439423 C-118.44853894 16.63127214 -120.78144424 16.68869979 -123.11434937 16.74615479 C-124.51202325 16.78017924 -125.90969777 16.81417746 -127.30737305 16.84814453 C-128.51056686 16.87764191 -129.71376068 16.90713928 -130.95341492 16.93753052 C-133.30187526 16.98568512 -135.65104601 17 -138 17 C-138 16.34 -138 15.68 -138 15 C-112.21748021 11.95631606 -86.43401547 8.92075392 -60.64912033 5.89725494 C-55.36621815 5.27775516 -50.08345131 4.65712047 -44.80078125 4.03564453 C-39.5090125 3.41357951 -34.2167194 2.79629021 -28.92370605 2.18490601 C-27.1602321 1.98050389 -25.39696069 1.77434566 -23.63391113 1.5663147 C-15.73832854 0.63581193 -7.96723828 -0.27285063 0 0 Z " fill="#2D76AD" transform="translate(138,105)"/>
<path d="M0 0 C5.04188542 1.26047135 5.04188542 1.26047135 7 4 C7.36749268 6.48141479 7.36749268 6.48141479 7.35644531 9.47998047 C7.35944641 10.60741669 7.36244751 11.73485291 7.36553955 12.89645386 C7.35319275 14.12429596 7.34084595 15.35213806 7.328125 16.6171875 C7.32531525 18.53859055 7.32531525 18.53859055 7.32244873 20.49880981 C7.3178333 23.23110379 7.30340352 25.96310517 7.28125 28.6953125 C7.24830304 32.76829109 7.24034293 36.84095233 7.234375 40.9140625 C7.18833209 58.62558201 6.72217237 76.30276216 6 94 C0.71049302 93.28738213 -3.21287145 92.24701952 -8 90 C-8 89.34 -8 88.68 -8 88 C-6.02 88.33 -4.04 88.66 -2 89 C-1.34 59.63 -0.68 30.26 0 0 Z " fill="#D26B1C" transform="translate(303,91)"/>
<path d="M0 0 C0.474375 0.495 0.94875 0.99 1.4375 1.5 C-5.08779109 4.06581253 -11.69875634 6.07644637 -18.4375 8.00390625 C-19.56140137 8.32785873 -20.68530273 8.65181122 -21.84326172 8.98558044 C-24.2095262 9.66694738 -26.57623443 10.34677492 -28.94335938 11.02514648 C-32.55181273 12.05943671 -36.15882146 13.09864467 -39.765625 14.13867188 C-42.07283343 14.80237277 -44.38012243 15.46579364 -46.6875 16.12890625 C-47.7585498 16.43727921 -48.82959961 16.74565216 -49.93310547 17.06336975 C-66.74820694 21.87723329 -66.74820694 21.87723329 -71.5625 21.125 C-72.325625 21.01414062 -73.08875 20.90328125 -73.875 20.7890625 C-74.7103125 20.64597656 -74.7103125 20.64597656 -75.5625 20.5 C-75.2325 18.85 -74.9025 17.2 -74.5625 15.5 C-73.84054443 15.32186768 -73.11858887 15.14373535 -72.37475586 14.96020508 C-64.9362802 13.11419933 -57.5244695 11.18378817 -50.125 9.1875 C-49.00915527 8.8869873 -47.89331055 8.58647461 -46.74365234 8.27685547 C-36.97749145 5.63506383 -27.24653607 2.87758055 -17.53173828 0.05322266 C-11.75156484 -1.57061481 -5.44476672 -3.18718052 0 0 Z " fill="#D4701A" transform="translate(385.5625,55.5)"/>
<path d="M0 0 C-1 2 -1 2 -3.4375 3.375 C-6.10697661 4.7272551 -6.10697661 4.7272551 -6.84301758 6.99023438 C-8 9 -8 9 -10.2487793 10.03320312 C-11.18117432 10.28005859 -12.11356934 10.52691406 -13.07421875 10.78125 C-14.12407959 11.06419922 -15.17394043 11.34714844 -16.25561523 11.63867188 C-17.38813721 11.92291016 -18.52065918 12.20714844 -19.6875 12.5 C-20.84258057 12.79970703 -21.99766113 13.09941406 -23.18774414 13.40820312 C-31.05265242 15.39603119 -38.95001786 17.08594506 -46.9375 18.5 C-47.9071167 18.67208984 -48.8767334 18.84417969 -49.87573242 19.02148438 C-56.60750617 20.13083128 -56.60750617 20.13083128 -60 19 C-57.85152417 16.85152417 -56.55933548 16.32547765 -53.73730469 15.32006836 C-52.85588806 15.00311508 -51.97447144 14.6861618 -51.06634521 14.35960388 C-49.63358246 13.85482262 -49.63358246 13.85482262 -48.171875 13.33984375 C-47.19011292 12.9899086 -46.20835083 12.63997345 -45.19683838 12.2794342 C-43.11642823 11.53953718 -41.03499601 10.80250871 -38.95263672 10.06811523 C-35.77410535 8.94600982 -32.59978474 7.81257499 -29.42578125 6.67773438 C-27.4038893 5.96025104 -25.38176129 5.24343249 -23.359375 4.52734375 C-22.41229675 4.18879868 -21.46521851 3.8502536 -20.48944092 3.50144958 C-13.50371779 1.04947446 -7.45369652 -0.14907393 0 0 Z " fill="#CB5A1D" transform="translate(403,178)"/>
<path d="M0 0 C0 0.66 0 1.32 0 2 C0.99 2 1.98 2 3 2 C3 2.99 3 3.98 3 5 C3.7425 5.268125 4.485 5.53625 5.25 5.8125 C7.86636554 6.94229421 9.80187111 8.20893202 12 10 C10.35 10 8.7 10 7 10 C7 9.34 7 8.68 7 8 C5.68 8 4.36 8 3 8 C3 7.34 3 6.68 3 6 C2.28714844 6.02320313 1.57429688 6.04640625 0.83984375 6.0703125 C-7.26144101 6.2229612 -7.26144101 6.2229612 -11.3125 5 C-17.05573783 3.44251178 -23.09188016 3.28734741 -29 4 C-29.99 5.485 -29.99 5.485 -31 7 C-30.01 7 -29.02 7 -28 7 C-28 7.66 -28 8.32 -28 9 C-34.20477864 7.06375702 -40.10825719 4.74390859 -46 2 C-43.35261084 0.5393715 -42.10551666 0 -39 0 C-37.59183503 -0.44161387 -36.19662548 -0.92549606 -34.8125 -1.4375 C-22.7661885 -5.53713182 -12.04924054 -3.29180283 0 0 Z " fill="#FEE21F" transform="translate(313,49)"/>
<path d="M0 0 C0.99 1.98 1.98 3.96 3 6 C-3.5020383 7.18107421 -9.90181112 7.12737969 -16.49609375 7.09765625 C-18.27911644 7.09553383 -18.27911644 7.09553383 -20.09815979 7.09336853 C-23.87796594 7.08779114 -27.65771189 7.07524275 -31.4375 7.0625 C-34.0071606 7.05748208 -36.57682213 7.05291968 -39.14648438 7.04882812 C-45.43100997 7.03782911 -51.71550068 7.0211135 -58 7 C-49.79171474 0.51689422 -37.05452951 1.49452152 -27 0.875 C-25.72382813 0.78863281 -24.44765625 0.70226562 -23.1328125 0.61328125 C-15.41013391 0.11580809 -7.73804371 -0.1134769 0 0 Z " fill="#133974" transform="translate(184,110)"/>
<path d="M0 0 C2.31 0.33 4.62 0.66 7 1 C7 1.66 7 2.32 7 3 C7.86753906 2.78859375 8.73507812 2.5771875 9.62890625 2.359375 C13.54330108 1.94208146 15.38846281 2.62705001 18.9375 4.25 C19.91589844 4.68828125 20.89429688 5.1265625 21.90234375 5.578125 C23.43568359 6.28195313 23.43568359 6.28195313 25 7 C27.33179146 8.00359006 29.66524066 9.00333392 32 10 C34.73160111 11.18193956 37.45982102 12.37154157 40.1875 13.5625 C40.88552734 13.86607422 41.58355469 14.16964844 42.30273438 14.48242188 C44.98760721 15.65497814 47.6554937 16.82028354 50.25390625 18.17578125 C53.04116838 19.49146874 55.96470994 19.64977422 59 20 C59 20.33 59 20.66 59 21 C57.02 21 55.04 21 53 21 C52.67 22.32 52.34 23.64 52 25 C46.9937462 24.34254995 42.78376956 22.22517563 38.26171875 20.10546875 C37.00232231 19.522528 37.00232231 19.522528 35.71748352 18.92781067 C33.03845413 17.68607037 30.3630317 16.43675582 27.6875 15.1875 C25.89930557 14.3582558 24.11089622 13.52947488 22.32226562 12.70117188 C20.59356033 11.89884605 18.86503872 11.09612429 17.13671875 10.29296875 C16.34061691 9.92302292 15.54451508 9.55307709 14.72428894 9.17192078 C9.77436559 6.86014715 4.8766105 4.46278379 0 2 C0 1.34 0 0.68 0 0 Z " fill="#EF9115" transform="translate(258,50)"/>
<path d="M0 0 C1.5305856 0.01509325 3.06118581 0.02877335 4.59179688 0.04101562 C8.2906753 0.0736097 11.98898945 0.12512782 15.6875 0.1875 C15.6875 2.1675 15.6875 4.1475 15.6875 6.1875 C0.1775 6.1875 -15.3325 6.1875 -31.3125 6.1875 C-30.9825 5.1975 -30.6525 4.2075 -30.3125 3.1875 C-20.71275657 -0.69158 -10.14893069 -0.17645489 0 0 Z " fill="#123670" transform="translate(171.3125,91.8125)"/>
<path d="M0 0 C6.71065351 0.50824024 12.29957949 2.97884417 18.4375 5.625 C19.49195313 6.07214355 20.54640625 6.51928711 21.6328125 6.97998047 C24.75974903 8.30969023 27.88095979 9.65188433 31 11 C31.88316895 11.3815625 32.76633789 11.763125 33.67626953 12.15625 C38.12649696 14.08412077 42.56760369 16.03149458 47 18 C45.68359375 19.5 45.68359375 19.5 44 21 C34.65526781 21 25.55679424 15.36531668 17.44921875 11.1875 C14.90413902 9.95352195 12.332398 8.93763868 9.6875 7.9375 C5.90430585 6.46592684 2.91416322 4.91416322 0 2 C0 1.34 0 0.68 0 0 Z " fill="#FDB017" transform="translate(352,15)"/>
<path d="M0 0 C-0.33 0.33 -0.66 0.66 -1 1 C13.85 1.33 28.7 1.66 44 2 C44 2.33 44 2.66 44 3 C33.1921055 3.2652074 22.38411757 3.52620932 11.57600307 3.78230286 C6.55363035 3.90142816 1.5312961 4.02183235 -3.4909668 4.14550781 C-26.99856501 4.7234064 -50.4843669 5.17563978 -74 5 C-74 4.67 -74 4.34 -74 4 C-61.63386049 2.88202249 -49.30727999 1.89441831 -36.88671875 1.97265625 C-36.12955566 1.97735931 -35.37239258 1.98206238 -34.59228516 1.98690796 C-30.88166898 2.0177206 -27.17310077 2.07581964 -23.46337891 2.16210938 C-16.58141178 2.28265402 -5.68116425 -1.89372142 0 0 Z " fill="#4478A6" transform="translate(130,115)"/>
<path d="M0 0 C1.43791516 0.14168137 2.8753237 0.28851043 4.3125 0.4375 C5.11300781 0.51871094 5.91351563 0.59992187 6.73828125 0.68359375 C9 1 9 1 12 2 C12.391875 2.763125 12.78375 3.52625 13.1875 4.3125 C16.31417342 8.94860197 21.23106184 10.4532373 26.4375 12.0625 C27.283125 12.371875 28.12875 12.68125 29 13 C29.33 13.99 29.66 14.98 30 16 C29.67 16.66 29.34 17.32 29 18 C25.08165565 17.37143878 21.85451551 16.16760882 18.26171875 14.49609375 C17.19501953 14.00302734 16.12832031 13.50996094 15.02929688 13.00195312 C13.92650391 12.48568359 12.82371094 11.96941406 11.6875 11.4375 C10.56537109 10.91736328 9.44324219 10.39722656 8.28710938 9.86132812 C5.52247049 8.57900626 2.76024234 7.29175153 0 6 C0 4.02 0 2.04 0 0 Z " fill="#F28A19" transform="translate(340,12)"/>
<path d="M0 0 C0.66 0.33 1.32 0.66 2 1 C1.28972656 1.34933594 0.57945312 1.69867188 -0.15234375 2.05859375 C-1.07144531 2.51363281 -1.99054688 2.96867187 -2.9375 3.4375 C-3.85402344 3.88996094 -4.77054687 4.34242187 -5.71484375 4.80859375 C-7.90528904 5.80525394 -7.90528904 5.80525394 -9 7 C-9.12396871 9.14668285 -9.1780072 11.29742387 -9.20532227 13.44750977 C-9.21522186 14.12065216 -9.22512146 14.79379456 -9.23532104 15.48733521 C-9.26701838 17.72198925 -9.29172574 19.95666458 -9.31640625 22.19140625 C-9.33696869 23.73697984 -9.35796496 25.28254772 -9.37937927 26.82810974 C-9.43467337 30.90350732 -9.48405013 34.97895625 -9.53222656 39.05444336 C-9.58238817 43.2101704 -9.63810204 47.36582252 -9.69335938 51.52148438 C-9.80103064 59.6809263 -9.90245552 67.84043076 -10 76 C-10.33 76 -10.66 76 -11 76 C-12.39803808 61.38443396 -12.11140702 46.72814579 -12.0625 32.0625 C-12.05747527 29.43294356 -12.05291408 26.80338619 -12.04882812 24.17382812 C-12.03789896 17.78253155 -12.02123794 11.3912702 -12 5 C-10.56328432 4.35242375 -9.12559584 3.70700547 -7.6875 3.0625 C-6.88699219 2.70285156 -6.08648437 2.34320313 -5.26171875 1.97265625 C-3 1 -3 1 0 0 Z " fill="#E34644" transform="translate(336,89)"/>
<path d="M0 0 C-0.33 0.66 -0.66 1.32 -1 2 C-4.16274947 2.26419148 -7.28138151 2.3667773 -10.453125 2.390625 C-12.72619632 2.43139829 -12.72619632 2.43139829 -16 3 C-16.39050537 3.66306152 -16.78101074 4.32612305 -17.18334961 5.00927734 C-19 7 -19 7 -22.82885742 7.45410156 C-24.42120166 7.45346902 -26.01363413 7.43091292 -27.60546875 7.390625 C-28.44467361 7.38496521 -29.28387848 7.37930542 -30.14851379 7.37347412 C-32.82875633 7.35108406 -35.50766163 7.30088453 -38.1875 7.25 C-40.00453798 7.22993832 -41.82159692 7.21168697 -43.63867188 7.1953125 C-48.09296312 7.15121086 -52.54625485 7.08216659 -57 7 C-54.01798423 5.01198948 -52.97022428 4.67949657 -49.5637207 4.31396484 C-48.66881424 4.21401215 -47.77390778 4.11405945 -46.85188293 4.01107788 C-45.88626938 3.91203156 -44.92065582 3.81298523 -43.92578125 3.7109375 C-42.92798141 3.60278717 -41.93018158 3.49463684 -40.90214539 3.38320923 C-38.78845338 3.15584667 -36.67432469 2.93251328 -34.55981445 2.71289062 C-31.34151596 2.37801918 -28.12485999 2.02994076 -24.90820312 1.6796875 C-22.85164651 1.46014912 -20.79500816 1.24137471 -18.73828125 1.0234375 C-17.78278885 0.92034271 -16.82729645 0.81724792 -15.84284973 0.71102905 C-10.52800886 0.16447793 -5.34280404 -0.10266334 0 0 Z " fill="#4A85B5" transform="translate(121,91)"/>
<path d="M0 0 C0 0.33 0 0.66 0 1 C-3.96 1.66 -7.92 2.32 -12 3 C-12.33 3.99 -12.66 4.98 -13 6 C-25.7155142 6.45502834 -38.34723748 5.11220075 -51 4 C-50.67 3.34 -50.34 2.68 -50 2 C-44.6474092 1.71143822 -39.29462999 1.42676525 -33.94165039 1.14550781 C-32.12518903 1.04954017 -30.30878096 0.95255761 -28.49243164 0.85449219 C-9.13453923 -0.18928963 -9.13453923 -0.18928963 0 0 Z " fill="#436FA0" transform="translate(118,137)"/>
<path d="M0 0 C0 0.66 0 1.32 0 2 C-0.969375 2.804375 -1.93875 3.60875 -2.9375 4.4375 C-6.19375327 6.70684377 -6.19375327 6.70684377 -7 10 C-7.10979527 11.59333643 -7.16603814 13.19065441 -7.18945312 14.78759766 C-7.20617065 15.75935944 -7.22288818 16.73112122 -7.2401123 17.73233032 C-7.25368774 18.78230194 -7.26726318 19.83227356 -7.28125 20.9140625 C-7.29965942 21.99827484 -7.31806885 23.08248718 -7.33703613 24.19955444 C-7.39583392 27.67464729 -7.44857594 31.14979071 -7.5 34.625 C-7.56801978 39.17978261 -7.64182162 43.73442271 -7.71875 48.2890625 C-7.73232544 49.32688873 -7.74590088 50.36471497 -7.7598877 51.43399048 C-7.85982284 57.3561112 -8.24771017 63.12406823 -9 69 C-11.31 69 -13.62 69 -16 69 C-16 68.67 -16 68.34 -16 68 C-14.02 68 -12.04 68 -10 68 C-10.00666183 67.30366455 -10.01332367 66.6073291 -10.02018738 65.88989258 C-10.08051607 59.29959592 -10.12608428 52.70937731 -10.15543652 46.11886597 C-10.1710346 42.73130428 -10.19216406 39.34397242 -10.22631836 35.95654297 C-10.26283475 32.05430097 -10.2797575 28.15238209 -10.29296875 24.25 C-10.30845261 23.04448486 -10.32393646 21.83896973 -10.33988953 20.59692383 C-10.34119662 14.01755689 -9.9532498 8.93021343 -7 3 C-4.53019987 1.07235112 -3.14167226 0 0 0 Z " fill="#3D83B6" transform="translate(198,15)"/>
<path d="M0 0 C0.99 0.33 1.98 0.66 3 1 C2.34 1 1.68 1 1 1 C1 31.36 1 61.72 1 93 C-1.97 92.01 -4.94 91.02 -8 90 C-8 89.34 -8 88.68 -8 88 C-6.02 88.33 -4.04 88.66 -2 89 C-1.34 59.63 -0.68 30.26 0 0 Z " fill="#E67C0E" transform="translate(303,91)"/>
<path d="M0 0 C3.57641765 0.58462191 6.40536462 1.53202825 9.609375 3.21484375 C10.44597656 3.65376953 11.28257812 4.09269531 12.14453125 4.54492188 C13.00433594 5.00447266 13.86414063 5.46402344 14.75 5.9375 C15.62527344 6.39318359 16.50054687 6.84886719 17.40234375 7.31835938 C23.87184123 10.74368246 23.87184123 10.74368246 25 13 C19.7079795 12.58220891 15.77047259 10.5181467 11.171875 8.05859375 C9.10305148 6.85395436 9.10305148 6.85395436 7 7 C6.34 12.61 5.68 18.22 5 24 C3 22 3 22 2.77294922 20.02880859 C2.78342285 19.24328613 2.79389648 18.45776367 2.8046875 17.6484375 C2.81113281 16.79765625 2.81757813 15.946875 2.82421875 15.0703125 C2.84097656 14.18085937 2.85773438 13.29140625 2.875 12.375 C2.88402344 11.4778125 2.89304688 10.580625 2.90234375 9.65625 C2.9259503 7.43723414 2.9588769 5.21874923 3 3 C2.34 3 1.68 3 1 3 C0.67 2.01 0.34 1.02 0 0 Z " fill="#FDEB31" transform="translate(234,62)"/>
<path d="M0 0 C7.15589679 -0.18322353 13.93967107 -0.35398286 20.890625 1.48828125 C24.54909186 2.37579821 28.25733758 2.64355596 32 3 C32 3.66 32 4.32 32 5 C33.32 5 34.64 5 36 5 C36 5.66 36 6.32 36 7 C23.68758399 7.78220055 11.72728001 4.43772657 0 1 C0 0.67 0 0.34 0 0 Z " fill="#FEED47" transform="translate(284,52)"/>
<path d="M0 0 C-0.71027344 0.39832031 -1.42054688 0.79664063 -2.15234375 1.20703125 C-3.07144531 1.73683594 -3.99054688 2.26664063 -4.9375 2.8125 C-5.85402344 3.33457031 -6.77054687 3.85664063 -7.71484375 4.39453125 C-10.284062 5.86140987 -10.284062 5.86140987 -11 9 C-20.9 10.485 -20.9 10.485 -31 12 C-31.33 11.34 -31.66 10.68 -32 10 C-27.76773443 8.4054038 -23.53192518 6.82077185 -19.29248047 5.24536133 C-17.85004894 4.70773958 -16.40863381 4.16738275 -14.96826172 3.62426758 C-12.90070929 2.84520016 -10.82973112 2.07596111 -8.7578125 1.30859375 C-8.11192169 1.06282089 -7.46603088 0.81704803 -6.80056763 0.56382751 C-2.22774341 -1.11387171 -2.22774341 -1.11387171 0 0 Z " fill="#D65A40" transform="translate(375,186)"/>
<path d="M0 0 C2.9375 0.375 2.9375 0.375 6 1 C6.495 1.99 6.495 1.99 7 3 C-0.61577188 3.02332525 -8.23153999 3.0410168 -15.84733963 3.05181217 C-19.38489304 3.05699733 -22.92242174 3.06401409 -26.45996094 3.07543945 C-30.54101783 3.08853548 -34.62204938 3.09326427 -38.703125 3.09765625 C-39.95361633 3.10281754 -41.20410767 3.10797882 -42.49249268 3.11329651 C-50.04677501 3.11377186 -57.48372774 2.76253212 -65 2 C-65 1.67 -65 1.34 -65 1 C-50.97318736 0.91310931 -36.96038591 1.18821756 -22.9375 1.5 C-20.70247756 1.5483441 -18.46745153 1.59652228 -16.23242188 1.64453125 C-10.82157174 1.76111228 -5.41076923 1.87972523 0 2 C0 1.34 0 0.68 0 0 Z " fill="#133062" transform="translate(281,193)"/>
<path d="M0 0 C3.98484488 0.66414081 7.51016972 1.85511824 11.25 3.375 C12.30703125 3.79523437 13.3640625 4.21546875 14.453125 4.6484375 C17 6 17 6 18 9 C17.67 9.66 17.34 10.32 17 11 C12.66695924 10.35534798 9.13327935 8.81074878 5.1875 6.9375 C4.02605469 6.38964844 2.86460937 5.84179688 1.66796875 5.27734375 C0.34732422 4.64505859 0.34732422 4.64505859 -1 4 C-0.67 2.68 -0.34 1.36 0 0 Z " fill="#E67B17" transform="translate(352,19)"/>
<path d="M0 0 C-0.33 0.66 -0.66 1.32 -1 2 C-3.984375 2.6328125 -3.984375 2.6328125 -7.75 3.125 C-8.98234375 3.29257813 -10.2146875 3.46015625 -11.484375 3.6328125 C-14.36546366 3.9337262 -17.10921414 4.07723474 -20 4 C-20 3.67 -20 3.34 -20 3 C-33.86 2.505 -33.86 2.505 -48 2 C-48 1.67 -48 1.34 -48 1 C-14.49821699 -0.19388403 -14.49821699 -0.19388403 0 0 Z " fill="#5F7DA8" transform="translate(531,201)"/>
<path d="M0 0 C-1.86967605 0.98929461 -3.74601378 1.96600469 -5.625 2.9375 C-6.66914063 3.48277344 -7.71328125 4.02804688 -8.7890625 4.58984375 C-11.98141267 5.99183695 -14.57335913 6.46762423 -18 7 C-21.05354171 7.88325883 -24.05529877 8.90878555 -27.0625 9.9375 C-27.85205078 10.20240234 -28.64160156 10.46730469 -29.45507812 10.74023438 C-32.63651013 11.81493437 -35.73995228 12.88390081 -38.80859375 14.25390625 C-41.36587193 15.12456602 -42.46590621 14.74352457 -45 14 C-44.46745605 13.8141333 -43.93491211 13.6282666 -43.38623047 13.43676758 C-30.33600279 8.88120151 -30.33600279 8.88120151 -17.3125 4.25 C-15.20841113 3.49978177 -13.10425233 2.74975961 -11 2 C-10.08089844 1.66742188 -9.16179687 1.33484375 -8.21484375 0.9921875 C-2.22813953 -1.11406977 -2.22813953 -1.11406977 0 0 Z " fill="#A40D0F" transform="translate(380,163)"/>
<path d="M0 0 C-0.33 0.33 -0.66 0.66 -1 1 C13.85 1.33 28.7 1.66 44 2 C44 2.33 44 2.66 44 3 C25.52 3 7.04 3 -12 3 C-11 1 -11 1 -9.2578125 0.33203125 C-8.55398437 0.16058594 -7.85015625 -0.01085937 -7.125 -0.1875 C-6.42632812 -0.36667969 -5.72765625 -0.54585938 -5.0078125 -0.73046875 C-3 -1 -3 -1 0 0 Z " fill="#53719A" transform="translate(130,115)"/>
<path d="M0 0 C8.58 0 17.16 0 26 0 C20.99283616 2.50358192 18.02402082 3.15597582 12.5 3.125 C11.81035156 3.12886719 11.12070312 3.13273438 10.41015625 3.13671875 C5.25333293 3.12666646 5.25333293 3.12666646 3 2 C3 2.66 3 3.32 3 4 C0.36 4 -2.28 4 -5 4 C-5 3.67 -5 3.34 -5 3 C-2.69 3 -0.38 3 2 3 C2 2.34 2 1.68 2 1 C1.34 0.67 0.68 0.34 0 0 Z " fill="#092A64" transform="translate(489,203)"/>
<path d="M0 0 C1.18239258 0.01353516 1.18239258 0.01353516 2.38867188 0.02734375 C4.32174666 0.05077496 6.2546638 0.08664162 8.1875 0.125 C1.87205288 4.33529808 -3.84460098 4.38617359 -11.1875 4.25 C-12.57775391 4.23646484 -12.57775391 4.23646484 -13.99609375 4.22265625 C-16.26850077 4.19922937 -18.5403618 4.16642748 -20.8125 4.125 C-20.8125 3.795 -20.8125 3.465 -20.8125 3.125 C-19.760625 3.00125 -18.70875 2.8775 -17.625 2.75 C-13.99716607 2.33436465 -13.99716607 2.33436465 -11.625 1.09375 C-7.71309721 -0.25368318 -4.10295014 -0.08941886 0 0 Z " fill="#0F427D" transform="translate(118.8125,113.875)"/>
<path d="M0 0 C0 0.66 0 1.32 0 2 C0.99 2.33 1.98 2.66 3 3 C1.88625 2.855625 0.7725 2.71125 -0.375 2.5625 C-1.10976563 2.47484375 -1.84453125 2.3871875 -2.6015625 2.296875 C-4.18270983 2.10116295 -5.76125011 1.8828846 -7.3359375 1.640625 C-16.67481373 0.37126318 -25.56707681 1.78353841 -34 6 C-34.99 5.01 -35.98 4.02 -37 3 C-25.45517977 -0.05937736 -11.84396159 -3.62218243 0 0 Z " fill="#FEC00D" transform="translate(306,45)"/>
<path d="M0 0 C0.99 0.33 1.98 0.66 3 1 C3.10841951 2.91541138 3.18578079 4.83259773 3.25 6.75 C3.29640625 7.81734375 3.3428125 8.8846875 3.390625 9.984375 C2.91735478 13.63802112 1.80844958 14.72228105 -1 17 C-1.02691685 14.54159395 -1.04679802 12.08348118 -1.0625 9.625 C-1.07087891 8.92632812 -1.07925781 8.22765625 -1.08789062 7.5078125 C-1.11328125 2.2265625 -1.11328125 2.2265625 0 0 Z " fill="#DE7714" transform="translate(420,149)"/>
<path d="M0 0 C0 0.33 0 0.66 0 1 C-0.98742187 1.03738281 -1.97484375 1.07476562 -2.9921875 1.11328125 C-4.91417969 1.21189453 -4.91417969 1.21189453 -6.875 1.3125 C-8.15117187 1.37050781 -9.42734375 1.42851563 -10.7421875 1.48828125 C-11.81726563 1.65714844 -12.89234375 1.82601562 -14 2 C-14.99 3.485 -14.99 3.485 -16 5 C-19.2578125 5.29296875 -19.2578125 5.29296875 -23.125 5.1875 C-25.04699219 5.14689453 -25.04699219 5.14689453 -27.0078125 5.10546875 C-27.99523437 5.07066406 -28.98265625 5.03585938 -30 5 C-29 3 -29 3 -26.62109375 2.1484375 C-17.59233762 -0.04505172 -9.21490288 -0.31938688 0 0 Z " fill="#184F89" transform="translate(170,92)"/>
<path d="M0 0 C2.3125 -0.1875 2.3125 -0.1875 5 0 C6.625 1.4375 6.625 1.4375 8 3 C8.99 3.33 9.98 3.66 11 4 C11 4.66 11 5.32 11 6 C12.98 6 14.96 6 17 6 C17.33 6.99 17.66 7.98 18 9 C18.99 9.66 19.98 10.32 21 11 C19.35 11.66 17.7 12.32 16 13 C16 11.35 16 9.7 16 8 C15.21625 7.95875 14.4325 7.9175 13.625 7.875 C8.49140154 6.63585554 4.31758632 4.00353831 0 1 C0 0.67 0 0.34 0 0 Z " fill="#FDC416" transform="translate(316,53)"/>
<path d="M0 0 C0 0.66 0 1.32 0 2 C-6.340671 6.57118142 -12.31796353 6.76896131 -20 7 C-16.73726211 4.82484141 -13.69089287 3.68988059 -10 2.375 C-8.14375 1.70597656 -8.14375 1.70597656 -6.25 1.0234375 C-3 0 -3 0 0 0 Z " fill="#E47D31" transform="translate(412,172)"/>
<path d="M0 0 C0 0.33 0 0.66 0 1 C-0.85464844 1.13277344 -1.70929688 1.26554688 -2.58984375 1.40234375 C-3.69457031 1.57894531 -4.79929687 1.75554687 -5.9375 1.9375 C-7.03964844 2.11152344 -8.14179687 2.28554687 -9.27734375 2.46484375 C-11.90426929 2.71845136 -11.90426929 2.71845136 -13 4 C-15.33297433 4.04092937 -17.66705225 4.04241723 -20 4 C-20 3.67 -20 3.34 -20 3 C-22.64 2.67 -25.28 2.34 -28 2 C-28 1.67 -28 1.34 -28 1 C-18.6587308 0.38673965 -9.36749815 -0.1820896 0 0 Z " fill="#5F8BB5" transform="translate(118,137)"/>
<path d="M0 0 C-0.99 1.485 -0.99 1.485 -2 3 C-4.15478516 3.34057617 -4.15478516 3.34057617 -6.7890625 3.29296875 C-7.73007812 3.28330078 -8.67109375 3.27363281 -9.640625 3.26367188 C-10.62546875 3.23853516 -11.6103125 3.21339844 -12.625 3.1875 C-14.11386719 3.16719727 -14.11386719 3.16719727 -15.6328125 3.14648438 C-18.08908072 3.11105743 -20.54427285 3.06166196 -23 3 C-23 2.67 -23 2.34 -23 2 C-7.25512528 -0.29612756 -7.25512528 -0.29612756 0 0 Z " fill="#3B82B9" transform="translate(41,116)"/>
<path d="M0 0 C10.55808656 -0.55353075 10.55808656 -0.55353075 15 3 C11.81175432 4.59412284 8.37103338 4.10174735 4.875 4.0625 C4.12089844 4.05798828 3.36679687 4.05347656 2.58984375 4.04882812 C0.72652873 4.03703499 -1.13674555 4.01909942 -3 4 C-3 3.34 -3 2.68 -3 2 C-2.01 2 -1.02 2 0 2 C0 1.34 0 0.68 0 0 Z " fill="#FFEB2A" transform="translate(285,49)"/>
<path d="M0 0 C6.75 0.875 6.75 0.875 9 2 C9.72693904 3.97888961 10.39816251 5.97954558 11 8 C6.51400257 6.74809374 3.40652872 5.20614467 0 2 C0 1.34 0 0.68 0 0 Z " fill="#F99D19" transform="translate(352,15)"/>
<path d="M0 0 C-0.71027344 0.34933594 -1.42054688 0.69867188 -2.15234375 1.05859375 C-3.07144531 1.51363281 -3.99054688 1.96867187 -4.9375 2.4375 C-5.85402344 2.88996094 -6.77054687 3.34242187 -7.71484375 3.80859375 C-9.90528904 4.80525394 -9.90528904 4.80525394 -11 6 C-11.03173414 8.7835375 -10.93159925 11.55391063 -10.83984375 14.3359375 C-11 17 -11 17 -13 20 C-13 14.39 -13 8.78 -13 3 C-2.25 -1.125 -2.25 -1.125 0 0 Z " fill="#E52F2C" transform="translate(338,90)"/>
<path d="M0 0 C-0.33 0.66 -0.66 1.32 -1 2 C-4.63043751 3.16447996 -8.30356797 4.07589199 -12 5 C-12.99 5.33 -13.98 5.66 -15 6 C-15.66 5.34 -16.32 4.68 -17 4 C-15.33333333 3.33333333 -13.66666667 2.66666667 -12 2 C-10.824375 1.443125 -10.824375 1.443125 -9.625 0.875 C-6.33329436 -0.22223521 -3.44580023 -0.13512942 0 0 Z " fill="#D0530C" transform="translate(403,178)"/>
<path d="M0 0 C3.82097239 0.53069061 6.06171403 1.49701566 9 4 C5.88228073 5.60339848 4.60988311 6.18974141 1.1875 5.125 C0.465625 4.75375 -0.25625 4.3825 -1 4 C-0.67 2.68 -0.34 1.36 0 0 Z " fill="#DF7112" transform="translate(352,19)"/>
<path d="M0 0 C-0.71027344 0.39832031 -1.42054688 0.79664063 -2.15234375 1.20703125 C-3.07144531 1.73683594 -3.99054688 2.26664063 -4.9375 2.8125 C-5.85402344 3.33457031 -6.77054687 3.85664063 -7.71484375 4.39453125 C-10.284062 5.86140987 -10.284062 5.86140987 -11 9 C-11.99 8.67 -12.98 8.34 -14 8 C-14 7.01 -14 6.02 -14 5 C-2.97297297 -1.48648649 -2.97297297 -1.48648649 0 0 Z " fill="#DC6133" transform="translate(375,186)"/>
<path d="M0 0 C-0.99 1.485 -0.99 1.485 -2 3 C-4.77262255 3.38394667 -7.34323528 3.60342248 -10.125 3.6875 C-10.87910156 3.72166016 -11.63320312 3.75582031 -12.41015625 3.79101562 C-14.27291201 3.87354278 -16.13643326 3.93844711 -18 4 C-18 3.67 -18 3.34 -18 3 C-16.948125 2.87625 -15.89625 2.7525 -14.8125 2.625 C-11.13854565 2.17182759 -11.13854565 2.17182759 -8.4375 0.9375 C-5.5087509 -0.18894196 -3.11110233 -0.14470243 0 0 Z " fill="#0F4D88" transform="translate(116,114)"/>
<path d="M0 0 C0.33 0.99 0.66 1.98 1 3 C3.31 3 5.62 3 8 3 C5.48528134 5.51471866 3.43183318 6.15955106 0 7 C-0.99 6.34 -1.98 5.68 -3 5 C-3 4.34 -3 3.68 -3 3 C-2.34 3 -1.68 3 -1 3 C-0.67 2.01 -0.34 1.02 0 0 Z " fill="#B63939" transform="translate(329,180)"/>
<path d="M0 0 C0 0.66 0 1.32 0 2 C-1.50197356 3.24076077 -3.00612315 4.47921817 -4.53125 5.69140625 C-6.28660135 7.25534961 -7.18614864 8.80260134 -8 11 C-8.6875 9.3125 -8.6875 9.3125 -9 7 C-7.68187177 4.08624285 -6.64990079 2.41357323 -3.9375 0.6875 C-2 0 -2 0 0 0 Z " fill="#3883B7" transform="translate(198,15)"/>
<path d="M0 0 C2.97 0 5.94 0 9 0 C8.67 0.66 8.34 1.32 8 2 C3.19396481 3.55033393 -2.00819059 3.0872355 -7 3 C-7 2.67 -7 2.34 -7 2 C-4.69 2 -2.38 2 0 2 C0 1.34 0 0.68 0 0 Z " fill="#274781" transform="translate(258,6)"/>
<path d="M0 0 C1.08667969 0.02707031 2.17335938 0.05414063 3.29296875 0.08203125 C4.54013672 0.13423828 4.54013672 0.13423828 5.8125 0.1875 C1.95344051 2.11702974 -0.44882535 3.31233821 -4.8125 3.25 C-6.03839844 3.23646484 -6.03839844 3.23646484 -7.2890625 3.22265625 C-8.22878906 3.20525391 -8.22878906 3.20525391 -9.1875 3.1875 C-6.54246503 -0.34849411 -4.24021315 -0.13678107 0 0 Z " fill="#2E4B7D" transform="translate(509.1875,202.8125)"/>
<path d="M0 0 C0.66 0.33 1.32 0.66 2 1 C1.030625 1.61875 0.06125 2.2375 -0.9375 2.875 C-4.02835362 4.65678846 -4.02835362 4.65678846 -5 7 C-6.97888961 7.72693904 -8.97954558 8.39816251 -11 9 C-9.56284053 5.35242679 -7.92288356 4.02674425 -4.5 2.1875 C-3.7059375 1.74792969 -2.911875 1.30835938 -2.09375 0.85546875 C-1.4028125 0.57316406 -0.711875 0.29085937 0 0 Z " fill="#CF450F" transform="translate(375,185)"/>
<path d="M0 0 C0.56203125 0.32742187 1.1240625 0.65484375 1.703125 0.9921875 C4.26859964 2.11785494 5.96842277 2.2068111 8.75 2.125 C9.94882812 2.09792969 9.94882812 2.09792969 11.171875 2.0703125 C12.07679688 2.03550781 12.07679688 2.03550781 13 2 C10.02534237 3.70754834 7.86139168 4.27317355 4.4375 4.25 C3.29087891 4.25773437 3.29087891 4.25773437 2.12109375 4.265625 C0 4 0 4 -3 2 C-2.01 2 -1.02 2 0 2 C0 1.34 0 0.68 0 0 Z " fill="#FDDF4B" transform="translate(310,66)"/>
<path d="M0 0 C1.65 0.33 3.3 0.66 5 1 C5 1.66 5 2.32 5 3 C-2.42857143 5.42857143 -2.42857143 5.42857143 -6 4 C-4.35 3.67 -2.7 3.34 -1 3 C-0.67 2.01 -0.34 1.02 0 0 Z " fill="#CD653A" transform="translate(371,189)"/>
<path d="M0 0 C2.97 0.33 5.94 0.66 9 1 C9 1.66 9 2.32 9 3 C10.32 3.33 11.64 3.66 13 4 C8.17639811 4.19294408 4.50353262 3.75747614 0 2 C0 1.34 0 0.68 0 0 Z " fill="#FFE837" transform="translate(307,54)"/>
<path d="M0 0 C1.32 0 2.64 0 4 0 C4 0.99 4 1.98 4 3 C4.99 3.66 5.98 4.32 7 5 C2.72290301 5 1.44069624 4.29379749 -2 2 C-1.34 1.34 -0.68 0.68 0 0 Z " fill="#FBB52C" transform="translate(252,45)"/>
<path d="M0 0 C0.33 0.99 0.66 1.98 1 3 C1.66 3.33 2.32 3.66 3 4 C3 4.66 3 5.32 3 6 C-2.75 4.125 -2.75 4.125 -5 3 C-5 2.34 -5 1.68 -5 1 C-3 0 -3 0 0 0 Z " fill="#DF7827" transform="translate(363,23)"/>
<path d="M0 0 C2.64 0.33 5.28 0.66 8 1 C6.68 1.33 5.36 1.66 4 2 C4 2.99 4 3.98 4 5 C2.68 4.67 1.36 4.34 0 4 C0 2.68 0 1.36 0 0 Z " fill="#2E5A90" transform="translate(205,210)"/>
<path d="M0 0 C2.64 0.33 5.28 0.66 8 1 C8.33 2.32 8.66 3.64 9 5 C6.03 4.01 3.06 3.02 0 2 C0 1.34 0 0.68 0 0 Z " fill="#E5812E" transform="translate(295,179)"/>
<path d="M0 0 C3.96 0.33 7.92 0.66 12 1 C12 1.33 12 1.66 12 2 C7.38 2.33 2.76 2.66 -2 3 C-1.34 2.01 -0.68 1.02 0 0 Z " fill="#5D749B" transform="translate(303,229)"/>
<path d="M0 0 C2.00720923 0.28674418 4.0085944 0.61866701 6 1 C6 1.66 6 2.32 6 3 C2.37 3 -1.26 3 -5 3 C-3.68 2.34 -2.36 1.68 -1 1 C-0.67 0.67 -0.34 0.34 0 0 Z " fill="#143C70" transform="translate(445,210)"/>
<path d="M0 0 C3.3 0 6.6 0 10 0 C10 0.66 10 1.32 10 2 C10.99 2.33 11.98 2.66 13 3 C8.62065881 2.48041715 4.31196609 1.94324258 0 1 C0 0.67 0 0.34 0 0 Z " fill="#FECD16" transform="translate(296,45)"/>
<path d="M0 0 C-3.08888522 2.05925681 -3.70935927 2.2390374 -7.1875 2.125 C-9.0746875 2.063125 -9.0746875 2.063125 -11 2 C-10.67 1.34 -10.34 0.68 -10 0 C-6.35526801 -0.89093449 -3.57257469 -1.23666047 0 0 Z " fill="#374D76" transform="translate(240,33)"/>
<path d="M0 0 C2.31 0.33 4.62 0.66 7 1 C6.67 1.99 6.34 2.98 6 4 C4.02 3.34 2.04 2.68 0 2 C0 1.34 0 0.68 0 0 Z " fill="#F29C21" transform="translate(258,50)"/>
<path d="M0 0 C-2.31856917 1.54571278 -4.50638429 2.79618552 -7 4 C-7.99 3.01 -8.98 2.02 -10 1 C-6.78548731 -0.60725635 -3.56387464 -0.05748185 0 0 Z " fill="#FDCE0B" transform="translate(279,47)"/>
</svg>
