<?xml version="1.0" encoding="UTF-8"?>
<svg version="1.1" xmlns="http://www.w3.org/2000/svg" width="339" height="266">
<path d="M0 0 C2.74071507 1.75831264 3.35892962 2.99137097 5 6 C4.6171875 9.71484375 4.6171875 9.71484375 4 13 C3.14994385 13.21615967 2.2998877 13.43231934 1.42407227 13.6550293 C-1.82152677 14.48196848 -5.06637105 15.31176224 -8.31079102 16.14331055 C-9.69788176 16.498244 -11.08523984 16.85213485 -12.47290039 17.20483398 C-20.36757623 19.21224701 -28.21804209 21.32135106 -36.02758789 23.63989258 C-36.80032295 23.86827065 -37.57305801 24.09664871 -38.36920929 24.33194733 C-40.24644945 24.8869176 -42.12327007 25.44330672 -44 26 C-44.20877648 36.83097034 -44.36856776 47.66146011 -44.46630955 58.49403477 C-44.51322846 63.52449811 -44.57683448 68.55358237 -44.67895508 73.58325195 C-44.77694112 78.43982871 -44.83059749 83.29508161 -44.85389519 88.15257072 C-44.87049098 90.00306986 -44.90290187 91.85349861 -44.95157051 93.70343208 C-45.55319823 103.65199581 -45.55319823 103.65199581 -42.12889099 112.60488892 C-39.83250605 114.4275905 -37.63504183 115.72923406 -35 117 C-34.02667725 117.67063477 -33.05335449 118.34126953 -32.05053711 119.03222656 C-31.2178833 119.56299805 -30.38522949 120.09376953 -29.52734375 120.640625 C-28.60888672 121.23617187 -27.69042969 121.83171875 -26.74414062 122.4453125 C-24.84105985 123.66900535 -22.93469285 124.88759972 -21.02539062 126.1015625 C-20.11853516 126.69195312 -19.21167969 127.28234375 -18.27734375 127.890625 C-17.45484131 128.41688477 -16.63233887 128.94314453 -15.78491211 129.48535156 C-15.19589111 129.98518555 -14.60687012 130.48501953 -14 131 C-14 131.99 -14 132.98 -14 134 C-18.44814974 133.95567898 -22.89495351 133.88567364 -27.34228516 133.79248047 C-28.85323938 133.76436218 -30.36433821 133.74310229 -31.87548828 133.72900391 C-34.05576103 133.70744551 -36.23431219 133.66073684 -38.4140625 133.609375 C-39.7232666 133.58842773 -41.0324707 133.56748047 -42.38134766 133.54589844 C-47.90222074 132.713037 -51.92651436 129.81240116 -55.25 125.375 C-58.23752939 120.59998813 -58.6844051 116.14511325 -59.171875 110.6640625 C-59.2548584 109.82979736 -59.3378418 108.99553223 -59.42333984 108.13598633 C-59.62529113 106.09159546 -59.81398465 104.0459024 -60 102 C-65.51330605 101.30461081 -71.02682089 100.61090845 -76.54052734 99.91870117 C-78.41232904 99.68347648 -80.28407504 99.44780809 -82.15576172 99.21166992 C-84.86150468 98.87038554 -87.56745057 98.5307502 -90.2734375 98.19140625 C-91.09677582 98.08719864 -91.92011414 97.98299103 -92.7684021 97.87562561 C-93.96851425 97.72558327 -93.96851425 97.72558327 -95.19287109 97.57250977 C-95.97442566 97.47455109 -96.75598022 97.37659241 -97.56121826 97.27566528 C-99.29104418 97.08013612 -101.02455505 96.9160537 -102.75958252 96.77389526 C-103.65828064 96.70018707 -104.55697876 96.62647888 -105.48291016 96.55053711 C-106.300065 96.49167831 -107.11721985 96.43281952 -107.95913696 96.37217712 C-110 96 -110 96 -112 94 C-105.7382462 93.42528982 -99.47599627 92.85623727 -93.21337891 92.29101562 C-91.08533231 92.09829176 -88.95740026 91.90429856 -86.82958984 91.70898438 C-83.76168979 91.42760468 -80.69339953 91.15087308 -77.625 90.875 C-76.21045532 90.74375732 -76.21045532 90.74375732 -74.76733398 90.60986328 C-69.48585129 90.14008308 -64.30234342 89.91307634 -59 90 C-59.33 86.7 -59.66 83.4 -60 80 C-61.52471924 80.06058594 -63.04943848 80.12117188 -64.62036133 80.18359375 C-70.41850135 80.41255597 -76.21689595 80.63445288 -82.01538086 80.85449219 C-84.49852535 80.94964773 -86.98160256 81.04657966 -89.46459961 81.14550781 C-106.98523683 81.84192738 -124.46561587 82.13806915 -142 82 C-138.65874763 80.0835082 -135.55063624 79.41990164 -131.76611328 78.77905273 C-130.50445343 78.56220322 -129.24279358 78.3453537 -127.94290161 78.12193298 C-126.56872815 77.89234938 -125.19453119 77.66290642 -123.8203125 77.43359375 C-122.405413 77.19277918 -120.99060915 76.95140198 -119.57589722 76.70948792 C-115.85390763 76.07459794 -112.13066241 75.44739416 -108.40710449 74.82177734 C-104.63128736 74.18597781 -100.85671804 73.54286041 -97.08203125 72.90039062 C-87.39043732 71.25248779 -77.69694448 69.61615741 -68 68 C-82.85 67.67 -97.7 67.34 -113 67 C-113 66.34 -113 65.68 -113 65 C-108.49791758 64.20106838 -103.9956447 63.40322134 -99.49316406 62.60653687 C-97.91924825 62.32803895 -96.34535487 62.04941425 -94.77148438 61.7706604 C-85.14218699 60.06609767 -75.51320233 58.36682853 -65.85205078 56.8503418 C-62.31696047 56.29066579 -62.31696047 56.29066579 -59 55 C-58.99589111 53.78417236 -58.99178223 52.56834473 -58.98754883 51.31567383 C-58.9657433 46.7958767 -58.91143887 42.27694837 -58.84741211 37.75756836 C-58.82424449 35.80322611 -58.80983929 33.84875923 -58.80444336 31.89428711 C-58.79514468 29.08107957 -58.75413525 26.26982888 -58.70703125 23.45703125 C-58.7109639 22.58601273 -58.71489655 21.7149942 -58.71894836 20.81758118 C-58.61884604 16.63640375 -58.3752035 14.54214387 -55.94506836 11.03076172 C-52.45730168 8.62578425 -49.27200155 7.74822755 -45.171875 7.05078125 C-44.42343323 6.90722702 -43.67499146 6.76367279 -42.90386963 6.61576843 C-40.52225391 6.16301352 -38.13676606 5.73717343 -35.75 5.3125 C-34.16242043 5.01679346 -32.57517566 4.71928347 -30.98828125 4.41992188 C-27.96855787 3.85138031 -24.94734818 3.29210033 -21.92480469 2.73876953 C-18.8276631 2.15579177 -15.75840637 1.52884018 -12.6875 0.82421875 C-8.34881935 -0.14554991 -4.39272309 -0.95825813 0 0 Z " fill="#23518D" transform="translate(176,0)"/>
<path d="M0 0 C1.32 0.66 2.64 1.32 4 2 C4.99261372 4.97784116 5.10255355 6.82677767 5.0534668 9.92700195 C5.0398259 10.92846756 5.026185 11.92993317 5.01213074 12.96174622 C4.99136978 14.04300278 4.97060883 15.12425934 4.94921875 16.23828125 C4.9303511 17.35180466 4.91148346 18.46532806 4.89204407 19.6125946 C4.85014223 21.97054018 4.80540288 24.32843676 4.75805664 26.6862793 C4.68798644 30.28749961 4.63355965 33.88873436 4.58007812 37.49023438 C4.5374173 39.78126806 4.49382782 42.07228467 4.44921875 44.36328125 C4.43453049 45.43846512 4.41984222 46.51364899 4.40470886 47.62141418 C4.12268102 59.96515883 4.12268102 59.96515883 -0.24780273 64.15478516 C-4.76897049 67.18600896 -9.48583185 69.79483513 -14.26586914 72.39306641 C-16.06934497 73.37874106 -17.85944393 74.38631273 -19.65039062 75.39453125 C-21.35678711 76.32458984 -21.35678711 76.32458984 -23.09765625 77.2734375 C-24.13414307 77.84497559 -25.17062988 78.41651367 -26.23852539 79.00537109 C-27.14981201 79.33359863 -28.06109863 79.66182617 -29 80 C-30.32 79.34 -31.64 78.68 -33 78 C-33 57.87 -33 37.74 -33 17 C-10 5 -10 5 0 0 Z " fill="#C60D11" transform="translate(211,46)"/>
<path d="M0 0 C4.02058602 -0.11686443 8.04073082 -0.18747388 12.0625 -0.25 C13.7630957 -0.30027344 13.7630957 -0.30027344 15.49804688 -0.3515625 C22.26045088 -0.43042435 26.55462355 -0.14387164 32 4 C36.6045313 9.43098564 36.59849269 14.62744218 36.390625 21.61328125 C35.63607999 28.1551865 33.00258037 32.71207397 28 37 C28.78375 37.721875 29.5675 38.44375 30.375 39.1875 C35.37050085 44.53982234 35.44450999 49.63139145 35.30859375 56.70703125 C34.61064884 64.15472183 31.67060128 69.07255675 25.9765625 73.80859375 C21.48440147 76.51631927 17.12440542 77.24870521 11.9453125 77.1953125 C10.28242187 77.18564453 10.28242187 77.18564453 8.5859375 77.17578125 C6.87277344 77.15064453 6.87277344 77.15064453 5.125 77.125 C3.9596875 77.11597656 2.794375 77.10695313 1.59375 77.09765625 C-1.27104577 77.07417432 -4.13541535 77.04133141 -7 77 C-6.36570613 62.74968895 -5.14993509 48.56608965 -3.84326172 34.36328125 C-3.49621234 30.58375058 -3.15603018 26.8036419 -2.81640625 23.0234375 C-2.59675962 20.6119422 -2.37672221 18.20048246 -2.15625 15.7890625 C-2.05517944 14.66311676 -1.95410889 13.53717102 -1.84997559 12.37710571 C-1.75317505 11.33436493 -1.65637451 10.29162415 -1.55664062 9.21728516 C-1.47305298 8.3033902 -1.38946533 7.38949524 -1.30334473 6.44790649 C-1.02789611 4.22511373 -0.59900349 2.1553359 0 0 Z M10 14 C9.66507287 16.45812591 9.3319903 18.91647727 9 21.375 C8.90460937 22.07367188 8.80921875 22.77234375 8.7109375 23.4921875 C8.18650168 27.23283778 8.18650168 27.23283778 8 31 C9.91541138 31.10841951 11.83259773 31.18578079 13.75 31.25 C15.35101563 31.31960937 15.35101563 31.31960937 16.984375 31.390625 C20.09261356 31.24956192 20.09261356 31.24956192 22.3359375 29.1640625 C24.49196703 26.36021189 24.85901052 24.52473703 25 21 C24.30059064 17.73185596 24.30059064 17.73185596 23 15 C20.35541621 13.67770811 18.32238699 13.90322806 15.375 13.9375 C13.87066406 13.95103516 13.87066406 13.95103516 12.3359375 13.96484375 C11.17964844 13.98224609 11.17964844 13.98224609 10 14 Z M7 44 C6.34 49.94 5.68 55.88 5 62 C8.34125 62.12375 8.34125 62.12375 11.75 62.25 C13.62945313 62.31960937 13.62945313 62.31960937 15.546875 62.390625 C19.04030419 62.29546642 19.04030419 62.29546642 21.3984375 60.1640625 C23.4777363 57.3544734 23.86056372 55.48590702 24 52 C23.12577028 48.17614457 23.12577028 48.17614457 21 45 C18.65012738 44.76472227 16.29443961 44.58613583 13.9375 44.4375 C11.648125 44.293125 9.35875 44.14875 7 44 Z " fill="#2467A2" transform="translate(7,167)"/>
<path d="M0 0 C5.57663746 3.04314521 10.68259699 6.50880686 15.8125 10.25 C16.55564453 10.78496094 17.29878906 11.31992187 18.06445312 11.87109375 C19.54919241 12.94788141 21.02198981 14.04137771 22.4808197 15.15301514 C24.96552093 17.03045431 24.96552093 17.03045431 27.60902405 18.58599854 C31.66542017 21.2709189 34.52242393 23.30474434 35.87562561 28.10821533 C36.15695599 31.8914517 36.12536181 35.55295326 35.9765625 39.34375 C35.95787947 40.72231891 35.94365983 42.10095484 35.9336853 43.47961426 C35.89574361 47.08503928 35.7977569 50.68634814 35.68664551 54.29016113 C35.58380529 57.97672843 35.53856309 61.66397017 35.48828125 65.3515625 C35.38146361 72.56957256 35.21111969 79.78420675 35 87 C30.73094208 86.26812341 28.38861835 85.09741173 24.9375 82.4375 C20.07988642 78.77792319 15.11398592 75.37498942 10.01953125 72.0546875 C9.02308594 71.37664062 8.02664062 70.69859375 7 70 C5.94897095 69.44010376 5.94897095 69.44010376 4.87670898 68.86889648 C2.46569022 67.42751786 0.78158299 66.1806296 -1 64 C-2.05439418 59.74933808 -1.792373 55.66220141 -1.5625 51.3125 C-1.52898437 50.06766846 -1.49546875 48.82283691 -1.4609375 47.5402832 C-1.38351682 44.8270553 -1.29151075 42.11869121 -1.17626953 39.40722656 C-0.97977504 34.70752354 -0.85990143 30.00701782 -0.74609375 25.3046875 C-0.5366676 16.86834213 -0.28126655 8.43425624 0 0 Z " fill="#FCAD13" transform="translate(137,38)"/>
<path d="M0 0 C5.17387987 1.9251646 7.62088241 6.23261437 10 11 C13.65650953 23.56589523 11.18091022 38.19563426 5.125 49.5 C0.99008754 54.36460289 -2.75438439 57.63257182 -9.3125 58.375 C-13 58 -13 58 -19 53 C-19.99 61.58 -20.98 70.16 -22 79 C-25.63 79 -29.26 79 -33 79 C-33.15475056 70.18300382 -32.55123713 61.55038814 -31.72265625 52.77734375 C-31.59020749 51.3405703 -31.45808763 49.90376649 -31.32627869 48.4669342 C-31.0512123 45.48065895 -30.7726593 42.49473657 -30.49145508 39.5090332 C-30.13101421 35.67964381 -29.77879863 31.84954983 -29.42903996 28.01917171 C-29.15838087 25.06358375 -28.88379742 22.10837084 -28.60796928 19.15326118 C-28.47646213 17.73993997 -28.346101 16.32651163 -28.21690559 14.91297722 C-28.03665276 12.94804779 -27.8506234 10.98365083 -27.66430664 9.01928711 C-27.5599379 7.90218857 -27.45556915 6.78509003 -27.34803772 5.63414001 C-27 3 -27 3 -26 1 C-22.37 1 -18.74 1 -15 1 C-15 2.32 -15 3.64 -15 5 C-14.21625 4.360625 -13.4325 3.72125 -12.625 3.0625 C-8.4648108 -0.20622009 -5.19841815 -0.52184893 0 0 Z M-14 16 C-17.93141736 22.61999955 -18.95033589 29.42107125 -18 37 C-17.19179214 40.62737571 -17.19179214 40.62737571 -15 43 C-11.64982715 44.41909682 -11.64982715 44.41909682 -8 44 C-2.93342914 40.54551987 -1.21548519 35.79475496 0 30 C0.69192663 24.24658267 0.26923352 19.96439164 -3 15 C-7.5087442 11.99417053 -9.95076976 12.64210176 -14 16 Z " fill="#CC1B1D" transform="translate(192,187)"/>
<path d="M0 0 C1.29233853 1.9385078 2.52697141 3.91732061 3.6875 5.9375 C6.64662779 9.85634491 10.07219877 12.49337516 14.96061707 13.33926392 C17.130253 13.44347533 19.25713461 13.41419747 21.42773438 13.33203125 C22.24686058 13.31614456 23.06598679 13.30025787 23.909935 13.28388977 C26.60854221 13.21911948 29.30312564 13.1159914 32 13 C32.9184671 12.96066345 33.8369342 12.9213269 34.78323364 12.88079834 C40.81687773 12.60536901 46.84519388 12.2588445 52.873703 11.88882446 C56.24903852 11.68180911 59.62474127 11.48204913 63.00061035 11.28393555 C70.16744777 10.86212881 77.3337554 10.4317465 84.5 10 C92.8190308 9.49880131 101.13825187 9.00134133 109.45805359 8.51309204 C112.74759595 8.31819683 116.03668583 8.11667572 119.32580566 7.91479492 C131.56785139 7.18330023 143.73651749 6.82888796 156 7 C153.13210639 9.86789361 149.80284744 10.03715878 145.9465332 10.76831055 C145.11155807 10.93292282 144.27658295 11.0975351 143.41630554 11.26713562 C140.62921439 11.81454249 137.84008729 12.35072125 135.05078125 12.88671875 C133.08429102 13.27006323 131.11791823 13.65401059 129.1516571 14.03852844 C124.99694771 14.8493554 120.84128625 15.65504435 116.68481445 16.45678711 C111.48224727 17.46038699 106.28145398 18.47280734 101.08127022 19.48867607 C89.03167661 21.84204393 76.97525656 24.15798328 64.9131546 26.44634247 C62.01533362 26.99708578 59.11818925 27.55128141 56.22113037 28.10601807 C51.67689217 28.97457034 47.13015418 29.82863544 42.58107567 30.67145729 C40.91330097 30.98231133 39.2463143 31.29742912 37.58022499 31.61719322 C18.27196636 35.31370235 18.27196636 35.31370235 11.51171875 31.65234375 C4.37598608 24.94444945 0.30812157 17.16896196 -0.1171875 7.2734375 C-0.1240283 4.84495454 -0.08950817 2.42666607 0 0 Z " fill="#1E4B87" transform="translate(115,129)"/>
<path d="M0 0 C4.16380265 1.78889299 6.49050737 4.1848118 8.875 8 C10.85370434 13.27654491 11.13610472 17.99490493 11.125 23.625 C11.12886719 25.59339844 11.12886719 25.59339844 11.1328125 27.6015625 C11 31 11 31 10 34 C1.42 34 -7.16 34 -16 34 C-15.01 36.97 -14.02 39.94 -13 43 C-7.95780988 44.10504889 -7.95780988 44.10504889 -3.125 42.6875 C-0.9104069 41.17274837 -0.9104069 41.17274837 0 39 C3.63449499 40.21149833 4.56867071 41.83730096 6.3203125 45.1640625 C7 47 7 47 6.6875 49.625 C3.73384551 53.78199521 -0.18817637 56.39605879 -5 58 C-10.61599916 58.36826224 -14.17665989 58.21556007 -19 55 C-25.34157195 48.65842805 -27.1682058 42.5526774 -27.375 33.6875 C-27.13033598 22.98610861 -25.02488437 12.95982082 -17.19140625 5.2109375 C-11.57790592 0.28599543 -7.54818078 -0.99437112 0 0 Z M-12 15 C-14.30707661 18.75932588 -14.30707661 18.75932588 -15 23 C-9.72 23 -4.44 23 1 23 C0.86107421 17.46617317 0.86107421 17.46617317 -1.875 13 C-6.08153849 11.02045248 -8.4936138 12.37021035 -12 15 Z " fill="#CC1E20" transform="translate(259,187)"/>
<path d="M0 0 C5.83071463 2.91535731 9.38133895 6.97368561 11.75 13 C14.92012552 23.50321808 13.48789136 35.42373781 8.93359375 45.31640625 C5.71693682 50.91105378 1.21864033 55.92711989 -5 58 C-10.61599916 58.36826224 -14.17665989 58.21556007 -19 55 C-25.32041672 48.97355615 -27.11639749 41.71510063 -27.375 33.125 C-27.06834611 22.75209878 -24.75539517 12.68081121 -17.19140625 5.21484375 C-11.53904284 0.2440543 -7.58184421 -0.83983505 0 0 Z M-11 15 C-15.57269148 21.57596584 -16.81511449 29.13898057 -16 37 C-14.47797806 40.80839283 -14.47797806 40.80839283 -12 44 C-9.16926564 44.50169415 -9.16926564 44.50169415 -6 44 C-1.42403848 40.36003061 0.48864816 36.822047 1.51953125 31.1328125 C2.13487004 24.81533422 2.34631358 20.49751517 -1 15 C-4.97173454 12.35217698 -7.07829059 12.50865354 -11 15 Z " fill="#22639F" transform="translate(71,187)"/>
<path d="M0 0 C3.96 0 7.92 0 12 0 C12.34933594 0.84304687 12.69867188 1.68609375 13.05859375 2.5546875 C13.74115234 4.19824219 13.74115234 4.19824219 14.4375 5.875 C15.11619141 7.51082031 15.11619141 7.51082031 15.80859375 9.1796875 C16.49543463 10.80558624 17.21065887 12.42131774 18 14 C18.56589844 13.07316406 19.13179687 12.14632812 19.71484375 11.19140625 C20.45565576 9.98172588 21.19654518 8.77209291 21.9375 7.5625 C22.31068359 6.95083984 22.68386719 6.33917969 23.06835938 5.70898438 C25.88671875 1.11328125 25.88671875 1.11328125 27 0 C29.01964199 -0.07244053 31.04167124 -0.08377188 33.0625 -0.0625 C34.71958984 -0.04896484 34.71958984 -0.04896484 36.41015625 -0.03515625 C37.26480469 -0.02355469 38.11945313 -0.01195312 39 0 C37.67232213 3.67185911 36.02978233 6.57694457 33.75 9.73828125 C26.98102871 18.8450122 26.98102871 18.8450122 23.91748047 29.42919922 C24.7500656 33.81158083 26.71430006 37.53579901 29.01220703 41.32373047 C30.42006952 43.71285154 31.38877416 46.22598318 32.375 48.8125 C32.69210938 49.56144531 33.00921875 50.31039062 33.3359375 51.08203125 C34 53 34 53 34 56 C30.04 56 26.08 56 22 56 C21.66226563 55.18015625 21.32453125 54.3603125 20.9765625 53.515625 C20.53054687 52.43796875 20.08453125 51.3603125 19.625 50.25 C19.18414062 49.18265625 18.74328125 48.1153125 18.2890625 47.015625 C17.27388243 44.64071889 16.15505581 42.31011161 15 40 C12.03 45.28 9.06 50.56 6 56 C1.71 56 -2.58 56 -7 56 C-5.55504982 52.38762456 -4.1818962 49.40445922 -2.25 46.09375 C-1.46109375 44.73056641 -1.46109375 44.73056641 -0.65625 43.33984375 C0.44791667 41.44661458 1.55208333 39.55338542 2.65625 37.66015625 C3.44515625 36.29697266 3.44515625 36.29697266 4.25 34.90625 C4.72953125 34.08447266 5.2090625 33.26269531 5.703125 32.41601562 C8.47558588 27.699904 8.47558588 27.699904 8.40087891 22.46044922 C8.01335449 21.58404785 7.62583008 20.70764648 7.2265625 19.8046875 C6.8140625 18.84175781 6.4015625 17.87882812 5.9765625 16.88671875 C5.30753906 15.39591797 5.30753906 15.39591797 4.625 13.875 C3.75865021 11.89513592 2.89646987 9.91344059 2.0390625 7.9296875 C1.64928223 7.05554199 1.25950195 6.18139648 0.85791016 5.28076172 C0 3 0 3 0 0 Z " fill="#23649F" transform="translate(123,188)"/>
<path d="M0 0 C2.04563389 0.94413872 3.84475819 1.8085649 5.62109375 3.1953125 C6.83496311 6.83692058 6.28856325 7.52696719 4.68359375 10.8828125 C4.30332031 11.69105469 3.92304688 12.49929687 3.53125 13.33203125 C3.23089844 13.94691406 2.93054688 14.56179687 2.62109375 15.1953125 C1.96109375 14.8859375 1.30109375 14.5765625 0.62109375 14.2578125 C-3.12406188 12.93140321 -6.41482837 12.52023692 -10.37890625 12.1953125 C-11.36890625 12.6903125 -11.36890625 12.6903125 -12.37890625 13.1953125 C-12.37890625 15.1753125 -12.37890625 17.1553125 -12.37890625 19.1953125 C-11.71503906 19.42605469 -11.05117188 19.65679687 -10.3671875 19.89453125 C-4.28019696 22.142719 0.28887406 24.25038771 3.72265625 30.05859375 C5.68191371 34.7182191 5.27607596 39.91880677 3.8984375 44.70703125 C1.55963769 50.43567046 -1.1909848 53.42424503 -6.62890625 56.4453125 C-13.28859888 58.26159231 -18.59708009 57.61518211 -24.65234375 54.36328125 C-26.46183851 53.13921127 -27.89042972 51.78880424 -29.37890625 50.1953125 C-28.16633245 46.47097868 -26.87030646 42.81728444 -25.37890625 39.1953125 C-21.37890625 41.1953125 -21.37890625 41.1953125 -19.56640625 42.2578125 C-16.93227993 43.38672378 -14.98226188 43.39540081 -12.12890625 43.3203125 C-10.79085938 43.29324219 -10.79085938 43.29324219 -9.42578125 43.265625 C-8.7503125 43.24242187 -8.07484375 43.21921875 -7.37890625 43.1953125 C-7.24859062 40.76312433 -7.24859062 40.76312433 -7.37890625 38.1953125 C-9.62310898 35.86134166 -11.79674356 35.02817758 -14.81640625 33.8203125 C-18.60429803 32.09250222 -20.69822462 30.34905559 -23.37890625 27.1953125 C-25.41329684 21.09214073 -25.45936988 13.71447745 -22.87890625 7.7578125 C-17.89818848 -0.58401901 -9.01150776 -3.04822758 0 0 Z " fill="#CD1F21" transform="translate(298.37890625,187.8046875)"/>
<path d="M0 0 C2.98261927 1.56632521 3.31573088 1.82219263 4.4375 5.1875 C3.66015625 7.44921875 3.66015625 7.44921875 2.5 9.875 C2.11972656 10.68324219 1.73945313 11.49148437 1.34765625 12.32421875 C1.04730469 12.93910156 0.74695313 13.55398437 0.4375 14.1875 C-0.2225 13.878125 -0.8825 13.56875 -1.5625 13.25 C-5.30765563 11.92359071 -8.59842212 11.51242442 -12.5625 11.1875 C-13.5525 11.6825 -13.5525 11.6825 -14.5625 12.1875 C-15.22022428 15.21684491 -15.22022428 15.21684491 -15.5625 18.1875 C-14.98242188 18.35765625 -14.40234375 18.5278125 -13.8046875 18.703125 C-7.70613534 20.59508508 -2.53641896 22.42401346 1.3125 27.8125 C3.54344719 34.50534158 3.25358092 40.13007141 0.3125 46.5625 C-2.34925237 51.36571887 -5.30870016 53.88598006 -10.4375 55.9375 C-17.65332237 56.78642028 -22.45238078 56.23833292 -28.5625 52.1875 C-29.58994407 51.21571881 -30.59871913 50.22245238 -31.5625 49.1875 C-30.3499262 45.46316618 -29.05390021 41.80947194 -27.5625 38.1875 C-23.5625 40.1875 -23.5625 40.1875 -21.8125 41.3125 C-18.33100627 42.66641423 -15.28805818 42.36776894 -11.5625 42.1875 C-10.5725 41.6925 -10.5725 41.6925 -9.5625 41.1875 C-9.5625 39.5375 -9.5625 37.8875 -9.5625 36.1875 C-10.38234375 35.80078125 -11.2021875 35.4140625 -12.046875 35.015625 C-13.12453125 34.49484375 -14.2021875 33.9740625 -15.3125 33.4375 C-16.91351563 32.67179687 -16.91351563 32.67179687 -18.546875 31.890625 C-22.6392316 29.5793977 -25.0622706 27.68818821 -26.5625 23.1875 C-27.23378346 15.75936334 -27.14675468 9.3244861 -22.5625 3.1875 C-16.22519797 -2.84066535 -7.897377 -3.7348606 0 0 Z " fill="#CD1B1F" transform="translate(334.5625,188.8125)"/>
<path d="M0 0 C0.75071777 0.51916992 1.50143555 1.03833984 2.27490234 1.57324219 C3.10248047 2.14171875 3.93005859 2.71019531 4.78271484 3.29589844 C5.63349609 3.89789063 6.48427734 4.49988281 7.36083984 5.12011719 C8.21935547 5.70664062 9.07787109 6.29316406 9.96240234 6.89746094 C13.86942132 9.61406007 17.0193049 11.90881752 19.73583984 15.87011719 C15.77683044 17.95630179 11.76750818 19.92929975 7.73583984 21.87011719 C6.97013672 22.24426758 6.20443359 22.61841797 5.41552734 23.00390625 C2.93240193 24.20112743 0.43161533 25.3516494 -2.07666016 26.49511719 C-2.87628174 26.88634766 -3.67590332 27.27757813 -4.49975586 27.68066406 C-6.78968123 28.69660848 -8.79069112 29.46821033 -11.26416016 29.87011719 C-14.23189639 28.68105731 -15.8299438 27.76649084 -18.26416016 25.87011719 C-19.65928575 24.92054302 -21.05652787 23.97407305 -22.45556641 23.03027344 C-23.9149123 22.00099533 -25.37191883 20.96839301 -26.82666016 19.93261719 C-27.555625 19.42021484 -28.28458984 18.9078125 -29.03564453 18.37988281 C-33.27483585 15.37696331 -37.32101567 12.25262502 -41.26416016 8.87011719 C-37.92985023 6.64724391 -35.23933253 5.92999772 -31.36572266 4.92480469 C-30.35776138 4.66269699 -30.35776138 4.66269699 -29.32943726 4.39529419 C-27.90964675 4.02778145 -26.48910202 3.66317193 -25.06787109 3.30126953 C-22.9017671 2.74833532 -20.73919057 2.18293965 -18.57666016 1.61621094 C-17.19404259 1.25998474 -15.81123585 0.90449182 -14.42822266 0.54980469 C-13.17477051 0.22737793 -11.92131836 -0.09504883 -10.62988281 -0.42724609 C-3.73890482 -1.86582397 -3.73890482 -1.86582397 0 0 Z " fill="#FCA111" transform="translate(186.26416015625,23.1298828125)"/>
<path d="M0 0 C3.63 0 7.26 0 11 0 C9.75351475 16.86653085 8.35682848 33.71275048 6.76782227 50.55053711 C6.42953471 54.14718635 6.09852008 57.74446509 5.76757812 61.34179688 C5.55251906 63.63545756 5.33704149 65.92907906 5.12109375 68.22265625 C5.02316025 69.29524185 4.92522675 70.36782745 4.82432556 71.47291565 C4.68396629 72.93857216 4.68396629 72.93857216 4.54077148 74.43383789 C4.46020004 75.29473526 4.3796286 76.15563263 4.2966156 77.0426178 C4 79 4 79 3 80 C1.31391034 80.07205511 -0.37500659 80.08386068 -2.0625 80.0625 C-3.44115234 80.04896484 -3.44115234 80.04896484 -4.84765625 80.03515625 C-5.55792969 80.02355469 -6.26820312 80.01195312 -7 80 C-8.29956607 76.20010161 -7.86921729 72.85041226 -7.48681641 68.89233398 C-7.38703239 67.83067017 -7.38703239 67.83067017 -7.28523254 66.74755859 C-7.06403781 64.41304135 -6.83299564 62.07961649 -6.6015625 59.74609375 C-6.44509002 58.12236737 -6.28912176 56.49859233 -6.13363647 54.87477112 C-5.80655693 51.47410984 -5.47486887 48.07394052 -5.13964844 44.67407227 C-4.7099572 40.31445205 -4.28940805 35.95401162 -3.87200356 31.59319973 C-3.55054897 28.24124246 -3.22543587 24.88964841 -2.89908981 21.53816414 C-2.74274402 19.93027109 -2.58726584 18.32229343 -2.43266678 16.71423149 C-2.21597732 14.4685472 -1.99465377 12.22336851 -1.77197266 9.97827148 C-1.64682281 8.70016098 -1.52167297 7.42205048 -1.39273071 6.10520935 C-1 3 -1 3 0 0 Z " fill="#1F65A2" transform="translate(92,164)"/>
<path d="M0 0 C14.1573381 2.28425136 31.19732191 15.76845474 41 26 C42.328662 28.657324 42.12960389 30.66394835 42.1328125 33.640625 C42.13482666 34.83848633 42.13684082 36.03634766 42.13891602 37.27050781 C42.13432373 38.58374023 42.12973145 39.89697266 42.125 41.25 C42.12378143 41.92140015 42.12256287 42.59280029 42.12130737 43.2845459 C42.09612032 55.27640106 41.86616879 67.26227114 41.5625 79.25 C41.5429425 80.05715454 41.52338501 80.86430908 41.50323486 81.69592285 C40.88116772 106.78191521 40.88116772 106.78191521 37.875 110.9375 C28.4004478 117.73446136 13.88668653 126 2 126 C2 125.34 2 124.68 2 124 C2.89831543 123.52578613 3.79663086 123.05157227 4.72216797 122.56298828 C8.05257834 120.80365507 11.38042655 119.03952336 14.70751953 117.27392578 C16.14823008 116.51024209 17.5896334 115.74786383 19.03173828 114.98681641 C21.10372224 113.89307126 23.17317453 112.79466517 25.2421875 111.6953125 C25.88807831 111.3556546 26.53396912 111.0159967 27.19943237 110.66604614 C29.78538338 109.28717587 31.91504267 108.08495733 34 106 C34.4470816 102.91408095 34.4470816 102.91408095 34.58374023 99.2878418 C34.63854506 98.28299382 34.63854506 98.28299382 34.69445705 97.25784588 C34.80551732 95.17225003 34.90330981 93.08630558 35 91 C35.06317413 89.79308502 35.12634827 88.58617004 35.19143677 87.34268188 C35.54208289 80.27667906 35.76905043 73.2112204 35.91112614 66.13838673 C35.9836916 62.61240077 36.08742349 59.09308839 36.26196289 55.57055664 C37.591675 40.52068742 37.591675 40.52068742 33.51669312 26.59863281 C29.90057277 22.71699 25.69250735 20.22633518 20.93899536 17.94992065 C18.4342277 16.72282616 16.27184544 15.16080011 14.04296875 13.4921875 C12.76031986 12.61610936 11.47533072 11.74344292 10.1875 10.875 C9.52169922 10.42125 8.85589844 9.9675 8.16992188 9.5 C5.45598246 7.65244407 2.73172627 5.82115084 0 4 C0 2.68 0 1.36 0 0 Z " fill="#CA6006" transform="translate(185,8)"/>
<path d="M0 0 C1.79766901 3.59533803 0.78368054 7.30604467 0.1328125 11.15625 C-1 14 -1 14 -3.2578125 15.46875 C-5.9375 16.375 -5.9375 16.375 -8.58984375 16.9609375 C-11.18235661 17.83858744 -11.18235661 17.83858744 -12.71484375 20.32421875 C-14.56358887 25.61196694 -15.05769259 30.88368942 -15.625 36.4375 C-15.86666145 38.64458891 -16.10883516 40.85162181 -16.3515625 43.05859375 C-16.51833496 44.60329346 -16.51833496 44.60329346 -16.68847656 46.17919922 C-17.744892 55.744892 -17.744892 55.744892 -19 57 C-20.68608966 57.07205511 -22.37500659 57.08386068 -24.0625 57.0625 C-24.98160156 57.05347656 -25.90070313 57.04445312 -26.84765625 57.03515625 C-27.55792969 57.02355469 -28.26820313 57.01195312 -29 57 C-30.30660406 54.38679189 -29.94432937 52.83016427 -29.67041016 49.92358398 C-29.57345856 48.86586288 -29.47650696 47.80814178 -29.37661743 46.71836853 C-29.2652243 45.57251785 -29.15383118 44.42666718 -29.0390625 43.24609375 C-28.929039 42.07490494 -28.8190155 40.90371613 -28.70565796 39.69703674 C-28.47133174 37.21775709 -28.2340759 34.73875288 -27.99414062 32.26000977 C-27.62627785 28.45073236 -27.26948518 24.64053415 -26.9140625 20.83007812 C-26.68555644 18.42702043 -26.45641145 16.02402338 -26.2265625 13.62109375 C-26.11921783 12.47321884 -26.01187317 11.32534393 -25.90127563 10.14268494 C-25.79801971 9.088116 -25.69476379 8.03354706 -25.58837891 6.94702148 C-25.49875885 6.0137352 -25.40913879 5.08044891 -25.31680298 4.11888123 C-25 2 -25 2 -24 1 C-22.14712498 0.92773498 -20.29166122 0.9161878 -18.4375 0.9375 C-17.42558594 0.94652344 -16.41367188 0.95554688 -15.37109375 0.96484375 C-14.19740234 0.98224609 -14.19740234 0.98224609 -13 1 C-13 2.65 -13 4.3 -13 6 C-12.236875 5.195625 -11.47375 4.39125 -10.6875 3.5625 C-7.10418882 0.14585445 -4.77479486 -0.12904851 0 0 Z " fill="#CD2022" transform="translate(234,187)"/>
<path d="M0 0 C3.63 0 7.26 0 11 0 C10.39654629 11.30780948 9.4365307 22.55197622 8.27050781 33.81469727 C7.99500328 36.4859474 7.72778634 39.15795089 7.4609375 41.83007812 C7.28694989 43.53130034 7.11248947 45.23247429 6.9375 46.93359375 C6.81870483 48.1301786 6.81870483 48.1301786 6.69750977 49.35093689 C6.11469078 54.88530922 6.11469078 54.88530922 5 56 C3.31391034 56.07205511 1.62499341 56.08386068 -0.0625 56.0625 C-0.98160156 56.05347656 -1.90070313 56.04445312 -2.84765625 56.03515625 C-3.55792969 56.02355469 -4.26820312 56.01195312 -5 56 C-6.02659125 52.92022624 -6.00520079 51.49286499 -5.67041016 48.33251953 C-5.52498276 46.91557297 -5.52498276 46.91557297 -5.37661743 45.47000122 C-5.20952774 43.9418428 -5.20952774 43.9418428 -5.0390625 42.3828125 C-4.929039 41.33350555 -4.8190155 40.28419861 -4.70565796 39.20309448 C-4.47152501 36.98191627 -4.23426821 34.76106548 -3.99414062 32.54052734 C-3.62729073 29.14619532 -3.26982485 25.75097896 -2.9140625 22.35546875 C-2.68544748 20.19785814 -2.45629836 18.04030405 -2.2265625 15.8828125 C-2.0655455 14.36072678 -2.0655455 14.36072678 -1.90127563 12.80789185 C-1.79801971 11.85695648 -1.69476379 10.90602112 -1.58837891 9.92626953 C-1.49875885 9.09370636 -1.40913879 8.26114319 -1.31680298 7.40335083 C-0.98923476 4.91833205 -0.49156811 2.45784053 0 0 Z " fill="#22619C" transform="translate(108,188)"/>
<path d="M0 0 C-1.97746603 0.73080266 -3.98072489 1.39421747 -6 2 C-6.66 1.67 -7.32 1.34 -8 1 C-8.144375 1.763125 -8.28875 2.52625 -8.4375 3.3125 C-9 6 -9 6 -10 9 C-10.13021575 11.72006236 -10.20929137 14.41920159 -10.24609375 17.140625 C-10.27904531 18.78516131 -10.31225673 20.42969243 -10.34570312 22.07421875 C-10.39298831 24.65897907 -10.43740428 27.24372035 -10.47680664 29.82861328 C-10.51677509 32.32867574 -10.56826942 34.82830559 -10.62109375 37.328125 C-10.6295079 38.09191467 -10.63792206 38.85570435 -10.64659119 39.64263916 C-10.75489615 44.39704693 -11.50753525 48.44065678 -13 53 C-13.268125 53.94875 -13.53625 54.8975 -13.8125 55.875 C-14.204375 56.57625 -14.59625 57.2775 -15 58 C-18.42468363 58.96032418 -21.61806308 59.10237325 -25.1574707 59.02172852 C-26.15813065 59.00163223 -27.15879059 58.98153595 -28.18977356 58.96083069 C-29.2576561 58.93379562 -30.32553864 58.90676056 -31.42578125 58.87890625 C-33.07987251 58.84348976 -33.07987251 58.84348976 -34.76737976 58.80735779 C-38.28255685 58.73090671 -41.79750329 58.64680228 -45.3125 58.5625 C-47.6985565 58.50926076 -50.08462418 58.45652049 -52.47070312 58.40429688 C-58.31394418 58.27531667 -64.15701449 58.14005569 -70 58 C-70 57.34 -70 56.68 -70 56 C-65.49791758 55.20106838 -60.9956447 54.40322134 -56.49316406 53.60653687 C-54.91924825 53.32803895 -53.34535487 53.04941425 -51.77148438 52.7706604 C-42.14218699 51.06609767 -32.51320233 49.36682853 -22.85205078 47.8503418 C-19.31696047 47.29066579 -19.31696047 47.29066579 -16 46 C-15.99589111 44.78417236 -15.99178223 43.56834473 -15.98754883 42.31567383 C-15.9657433 37.7958767 -15.91143887 33.27694837 -15.84741211 28.75756836 C-15.82424449 26.80322611 -15.80983929 24.84875923 -15.80444336 22.89428711 C-15.79514468 20.08107957 -15.75413525 17.26982888 -15.70703125 14.45703125 C-15.7109639 13.58601273 -15.71489655 12.7149942 -15.71894836 11.81758118 C-15.61349134 7.41274324 -15.4260158 5.54979334 -12.6472168 1.96362305 C-8.56246717 -1.06631712 -4.81581711 -1.66701362 0 0 Z " fill="#175693" transform="translate(133,9)"/>
<path d="M0 0 C0.99 0.33 1.98 0.66 3 1 C3 21.46 3 41.92 3 63 C-1.86086774 62.02782645 -3.31699473 61.32430723 -7.0625 58.4375 C-11.95565338 54.75277722 -16.95735714 51.31665105 -22.078125 47.95703125 C-23.04234375 47.31121094 -24.0065625 46.66539063 -25 46 C-25.62720947 45.70891357 -26.25441895 45.41782715 -26.90063477 45.11791992 C-29.13189672 43.93473905 -30.45818968 43.01585866 -32 41 C-32.87361173 36.53858705 -32.65894919 32.21139058 -32.4375 27.6875 C-32.40591797 26.46998047 -32.37433594 25.25246094 -32.34179688 23.99804688 C-32.25939449 20.99624565 -32.14439803 17.99935347 -32 15 C-31.34 15 -30.68 15 -30 15 C-29.95101562 16.0621875 -29.90203125 17.124375 -29.8515625 18.21875 C-29.67045449 21.84734764 -29.42764293 25.46831317 -29.14453125 29.09033203 C-29.03270784 30.56783668 -28.94819549 32.04742251 -28.875 33.52734375 C-28.24250115 38.36003031 -25.51654516 40.6285073 -22 43.625 C-17.62529078 46.96631334 -13.12774561 49.89399736 -8.2890625 52.515625 C-5.47072511 54.3432158 -3.34438737 56.60558737 -1 59 C-1.00785522 57.38496582 -1.00785522 57.38496582 -1.01586914 55.73730469 C-1.19097687 16.35466446 -1.19097687 16.35466446 0 0 Z " fill="#EF8415" transform="translate(169,62)"/>
<path d="M0 0 C12.20445246 1.96915811 23.36164402 11.66109826 33 19 C34.06178467 19.66644531 35.12356934 20.33289063 36.2175293 21.01953125 C38.21688505 22.71595253 38.91638911 23.62751592 39.4959259 26.20933533 C39.63338272 29.02491266 39.5691183 31.77387074 39.4375 34.58984375 C39.4122374 35.63505188 39.38697479 36.68026001 39.36094666 37.75714111 C39.2706707 41.15224534 39.13627881 44.54395771 39 47.9375 C38.92833793 50.25620287 38.85876173 52.57497113 38.79125977 54.89379883 C38.2707061 71.61826497 37.43801815 88.32778084 36 105 C35.67 105 35.34 105 35 105 C35.05329468 103.61177032 35.05329468 103.61177032 35.10766602 102.19549561 C35.42963873 93.42926441 35.67251185 84.66504425 35.82899475 75.89423752 C35.91216344 71.38556517 36.02469511 66.8818147 36.20703125 62.37597656 C38.14532468 42.16354295 38.14532468 42.16354295 31.67700195 24.11572266 C28.41347992 21.31211427 24.9099757 19.44232649 20.94000244 17.82202148 C18.35918717 16.72847358 16.26412597 15.18666836 14.04296875 13.4921875 C12.76031986 12.61610936 11.47533072 11.74344292 10.1875 10.875 C9.52169922 10.42125 8.85589844 9.9675 8.16992188 9.5 C5.45598246 7.65244407 2.73172627 5.82115084 0 4 C0 2.68 0 1.36 0 0 Z " fill="#EFA128" transform="translate(185,8)"/>
<path d="M0 0 C-3.55027006 2.36684671 -6.81956936 2.82903905 -10.9375 3.5 C-15.24355235 4.20540191 -19.14462398 4.85517012 -23 7 C-24.99110401 7.38290462 -26.99100513 7.72604615 -29 8 C-26.0471528 9.4764236 -23.31551017 9.22272939 -20.0234375 9.31640625 C-19.33819 9.33718735 -18.6529425 9.35796844 -17.94692993 9.37937927 C-15.75638931 9.44480185 -13.56572811 9.50372554 -11.375 9.5625 C-9.8906125 9.60569218 -8.40623722 9.6493067 -6.921875 9.69335938 C-3.28137916 9.80047553 0.35925251 9.90176362 4 10 C4 10.33 4 10.66 4 11 C-3.33818197 11.29227501 -10.67666289 11.57600454 -18.01538086 11.85449219 C-20.49852535 11.94964773 -22.98160256 12.04657966 -25.46459961 12.14550781 C-42.98523683 12.84192738 -60.46561587 13.13806915 -78 13 C-74.65874763 11.0835082 -71.55063624 10.41990164 -67.76611328 9.77905273 C-66.50445343 9.56220322 -65.24279358 9.3453537 -63.94290161 9.12193298 C-62.56872815 8.89234938 -61.19453119 8.66290642 -59.8203125 8.43359375 C-58.405413 8.19277918 -56.99060915 7.95140198 -55.57589722 7.70948792 C-51.85390763 7.07459794 -48.13066241 6.44739416 -44.40710449 5.82177734 C-40.63128736 5.18597781 -36.85671804 4.54286041 -33.08203125 3.90039062 C-25.38934616 2.59237074 -17.69545379 1.29164588 -10 0 C-8.92507294 -0.19653671 -7.85014587 -0.39307343 -6.74264526 -0.5955658 C-4.07912342 -0.98833235 -2.51473689 -0.87048584 0 0 Z " fill="#457BAA" transform="translate(112,69)"/>
<path d="M0 0 C0 0.66 0 1.32 0 2 C-0.78238037 2.23710693 -1.56476074 2.47421387 -2.37084961 2.71850586 C-5.8940681 3.78823688 -9.41579391 4.86280096 -12.9375 5.9375 C-14.16919922 6.31068359 -15.40089844 6.68386719 -16.66992188 7.06835938 C-17.83974609 7.42607422 -19.00957031 7.78378906 -20.21484375 8.15234375 C-21.84087524 8.6472229 -21.84087524 8.6472229 -23.49975586 9.15209961 C-25.9120764 9.76455912 -25.9120764 9.76455912 -27 11 C-27.12505085 13.58549772 -27.186048 16.14561411 -27.20532227 18.73266602 C-27.21522186 19.5423584 -27.22512146 20.35205078 -27.23532104 21.1862793 C-27.26702987 23.87545805 -27.29173035 26.5646545 -27.31640625 29.25390625 C-27.33696769 31.11336234 -27.35796394 32.97281368 -27.37937927 34.83226013 C-27.43468366 39.73623815 -27.4840559 44.64025893 -27.53222656 49.54431152 C-27.58238066 54.54455388 -27.63809845 59.54473382 -27.69335938 64.54492188 C-27.80104321 74.36322799 -27.90246532 84.18158819 -28 94 C-28.99 94 -29.98 94 -31 94 C-31.19273918 41.25633251 -31.19273918 41.25633251 -30.75 21.375 C-30.72885132 19.52442993 -30.72885132 19.52442993 -30.70727539 17.63647461 C-30.67496826 16.52667236 -30.64266113 15.41687012 -30.609375 14.2734375 C-30.58842773 13.33935059 -30.56748047 12.40526367 -30.54589844 11.44287109 C-29.8210919 8.19939425 -28.59170864 7.0379606 -26 5 C-23.69750977 3.97924805 -23.69750977 3.97924805 -21.19140625 3.26171875 C-20.27939453 2.99939453 -19.36738281 2.73707031 -18.42773438 2.46679688 C-17.48220703 2.20962891 -16.53667969 1.95246094 -15.5625 1.6875 C-14.62083984 1.41099609 -13.67917969 1.13449219 -12.70898438 0.84960938 C-7.99570541 -0.47090703 -4.82942489 -1.25000045 0 0 Z " fill="#122F68" transform="translate(158,16)"/>
<path d="M0 0 C1.32 0.66 2.64 1.32 4 2 C3.90755133 9.43837642 3.80022198 16.87643219 3.68261719 24.31445312 C3.6443689 26.84402615 3.60950883 29.3736528 3.578125 31.90332031 C3.53238496 35.54251244 3.47440406 39.18133677 3.4140625 42.8203125 C3.39673569 44.51282639 3.39673569 44.51282639 3.37905884 46.23953247 C3.1432455 58.82727961 3.1432455 58.82727961 -0.98828125 63.015625 C-5.26327477 65.83235225 -9.69186774 68.30483813 -14.1875 70.75 C-15.10208984 71.25660156 -16.01667969 71.76320313 -16.95898438 72.28515625 C-23.74282977 76 -23.74282977 76 -26 76 C-25.45066369 72.15464583 -23.87576419 70.53106643 -21 68 C-18.484375 66.7265625 -18.484375 66.7265625 -15.75 65.625 C-13.82988163 64.75760068 -11.91310167 63.8827673 -10 63 C-9.18789062 62.64035156 -8.37578125 62.28070313 -7.5390625 61.91015625 C-5.01496718 60.48408796 -3.70967829 59.35653406 -2 57 C-1.38594837 53.79823814 -1.38594837 53.79823814 -1.32421875 50.11328125 C-1.29360855 49.41968506 -1.26299835 48.72608887 -1.23146057 48.01147461 C-1.13512047 45.67459063 -1.06552277 43.3379423 -1 41 C-0.9600592 39.74393448 -0.9600592 39.74393448 -0.91931152 38.4624939 C-0.7199515 32.14241205 -0.57371974 25.82170804 -0.4375 19.5 C-0.39416887 17.59764965 -0.35055076 15.69530582 -0.30664062 13.79296875 C-0.20112967 9.19538063 -0.09946381 4.59772275 0 0 Z " fill="#9A2D2E" transform="translate(212,47)"/>
<path d="M0 0 C0.66 0.33 1.32 0.66 2 1 C-2.50648798 6.8818447 -7.0313066 10.2188781 -13.5 13.75 C-14.32886719 14.21792969 -15.15773437 14.68585937 -16.01171875 15.16796875 C-28.18550814 22 -28.18550814 22 -31 22 C-31.33 40.48 -31.66 58.96 -32 78 C-32.33 78 -32.66 78 -33 78 C-33 57.87 -33 37.74 -33 17 C-10 5 -10 5 0 0 Z " fill="#E54240" transform="translate(211,46)"/>
<path d="M0 0 C6.7721975 1.72174513 11.78027765 4.63730252 17.2175293 8.95092773 C19.83779718 10.92803526 21.90374951 11.98190059 25.13671875 12.58984375 C32.03827629 11.53611757 38.14959977 8.26427258 44.45898438 5.37890625 C46.01649414 4.69248047 46.01649414 4.69248047 47.60546875 3.9921875 C48.54543701 3.56276855 49.48540527 3.13334961 50.45385742 2.69091797 C53 2 53 2 55.3371582 2.87548828 C55.885896 3.24657715 56.43463379 3.61766602 57 4 C53.206162 8.45634652 47.43377441 10.26990403 42.1953125 12.57299805 C40.89970044 13.14877143 39.60984331 13.737675 38.32617188 14.33959961 C27.79139612 19.2787887 27.79139612 19.2787887 23.85864258 18.66674805 C21.9863629 17.63036037 20.58204943 16.43938204 19 15 C17.56524197 14.01631483 16.12054113 13.04702744 14.66796875 12.08984375 C13.17215163 11.04237847 11.6786862 9.99154748 10.1875 8.9375 C9.42501953 8.40833984 8.66253906 7.87917969 7.87695312 7.33398438 C7.14798828 6.82029297 6.41902344 6.30660156 5.66796875 5.77734375 C5.01078857 5.31577881 4.3536084 4.85421387 3.67651367 4.37866211 C2 3 2 3 0 0 Z " fill="#D46D18" transform="translate(149,34)"/>
<path d="M0 0 C-1.97746603 0.73080266 -3.98072489 1.39421747 -6 2 C-6.66 1.67 -7.32 1.34 -8 1 C-8.144375 1.763125 -8.28875 2.52625 -8.4375 3.3125 C-9 6 -9 6 -10 9 C-10.1302054 11.73174964 -10.20928301 14.44267684 -10.24609375 17.17578125 C-10.27903901 18.82487496 -10.31225054 20.47396337 -10.34570312 22.12304688 C-10.39303842 24.71667763 -10.43746645 27.31028793 -10.47680664 29.90405273 C-10.51669876 32.41152346 -10.56820597 34.91855556 -10.62109375 37.42578125 C-10.6295079 38.19473221 -10.63792206 38.96368317 -10.64659119 39.75593567 C-10.74783677 44.20090764 -11.33950682 47.80911287 -13 52 C-13.66 52 -14.32 52 -15 52 C-15 50.68 -15 49.36 -15 48 C-15.66 48 -16.32 48 -17 48 C-17.33 48.66 -17.66 49.32 -18 50 C-19.98 49.67 -21.96 49.34 -24 49 C-24 48.67 -24 48.34 -24 48 C-21.36 47.34 -18.72 46.68 -16 46 C-15.99383667 44.17625854 -15.99383667 44.17625854 -15.98754883 42.31567383 C-15.9657433 37.7958767 -15.91143887 33.27694837 -15.84741211 28.75756836 C-15.82424449 26.80322611 -15.80983929 24.84875923 -15.80444336 22.89428711 C-15.79514468 20.08107957 -15.75413525 17.26982888 -15.70703125 14.45703125 C-15.7109639 13.58601273 -15.71489655 12.7149942 -15.71894836 11.81758118 C-15.61349134 7.41274324 -15.4260158 5.54979334 -12.6472168 1.96362305 C-8.56246717 -1.06631712 -4.81581711 -1.66701362 0 0 Z " fill="#2670AB" transform="translate(133,9)"/>
<path d="M0 0 C0.99 0.33 1.98 0.66 3 1 C3 21.46 3 41.92 3 63 C1.68 62.67 0.36 62.34 -1 62 C-0.67 41.54 -0.34 21.08 0 0 Z " fill="#D36D1E" transform="translate(169,62)"/>
<path d="M0 0 C0.66 1.32 1.32 2.64 2 4 C-7.17251494 14.00637994 -21.17019557 18.61776879 -34 22 C-34.66 22 -35.32 22 -36 22 C-36 21.34 -36 20.68 -36 20 C-35.1121582 19.53102295 -34.22431641 19.0620459 -33.30957031 18.57885742 C-30.00532152 16.83231864 -26.70348415 15.08126326 -23.40234375 13.32885742 C-21.9752601 12.57209517 -20.54753182 11.81654722 -19.11914062 11.06225586 C-17.06207946 9.97570928 -15.00740223 8.88476768 -12.953125 7.79296875 C-12.31755676 7.45847214 -11.68198853 7.12397552 -11.02716064 6.77934265 C-7.8152195 5.06665761 -4.83551786 3.28760666 -2 1 C-1.505 1.495 -1.505 1.495 -1 2 C-0.67 1.34 -0.34 0.68 0 0 Z " fill="#CC531D" transform="translate(223,112)"/>
<path d="M0 0 C6.42089724 0.35437278 10.26709079 2.68522948 15.4375 6.375 C16.16904297 6.87 16.90058594 7.365 17.65429688 7.875 C21.62394555 10.64745304 21.62394555 10.64745304 23 12 C23 12.99 23 13.98 23 15 C12.44 14.67 1.88 14.34 -9 14 C-9.33 13.01 -9.66 12.02 -10 11 C-3.4 10.34 3.2 9.68 10 9 C8.35 7.700625 6.7 6.40125 5 5.0625 C3.31288463 3.73389665 1.64055622 2.3856841 0 1 C0 0.67 0 0.34 0 0 Z " fill="#264175" transform="translate(139,119)"/>
<path d="M0 0 C-3.77994401 3.45125322 -8.18024644 4.6327482 -13 6 C-13.74121094 6.22042969 -14.48242188 6.44085938 -15.24609375 6.66796875 C-23.16136709 8.65679797 -30.97796243 7.72927614 -39 7 C-40.04929687 6.92523438 -41.09859375 6.85046875 -42.1796875 6.7734375 C-48.73997642 6.26002358 -48.73997642 6.26002358 -51 4 C-44.70150825 3.42658223 -38.40264735 2.85735958 -32.10351562 2.29101562 C-29.96182727 2.09796568 -27.8202244 1.90396482 -25.67871094 1.70898438 C-22.59592459 1.42847085 -19.51284435 1.15140777 -16.4296875 0.875 C-14.99965897 0.74375732 -14.99965897 0.74375732 -13.54074097 0.60986328 C-9.00998232 0.20692649 -4.55459989 -0.10607511 0 0 Z " fill="#2A6096" transform="translate(115,90)"/>
<path d="M0 0 C3.33694024 0.48663712 4.02982701 0.81060269 6 3.4375 C6.3984375 5.77734375 6.3984375 5.77734375 6.375 8.375 C6.38273437 9.22964844 6.39046875 10.08429688 6.3984375 10.96484375 C5.92011435 13.93326095 5.11108255 15.31185826 3 17.4375 C-0.5625 17.875 -0.5625 17.875 -4 17.4375 C-6.13749925 14.23125113 -6.29574999 13.21291897 -6.3125 9.5 C-6.32925781 8.64535156 -6.34601563 7.79070312 -6.36328125 6.91015625 C-5.7367629 2.64578943 -4.29258877 0.62600253 0 0 Z " fill="#2271AD" transform="translate(115,163.5625)"/>
<path d="M0 0 C9.38494634 -0.59586961 16.64286093 2.15201767 24 8 C24 8.99 24 9.98 24 11 C20.26403517 13.39101749 17.36502295 13.63363236 13 13 C9.43981357 10.94836714 6.23261967 8.52869913 3 6 C1.66802474 4.99819179 0.33517269 3.99754281 -1 3 C-0.67 2.01 -0.34 1.02 0 0 Z " fill="#FEEC44" transform="translate(158,34)"/>
<path d="M0 0 C4.62 0 9.24 0 14 0 C14 0.66 14 1.32 14 2 C-14.05797101 9.97101449 -14.05797101 9.97101449 -22 6 C-22 6.66 -22 7.32 -22 8 C-23.98 8 -25.96 8 -28 8 C-26 5 -26 5 -23.8359375 4.26953125 C-23.02382812 4.11871094 -22.21171875 3.96789062 -21.375 3.8125 C-20.55773437 3.65394531 -19.74046875 3.49539062 -18.8984375 3.33203125 C-17.95871094 3.16767578 -17.95871094 3.16767578 -17 3 C-17.66 2.34 -18.32 1.68 -19 1 C-15.04 1 -11.08 1 -7 1 C-7 1.66 -7 2.32 -7 3 C-4.69 3 -2.38 3 0 3 C0 2.01 0 1.02 0 0 Z " fill="#16447D" transform="translate(242,138)"/>
<path d="M0 0 C0 0.66 0 1.32 0 2 C0.83144531 1.89300781 1.66289062 1.78601563 2.51953125 1.67578125 C3.60621094 1.55589844 4.69289062 1.43601562 5.8125 1.3125 C6.89144531 1.18488281 7.97039062 1.05726562 9.08203125 0.92578125 C12 1 12 1 13.88671875 2.35546875 C15 4 15 4 15 6 C15.66 6 16.32 6 17 6 C17 7.32 17 8.64 17 10 C10.125 8.125 10.125 8.125 9 7 C6.93227266 6.80058132 6.93227266 6.80058132 4.5625 6.8125 C3.75941406 6.79832031 2.95632812 6.78414062 2.12890625 6.76953125 C-0.21630633 6.79837644 -0.21630633 6.79837644 -2 9 C-3.6490302 8.38348417 -5.29415841 7.75652258 -6.9375 7.125 C-7.85402344 6.77695312 -8.77054688 6.42890625 -9.71484375 6.0703125 C-12 5 -12 5 -13 3 C-11.39743892 2.49487756 -9.79288208 1.99608373 -8.1875 1.5 C-7.29417969 1.2215625 -6.40085938 0.943125 -5.48046875 0.65625 C-3 0 -3 0 0 0 Z " fill="#FCB512" transform="translate(158,28)"/>
<path d="M0 0 C4.99708185 2.85547534 8.97499373 5.34044464 13.4375 8.75 C14.24864258 9.36681641 14.24864258 9.36681641 15.07617188 9.99609375 C16.38695197 10.9936786 17.693899 11.99629677 19 13 C18.67 13.66 18.34 14.32 18 15 C17.401875 14.67 16.80375 14.34 16.1875 14 C13.94613529 12.79212012 13.94613529 12.79212012 11 13 C8.55766765 11.82851724 6.32311159 10.40263342 4 9 C4.33 9.66 4.66 10.32 5 11 C4.91255632 12.87862875 4.75824458 14.75455181 4.5625 16.625 C4.46066406 17.62789062 4.35882813 18.63078125 4.25390625 19.6640625 C4.17011719 20.43492188 4.08632812 21.20578125 4 22 C3.525625 21.34 3.05125 20.68 2.5625 20 C2.046875 19.34 1.53125 18.68 1 18 C0.67 18 0.34 18 0 18 C0 12.06 0 6.12 0 0 Z " fill="#FDE114" transform="translate(137,38)"/>
<path d="M0 0 C-3.55027006 2.36684671 -6.81956936 2.82903905 -10.9375 3.5 C-16.17871161 4.25202788 -16.17871161 4.25202788 -21.09375 6.09375 C-23.93553362 7.44476188 -26.44275009 7.11154413 -29.5625 7 C-35.12525171 6.9075763 -40.08403646 7.41286397 -45.51171875 8.5546875 C-49.06161785 9.18999126 -52.40322242 9.13572746 -56 9 C-56 8.67 -56 8.34 -56 8 C-49.55880861 6.87868815 -43.11755909 5.75771067 -36.67626953 4.63696289 C-34.48615204 4.25585459 -32.29604773 3.87467045 -30.10595703 3.4934082 C-26.95348543 2.94462343 -23.80096608 2.39611363 -20.6484375 1.84765625 C-19.67321136 1.6778273 -18.69798523 1.50799835 -17.69320679 1.33302307 C-15.89994487 1.02114504 -14.10645462 0.7105755 -12.31268311 0.40164185 C-10.36759896 0.06384062 -8.4249387 -0.28787563 -6.48291016 -0.64282227 C-3.96752791 -1.00467126 -2.38365461 -0.82511121 0 0 Z " fill="#4F8FBE" transform="translate(112,69)"/>
<path d="M0 0 C0.66 0 1.32 0 2 0 C2.16287589 23.01812259 1.70484288 45.99325347 1 69 C0.67 69 0.34 69 0 69 C-1.07263006 45.89280998 -1.12473795 23.10498925 0 0 Z " fill="#CD7F37" transform="translate(225,36)"/>
<path d="M0 0 C0.66 0.99 1.32 1.98 2 3 C-2.61456955 7.063143 -7.81766457 9.82936146 -13.1875 12.75 C-14.10208984 13.25660156 -15.01667969 13.76320313 -15.95898438 14.28515625 C-22.74282977 18 -22.74282977 18 -25 18 C-24.45001339 14.15009374 -22.87547712 12.53804868 -20 10 C-17.34375 8.55078125 -17.34375 8.55078125 -14.5 7.3125 C-13.5615625 6.89613281 -12.623125 6.47976562 -11.65625 6.05078125 C-9.41581817 5.16449278 -7.37448575 4.39054042 -5 4 C-4.34 4.33 -3.68 4.66 -3 5 C-2.690625 4.360625 -2.38125 3.72125 -2.0625 3.0625 C-1 1 -1 1 0 0 Z " fill="#8B0D0B" transform="translate(211,105)"/>
<path d="M0 0 C10.85527174 1.70582842 20.24521768 9.73664222 29 16 C28.67 16.66 28.34 17.32 28 18 C22.38623817 16.45896734 18.31398243 13.56852812 13.76757812 10.1015625 C10.31927154 7.58180347 8.25594108 6.62927343 4 7 C1.6875 5.75 1.6875 5.75 0 4 C0 2.68 0 1.36 0 0 Z " fill="#FDB61D" transform="translate(185,8)"/>
<path d="M0 0 C-2.72106694 2.72106694 -4.84776311 2.60655572 -8.625 3.125 C-10.40777344 3.37636719 -10.40777344 3.37636719 -12.2265625 3.6328125 C-13.14179688 3.75398437 -14.05703125 3.87515625 -15 4 C-15 3.34 -15 2.68 -15 2 C-19.62 2 -24.24 2 -29 2 C-29 2.99 -29 3.98 -29 5 C-31.31 5 -33.62 5 -36 5 C-36 4.34 -36 3.68 -36 3 C-42.93 3 -49.86 3 -57 3 C-57 2.67 -57 2.34 -57 2 C-51.93648235 1.70828428 -46.87261817 1.42388398 -41.80834961 1.14550781 C-40.0950279 1.05038534 -38.38180529 0.95345604 -36.66870117 0.85449219 C-24.43185134 0.1492812 -12.25676576 -0.12502474 0 0 Z " fill="#6B80A7" transform="translate(271,136)"/>
<path d="M0 0 C1.35158203 0.15275391 1.35158203 0.15275391 2.73046875 0.30859375 C3.76107422 0.43427734 3.76107422 0.43427734 4.8125 0.5625 C4.8125 0.8925 4.8125 1.2225 4.8125 1.5625 C0.22391002 2.42386287 -4.36592609 3.27812172 -8.95703125 4.12597656 C-10.51695944 4.41506773 -12.07653697 4.70605802 -13.63574219 4.99902344 C-15.88385772 5.42108344 -18.13316796 5.83617731 -20.3828125 6.25 C-21.41911301 6.44686401 -21.41911301 6.44686401 -22.47634888 6.64770508 C-26.43183935 7.36737881 -30.16914262 7.69371167 -34.1875 7.5625 C-34.1875 6.9025 -34.1875 6.2425 -34.1875 5.5625 C-31.7125 6.0575 -31.7125 6.0575 -29.1875 6.5625 C-29.5175 5.5725 -29.8475 4.5825 -30.1875 3.5625 C-29.1975 3.5625 -28.2075 3.5625 -27.1875 3.5625 C-27.1875 2.9025 -27.1875 2.2425 -27.1875 1.5625 C-25.14749027 1.33852267 -23.10533811 1.13401463 -21.0625 0.9375 C-19.92554688 0.82148438 -18.78859375 0.70546875 -17.6171875 0.5859375 C-14.02238201 0.56137163 -11.506829 1.24082189 -8.1875 2.5625 C-8.1875 1.9025 -8.1875 1.2425 -8.1875 0.5625 C-4.98734144 -0.50421952 -3.30205706 -0.38595472 0 0 Z " fill="#38568B" transform="translate(172.1875,154.4375)"/>
<path d="M0 0 C0.66 0 1.32 0 2 0 C2 11.55 2 23.1 2 35 C1.01 34.34 0.02 33.68 -1 33 C-1.27980316 30.52834152 -1.37255486 28.31021259 -1.328125 25.83984375 C-1.32625183 25.13477188 -1.32437866 24.42970001 -1.32244873 23.70326233 C-1.31572481 22.2128527 -1.30180341 20.72246081 -1.28125 19.23217773 C-1.25007532 16.94303107 -1.24027853 14.65457232 -1.234375 12.36523438 C-1.22520598 10.91926238 -1.21483053 9.47329743 -1.203125 8.02734375 C-1.19887512 7.33881821 -1.19462524 6.65029266 -1.19024658 5.94090271 C-1.11716369 1.11716369 -1.11716369 1.11716369 0 0 Z " fill="#E31716" transform="translate(180,67)"/>
<path d="M0 0 C-2.64 0.66 -5.28 1.32 -8 2 C-8 2.33 -8 2.66 -8 3 C3.88 3.33 15.76 3.66 28 4 C27.67 4.66 27.34 5.32 27 6 C9.18 5.67 -8.64 5.34 -27 5 C-27 4.34 -27 3.68 -27 3 C-23.25239331 2.29899918 -19.50163915 1.61656013 -15.75 0.9375 C-14.68652344 0.73833984 -13.62304688 0.53917969 -12.52734375 0.33398438 C-10.99013672 0.05844727 -10.99013672 0.05844727 -9.421875 -0.22265625 C-8.47924805 -0.39547119 -7.53662109 -0.56828613 -6.56542969 -0.74633789 C-4 -1 -4 -1 0 0 Z " fill="#739ABE" transform="translate(90,62)"/>
<path d="M0 0 C6.77960622 1.7236287 11.8502481 4.68700536 17.39331055 8.86303711 C20.57114756 11.21191557 23.04656302 12.57537158 27 13 C26.01 13.99 25.02 14.98 24 16 C25.65 16.33 27.3 16.66 29 17 C27.02 17.99 27.02 17.99 25 19 C21.95480777 16.94266921 18.91451302 14.87821009 15.875 12.8125 C15.0190625 12.23435547 14.163125 11.65621094 13.28125 11.06054688 C8.6521269 7.9091823 4.17256866 4.74163124 0 1 C0 0.67 0 0.34 0 0 Z " fill="#EE9421" transform="translate(149,34)"/>
<path d="M0 0 C-1.98 0.66 -3.96 1.32 -6 2 C-6 2.66 -6 3.32 -6 4 C-7.98 4.33 -9.96 4.66 -12 5 C-12 5.66 -12 6.32 -12 7 C-26.78132118 7.18451025 -26.78132118 7.18451025 -33 6 C-33 5.67 -33 5.34 -33 5 C-31.99839844 4.80664062 -30.99679688 4.61328125 -29.96484375 4.4140625 C-28.62236492 4.15119951 -27.27991873 3.88816974 -25.9375 3.625 C-24.95233398 3.43550781 -24.95233398 3.43550781 -23.94726562 3.2421875 C-19.5558107 2.37687618 -15.30086682 1.25182235 -11 0 C-3.75310174 -1.35111663 -3.75310174 -1.35111663 0 0 Z " fill="#377EB3" transform="translate(108,59)"/>
<path d="M0 0 C4.10410755 -0.05796132 8.20811016 -0.09358313 12.3125 -0.125 C13.47974609 -0.14175781 14.64699219 -0.15851563 15.84960938 -0.17578125 C16.96787109 -0.18222656 18.08613281 -0.18867188 19.23828125 -0.1953125 C20.26993408 -0.20578613 21.30158691 -0.21625977 22.36450195 -0.22705078 C25 0 25 0 28 2 C27.31897217 1.99476318 26.63794434 1.98952637 25.9362793 1.98413086 C22.85336223 1.96335542 19.7704599 1.95033802 16.6875 1.9375 C15.61564453 1.92912109 14.54378906 1.92074219 13.43945312 1.91210938 C12.41142578 1.90888672 11.38339844 1.90566406 10.32421875 1.90234375 C9.37635498 1.89710693 8.42849121 1.89187012 7.4519043 1.88647461 C4.86161319 1.89501146 4.86161319 1.89501146 2 3 C1.01 13.56 0.02 24.12 -1 35 C-3 33 -3 33 -3.046875 29.140625 C-2.96046966 27.50970315 -2.86068762 25.87945396 -2.75 24.25 C-2.6991626 23.40268311 -2.6483252 22.55536621 -2.59594727 21.68237305 C-2.11696309 14.38490822 -1.17644542 7.21786585 0 0 Z " fill="#4090C4" transform="translate(7,167)"/>
<path d="M0 0 C0 0.66 0 1.32 0 2 C-3.55866104 3.17860776 -7.12248876 4.34075592 -10.6875 5.5 C-11.69490234 5.83386719 -12.70230469 6.16773438 -13.74023438 6.51171875 C-15.20493164 6.98544922 -15.20493164 6.98544922 -16.69921875 7.46875 C-17.59471436 7.76201172 -18.49020996 8.05527344 -19.4128418 8.35742188 C-22.04593779 9.01140967 -24.29882837 9.11920064 -27 9 C-26.34 8.67 -25.68 8.34 -25 8 C-24.67 7.01 -24.34 6.02 -24 5 C-17.26263001 1.67275753 -7.42415318 -2.32004787 0 0 Z " fill="#213B6C" transform="translate(158,16)"/>
<path d="M0 0 C0.66 0 1.32 0 2 0 C2.04898438 1.0621875 2.09796875 2.124375 2.1484375 3.21875 C2.00883536 15.17408787 2.00883536 15.17408787 6.46484375 25.58203125 C8.27013252 27.17129584 8.27013252 27.17129584 11 29 C10.01 29.99 9.02 30.98 8 32 C4.77417906 30.43164004 2.31007542 28.76588062 0 26 C-1.01031891 21.51185254 -0.75757902 17.19702763 -0.5 12.625 C-0.46390625 11.41199219 -0.4278125 10.19898437 -0.390625 8.94921875 C-0.29656769 5.96289924 -0.16526792 2.98308598 0 0 Z " fill="#F78B10" transform="translate(137,77)"/>
<path d="M0 0 C-0.33 0.99 -0.66 1.98 -1 3 C-17.70842825 3.3690205 -17.70842825 3.3690205 -26 1 C-26 0.67 -26 0.34 -26 0 C-17.30548921 -2.11233234 -8.40184498 -3.80119378 0 0 Z " fill="#244881" transform="translate(118,97)"/>
<path d="M0 0 C0 1.32 0 2.64 0 4 C-10.23 4 -20.46 4 -31 4 C-31 3.34 -31 2.68 -31 2 C-27.14624423 1.66180134 -23.29193872 1.33031669 -19.4375 1 C-18.35146484 0.90460938 -17.26542969 0.80921875 -16.14648438 0.7109375 C-10.7437499 0.25113031 -5.42245588 -0.12447531 0 0 Z " fill="#0E3470" transform="translate(116,75)"/>
<path d="M0 0 C0.99 0.33 1.98 0.66 3 1 C2.34 16.84 1.68 32.68 1 49 C0.67 49 0.34 49 0 49 C0 32.83 0 16.66 0 0 Z " fill="#CF7109" transform="translate(223,33)"/>
<path d="M0 0 C3.63 0 7.26 0 11 0 C10.49354466 8.68517024 9.97704701 17.35209459 9 26 C8.67 26 8.34 26 8 26 C7.97112488 22.35418313 7.95324415 18.70839537 7.9375 15.0625 C7.92912109 14.02158203 7.92074219 12.98066406 7.91210938 11.90820312 C7.90888672 10.91884766 7.90566406 9.92949219 7.90234375 8.91015625 C7.89710693 7.99371338 7.89187012 7.07727051 7.88647461 6.13305664 C8 4 8 4 9 3 C6.69 3 4.38 3 2 3 C1.67 5.97 1.34 8.94 1 12 C0.34 12 -0.32 12 -1 12 C-1.08384078 7.72412002 -0.84728203 4.23641013 0 0 Z " fill="#1973B3" transform="translate(108,188)"/>
<path d="M0 0 C4.97431316 0.47688843 7.70488686 1.88422878 11.625 4.9375 C15.19812729 7.78859599 15.19812729 7.78859599 19.2109375 9.87890625 C21.96327141 11.60362204 22.20954032 13.96990456 23 17 C15.00845234 12.10753677 7.27421852 6.9158566 0 1 C0 0.67 0 0.34 0 0 Z " fill="#EB8322" transform="translate(190,14)"/>
<path d="M0 0 C2.90775791 1.24393253 4.96305042 2.55566051 7 5 C7 5.66 7 6.32 7 7 C0.125 5.125 0.125 5.125 -1 4 C-3.06772734 3.80058132 -3.06772734 3.80058132 -5.4375 3.8125 C-6.24058594 3.79832031 -7.04367188 3.78414062 -7.87109375 3.76953125 C-10.21630633 3.79837644 -10.21630633 3.79837644 -12 6 C-12.99 5.01 -13.98 4.02 -15 3 C-10.02881544 -0.0591905 -5.71237352 -0.79973229 0 0 Z " fill="#FEE11B" transform="translate(168,31)"/>
<path d="M0 0 C-1.97746603 0.73080266 -3.98072489 1.39421747 -6 2 C-6.66 1.67 -7.32 1.34 -8 1 C-8.89980404 5.4291325 -9.73273029 9.86985736 -10.5625 14.3125 C-10.70107422 15.05306641 -10.83964844 15.79363281 -10.98242188 16.55664062 C-11.32189055 18.37104214 -11.66098323 20.18551399 -12 22 C-12.33 22 -12.66 22 -13 22 C-13.28391135 18.89795604 -13.52121382 15.79405744 -13.75 12.6875 C-13.83121094 11.80642578 -13.91242188 10.92535156 -13.99609375 10.01757812 C-14.16010239 7.62122973 -14.26473956 5.38783577 -14 3 C-10.43616387 -1.08291661 -5.02359036 -1.73893513 0 0 Z " fill="#2F78B1" transform="translate(133,9)"/>
<path d="M0 0 C4.62 0 9.24 0 14 0 C14 0.66 14 1.32 14 2 C6.99370876 3.8849413 0.23589973 5.39700836 -7 6 C-6.34 5.67 -5.68 5.34 -5 5 C-5 4.34 -5 3.68 -5 3 C-3.35 3 -1.7 3 0 3 C0 2.01 0 1.02 0 0 Z " fill="#335184" transform="translate(242,138)"/>
<path d="M0 0 C0.66 0 1.32 0 2 0 C1.86181468 3.47951523 1.71317399 6.95850495 1.5625 10.4375 C1.52318359 11.43072266 1.48386719 12.42394531 1.44335938 13.44726562 C1.40146484 14.39150391 1.35957031 15.33574219 1.31640625 16.30859375 C1.26141968 17.62041626 1.26141968 17.62041626 1.20532227 18.95874023 C1 21 1 21 0 22 C-1.68608966 22.07205511 -3.37500659 22.08386068 -5.0625 22.0625 C-5.98160156 22.05347656 -6.90070313 22.04445312 -7.84765625 22.03515625 C-8.55792969 22.02355469 -9.26820312 22.01195312 -10 22 C-10 21.34 -10 20.68 -10 20 C-7.03 20 -4.06 20 -1 20 C-1.020625 18.55625 -1.04125 17.1125 -1.0625 15.625 C-1.0700134 10.36562138 -0.62178008 5.21851138 0 0 Z " fill="#426495" transform="translate(95,222)"/>
<path d="M0 0 C0.66 1.32 1.32 2.64 2 4 C-1.11016455 7.28788824 -4.01618925 9.83735988 -8 12 C-7.67 10.68 -7.34 9.36 -7 8 C-8.65 8 -10.3 8 -12 8 C-8.76478258 5.51137122 -5.40739705 3.24578442 -2 1 C-1.67 1.33 -1.34 1.66 -1 2 C-0.67 1.34 -0.34 0.68 0 0 Z " fill="#CE6921" transform="translate(223,112)"/>
<path d="M0 0 C0.66 0 1.32 0 2 0 C3.0176403 5.01608525 3.11856434 9.78608306 3.0625 14.875 C3.05798828 15.65875 3.05347656 16.4425 3.04882812 17.25 C3.03714093 19.16670014 3.01920908 21.08336048 3 23 C2.67 23 2.34 23 2 23 C2 17.72 2 12.44 2 7 C1.34 7 0.68 7 0 7 C0 15.25 0 23.5 0 32 C-0.33 32 -0.66 32 -1 32 C-1.0247345 27.92489562 -1.04287637 23.84982036 -1.05493164 19.7746582 C-1.05995777 18.38858275 -1.06677966 17.00251259 -1.07543945 15.61645508 C-1.08758018 13.62323285 -1.09271021 11.62997181 -1.09765625 9.63671875 C-1.10289307 8.43748779 -1.10812988 7.23825684 -1.11352539 6.00268555 C-1 3 -1 3 0 0 Z " fill="#FBB64D" transform="translate(137,70)"/>
<path d="M0 0 C1.875 -0.36328125 1.875 -0.36328125 4 -0.3125 C4.70125 -0.30863281 5.4025 -0.30476563 6.125 -0.30078125 C8 0 8 0 10 2 C10 2.99 10 3.98 10 5 C6.95016004 6.52491998 4.3576631 6.23562548 1 6 C-0.9375 4.5 -0.9375 4.5 -2 3 C-1.34 2.01 -0.68 1.02 0 0 Z " fill="#FEF276" transform="translate(172,40)"/>
<path d="M0 0 C0.89203125 0.01804688 1.7840625 0.03609375 2.703125 0.0546875 C3.71632813 0.08949219 3.71632813 0.08949219 4.75 0.125 C1.9844749 1.62733625 0.13221324 2.23640417 -3.0625 2.8125 C-8.10754365 3.99124852 -11.1256801 7.12249289 -14.25 11.125 C-14.95509683 12.43841566 -15.63404025 13.76749648 -16.25 15.125 C-16.91 15.125 -17.57 15.125 -18.25 15.125 C-16.95923237 9.24483634 -13.79003898 5.84131883 -9.25 2.125 C-6.08231592 0.13053225 -3.71521575 -0.09776884 0 0 Z " fill="#247AB6" transform="translate(66.25,186.875)"/>
<path d="M0 0 C0 1.32 0 2.64 0 4 C-6.93 4 -13.86 4 -21 4 C-17.03046127 2.01523064 -14.28843193 1.45146417 -9.9375 0.875 C-8.70902344 0.70742188 -7.48054688 0.53984375 -6.21484375 0.3671875 C-3 0 -3 0 0 0 Z " fill="#0F346E" transform="translate(117,62)"/>
<path d="M0 0 C2.1640625 0.0234375 2.1640625 0.0234375 4.625 0.375 C5.85089844 0.54128906 5.85089844 0.54128906 7.1015625 0.7109375 C7.72804687 0.80632813 8.35453125 0.90171875 9 1 C8.34 2.65 7.68 4.3 7 6 C9.31 6.66 11.62 7.32 14 8 C14 8.33 14 8.66 14 9 C9.99973882 9.59578358 8.01367988 9.63996562 4.53125 7.44140625 C2.29667053 5.68414992 0.1245113 3.88845449 -2 2 C-1.34 1.34 -0.68 0.68 0 0 Z " fill="#FDEC59" transform="translate(164,38)"/>
<path d="M0 0 C-8.29498637 6.35948955 -18.0227386 3.96001141 -28 3 C-28 2.67 -28 2.34 -28 2 C-24.4587501 1.66213906 -20.91694184 1.33052169 -17.375 1 C-16.37597656 0.90460938 -15.37695312 0.80921875 -14.34765625 0.7109375 C-9.54861994 0.26599374 -4.82618926 -0.13177309 0 0 Z " fill="#3D7AAE" transform="translate(115,90)"/>
<path d="M0 0 C0.33 0 0.66 0 1 0 C0.85970581 2.1462026 0.71261836 4.29196218 0.5625 6.4375 C0.48128906 7.63246094 0.40007812 8.82742187 0.31640625 10.05859375 C0 13 0 13 -1 14 C-2.68608966 14.07205511 -4.37500659 14.08386068 -6.0625 14.0625 C-6.98160156 14.05347656 -7.90070313 14.04445312 -8.84765625 14.03515625 C-9.55792969 14.02355469 -10.26820313 14.01195312 -11 14 C-12.31625194 11.36749612 -11.74813658 10.19820944 -11.0625 7.375 C-10.86785156 6.55773437 -10.67320312 5.74046875 -10.47265625 4.8984375 C-10.31667969 4.27195313 -10.16070312 3.64546875 -10 3 C-9.67 3 -9.34 3 -9 3 C-9 5.97 -9 8.94 -9 12 C-6.69 12 -4.38 12 -2 12 C-2.061875 10.700625 -2.061875 10.700625 -2.125 9.375 C-1.99542279 5.87641532 -1.23980344 3.25448403 0 0 Z " fill="#C74344" transform="translate(216,230)"/>
<path d="M0 0 C2.40343831 4.24639101 2.22969604 7.17638324 2 12 C1.67 12.99 1.34 13.98 1 15 C1.020625 16.2375 1.04125 17.475 1.0625 18.75 C1.13096327 22.85779648 0.29521514 26.11435458 -1 30 C-1.33 30 -1.66 30 -2 30 C-1.04892966 8.99082569 -1.04892966 8.99082569 0 0 Z " fill="#4A94C4" transform="translate(91,167)"/>
<path d="M0 0 C0.66 0.33 1.32 0.66 2 1 C-1.27194342 5.10398401 -4.15189388 8.71061656 -9 11 C-9.66 11 -10.32 11 -11 11 C-9.21493103 5.91941909 -7.6067248 3.91812846 -2.9375 1.25 C-1.968125 0.8375 -0.99875 0.425 0 0 Z " fill="#D92525" transform="translate(211,46)"/>
<path d="M0 0 C0 0.33 0 0.66 0 1 C-9.22009004 4.53973108 -19.37794387 3.32718016 -29 2 C-29 1.67 -29 1.34 -29 1 C-9.03189066 -0.14806378 -9.03189066 -0.14806378 0 0 Z " fill="#578BBA" transform="translate(157,142)"/>
<path d="M0 0 C-3.4019487 2.09350689 -6.05272412 2.17942163 -10 2 C-10 1.34 -10 0.68 -10 0 C-13.96 0 -17.92 0 -22 0 C-22 -0.33 -22 -0.66 -22 -1 C-4.82432432 -3.21621622 -4.82432432 -3.21621622 0 0 Z " fill="#104887" transform="translate(226,141)"/>
<path d="M0 0 C1.07894531 0.04640625 2.15789062 0.0928125 3.26953125 0.140625 C4.35621094 0.17671875 5.44289062 0.2128125 6.5625 0.25 C7.39394531 0.29640625 8.22539062 0.3428125 9.08203125 0.390625 C7.76956587 3.83156686 6.41614258 6.52603382 4.08203125 9.390625 C3.75203125 8.400625 3.42203125 7.410625 3.08203125 6.390625 C3.74203125 5.070625 4.40203125 3.750625 5.08203125 2.390625 C0.62703125 2.885625 0.62703125 2.885625 -3.91796875 3.390625 C-3.91796875 4.050625 -3.91796875 4.710625 -3.91796875 5.390625 C-4.57796875 5.060625 -5.23796875 4.730625 -5.91796875 4.390625 C-4.20732299 1.34147397 -3.55091093 0.47535622 0 0 Z " fill="#126EB2" transform="translate(152.91796875,187.609375)"/>
<path d="M0 0 C-1.57297914 1.86562642 -2.45510217 2.90238443 -4.90112305 3.34057617 C-5.59761963 3.32486572 -6.29411621 3.30915527 -7.01171875 3.29296875 C-7.76904297 3.28330078 -8.52636719 3.27363281 -9.30664062 3.26367188 C-10.09232422 3.23853516 -10.87800781 3.21339844 -11.6875 3.1875 C-12.88342773 3.16719727 -12.88342773 3.16719727 -14.10351562 3.14648438 C-16.06929967 3.11117089 -18.03473582 3.05736447 -20 3 C-15.22254657 -1.77745343 -6.32424528 -0.09210066 0 0 Z " fill="#216CA9" transform="translate(62,78)"/>
<path d="M0 0 C5.44208234 0.34013015 8.93668198 3.70296528 13 7 C12.67 7.66 12.34 8.32 12 9 C6.73829306 7.58832253 3.27828642 5.25149768 -1 2 C-0.67 1.34 -0.34 0.68 0 0 Z " fill="#FDB214" transform="translate(201,17)"/>
<path d="M0 0 C9.24 0 18.48 0 28 0 C28 0.99 28 1.98 28 3 C25.69 3 23.38 3 21 3 C21 2.34 21 1.68 21 1 C14.07 1 7.14 1 0 1 C0 0.67 0 0.34 0 0 Z " fill="#466D9F" transform="translate(214,138)"/>
<path d="M0 0 C0.89847656 0.00257812 1.79695313 0.00515625 2.72265625 0.0078125 C3.61855469 0.00523438 4.51445313 0.00265625 5.4375 0 C7.78515625 0.1328125 7.78515625 0.1328125 9.78515625 1.1328125 C9.45515625 2.1228125 9.12515625 3.1128125 8.78515625 4.1328125 C7.34859771 4.21412713 5.91070795 4.27214809 4.47265625 4.3203125 C3.27189453 4.37251953 3.27189453 4.37251953 2.046875 4.42578125 C-0.69335959 4.07082858 -1.50655454 3.23914968 -3.21484375 1.1328125 C-2.21484375 0.1328125 -2.21484375 0.1328125 0 0 Z " fill="#122F6D" transform="translate(108.21484375,95.8671875)"/>
<path d="M0 0 C0.66 0.33 1.32 0.66 2 1 C-0.75 5.875 -0.75 5.875 -3 7 C-5.3329866 7.04022391 -7.66706666 7.04320247 -10 7 C-10.33 6.34 -10.66 5.68 -11 5 C-9.21289414 4.13633178 -7.4201535 3.28431406 -5.625 2.4375 C-4.62726563 1.96183594 -3.62953125 1.48617187 -2.6015625 0.99609375 C-1.74304688 0.66738281 -0.88453125 0.33867188 0 0 Z " fill="#D37017" transform="translate(183,44)"/>
<path d="M0 0 C1.32695791 1.99043687 2.63966665 3.99045158 3.9375 6 C5.52483554 8.30885169 6.93736451 10.14362806 9 12 C8.01 12.33 7.02 12.66 6 13 C5.01 12.34 4.02 11.68 3 11 C2.34 11.99 1.68 12.98 1 14 C0.06380187 10.84493858 -0.1057123 8.03413498 -0.0625 4.75 C-0.05347656 3.85796875 -0.04445313 2.9659375 -0.03515625 2.046875 C-0.02355469 1.37140625 -0.01195313 0.6959375 0 0 Z " fill="#4D6696" transform="translate(115,129)"/>
<path d="M0 0 C4.14305036 0.54039787 6.68218405 2.79866436 9.875 5.375 C8.885 5.87 8.885 5.87 7.875 6.375 C7.545 7.035 7.215 7.695 6.875 8.375 C6.40449219 8.03726562 5.93398437 7.69953125 5.44921875 7.3515625 C4.82660156 6.90554687 4.20398438 6.45953125 3.5625 6 C2.94761719 5.55914063 2.33273438 5.11828125 1.69921875 4.6640625 C0.1097608 3.54089093 -1.50562171 2.45458553 -3.125 1.375 C-2.125 0.375 -2.125 0.375 0 0 Z " fill="#FA9013" transform="translate(181.125,21.625)"/>
<path d="M0 0 C3.465 1.98 3.465 1.98 7 4 C7 4.99 7 5.98 7 7 C5.02 6.34 3.04 5.68 1 5 C1 9.29 1 13.58 1 18 C0.67 18 0.34 18 0 18 C0 12.06 0 6.12 0 0 Z " fill="#FDCF14" transform="translate(137,38)"/>
<path d="M0 0 C0 0.33 0 0.66 0 1 C2.475 1.495 2.475 1.495 5 2 C5 2.33 5 2.66 5 3 C-9.78132118 3.18451025 -9.78132118 3.18451025 -16 2 C-16 1.67 -16 1.34 -16 1 C-10.61509359 0.08342019 -5.45769811 -0.11138159 0 0 Z " fill="#1664A2" transform="translate(91,63)"/>
<path d="M0 0 C1.98 0.99 1.98 0.99 4 2 C3.01 2.495 3.01 2.495 2 3 C2.08378906 3.59167969 2.16757813 4.18335938 2.25390625 4.79296875 C2.80889424 9.09939457 3.23226652 12.75552644 2 17 C-0.25998595 13.40537669 -0.20868087 10.43404325 -0.125 6.25 C-0.09792969 4.49429688 -0.09792969 4.49429688 -0.0703125 2.703125 C-0.04710937 1.81109375 -0.02390625 0.9190625 0 0 Z " fill="#FCE32D" transform="translate(139,43)"/>
<path d="M0 0 C0.66 0.33 1.32 0.66 2 1 C1.67 1.33 1.34 1.66 1 2 C2.65 2.33 4.3 2.66 6 3 C6 2.34 6 1.68 6 1 C10.62 1 15.24 1 20 1 C20 1.33 20 1.66 20 2 C12.2441657 3.70994772 4.93396732 4.24923458 -3 4 C-2.67 3.01 -2.34 2.02 -2 1 C-1.34 0.67 -0.68 0.34 0 0 Z " fill="#466291" transform="translate(214,143)"/>
<path d="M0 0 C0.33 0 0.66 0 1 0 C0.49354466 8.68517024 -0.02295299 17.35209459 -1 26 C-1.33 26 -1.66 26 -2 26 C-2 18.74 -2 11.48 -2 4 C-1.34 4 -0.68 4 0 4 C0 2.68 0 1.36 0 0 Z " fill="#5793BE" transform="translate(118,188)"/>
<path d="M0 0 C3.96 0 7.92 0 12 0 C12.33 1.32 12.66 2.64 13 4 C12.34 4 11.68 4 11 4 C11 3.34 11 2.68 11 2 C9.5199159 2.11362262 8.04089926 2.24122908 6.5625 2.375 C5.73878906 2.44460937 4.91507812 2.51421875 4.06640625 2.5859375 C3.04353516 2.79089844 3.04353516 2.79089844 2 3 C1.67 3.66 1.34 4.32 1 5 C0.67 3.35 0.34 1.7 0 0 Z " fill="#2880BD" transform="translate(123,188)"/>
<path d="M0 0 C-3.16566573 2.11044382 -5.51197415 2.75552077 -9.1875 3.625 C-10.27417969 3.88539063 -11.36085937 4.14578125 -12.48046875 4.4140625 C-13.31191406 4.60742188 -14.14335937 4.80078125 -15 5 C-15 4.34 -15 3.68 -15 3 C-9.55326697 -0.29633454 -6.25490443 -1.56372611 0 0 Z " fill="#D55D41" transform="translate(202,129)"/>
<path d="M0 0 C0 0.33 0 0.66 0 1 C-1.60875 1.2165625 -1.60875 1.2165625 -3.25 1.4375 C-6.73042013 1.88483213 -6.73042013 1.88483213 -8.99121094 2.54272461 C-12.38492868 3.31526148 -15.80877093 2.82697609 -19.25 2.5625 C-19.99507812 2.51029297 -20.74015625 2.45808594 -21.5078125 2.40429688 C-23.33894861 2.2751783 -25.16953813 2.13834886 -27 2 C-27 1.67 -27 1.34 -27 1 C-17.98865693 0.3668316 -9.04028922 -0.1723784 0 0 Z " fill="#6E98BF" transform="translate(191,140)"/>
<path d="M0 0 C2.7885289 -0.22107787 5.34653181 -0.28107535 8.125 -0.1875 C8.87910156 -0.17396484 9.63320312 -0.16042969 10.41015625 -0.14648438 C12.27374127 -0.11109985 14.13695978 -0.05729167 16 0 C12.4701306 1.93302372 10.04848324 2.26403152 6 2 C5.34 1.67 4.68 1.34 4 1 C4 1.66 4 2.32 4 3 C2.02 3 0.04 3 -2 3 C-1.34 2.01 -0.68 1.02 0 0 Z " fill="#0C356F" transform="translate(216,143)"/>
<path d="M0 0 C5.29441695 -0.50423019 7.81413519 0.81076967 12 4 C10.265625 5.14453125 10.265625 5.14453125 8 6 C5.859375 5.13671875 5.859375 5.13671875 3.75 3.6875 C3.04359375 3.21699219 2.3371875 2.74648437 1.609375 2.26171875 C1.07828125 1.84535156 0.5471875 1.42898437 0 1 C0 0.67 0 0.34 0 0 Z " fill="#24467E" transform="translate(131,114)"/>
<path d="M0 0 C0.33 0 0.66 0 1 0 C1.66 2.97 2.32 5.94 3 9 C5.31 9.33 7.62 9.66 10 10 C10 8.35 10 6.7 10 5 C10.33 5 10.66 5 11 5 C11 6.98 11 8.96 11 11 C7.37 11 3.74 11 0 11 C0 7.37 0 3.74 0 0 Z " fill="#CF4041" transform="translate(159,255)"/>
<path d="M0 0 C1.485 0.99 1.485 0.99 3 2 C2.88541307 3.43836751 2.75790884 4.87570966 2.625 6.3125 C2.55539063 7.11300781 2.48578125 7.91351563 2.4140625 8.73828125 C2 11 2 11 0 14 C0 9.38 0 4.76 0 0 Z " fill="#D30B0C" transform="translate(179,100)"/>
<path d="M0 0 C2.4375 0.375 2.4375 0.375 5 1 C5.33 1.66 5.66 2.32 6 3 C5.01 4.485 5.01 4.485 4 6 C1 6 1 6 -0.6875 4.5 C-1.120625 4.005 -1.55375 3.51 -2 3 C-1.34 3 -0.68 3 0 3 C0 2.01 0 1.02 0 0 Z " fill="#EB9222" transform="translate(218,30)"/>
<path d="M0 0 C4.84166786 0.45038771 7.49668287 1.59972161 11 5 C11 5.66 11 6.32 11 7 C7.87691494 6.39196574 5.80748338 5.37985958 3.25 3.5 C2.63640625 3.0565625 2.0228125 2.613125 1.390625 2.15625 C0.93171875 1.7746875 0.4728125 1.393125 0 1 C0 0.67 0 0.34 0 0 Z " fill="#DF6F12" transform="translate(190,14)"/>
<path d="M0 0 C0.66 0 1.32 0 2 0 C3.18359375 1.6796875 3.18359375 1.6796875 4.4375 3.875 C6.17330794 6.91130355 6.98654002 7.99102668 10 10 C10 10.66 10 11.32 10 12 C6.88175879 10.63746417 4.95262649 9.14891747 2.75 6.5625 C2.22921875 5.96566406 1.7084375 5.36882812 1.171875 4.75390625 C0 3 0 3 0 0 Z " fill="#375286" transform="translate(119,149)"/>
<path d="M0 0 C-0.99 0.495 -0.99 0.495 -2 1 C-2.33 1.99 -2.66 2.98 -3 4 C-4.98 4.33 -6.96 4.66 -9 5 C-9.33 4.34 -9.66 3.68 -10 3 C-9.34 3 -8.68 3 -8 3 C-7.67 2.01 -7.34 1.02 -7 0 C-4.05610218 -1.17755913 -3.10046087 -1.03348696 0 0 Z " fill="#C3500D" transform="translate(218,120)"/>
<path d="M0 0 C-0.5625 1.9375 -0.5625 1.9375 -2 4 C-5.625 4.75 -5.625 4.75 -9 5 C-9 4.34 -9 3.68 -9 3 C-9.99 2.67 -10.98 2.34 -12 2 C-10.56342755 1.66269158 -9.12569907 1.33030409 -7.6875 1 C-6.88699219 0.814375 -6.08648437 0.62875 -5.26171875 0.4375 C-3 0 -3 0 0 0 Z " fill="#125E9F" transform="translate(111,58)"/>
<path d="M0 0 C2.97 0 5.94 0 9 0 C9.33 0.66 9.66 1.32 10 2 C7.69 2 5.38 2 3 2 C2.67 2.99 2.34 3.98 2 5 C1.01 4.34 0.02 3.68 -1 3 C-0.67 2.01 -0.34 1.02 0 0 Z " fill="#FEEC2D" transform="translate(158,34)"/>
<path d="M0 0 C3.3 0 6.6 0 10 0 C10 1.98 10 3.96 10 6 C9.01 6.495 9.01 6.495 8 7 C8 5.35 8 3.7 8 2 C5.36 2 2.72 2 0 2 C0 1.34 0 0.68 0 0 Z " fill="#DB3939" transform="translate(167,188)"/>
<path d="M0 0 C0.66 0.33 1.32 0.66 2 1 C1.34 1.66 0.68 2.32 0 3 C0.66 3.66 1.32 4.32 2 5 C-2.75 8 -2.75 8 -5 8 C-4.45773019 4.20411134 -2.79872437 2.52788007 0 0 Z " fill="#A22729" transform="translate(191,115)"/>
<path d="M0 0 C2.95409701 1.37154504 5.44008376 2.98863724 8 5 C6.63875 4.938125 6.63875 4.938125 5.25 4.875 C2.1217954 4.99531556 0.61385994 5.3914708 -2 7 C-1.34 4.69 -0.68 2.38 0 0 Z " fill="#D23F41" transform="translate(307,227)"/>
<path d="M0 0 C0.33 0 0.66 0 1 0 C1.3690205 10.55808656 1.3690205 10.55808656 -1 15 C-1.33 15 -1.66 15 -2 15 C-2.19392201 9.47322267 -1.7479503 5.24385089 0 0 Z " fill="#386DA4" transform="translate(88,214)"/>
<path d="M0 0 C1.35158203 0.15275391 1.35158203 0.15275391 2.73046875 0.30859375 C3.41753906 0.39238281 4.10460937 0.47617188 4.8125 0.5625 C4.8125 0.8925 4.8125 1.2225 4.8125 1.5625 C0.1925 2.2225 -4.4275 2.8825 -9.1875 3.5625 C-8.8575 2.5725 -8.5275 1.5825 -8.1875 0.5625 C-4.98734144 -0.50421952 -3.30205706 -0.38595472 0 0 Z " fill="#556E98" transform="translate(172.1875,154.4375)"/>
<path d="M0 0 C0 0.99 0 1.98 0 3 C-0.639375 3.28875 -1.27875 3.5775 -1.9375 3.875 C-4.15206079 4.82823451 -4.15206079 4.82823451 -5 7 C-6.32 6.67 -7.64 6.34 -9 6 C-7.8803014 4.99406757 -6.7540588 3.9954151 -5.625 3 C-4.68527344 2.1646875 -4.68527344 2.1646875 -3.7265625 1.3125 C-2 0 -2 0 0 0 Z " fill="#940A0C" transform="translate(199,112)"/>
<path d="M0 0 C0.99 0.33 1.98 0.66 3 1 C2.67 1.99 2.34 2.98 2 4 C1.77281504 6.56634861 1.58391816 9.11678107 1.4375 11.6875 C1.39431641 12.38939453 1.35113281 13.09128906 1.30664062 13.81445312 C1.2008264 15.54275206 1.09993419 17.2713511 1 19 C0.67 19 0.34 19 0 19 C0 12.73 0 6.46 0 0 Z " fill="#D47613" transform="translate(223,33)"/>
<path d="M0 0 C-1 3 -1 3 -3.0625 4.1875 C-6.85475122 5.23642055 -10.07062002 5.13319932 -14 5 C-14 4.67 -14 4.34 -14 4 C-11.69 4 -9.38 4 -7 4 C-7 3.34 -7 2.68 -7 2 C-2.25 0 -2.25 0 0 0 Z " fill="#D15557" transform="translate(260,240)"/>
<path d="M0 0 C0.33 0 0.66 0 1 0 C1.33 4.29 1.66 8.58 2 13 C1.34 13 0.68 13 0 13 C0 14.98 0 16.96 0 19 C-0.33 19 -0.66 19 -1 19 C-0.67 12.73 -0.34 6.46 0 0 Z " fill="#E06C6D" transform="translate(165,190)"/>
<path d="M0 0 C0.96661363 3.12180401 0.98988909 5.52083795 0.5625 8.75 C0.40974609 9.94882813 0.40974609 9.94882813 0.25390625 11.171875 C0.12822266 12.07679688 0.12822266 12.07679688 0 13 C-2.60704898 10.39295102 -2.23905333 8.52661759 -2.265625 4.97265625 C-2 3 -2 3 0 0 Z " fill="#2B7BB5" transform="translate(6,189)"/>
<path d="M0 0 C0 0.33 0 0.66 0 1 C-1.58086048 1.36504603 -3.16483907 1.71660506 -4.75 2.0625 C-5.63171875 2.25972656 -6.5134375 2.45695313 -7.421875 2.66015625 C-9.98679028 2.99825872 -11.57091639 2.81158635 -14 2 C-13 0 -13 0 -10.9375 -0.6875 C-7.11000622 -1.09468019 -3.80415113 -0.58029424 0 0 Z " fill="#596E97" transform="translate(208,149)"/>
<path d="M0 0 C1.65 0.33 3.3 0.66 5 1 C2.27521226 4.36591427 -1.06856792 5.44226276 -5 7 C-4.67 6.01 -4.34 5.02 -4 4 C-1.9375 3.3125 -1.9375 3.3125 0 3 C0 2.01 0 1.02 0 0 Z " fill="#982323" transform="translate(199,112)"/>
<path d="M0 0 C0.99 0 1.98 0 3 0 C3.66 0.99 4.32 1.98 5 3 C5.98095748 4.01868662 6.97702078 5.02351983 8 6 C6.25 6.6875 6.25 6.6875 4 7 C1.75 5.8125 1.75 5.8125 0 4 C0 2.68 0 1.36 0 0 Z " fill="#EF8927" transform="translate(185,8)"/>
<path d="M0 0 C3.96 0 7.92 0 12 0 C12 0.66 12 1.32 12 2 C12.66 2 13.32 2 14 2 C14 2.66 14 3.32 14 4 C11.03 3.505 11.03 3.505 8 3 C8 2.67 8 2.34 8 2 C5.36 1.67 2.72 1.34 0 1 C0 0.67 0 0.34 0 0 Z " fill="#073877" transform="translate(223,139)"/>
<path d="M0 0 C0.66 0.33 1.32 0.66 2 1 C1.01 2.485 1.01 2.485 0 4 C0.66 4.66 1.32 5.32 2 6 C0.35 6.66 -1.3 7.32 -3 8 C-3 7.01 -3 6.02 -3 5 C-3.66 4.34 -4.32 3.68 -5 3 C-2.625 1.4375 -2.625 1.4375 0 0 Z " fill="#D26426" transform="translate(209,120)"/>
<path d="M0 0 C4.67692308 1.47692308 4.67692308 1.47692308 6.3125 4.125 C6.539375 4.74375 6.76625 5.3625 7 6 C3.20411134 5.45773019 1.52788007 3.79872437 -1 1 C-0.67 0.67 -0.34 0.34 0 0 Z " fill="#E8760E" transform="translate(147,107)"/>
<path d="M0 0 C-0.33 0.66 -0.66 1.32 -1 2 C-3.97 2 -6.94 2 -10 2 C-10 1.34 -10 0.68 -10 0 C-6.30581799 -1.231394 -3.7943739 -0.64432764 0 0 Z " fill="#1D6FAB" transform="translate(90,74)"/>
<path d="M0 0 C0.33 0 0.66 0 1 0 C1.19392201 5.52677733 0.7479503 9.75614911 -1 15 C-1.33 15 -1.66 15 -2 15 C-2.19392201 9.47322267 -1.7479503 5.24385089 0 0 Z " fill="#3884BB" transform="translate(91,182)"/>
<path d="M0 0 C4.455 0.99 4.455 0.99 9 2 C9 2.99 9 3.98 9 5 C4.89198233 3.81323934 3.10551666 3.10551666 0 0 Z " fill="#FAA111" transform="translate(204,21)"/>
<path d="M0 0 C1.32 0 2.64 0 4 0 C2.7508258 3.45925163 1.32472205 6.14693203 -1 9 C-2.21393603 5.3581919 -1.5159569 4.38860954 0 1 C0 0.67 0 0.34 0 0 Z " fill="#2F7DB7" transform="translate(158,188)"/>
<path d="M0 0 C1.32 0.33 2.64 0.66 4 1 C4 1.66 4 2.32 4 3 C4.99 3.33 5.98 3.66 7 4 C4.35261084 5.4606285 3.10551666 6 0 6 C0 4.02 0 2.04 0 0 Z " fill="#295992" transform="translate(124,141)"/>
<path d="M0 0 C0.66 0.33 1.32 0.66 2 1 C0.68 2.32 -0.64 3.64 -2 5 C-2 4.34 -2 3.68 -2 3 C-2.66 3 -3.32 3 -4 3 C-4 3.99 -4 4.98 -4 6 C-4.99 5.67 -5.98 5.34 -7 5 C-7 4.34 -7 3.68 -7 3 C-4.69631264 1.93347808 -2.35981813 0.93578995 0 0 Z " fill="#CF6306" transform="translate(183,44)"/>
<path d="M0 0 C5.75 1.875 5.75 1.875 8 3 C7.67 3.99 7.34 4.98 7 6 C4.0625 4.6875 4.0625 4.6875 1 3 C0.67 2.01 0.34 1.02 0 0 Z " fill="#FA9D1B" transform="translate(188,9)"/>
<path d="M0 0 C0.33 0.66 0.66 1.32 1 2 C0.22265625 3.7265625 0.22265625 3.7265625 -0.9375 5.625 C-1.618125 6.73875 -2.29875 7.8525 -3 9 C-3.89674777 6.48910624 -4.13172674 5.35464891 -3.1875 2.8125 C-2 1 -2 1 0 0 Z " fill="#4372A3" transform="translate(80,228)"/>
<path d="M0 0 C-0.33 0.99 -0.66 1.98 -1 3 C-3.64 3 -6.28 3 -9 3 C-6.38997624 -0.48003168 -4.1689578 -0.27793052 0 0 Z " fill="#153871" transform="translate(153,157)"/>
<path d="M0 0 C2.475 0.99 2.475 0.99 5 2 C5 2.99 5 3.98 5 5 C3.02 4.34 1.04 3.68 -1 3 C-0.67 2.01 -0.34 1.02 0 0 Z " fill="#EA7E0A" transform="translate(166,44)"/>
<path d="M0 0 C0.66 0 1.32 0 2 0 C0.7508258 3.45925163 -0.67527795 6.14693203 -3 9 C-3.33 8.01 -3.66 7.02 -4 6 C-2.1875 2.8125 -2.1875 2.8125 0 0 Z " fill="#426D9E" transform="translate(132,234)"/>
<path d="M0 0 C0.33 0 0.66 0 1 0 C1.92470553 4.71599818 2.22923777 7.67265609 0 12 C-0.33 12 -0.66 12 -1 12 C-1.14285714 3.42857143 -1.14285714 3.42857143 0 0 Z " fill="#4879AA" transform="translate(2,222)"/>
<path d="M0 0 C0.33 0.99 0.66 1.98 1 3 C-0.65 4.32 -2.3 5.64 -4 7 C-3.6875 4.625 -3.6875 4.625 -3 2 C-2.01 1.34 -1.02 0.68 0 0 Z " fill="#D52528" transform="translate(316,189)"/>
<path d="M0 0 C5.875 3.625 5.875 3.625 7 7 C4.08482708 5.92598892 2.22189824 5.22189824 0 3 C0 2.01 0 1.02 0 0 Z " fill="#3B5E91" transform="translate(123,125)"/>
<path d="M0 0 C0.66 0.99 1.32 1.98 2 3 C0.35 4.32 -1.3 5.64 -3 7 C-3.33 6.34 -3.66 5.68 -4 5 C-2.68 3.35 -1.36 1.7 0 0 Z " fill="#8C1E1E" transform="translate(211,105)"/>
<path d="M0 0 C1.32 0.99 2.64 1.98 4 3 C1.35261084 4.4606285 0.10551666 5 -3 5 C-1.125 1.125 -1.125 1.125 0 0 Z " fill="#CF722C" transform="translate(185,44)"/>
<path d="M0 0 C2.31 0 4.62 0 7 0 C6.67 0.66 6.34 1.32 6 2 C3.35139573 2.59355614 0.70802678 2.74209269 -2 3 C-1.34 2.67 -0.68 2.34 0 2 C0 1.34 0 0.68 0 0 Z " fill="#1D3464" transform="translate(146,18)"/>
<path d="M0 0 C0.33 0 0.66 0 1 0 C1.33 3.63 1.66 7.26 2 11 C1.01 11.33 0.02 11.66 -1 12 C-0.67 8.04 -0.34 4.08 0 0 Z " fill="#6381AB" transform="translate(85,231)"/>
<path d="M0 0 C0.33 0.99 0.66 1.98 1 3 C-1.97 5.475 -1.97 5.475 -5 8 C-4.67 6.68 -4.34 5.36 -4 4 C-3.34 4 -2.68 4 -2 4 C-1.34 2.68 -0.68 1.36 0 0 Z " fill="#326096" transform="translate(75,235)"/>
<path d="M0 0 C0.33 1.32 0.66 2.64 1 4 C-2.4019487 6.09350689 -5.05272412 6.17942163 -9 6 C-9 5.67 -9 5.34 -9 5 C-7.88625 4.731875 -6.7725 4.46375 -5.625 4.1875 C-1.78159049 3.34190981 -1.78159049 3.34190981 0 0 Z " fill="#5484B3" transform="translate(69,226)"/>
<path d="M0 0 C0.66 0.33 1.32 0.66 2 1 C1.67 1.66 1.34 2.32 1 3 C1.66 3.33 2.32 3.66 3 4 C1.02 4.66 -0.96 5.32 -3 6 C-1.125 1.125 -1.125 1.125 0 0 Z " fill="#A62B2C" transform="translate(183,120)"/>
</svg>
