<?xml version="1.0" encoding="UTF-8"?>
<svg version="1.1" xmlns="http://www.w3.org/2000/svg" width="1536" height="1024">
<path d="M0 0 C506.88 0 1013.76 0 1536 0 C1536 337.92 1536 675.84 1536 1024 C1029.12 1024 522.24 1024 0 1024 C0 686.08 0 348.16 0 0 Z " fill="#FDFDFD" transform="translate(0,0)"/>
<path d="M0 0 C8.13274591 -0.32530984 12.75257019 1.70716572 19.20703125 6.44921875 C21.31101508 9.43551838 21.39841587 9.9519123 21.01953125 13.38671875 C20.14453125 17.19921875 20.14453125 17.19921875 19.14453125 19.19921875 C16.07306884 19.73758045 13.0512213 20.15330795 9.95703125 20.51171875 C-13.26781717 23.45103517 -36.36172438 27.46524579 -59.17431641 32.73486328 C-65.44191637 34.17639761 -71.7371296 35.14832851 -78.1015625 36.0546875 C-84.16836244 36.95990112 -84.16836244 36.95990112 -89.85546875 39.19921875 C-91.07791978 41.6441208 -90.98933113 43.23453914 -91.00263977 45.96847534 C-91.00979507 46.97514252 -91.01695038 47.98180969 -91.02432251 49.01898193 C-91.02701141 50.12759583 -91.02970032 51.23620972 -91.0324707 52.37841797 C-91.0423275 54.12486099 -91.0423275 54.12486099 -91.05238342 55.90658569 C-91.07214891 59.7723598 -91.08378507 63.63809504 -91.09375 67.50390625 C-91.09782553 68.82098698 -91.10190105 70.1380677 -91.10610008 71.49505997 C-91.12515077 77.74424415 -91.13938287 83.99341652 -91.14771205 90.24262416 C-91.15748895 97.45902701 -91.18382033 104.67512348 -91.22421294 111.89141834 C-91.25435603 117.4676985 -91.26917913 123.04389075 -91.27249306 128.62025082 C-91.27484542 131.95163082 -91.28579461 135.28260815 -91.30895424 138.6139183 C-91.33318649 142.32994014 -91.33240956 146.04515456 -91.32543945 149.76123047 C-91.33824951 150.8657959 -91.35105957 151.97036133 -91.36425781 153.10839844 C-91.357314 154.12070526 -91.35037018 155.13301208 -91.34321594 156.17599487 C-91.34679847 157.49394956 -91.34679847 157.49394956 -91.35045338 158.83852959 C-90.6920839 161.97843659 -89.27569403 163.16658071 -86.85546875 165.19921875 C-84.92311085 166.36626381 -84.92311085 166.36626381 -82.83496094 167.22290039 C-81.65914711 167.74030289 -81.65914711 167.74030289 -80.45957947 168.26815796 C-79.61569168 168.62825958 -78.77180389 168.98836121 -77.90234375 169.359375 C-76.57469749 169.93964951 -76.57469749 169.93964951 -75.2202301 170.53164673 C-72.35220639 171.78337644 -69.47888336 173.0224215 -66.60546875 174.26171875 C-63.66797468 175.54085505 -60.73198164 176.82339161 -57.7960968 178.10621643 C-55.85814454 178.95282523 -53.91974061 179.7984009 -51.98088074 180.64292908 C-44.33749826 183.97501881 -36.73826595 187.39176887 -29.16796875 190.88671875 C-28.19118164 191.33732666 -27.21439453 191.78793457 -26.20800781 192.25219727 C-24.08922647 193.23184673 -21.97153193 194.21371557 -19.85546875 195.19921875 C-19.85546875 195.52921875 -19.85546875 195.85921875 -19.85546875 196.19921875 C-29.16613241 196.31564693 -38.47654116 196.40420239 -47.78777695 196.45827961 C-52.11252514 196.48424888 -56.43677118 196.51941117 -60.76123047 196.57641602 C-64.94342147 196.6311934 -69.12513296 196.66073427 -73.30765533 196.67360497 C-74.89431546 196.68276366 -76.48095269 196.70064613 -78.0674057 196.72786903 C-90.07703916 196.92554211 -101.05575532 195.54453462 -110.29296875 187.01171875 C-121.20049947 176.20940537 -120.75757654 164.82930621 -120.85546875 150.19921875 C-121.94214844 150.1734375 -123.02882813 150.14765625 -124.1484375 150.12109375 C-134.95713691 149.77253772 -145.64335364 148.83439058 -156.38000488 147.58938599 C-177.24167387 145.17158945 -198.12907414 143.84523746 -219.09242249 142.65307617 C-226.35240352 142.23814286 -233.60444093 141.75074932 -240.85546875 141.19921875 C-240.85546875 140.53921875 -240.85546875 139.87921875 -240.85546875 139.19921875 C-240.23430176 139.17638321 -239.61313477 139.15354767 -238.97314453 139.13002014 C-232.48372482 138.89076503 -225.99450243 138.64660838 -219.50537109 138.3996582 C-217.0864726 138.30824164 -214.66752719 138.21805744 -212.24853516 138.12915039 C-208.76321433 138.00083438 -205.27808857 137.86802659 -201.79296875 137.734375 C-200.71869629 137.69578873 -199.64442383 137.65720245 -198.53759766 137.6174469 C-192.91471232 137.39722721 -187.43040842 136.95280466 -181.85546875 136.19921875 C-180.10964121 136.07977225 -178.36198599 135.98287625 -176.61328125 135.91796875 C-175.69160156 135.88058594 -174.76992188 135.84320313 -173.8203125 135.8046875 C-172.88316406 135.76988281 -171.94601562 135.73507812 -170.98046875 135.69921875 C-165.6655999 135.5001876 -160.39017176 135.28938998 -155.10546875 134.671875 C-148.3275941 133.94802431 -141.53848893 134.09281783 -134.73046875 134.13671875 C-133.37890792 134.14174736 -132.02734527 134.14630784 -130.67578125 134.15039062 C-127.40232416 134.16208154 -124.12889038 134.18001354 -120.85546875 134.19921875 C-120.85546875 128.58921875 -120.85546875 122.97921875 -120.85546875 117.19921875 C-123.57128174 117.27962402 -126.28709473 117.3600293 -129.08520508 117.44287109 C-141.94603748 117.82302459 -154.80697613 118.19952713 -167.66796875 118.57421875 C-168.83215332 118.60813847 -169.99633789 118.64205818 -171.19580078 118.67700577 C-205.08047176 119.66311317 -238.96588938 120.58608199 -272.85546875 121.38671875 C-273.75894169 121.40806633 -274.66241463 121.42941391 -275.59326553 121.45140839 C-286.34723199 121.70511517 -297.10129023 121.95466562 -307.85546875 122.19921875 C-307.85546875 121.53921875 -307.85546875 120.87921875 -307.85546875 120.19921875 C-306.74252441 120.07393799 -305.62958008 119.94865723 -304.48291016 119.81958008 C-284.10032932 117.52312927 -263.72131186 115.20255404 -243.35546875 112.76171875 C-228.24277437 110.9531319 -213.12788419 109.16413907 -198.0090332 107.40768433 C-195.78414606 107.1488443 -193.55936881 106.88905754 -191.3347168 106.62820435 C-179.26636914 105.2140386 -167.20189097 103.88927008 -155.09332275 102.86592102 C-150.08060172 102.43607114 -145.13858846 101.85470879 -140.16796875 101.07421875 C-134.35612841 100.17685378 -128.72692655 99.98353255 -122.85546875 100.19921875 C-122.85546875 99.53921875 -122.85546875 98.87921875 -122.85546875 98.19921875 C-162.78546875 98.19921875 -202.71546875 98.19921875 -243.85546875 98.19921875 C-240.75211567 96.1303167 -239.48993851 95.84186171 -235.89453125 95.453125 C-234.86199219 95.33775391 -233.82945312 95.22238281 -232.765625 95.10351562 C-231.68152344 94.99072266 -230.59742188 94.87792969 -229.48046875 94.76171875 C-228.49691406 94.65279297 -227.51335937 94.54386719 -226.5 94.43164062 C-220.54179161 93.77962387 -214.57930918 93.17048194 -208.61645508 92.56274414 C-195.6034039 91.23304233 -182.59827596 89.8549486 -169.6015625 88.375 C-168.92972931 88.29854059 -168.25789612 88.22208118 -167.56570435 88.14330482 C-161.39459392 87.44043259 -155.22396607 86.73336137 -149.0534668 86.02514648 C-146.2803334 85.70698021 -143.50706839 85.39000566 -140.73365784 85.07426453 C-138.16144371 84.78130556 -135.58944095 84.486483 -133.01768494 84.18952942 C-131.8703035 84.05906723 -130.72292206 83.92860504 -129.54077148 83.79418945 C-128.03316505 83.621231 -128.03316505 83.621231 -126.49510193 83.44477844 C-123.85546875 83.19921875 -123.85546875 83.19921875 -119.85546875 83.19921875 C-119.85768936 82.58249298 -119.85990997 81.96576721 -119.86219788 81.33035278 C-119.88443461 74.87323591 -119.89945162 68.41613004 -119.91040039 61.95898438 C-119.91540869 59.55370644 -119.92221723 57.14843151 -119.9309082 54.74316406 C-119.94312787 51.27277886 -119.94873224 47.80243415 -119.953125 44.33203125 C-119.95828629 43.26808136 -119.96344757 42.20413147 -119.96876526 41.10794067 C-119.97010264 23.04204386 -119.97010264 23.04204386 -116.54296875 18.69921875 C-112.70328241 15.1274175 -109.87658892 14.0037456 -104.69140625 13.48828125 C-103.66587646 13.38008057 -102.64034668 13.27187988 -101.58374023 13.16040039 C-100.47716064 13.04946045 -99.37058105 12.93852051 -98.23046875 12.82421875 C-89.20764924 11.85607817 -80.2515106 10.70766376 -71.29296875 9.26171875 C-59.64000104 7.39089971 -47.95738918 5.93739054 -36.23413086 4.59399414 C-29.52569275 3.81785513 -22.87955779 2.94210614 -16.25170898 1.63183594 C-10.86947737 0.6601279 -5.44694979 0.38001975 0 0 Z " fill="#1C4C88" transform="translate(760.85546875,284.80078125)"/>
<path d="M0 0 C7.63136321 -0.07649345 15.26262637 -0.1287852 22.89428711 -0.16479492 C25.48677261 -0.17981774 28.07923298 -0.20024186 30.67163086 -0.22631836 C34.41266105 -0.26298808 38.15335319 -0.27979212 41.89453125 -0.29296875 C43.61395683 -0.31619453 43.61395683 -0.31619453 45.36811829 -0.33988953 C56.5286708 -0.34218788 67.16757553 1.55102792 75.53125 9.4453125 C80.73246802 15.22108367 81.58714382 21.24057662 81.4375 28.76953125 C80.2616579 37.45186536 75.64363434 44.27562047 68.9296875 49.6953125 C65.80576733 51.80743667 63.82696736 53 60 53 C60 53.66 60 54.32 60 55 C60.804375 55.020625 61.60875 55.04125 62.4375 55.0625 C68.51716875 56.66241283 73.41132819 60.45670029 76.7421875 65.7890625 C80.03560384 74.19647937 78.80971885 84.38584894 75.3125 92.5703125 C70.41760465 101.63169616 62.84497291 106.8810713 53.06550598 109.90840149 C45.02072136 111.84826872 37.51832687 112.40133799 29.26171875 112.29296875 C27.39154839 112.28660149 27.39154839 112.28660149 25.4835968 112.28010559 C21.5513328 112.26348433 17.61960574 112.22586318 13.6875 112.1875 C11.0006641 112.17071336 8.31381388 112.15854037 5.62695312 112.14648438 C-0.91554383 112.11363521 -7.45773353 112.06360397 -14 112 C-13.51437338 96.97744418 -11.30521657 82.13652362 -9.28112793 67.26251221 C-8.90293707 64.47107608 -8.53119951 61.67879591 -8.15953064 58.8864851 C-7.71376772 55.54237371 -7.26306353 52.19893686 -6.8125 48.85546875 C-6.56246216 46.9853437 -6.56246216 46.9853437 -6.30737305 45.07743835 C-6.15051025 43.9280629 -5.99364746 42.77868744 -5.83203125 41.59448242 C-5.62670776 40.07802376 -5.62670776 40.07802376 -5.41723633 38.53092957 C-5 36 -5 36 -4 33 C-3.64282811 30.49616881 -3.32007457 27.99965065 -3.02734375 25.48828125 C-2.93997452 24.76005661 -2.85260529 24.03183197 -2.7625885 23.28153992 C-2.48461034 20.95886725 -2.2110017 18.63570362 -1.9375 16.3125 C-1.7496368 14.73629379 -1.56148915 13.16012146 -1.37304688 11.58398438 C-0.91206468 7.72304137 -0.45500022 3.86165234 0 0 Z " fill="#1E64A1" transform="translate(392,533)"/>
<path d="M0 0 C2.30838889 2.44211409 2.26872623 4.14927553 2.21170616 7.43117905 C2.1790346 8.15370991 2.14636303 8.87624077 2.11270142 9.6206665 C2.09494974 10.37678349 2.07719807 11.13290047 2.05890846 11.91193008 C2.02115698 13.4886604 1.97540738 15.06521795 1.92197418 16.64149475 C1.81189812 20.11038313 1.79183238 23.57789841 1.76016235 27.04840088 C1.6666941 33.59661149 1.52839774 40.14399321 1.37711143 46.69109726 C1.28689569 50.61383299 1.20842559 54.53610039 1.15567017 58.45953369 C1.10363542 62.30548268 1.0229929 66.1498507 0.92216873 69.99481964 C0.88895657 71.44743604 0.8658499 72.90032191 0.85331345 74.35326385 C0.74609685 85.59924248 0.74609685 85.59924248 -1.45812988 88.93026733 C-4.45057035 91.50375808 -8.09015333 93.00912173 -11.77645874 94.33062744 C-12.89794312 94.73797119 -14.01942749 95.14531494 -15.17489624 95.56500244 C-16.50013508 96.02934969 -17.82568289 96.49281566 -19.15145874 96.95562744 C-20.81043007 97.54383878 -22.46927689 98.13240135 -24.12802124 98.72125244 C-30.643946 101.0234735 -37.16633116 103.30322656 -43.72567749 105.47906494 C-48.07297893 106.92181668 -52.39604245 108.42744324 -56.71395874 109.95562744 C-57.76873413 110.32687744 -57.76873413 110.32687744 -58.84481812 110.70562744 C-62.4207218 111.96887217 -65.96798474 113.27497467 -69.49911499 114.65875244 C-73.13918669 115.95126988 -74.58508965 116.21434594 -78.15145874 114.95562744 C-78.81145874 114.62562744 -79.47145874 114.29562744 -80.15145874 113.95562744 C-80.15145874 84.25562744 -80.15145874 54.55562744 -80.15145874 23.95562744 C-74.54321382 21.46307414 -69.5298161 19.29981416 -63.77255249 17.48297119 C-63.11618301 17.27378555 -62.45981354 17.06459991 -61.78355408 16.84907532 C-59.72018742 16.19224897 -57.65475914 15.5422542 -55.58895874 14.89312744 C-52.85759819 14.03003671 -50.12720268 13.16395554 -47.39755249 12.29547119 C-46.74838364 12.08913055 -46.09921478 11.88278992 -45.43037415 11.67019653 C-40.94248994 10.23401841 -36.54761641 8.6483444 -32.15145874 6.95562744 C-29.02260958 5.88548925 -25.88675703 4.84122688 -22.74545288 3.80841064 C-19.95095758 2.88827619 -17.16337639 1.95989821 -14.39364624 0.96734619 C-4.95842468 -2.40694491 -4.95842468 -2.40694491 0 0 Z " fill="#CB1114" transform="translate(857.1514587402344,355.04437255859375)"/>
<path d="M0 0 C3.68703156 0.68891543 6.76335096 1.64882122 10.17578125 3.22265625 C11.15973877 3.67431152 12.14369629 4.1259668 13.1574707 4.59130859 C14.19863037 5.07680176 15.23979004 5.56229492 16.3125 6.0625 C17.3955542 6.56346191 18.4786084 7.06442383 19.59448242 7.58056641 C25.98355899 10.55043857 32.32744782 13.5915675 38.60595703 16.78808594 C46.59129372 20.84328388 54.68935314 24.67011711 62.7746582 28.52099609 C63.89445068 29.0567627 65.01424316 29.5925293 66.16796875 30.14453125 C67.17110107 30.62253174 68.1742334 31.10053223 69.20776367 31.59301758 C72.82763872 33.4170396 76.12233896 35.12233896 79 38 C79.18824486 40.89222553 79.25170246 43.6879814 79.22705078 46.58056641 C79.22734283 47.46843338 79.22763489 48.35630035 79.22793579 49.27107239 C79.22653907 52.21466747 79.21096184 55.15801147 79.1953125 58.1015625 C79.19158358 60.13894513 79.18873604 62.17632954 79.18673706 64.2137146 C79.17909104 69.58301725 79.15943425 74.95221216 79.1373291 80.32147217 C79.11689151 85.79763328 79.10773982 91.27381176 79.09765625 96.75 C79.07618926 107.50004741 79.04204166 118.25001475 79 129 C74.5825536 128.41470999 70.86375492 127.75650158 66.796875 125.91796875 C65.83023926 125.48669678 64.86360352 125.0554248 63.86767578 124.61108398 C62.83884277 124.14130127 61.81000977 123.67151855 60.75 123.1875 C58.51309135 122.18213476 56.27610962 121.1769321 54.0390625 120.171875 C52.8830957 119.64916016 51.72712891 119.12644531 50.53613281 118.58789062 C47.04197223 117.01884751 43.53574191 115.48107107 40.0234375 113.953125 C4.4237207 98.4237207 4.4237207 98.4237207 0 94 C-0.09525367 91.07805335 -0.12552736 88.17979671 -0.11352539 85.25756836 C-0.11367142 84.3405867 -0.11381744 83.42360504 -0.1139679 82.47883606 C-0.1132684 79.43248164 -0.10547428 76.38618755 -0.09765625 73.33984375 C-0.0957922 71.23377007 -0.09436824 69.12769597 -0.09336853 67.0216217 C-0.08954231 61.46657117 -0.07971114 55.91154659 -0.06866455 50.35650635 C-0.05845267 44.6927526 -0.05387139 39.02899467 -0.04882812 33.36523438 C-0.03808896 22.24347815 -0.0210113 11.12174123 0 0 Z " fill="#FBAC15" transform="translate(683,341)"/>
<path d="M0 0 C6.95175298 6.45755253 9.83957253 15.68673225 10.48828125 24.875 C10.78782726 39.50545782 7.2434064 54.79794818 -2.96875 65.84375 C-12.8365119 75.01903738 -23.18188777 79.124747 -36.53442383 78.97509766 C-43.91876764 78.67471194 -50.35064203 77.01784154 -55.875 71.875 C-57.75 69.5 -57.75 69.5 -57.75 67.5 C-58.41 67.5 -59.07 67.5 -59.75 67.5 C-59.72035156 68.73878906 -59.69070313 69.97757813 -59.66015625 71.25390625 C-59.66129206 77.0522165 -60.40239851 82.7007817 -61.1875 88.4375 C-61.32220703 89.47712891 -61.45691406 90.51675781 -61.59570312 91.58789062 C-62.61497615 99.22995231 -62.61497615 99.22995231 -63.75 101.5 C-64.08 104.47 -64.41 107.44 -64.75 110.5 C-72.67 110.5 -80.59 110.5 -88.75 110.5 C-88.75 99.25583288 -88.75 99.25583288 -87.98046875 95.16015625 C-87.81554932 94.25386475 -87.65062988 93.34757324 -87.48071289 92.41381836 C-87.30145264 91.4728833 -87.12219238 90.53194824 -86.9375 89.5625 C-86.56412189 87.50278199 -86.19173707 85.44288369 -85.8203125 83.3828125 C-85.63629883 82.37508789 -85.45228516 81.36736328 -85.26269531 80.32910156 C-82.68442677 66.1019702 -80.84571607 51.77926781 -78.98968506 37.44424438 C-77.12908757 23.08867212 -75.02082804 8.79780618 -72.75 -5.5 C-65.16 -5.5 -57.57 -5.5 -49.75 -5.5 C-49.75 -2.53 -49.75 0.44 -49.75 3.5 C-49.21632813 3.02949219 -48.68265625 2.55898438 -48.1328125 2.07421875 C-34.63509054 -9.2050195 -14.47085829 -10.58690498 0 0 Z " fill="#CC171A" transform="translate(821.75,568.5)"/>
<path d="M0 0 C0.93392578 -0.02449219 1.86785156 -0.04898438 2.83007812 -0.07421875 C14.15937257 -0.12139138 22.74320271 4.30363658 30.875 11.96484375 C38.15515068 19.70000385 39.81602132 28.16530472 39.73046875 38.47973633 C39.20542953 51.63169542 33.52494934 64.67528644 23.875 73.6875 C19.59896728 77.23417597 15.24694446 80.07999427 10.1875 82.375 C9.49914062 82.6946875 8.81078125 83.014375 8.1015625 83.34375 C-2.6366259 87.41295823 -18.0876353 87.31934477 -28.55859375 82.6328125 C-37.30104586 77.75400907 -44.4778069 71.05304943 -47.34375 61.17578125 C-49.73276248 46.90143171 -48.12582776 31.89389651 -39.75 19.87109375 C-29.45235508 6.60457136 -16.76226718 0.02285244 0 0 Z " fill="#1E629F" transform="translate(524.8125,561.625)"/>
<path d="M0 0 C0.556875 0.721875 1.11375 1.44375 1.6875 2.1875 C9.56524184 11.76853738 17.75312265 16.96499177 30 19 C32.56830479 19.0936628 35.10806074 19.14001452 37.67578125 19.1328125 C38.42484238 19.13422241 39.1739035 19.13563232 39.94566345 19.13708496 C42.40132293 19.13922831 44.85685339 19.13288853 47.3125 19.125 C48.15945435 19.1234491 49.00640869 19.12189819 49.87902832 19.12030029 C72.95418131 19.0709782 95.96615425 18.31816113 118.99572754 16.86630249 C131.34545007 16.09013079 143.68772614 15.63013839 156.05810547 15.34179688 C162.00984661 15.19729777 167.94403685 15.02390243 173.88668823 14.65934753 C184.78915787 13.99214871 195.69538929 13.66358089 206.61334229 13.36924744 C209.96348984 13.2788626 213.31353551 13.18527084 216.66357422 13.09094238 C224.97654844 12.85750123 233.28966625 12.62935304 241.6027832 12.40106201 C248.65731151 12.20712597 255.71177667 12.01111839 262.76617432 11.81248474 C266.03270388 11.72132571 269.29930372 11.63310751 272.56591797 11.54504395 C282.43299183 11.27178006 292.28159583 10.91555671 302.13519859 10.3281641 C307.23466571 10.02770467 312.30676519 9.86315684 317.4140625 9.90234375 C318.16545502 9.9037587 318.91684753 9.90517365 319.69100952 9.90663147 C322.00238723 9.91205994 324.31365354 9.92457246 326.625 9.9375 C328.22916523 9.94253739 329.83333204 9.94709625 331.4375 9.95117188 C335.29170709 9.96197189 339.14583497 9.97910586 343 10 C343 10.33 343 10.66 343 11 C331.88739143 13.2099828 320.77182705 14.68482055 309.4987793 15.8215332 C302.7962767 16.51458178 296.14977866 17.40598586 289.4921875 18.43359375 C277.92032683 20.215593 266.3067453 21.55037274 254.67553711 22.87768555 C241.67954857 24.35642847 241.67954857 24.35642847 228.78491211 26.51977539 C223.01457331 27.51480094 217.17369656 28.05959108 211.35391235 28.68902588 C198.55073103 30.07736579 185.8180427 31.67801689 173.09521484 33.6796875 C163.33112565 35.17240307 153.55739636 36.2035166 143.6953125 36.75390625 C141.03233053 36.83215379 141.03233053 36.83215379 139 38 C136.60767774 38.30851724 134.22839036 38.56907959 131.828125 38.796875 C130.2980749 38.9499061 128.76804661 39.10315529 127.23803711 39.2565918 C126.01913284 39.37688248 126.01913284 39.37688248 124.77560425 39.49960327 C109.79614851 40.98471588 94.85933946 42.70601701 79.9375 44.6875 C78.70694885 44.8499823 78.70694885 44.8499823 77.45153809 45.01574707 C75.12227 45.32421359 72.79344911 45.63579165 70.46484375 45.94921875 C69.78000412 46.04073715 69.09516449 46.13225555 68.38957214 46.22654724 C65.69106897 46.59497819 63.02293837 46.99520175 60.35644531 47.55297852 C55.88658046 48.4009191 51.34864092 48.22684165 46.8125 48.25 C45.82185547 48.270625 44.83121094 48.29125 43.81054688 48.3125 C31.01398945 48.37962948 23.01713438 44.70812295 13.87109375 35.96484375 C5.51579457 27.22903759 -0.04911782 16.19806088 -0.125 4 C-0.09346189 2.66638865 -0.05553449 1.33282775 0 0 Z " fill="#1D4B87" transform="translate(635,477)"/>
<path d="M0 0 C6.38651641 5.35136469 10.56211587 10.7149992 12.26171875 19.01171875 C12.35057074 20.46671198 12.39231902 21.92511052 12.39453125 23.3828125 C12.39582031 24.20458984 12.39710938 25.02636719 12.3984375 25.87304688 C12.39457031 26.72318359 12.39070312 27.57332031 12.38671875 28.44921875 C12.39058594 29.29548828 12.39445313 30.14175781 12.3984375 31.01367188 C12.39714844 31.83673828 12.39585937 32.65980469 12.39453125 33.5078125 C12.39340332 34.25216553 12.39227539 34.99651855 12.39111328 35.76342773 C12.26171875 38.01171875 12.26171875 38.01171875 11.26171875 43.01171875 C-8.53828125 43.01171875 -28.33828125 43.01171875 -48.73828125 43.01171875 C-46.96247737 50.11493427 -45.96913771 54.07457652 -40.67578125 58.88671875 C-33.61798161 61.58970585 -25.9841957 60.31960986 -18.9609375 58.015625 C-16.71671434 57.00197763 -15.18583639 55.90156159 -13.36328125 54.26171875 C-10.73828125 52.01171875 -10.73828125 52.01171875 -8.87109375 52.0703125 C-5.85030885 53.40366261 -4.18333261 55.37451273 -1.98828125 57.82421875 C-1.1890625 58.69691406 -0.38984375 59.56960938 0.43359375 60.46875 C2.26171875 63.01171875 2.26171875 63.01171875 2.26171875 67.01171875 C-5.57101075 75.24990719 -18.06776969 79.09234835 -29.19311523 79.50170898 C-42.22600301 79.56182243 -53.6370734 77.42268916 -63.48046875 68.41796875 C-71.27510251 60.196763 -72.28407923 51.23710056 -72.140625 40.34155273 C-71.70612317 27.17935665 -66.78039228 16.68668726 -57.84375 6.9609375 C-42.9048424 -6.86933132 -17.55975184 -12.75023351 0 0 Z " fill="#CB1719" transform="translate(969.73828125,567.98828125)"/>
<path d="M0 0 C8.91 0 17.82 0 27 0 C31.375 8.3125 31.375 8.3125 32.74365234 10.91918945 C33.10410645 11.60198975 33.46456055 12.28479004 33.8359375 12.98828125 C34.20251465 13.68477783 34.5690918 14.38127441 34.94677734 15.09887695 C35.87953389 16.78255225 36.93232138 18.39848207 38 20 C38 20.99 38 21.98 38 23 C41.09924987 20.74600009 43.68870127 18.32118479 46.1875 15.4375 C46.80496094 14.75558594 47.42242188 14.07367187 48.05859375 13.37109375 C50.10545919 10.99943418 50.10545919 10.99943418 51.72265625 8.03515625 C54.09697271 4.48054375 56.06715227 1.74107652 60 0 C68.89735016 -1.39767342 78.05709419 -0.67292966 87 0 C85.59837957 3.14612093 83.93203803 5.34989679 81.55078125 7.828125 C80.86693359 8.54613281 80.18308594 9.26414062 79.47851562 10.00390625 C78.40633789 11.11572266 78.40633789 11.11572266 77.3125 12.25 C72.62247373 17.14431843 68.01668703 22.07239707 63.58276367 27.20068359 C60.72306604 30.45164327 57.65849641 33.51709001 54.625 36.60546875 C52.7810162 38.84037587 52.7810162 38.84037587 53 41.33984375 C54.33336644 44.88680682 56.09933857 48.11019899 58 51.375 C58.39719238 52.06891846 58.79438477 52.76283691 59.20361328 53.4777832 C63.91265685 61.66537115 68.73671712 69.80050261 73.7578125 77.80078125 C75 80 75 80 75 82 C66.09 82 57.18 82 48 82 C43.71 74.08 39.42 66.16 35 58 C33.35 59.65 31.7 61.3 30 63 C29.43796875 63.53882813 28.8759375 64.07765625 28.296875 64.6328125 C23.74293925 69.02575053 19.78212078 73.8134294 15.8203125 78.7421875 C14 81 14 81 13 82 C10.92737924 82.08767112 8.85179706 82.10695873 6.77734375 82.09765625 C4.88725586 82.09282227 4.88725586 82.09282227 2.95898438 82.08789062 C1.61848891 82.07953403 0.27799412 82.07106907 -1.0625 82.0625 C-2.40689942 82.0574866 -3.7513006 82.05292342 -5.09570312 82.04882812 C-8.39717941 82.03699488 -11.69856803 82.02050971 -15 82 C-13.57567584 79.02183282 -12.22096735 77.02068318 -9.8125 74.75 C-7.36401744 72.37176079 -5.03928947 69.96200541 -2.8125 67.375 C0.35962659 63.69561893 3.6359351 60.12509264 6.9375 56.5625 C7.709729 55.72199097 7.709729 55.72199097 8.49755859 54.86450195 C10.82716195 52.33012669 13.16959914 49.82783894 15.5859375 47.375 C16.32070313 46.611875 17.05546875 45.84875 17.8125 45.0625 C18.78123047 44.08990234 18.78123047 44.08990234 19.76953125 43.09765625 C21.26847291 40.97719159 21.26847291 40.97719159 20.87109375 38.02734375 C20.00028278 35.00098274 19.0319771 33.07592729 17.25 30.5 C13.32907264 24.58983905 9.68048579 18.53756946 6.0625 12.4375 C5.17449707 10.95443359 5.17449707 10.95443359 4.26855469 9.44140625 C3.7171582 8.51070312 3.16576172 7.58 2.59765625 6.62109375 C1.84754272 5.35930298 1.84754272 5.35930298 1.08227539 4.07202148 C0 2 0 2 0 0 Z " fill="#1D619F" transform="translate(653,563)"/>
<path d="M0 0 C-0.93347358 1.75215106 -1.8719532 3.50163563 -2.8125 5.25 C-3.33457031 6.22453125 -3.85664062 7.1990625 -4.39453125 8.203125 C-5.78965188 10.63355412 -7.26195961 12.80787699 -9 15 C-12.76896702 14.34662068 -16.165418 13.26038145 -19.75 11.9375 C-27.98480229 9.16229089 -34.77245399 9.25748466 -43 12 C-45.24621573 14.74605843 -45.24621573 14.74605843 -44.9375 17.5 C-43.64104795 20.95720546 -42.32226496 21.3792792 -39 23 C-35.78188262 23.91757302 -32.51924362 24.60284079 -29.25 25.3125 C-19.53189018 27.58308641 -11.77041175 30.34438238 -6 39 C-3.5332839 43.9334322 -4.63380238 50.57873154 -6.1875 55.6875 C-9.56114631 64.47755093 -14.51076229 68.95361884 -23 73 C-36.9679541 79.06404459 -53.63760059 78.81720229 -68 74 C-71.58417142 72.32034988 -74.95608356 70.54654447 -78 68 C-78.33 67.01 -78.66 66.02 -79 65 C-77.43152656 62.48164732 -75.84365137 60.17081064 -74.0625 57.8125 C-73.58103516 57.15830078 -73.09957031 56.50410156 -72.60351562 55.83007812 C-71.41153616 54.21323469 -70.20693447 52.60571072 -69 51 C-67.00100837 51.99281767 -65.00989505 52.9947869 -63.03515625 54.03515625 C-62.38417969 54.37417969 -61.73320313 54.71320312 -61.0625 55.0625 C-60.41410156 55.40410156 -59.76570313 55.74570312 -59.09765625 56.09765625 C-54.24572977 58.18479781 -49.27431052 58.21128646 -44.0625 58.25 C-43.37220703 58.270625 -42.68191406 58.29125 -41.97070312 58.3125 C-37.23849655 58.34838403 -33.96085045 57.61428261 -30 55 C-29.02525184 51.91038542 -29.02525184 51.91038542 -29 49 C-34.42316539 46.33598893 -39.70614806 44.46336175 -45.5625 43 C-55.8110652 40.37836234 -62.44717838 37.3787109 -68.1328125 28.1640625 C-70.36833281 22.58533163 -69.99854207 15.74883825 -67.97265625 10.171875 C-63.32631335 1.78014211 -56.02621541 -3.93449288 -47 -7 C-31.33988962 -10.37440922 -13.23239076 -9.41535496 0 0 Z " fill="#CC161A" transform="translate(1137,570)"/>
<path d="M0 0 C-0.9063904 1.92154764 -1.82556804 3.83706654 -2.75 5.75 C-3.26046875 6.81734375 -3.7709375 7.8846875 -4.296875 8.984375 C-5.92485639 11.86694755 -7.54844908 13.80426309 -10 16 C-10.49628906 15.73445312 -10.99257812 15.46890625 -11.50390625 15.1953125 C-19.8631878 10.84912057 -28.80845528 7.9308538 -38.2265625 10.640625 C-41.34898774 11.94311974 -41.34898774 11.94311974 -44 14 C-44.04080783 15.99958364 -44.04254356 18.00045254 -44 20 C-38.84064752 23.00962228 -33.86740836 24.6156035 -28.0625 25.9375 C-19.2424253 27.98993189 -12.00325007 30.87114054 -6 38 C-3.82127188 44.53618436 -3.97796839 52.46889601 -6.5625 58.875 C-10.83234501 66.99811978 -17.48841853 71.85575057 -26 75 C-41.93102666 79.46533886 -59.09450559 78.35646888 -73.70703125 70.5546875 C-75.51900171 69.44402259 -77.27058883 68.23529369 -79 67 C-77.55797524 62.84848662 -75.4989562 59.70021555 -72.875 56.1875 C-72.15054688 55.21167969 -71.42609375 54.23585938 -70.6796875 53.23046875 C-70.12539063 52.49441406 -69.57109375 51.75835938 -69 51 C-66.50626667 51.92971939 -64.23649807 52.84816272 -61.9921875 54.2890625 C-56.15730197 57.97085374 -50.92276243 58.48335708 -44.1875 58.5 C-43.3629834 58.50596191 -42.5384668 58.51192383 -41.68896484 58.51806641 C-37.05308057 58.42264674 -33.68709823 58.11144455 -30 55 C-29.10792821 51.9042893 -29.10792821 51.9042893 -29 49 C-34.43958844 46.32792147 -39.60806499 44.51619998 -45.5 43.0625 C-54.79262776 40.70246755 -61.25018214 37.89905006 -66.90625 29.96484375 C-69.32256895 25.62409936 -69.60454893 20.87957349 -69 16 C-66.70855581 8.09037638 -62.09126881 1.46655787 -55.01953125 -2.796875 C-37.27293277 -11.87552465 -16.81580801 -10.33187483 0 0 Z " fill="#CC181A" transform="translate(1060,570)"/>
<path d="M0 0 C0.61340744 0.26571304 1.22681488 0.53142609 1.85881042 0.80519104 C3.82800149 1.66174472 5.79110971 2.53124828 7.75390625 3.40234375 C9.10652155 3.99612813 10.45922371 4.58971468 11.81201172 5.18310547 C37.07006102 16.31229759 37.07006102 16.31229759 43.31640625 21.33984375 C37.61474066 24.00270955 31.91565903 25.586784 25.81640625 27.08984375 C17.57890902 29.17442947 9.43330563 31.45152002 1.31640625 33.96484375 C-2.34968269 35.09173179 -6.01616639 36.21731881 -9.68359375 37.33984375 C-10.45300293 37.57541992 -11.22241211 37.81099609 -12.01513672 38.05371094 C-14.04584644 38.66663438 -16.08144877 39.25746314 -18.12109375 39.83984375 C-19.21292969 40.15953125 -20.30476562 40.47921875 -21.4296875 40.80859375 C-28.58358537 41.97657708 -34.38149339 39.96162496 -40.77734375 37.0234375 C-41.52713501 36.68868912 -42.27692627 36.35394073 -43.04943848 36.00904846 C-44.63156472 35.30034414 -46.21141664 34.58654277 -47.7890625 33.86791992 C-50.14499763 32.79492214 -52.50715303 31.73686542 -54.87109375 30.68164062 C-62.49332524 27.26186616 -70.05042253 23.72744727 -77.52734375 20 C-78.1771521 19.67623886 -78.82696045 19.35247772 -79.49645996 19.01890564 C-84.07888805 16.70761379 -88.4153185 14.18536058 -92.68359375 11.33984375 C-84.95409347 6.18684357 -72.73366144 6.00269865 -63.59960938 4.68041992 C-54.294405 3.31777301 -45.02166083 1.76404772 -35.74609375 0.21484375 C-34.53767319 0.01355362 -34.53767319 0.01355362 -33.30484009 -0.19180298 C-30.98429021 -0.57858593 -28.66397018 -0.96671334 -26.34375 -1.35546875 C-25.64554138 -1.47203323 -24.94733276 -1.58859772 -24.22796631 -1.70869446 C-21.50630054 -2.16666827 -18.81900787 -2.62583764 -16.14233398 -3.30419922 C-10.30016274 -4.14998272 -5.28749719 -2.30949466 0 0 Z " fill="#FCA112" transform="translate(795.68359375,320.66015625)"/>
<path d="M0 0 C7.92 0 15.84 0 24 0 C24 8.92445908 24 8.92445908 23.07836914 11.90649414 C21.8363543 16.3956575 21.27963846 20.87587728 20.74609375 25.49609375 C20.58742577 26.80731956 20.58742577 26.80731956 20.42555237 28.14503479 C20.09139957 30.90863934 19.76374802 33.67295192 19.4375 36.4375 C19.10738862 39.22700121 18.77576149 42.01627216 18.43873596 44.8049469 C18.22981212 46.5338953 18.024894 48.26333329 17.82432556 49.99327087 C17.1126135 55.8873865 17.1126135 55.8873865 16 57 C15.57800031 59.77090903 15.21129744 62.53045629 14.87890625 65.3125 C14.77408432 66.15538574 14.66926239 66.99827148 14.56126404 67.86669922 C14.11185563 71.48148516 13.67237356 75.09746139 13.23217773 78.71337891 C12.90961617 81.35103423 12.5818595 83.98801047 12.25390625 86.625 C12.15799698 87.42848877 12.06208771 88.23197754 11.96327209 89.05981445 C11.37451981 93.78871304 10.54054857 98.38269158 9.43385315 103.0186615 C8.81339445 105.85219793 8.57433174 108.67218984 8.375 111.5625 C8.25125 113.356875 8.1275 115.15125 8 117 C0.08 117 -7.84 117 -16 117 C-15.53222189 109.20369818 -14.85069622 101.75391537 -13.52636719 94.06298828 C-9.8433791 72.63127745 -7.25074137 51.00632249 -4.4621582 29.44555664 C-4.31483749 28.31457047 -4.16751678 27.18358429 -4.01573181 26.01832581 C-3.73870265 23.89154399 -3.46384734 21.76447732 -3.19166565 19.6370697 C-3.06444626 18.66306717 -2.93722687 17.68906464 -2.80615234 16.68554688 C-2.69830414 15.84987183 -2.59045593 15.01419678 -2.4793396 14.15319824 C-1.75951297 9.41802498 -0.85678499 4.71231744 0 0 Z " fill="#1E64A1" transform="translate(583,528)"/>
<path d="M0 0 C4.92460997 0.62745996 9.62414555 1.55531793 14.4375 2.8125 C15.67371094 3.12832031 16.90992188 3.44414062 18.18359375 3.76953125 C21.67617867 4.79178416 24.76458192 6.30171129 27.98413086 7.98071289 C31.25754562 9.63585479 34.65777402 10.95460576 38.0625 12.3125 C50.73845493 17.47484046 62.94095545 23.39864619 75.125 29.625 C76.21683594 30.17559082 77.30867187 30.72618164 78.43359375 31.29345703 C79.46871094 31.82825684 80.50382813 32.36305664 81.5703125 32.9140625 C82.49602051 33.3879541 83.42172852 33.8618457 84.37548828 34.35009766 C91.48591785 38.82007747 91.48591785 38.82007747 92.43945312 42.86346436 C92.61468355 45.16640685 92.61366881 47.41362504 92.55859375 49.72265625 C92.55703278 50.59568893 92.5554718 51.46872162 92.55386353 52.36820984 C92.54076306 55.2671393 92.48998188 58.16403542 92.4375 61.0625 C92.41792282 63.09992312 92.39963641 65.137359 92.38256836 67.17480469 C92.13433399 90.20547485 91.21792444 113.23223502 90.12335205 136.23657227 C90.00288544 138.9353581 89.90663233 141.6340535 89.81591797 144.33398438 C89.75126268 145.95704267 89.68633806 147.58009027 89.62109375 149.203125 C89.59342674 150.28856598 89.59342674 150.28856598 89.56520081 151.39593506 C89.37186091 155.71846041 88.64888358 158.55315464 86 162 C83.328125 163.6953125 83.328125 163.6953125 80.25 165.125 C79.24453125 165.60195313 78.2390625 166.07890625 77.203125 166.5703125 C75.61757813 167.27800781 75.61757813 167.27800781 74 168 C72.89269531 168.50402344 71.78539062 169.00804687 70.64453125 169.52734375 C66.62537138 171.15137727 62.62103317 172.32827432 58.4375 173.4375 C56.82271422 173.87294785 55.20813225 174.30915222 53.59375 174.74609375 C52.80613281 174.95862793 52.01851562 175.17116211 51.20703125 175.39013672 C48.26613842 176.20278609 45.35520071 177.10807911 42.4375 178 C35.69844718 179.93678314 28.86980363 181.35565585 22 182.75 C20.91259521 182.97300781 19.82519043 183.19601562 18.70483398 183.42578125 C17.66786377 183.63074219 16.63089355 183.83570313 15.5625 184.046875 C14.17224609 184.32289551 14.17224609 184.32289551 12.75390625 184.60449219 C9.80173247 185.02847459 6.97844608 185.06689441 4 185 C5.29355362 182.41289277 6.17406626 182.38450099 8.86352539 181.44702148 C9.68767944 181.15558762 10.5118335 180.86415375 11.36096191 180.56388855 C12.26407104 180.25276627 13.16718018 179.94164398 14.09765625 179.62109375 C15.03130005 179.2928511 15.96494385 178.96460846 16.92687988 178.62641907 C18.93074252 177.92257196 20.93572076 177.22189464 22.94168091 176.52404785 C27.08766212 175.08057841 31.2271354 173.6189097 35.3669281 172.1578064 C38.40424534 171.08595413 41.44231535 170.01625685 44.48046875 168.94677734 C51.18772948 166.58306884 57.88649271 164.20080952 64.5625 161.75 C65.49779541 161.41669678 66.43309082 161.08339355 67.39672852 160.73999023 C68.23647217 160.42876221 69.07621582 160.11753418 69.94140625 159.796875 C70.98856812 159.41547363 70.98856812 159.41547363 72.05688477 159.02636719 C74.62246895 157.67120751 76.14013235 156.23841587 78 154 C78.64012278 151.20844002 78.64012278 151.20844002 78.60717773 148.06835938 C78.65516258 146.24371155 78.65516258 146.24371155 78.70411682 144.38220215 C78.71878197 143.03605859 78.73275087 141.68990731 78.74609375 140.34375 C78.77386737 138.92433243 78.80290679 137.50493914 78.83311462 136.08557129 C78.92326657 131.3905701 78.96617604 126.69570514 79 122 C79.00935452 120.77651855 79.00935452 120.77651855 79.01889801 119.52832031 C79.10643964 107.41252981 79.09961464 95.29732106 79.06866455 83.18133545 C79.05819479 78.62740568 79.05381783 74.07346973 79.04882812 69.51953125 C79.03829454 60.67967142 79.02136795 51.83984027 79 43 C76.47154315 41.73375223 73.94286541 40.46794889 71.4140625 39.20239258 C70.70644775 38.84796333 69.99883301 38.49353409 69.26977539 38.12836456 C62.87221028 34.92739767 56.44629177 31.78934601 50 28.6875 C48.85716553 28.13698975 47.71433105 27.58647949 46.53686523 27.01928711 C37.75772134 22.80677505 28.9227 18.72683345 20.05859375 14.69677734 C13.29170607 11.61410967 6.59936489 8.42993307 0 5 C0 3.35 0 1.7 0 0 Z " fill="#C9690F" transform="translate(793,297)"/>
<path d="M0 0 C1.76923828 0.01353516 1.76923828 0.01353516 3.57421875 0.02734375 C4.47785156 0.03894531 5.38148438 0.05054688 6.3125 0.0625 C5.61093593 7.21845346 4.00464979 14.08105181 2.3125 21.0625 C1.56226563 21.08828125 0.81203125 21.1140625 0.0390625 21.140625 C-8.55220947 21.61671564 -16.88738531 22.64187843 -23.0625 29.1875 C-29.11523957 37.52340156 -30.59766917 46.9236575 -31.875 56.9375 C-32.03935547 58.12730469 -32.20371094 59.31710937 -32.37304688 60.54296875 C-33.38724263 68.05705063 -34.05595809 75.48399702 -34.6875 83.0625 C-42.9375 83.0625 -51.1875 83.0625 -59.6875 83.0625 C-59.39875 80.13375 -59.11 77.205 -58.8125 74.1875 C-58.72629395 73.28660645 -58.64008789 72.38571289 -58.55126953 71.45751953 C-58.13989971 67.42818255 -57.61294906 63.48992777 -56.76953125 59.52734375 C-55.01498525 51.16302763 -54.06917465 42.64348712 -52.94018555 34.17651367 C-51.45505882 23.07967489 -49.69615263 12.07788074 -47.6875 1.0625 C-40.0975 1.0625 -32.5075 1.0625 -24.6875 1.0625 C-24.6875 4.6925 -24.6875 8.3225 -24.6875 12.0625 C-23.6975 10.99 -22.7075 9.9175 -21.6875 8.8125 C-15.48133019 2.58110186 -8.74695025 -0.08660347 0 0 Z " fill="#CB171A" transform="translate(895.6875,561.9375)"/>
<path d="M0 0 C7.92 0 15.84 0 24 0 C22.87410157 10.13308584 22.87410157 10.13308584 22.19970703 15.00024414 C21.97409592 16.63353416 21.97409592 16.63353416 21.743927 18.29981995 C21.58350922 19.44998093 21.42309143 20.60014191 21.2578125 21.78515625 C21.00425491 23.60689613 21.00425491 23.60689613 20.74557495 25.46543884 C20.38822871 28.02808463 20.03015194 30.59062865 19.67138672 33.15307617 C19.13018693 37.02538726 18.59432301 40.8984132 18.05859375 44.77148438 C16.32022491 57.24848653 14.47833507 69.64729219 12 82 C4.08 82 -3.84 82 -12 82 C-11.43030902 72.95380801 -10.31683391 64.22332167 -8.6875 55.3125 C-5.42165053 36.93036509 -2.5800581 18.49041639 0 0 Z " fill="#1F619D" transform="translate(619,563)"/>
<path d="M0 0 C4.31171418 2.90790026 7.08631338 5.26659154 9 10.1875 C10.83870163 19.88247221 8.55114908 29.01702638 3.0625 37.25 C-1.12118877 42.28514301 -6.52884981 45.18374637 -12.96875 46.25390625 C-18.58495199 46.51610845 -21.941101 45.55941342 -26.3125 41.8125 C-27.055 41.19375 -27.7975 40.575 -28.5625 39.9375 C-32.64210695 34.98369156 -32.87333457 29.2482392 -32.75 23.04296875 C-31.58299178 14.42586338 -26.98181722 7.34997999 -20.17578125 2.08203125 C-14.03243161 -2.10368916 -6.97968483 -2.50215117 0 0 Z " fill="#FDF9F9" transform="translate(798.3125,582.1875)"/>
<path d="M0 0 C4.10070171 2.37886011 6.50831168 4.69147457 8.55859375 9.04296875 C9.74320724 19.30961898 8.71032649 28.56783717 2.99609375 37.29296875 C-1.09083666 42.35105094 -6.45640489 45.37773578 -12.875 46.44921875 C-17.7479366 46.64643709 -21.34517281 45.83585518 -25.44140625 43.04296875 C-30.14126408 38.38132115 -31.60526392 34.54420127 -31.75390625 27.98046875 C-31.67351382 18.94636909 -28.72330801 10.67854326 -22.44140625 4.04296875 C-16.1597583 -1.72619044 -8.0154243 -3.14204633 0 0 Z " fill="#F9FAFC" transform="translate(531.44140625,581.95703125)"/>
<path d="M0 0 C4.92460997 0.62745996 9.62414555 1.55531793 14.4375 2.8125 C15.67371094 3.12832031 16.90992188 3.44414062 18.18359375 3.76953125 C21.67617867 4.79178416 24.76458192 6.30171129 27.98413086 7.98071289 C31.25754562 9.63585479 34.65777402 10.95460576 38.0625 12.3125 C54.91212397 19.17458622 70.91155035 27.53470655 87 36 C86.01 36.99 86.01 36.99 85 38 C84.67413144 40.82170399 84.67413144 40.82170399 84.69702148 44.17675781 C84.68037949 45.48122864 84.66373749 46.78569946 84.64659119 48.12969971 C84.63800469 49.57084095 84.62950819 51.01198274 84.62109375 52.453125 C84.60488194 53.9478256 84.58769822 55.44251593 84.56959534 56.93719482 C84.52373077 60.90408366 84.48911132 64.87098839 84.45739746 68.8380127 C84.40601664 75.06643994 84.33942742 81.29473178 84.27125931 87.522995 C84.25449342 89.0587267 84.23813292 90.59446289 84.22217941 92.13020325 C84.06003919 107.42999753 83.59764602 122.71118082 83 138 C81.68 138.33 80.36 138.66 79 139 C79 107.32 79 75.64 79 43 C69.3541808 38.1770904 59.71630542 33.36282099 50 28.6875 C48.85716553 28.13698975 47.71433105 27.58647949 46.53686523 27.01928711 C37.75772134 22.80677505 28.9227 18.72683345 20.05859375 14.69677734 C13.29170607 11.61410967 6.59936489 8.42993307 0 5 C0 3.35 0 1.7 0 0 Z " fill="#EE8A17" transform="translate(793,297)"/>
<path d="M0 0 C2.625 0.9375 2.625 0.9375 5 2 C5.03779508 16.91674743 4.87316493 31.82270129 4.52857018 46.73546982 C4.43835443 50.65820554 4.35988433 54.58047295 4.30712891 58.50390625 C4.25509416 62.34985524 4.17445164 66.19422326 4.07362747 70.0391922 C4.04041531 71.4918086 4.01730864 72.94469447 4.00477219 74.39763641 C3.8975556 85.64361504 3.8975556 85.64361504 1.69332886 88.97463989 C-1.29911161 91.54813064 -4.93869459 93.05349429 -8.625 94.375 C-9.74648438 94.78234375 -10.86796875 95.1896875 -12.0234375 95.609375 C-13.34867634 96.07372225 -14.67422415 96.53718821 -16 97 C-17.65897133 97.58821133 -19.31781815 98.17677391 -20.9765625 98.765625 C-27.49248726 101.06784606 -34.01487242 103.34759912 -40.57421875 105.5234375 C-44.92152019 106.96618924 -49.24458371 108.4718158 -53.5625 110 C-54.61727539 110.37125 -54.61727539 110.37125 -55.69335938 110.75 C-56.39396484 110.9975 -57.09457031 111.245 -57.81640625 111.5 C-58.50492676 111.74322998 -59.19344727 111.98645996 -59.90283203 112.23706055 C-61.3432046 112.76106104 -62.77629945 113.30537428 -64.20263672 113.86645508 C-70.7762744 116.45190568 -70.7762744 116.45190568 -75 115 C-75 114.34 -75 113.68 -75 113 C-74.34 113 -73.68 113 -73 113 C-72.67 112.01 -72.34 111.02 -72 110 C-71.34 110 -70.68 110 -70 110 C-70 109.34 -70 108.68 -70 108 C-69.34628418 107.78384033 -68.69256836 107.56768066 -68.01904297 107.3449707 C-55.96561867 103.35506896 -43.92702833 99.3553052 -32 95 C-30.12377812 94.31748781 -28.24746811 93.63521787 -26.37109375 92.953125 C-23.37112305 91.86257875 -20.37136793 90.77147051 -17.37255859 89.67773438 C-16.46199707 89.34580078 -15.55143555 89.01386719 -14.61328125 88.671875 C-13.79641846 88.3737793 -12.97955566 88.07568359 -12.13793945 87.76855469 C-10.43346052 87.15582205 -8.71831916 86.57277305 -7 86 C-6.04338001 81.89422006 -5.78431586 77.94359414 -5.62695312 73.73461914 C-5.59915268 73.02176254 -5.57135223 72.30890594 -5.54270935 71.57444763 C-5.48311161 70.03311377 -5.42535505 68.49170785 -5.36924744 66.950243 C-5.28024148 64.50747752 -5.18623454 62.06494909 -5.09094238 59.62242126 C-4.88949957 54.43594642 -4.69435754 49.24924453 -4.5 44.0625 C-4.27466523 38.05352642 -4.04672463 32.0446729 -3.81248474 26.03603935 C-3.72020344 23.63546562 -3.63252719 21.23475231 -3.54504395 18.83399963 C-3.48793417 17.35424961 -3.43061293 15.87450773 -3.37304688 14.39477539 C-3.32498901 13.10857803 -3.27693115 11.82238068 -3.22741699 10.49720764 C-3.0161332 7.24809555 -2.7342037 4.17304027 -2 1 C-1.34 0.67 -0.68 0.34 0 0 Z " fill="#931011" transform="translate(854,355)"/>
<path d="M0 0 C4.16253275 -0.09938095 8.32442479 -0.17170617 12.48779297 -0.21972656 C13.90197795 -0.23975843 15.31608097 -0.26699248 16.72998047 -0.30175781 C18.77071419 -0.35065489 20.8103469 -0.37305123 22.8515625 -0.390625 C24.68968506 -0.4220459 24.68968506 -0.4220459 26.56494141 -0.45410156 C30.68612946 0.09070368 32.78866671 1.4063434 36 4 C38.70898878 8.06348317 38.62971293 11.23217357 38 16 C35.78204349 21.01451037 32.54715356 23.42744458 27.85961914 25.96142578 C22.07978936 28.06058022 16.00321701 27.50681819 9.9375 27.3125 C8.58142168 27.28736642 7.22529809 27.26456222 5.86914062 27.24414062 C2.57825264 27.1855839 -0.71027403 27.10361091 -4 27 C-3.52470401 23.2494988 -3.04409198 19.49969753 -2.5625 15.75 C-2.42779297 14.68652344 -2.29308594 13.62304688 -2.15429688 12.52734375 C-2.02216797 11.50253906 -1.89003906 10.47773437 -1.75390625 9.421875 C-1.63345947 8.47924805 -1.5130127 7.53662109 -1.38891602 6.56542969 C-1.04894631 4.32286742 -0.59605926 2.18630037 0 0 Z " fill="#F9FBFC" transform="translate(408,598)"/>
<path d="M0 0 C4.18726294 -0.11679952 8.37410301 -0.18745327 12.5625 -0.25 C14.33463867 -0.30027344 14.33463867 -0.30027344 16.14257812 -0.3515625 C22.9801326 -0.42817375 27.51104314 -0.25256342 33 4 C34.87943738 7.75887476 34.6590618 11.91747831 34 16 C31.71587616 19.96830376 28.77794454 22.48137031 25 25 C21.45428542 25.93677816 18.137156 26.11808467 14.48046875 26.09765625 C13.45888672 26.09443359 12.43730469 26.09121094 11.38476562 26.08789062 C10.32966797 26.07951172 9.27457031 26.07113281 8.1875 26.0625 C7.11306641 26.05798828 6.03863281 26.05347656 4.93164062 26.04882812 C2.28770317 26.03707729 -0.35611952 26.02064787 -3 26 C-2.45506477 17.23801514 -1.43456574 8.65900335 0 0 Z " fill="#F9FBFC" transform="translate(414,553)"/>
<path d="M0 0 C0 0.66 0 1.32 0 2 C0.99 2 1.98 2 3 2 C3 2.99 3 3.98 3 5 C3.66 5.2475 4.32 5.495 5 5.75 C8.13242603 7.05517751 11.11839936 8.54353274 14.1328125 10.09765625 C16.14664322 11.12002876 16.14664322 11.12002876 19 12 C19.6875 14.0625 19.6875 14.0625 20 16 C18.41800369 16.64910154 16.83434276 17.29414694 15.25 17.9375 C14.36828125 18.29714844 13.4865625 18.65679687 12.578125 19.02734375 C5.33026876 21.76176224 -1.069893 22.08774195 -8.26953125 18.98828125 C-10.12509054 18.11291432 -11.97262004 17.22035972 -13.8125 16.3125 C-15.7597999 15.38802265 -17.70771177 14.46483319 -19.65625 13.54296875 C-21.04263672 12.8785376 -21.04263672 12.8785376 -22.45703125 12.20068359 C-26.41705408 10.33092627 -30.44936854 8.68093605 -34.50390625 7.02734375 C-38.37299409 5.43490228 -42.18771612 3.72322933 -46 2 C-43.35261084 0.5393715 -42.10551666 0 -39 0 C-37.59183503 -0.44161387 -36.19662548 -0.92549606 -34.8125 -1.4375 C-22.7661885 -5.53713182 -12.04924054 -3.29180283 0 0 Z " fill="#FEF066" transform="translate(766,334)"/>
<path d="M0 0 C0 0.66 0 1.32 0 2 C-0.969375 2.804375 -1.93875 3.60875 -2.9375 4.4375 C-6.19375327 6.70684377 -6.19375327 6.70684377 -7 10 C-7.11147017 11.88073344 -7.1663299 13.76503375 -7.18945312 15.64892578 C-7.20617065 16.80667511 -7.22288818 17.96442444 -7.2401123 19.15725708 C-7.25368774 20.40731537 -7.26726318 21.65737366 -7.28125 22.9453125 C-7.30937008 24.90164281 -7.33749547 26.85797307 -7.36594391 28.81429863 C-7.42452928 32.94933211 -7.4746109 37.08447727 -7.52606201 41.21960449 C-7.56877561 44.62812993 -7.61334524 48.03660534 -7.66296387 51.44503784 C-7.69979409 54.00350945 -7.73219154 56.56204919 -7.7598877 59.12063599 C-7.77660522 60.27208099 -7.79332275 61.423526 -7.81054688 62.60986328 C-7.82933899 64.1385051 -7.82933899 64.1385051 -7.84851074 65.69802856 C-8 68 -8 68 -9 69 C-9.36760731 71.32817964 -9.70241581 73.6618385 -10 76 C-10.98806641 76.0501123 -11.97613281 76.10022461 -12.99414062 76.15185547 C-16.69217669 76.34151147 -20.38959172 76.54157057 -24.08691406 76.74462891 C-25.68116635 76.83076111 -27.27556972 76.91414598 -28.87011719 76.99462891 C-31.17428952 77.11142362 -33.47772092 77.23839185 -35.78125 77.3671875 C-36.48366821 77.40061249 -37.18608643 77.43403748 -37.90979004 77.46847534 C-42.05973152 77.71188466 -45.82255493 78.39579904 -49.85656738 79.47521973 C-68.28954087 83.98819615 -87.68289744 83.37435482 -106.5 83.1875 C-109.18488247 83.17064314 -111.86977962 83.15851437 -114.5546875 83.14648438 C-121.03664526 83.1139234 -127.51828152 83.06412888 -134 83 C-130.89664692 80.93109795 -129.63446976 80.64264296 -126.0390625 80.25390625 C-124.49025391 80.08084961 -124.49025391 80.08084961 -122.91015625 79.90429688 C-121.82605469 79.79150391 -120.74195313 79.67871094 -119.625 79.5625 C-118.64144531 79.45357422 -117.65789063 79.34464844 -116.64453125 79.23242188 C-110.68632286 78.58040512 -104.72384043 77.97126319 -98.76098633 77.36352539 C-85.74793515 76.03382358 -72.74280721 74.65572985 -59.74609375 73.17578125 C-59.07426056 73.09932184 -58.40242737 73.02286243 -57.7102356 72.94408607 C-51.53912517 72.24121384 -45.36849732 71.53414262 -39.19799805 70.82592773 C-36.42486465 70.50776146 -33.65159964 70.19078691 -30.87818909 69.87504578 C-28.30597496 69.58208681 -25.7339722 69.28726425 -23.16221619 68.99031067 C-22.01483475 68.85984848 -20.86745331 68.72938629 -19.68530273 68.5949707 C-18.1776963 68.42201225 -18.1776963 68.42201225 -16.63963318 68.24555969 C-14 68 -14 68 -10 68 C-10.00222061 67.38327423 -10.00444122 66.76654846 -10.00672913 66.13113403 C-10.02896586 59.67401716 -10.04398287 53.21691129 -10.05493164 46.75976562 C-10.05993994 44.35448769 -10.06674848 41.94921276 -10.07543945 39.54394531 C-10.08765912 36.07356011 -10.09326349 32.6032154 -10.09765625 29.1328125 C-10.10281754 28.06886261 -10.10797882 27.00491272 -10.11329651 25.90872192 C-10.11463496 7.82837792 -10.11463496 7.82837792 -6.5625 3.4375 C-2.94871795 0 -2.94871795 0 0 0 Z " fill="#2E74AC" transform="translate(651,300)"/>
<path d="M0 0 C3.875 1.875 3.875 1.875 5 3 C5.09520906 5.83040672 5.12553631 8.63634993 5.11352539 11.46704102 C5.11367142 12.35476196 5.11381744 13.24248291 5.1139679 14.15710449 C5.11326843 17.10606284 5.10547448 20.05495887 5.09765625 23.00390625 C5.09579219 25.04271917 5.09436823 27.08153254 5.09336853 29.12034607 C5.08954241 34.49784574 5.07971132 39.87531858 5.06866455 45.25280762 C5.05845245 50.73559201 5.05387134 56.21838072 5.04882812 61.70117188 C5.03808914 72.46745973 5.02101159 83.23372764 5 94 C-0.28950698 93.28738213 -4.21287145 92.24701952 -9 90 C-9 89.34 -9 88.68 -9 88 C-7.02 88.33 -5.04 88.66 -3 89 C-2.97716446 87.89974991 -2.95432892 86.79949982 -2.93080139 85.66590881 C-2.71545299 75.32065612 -2.49500708 64.97552308 -2.26950932 54.63048649 C-2.1537313 49.31140701 -2.03977915 43.99230122 -1.92993164 38.6730957 C-1.82394948 33.54426368 -1.71326027 28.41555328 -1.59924126 23.28689384 C-1.55647913 21.32562312 -1.51544244 19.36431401 -1.4761219 17.40297127 C-1.42095801 14.66574402 -1.35978015 11.92871478 -1.29711914 9.19165039 C-1.28201294 8.37238068 -1.26690674 7.55311096 -1.25134277 6.70901489 C-1.11405216 1.11405216 -1.11405216 1.11405216 0 0 Z " fill="#CF630F" transform="translate(757,376)"/>
<path d="M0 0 C-0.66 0.99 -1.32 1.98 -2 3 C0.97 3.33 3.94 3.66 7 4 C7 4.33 7 4.66 7 5 C5.99839844 5.13277344 4.99679687 5.26554687 3.96484375 5.40234375 C2.62239346 5.58071127 1.27994567 5.7590977 -0.0625 5.9375 C-0.71927734 6.02451172 -1.37605469 6.11152344 -2.05273438 6.20117188 C-3.37538364 6.37709074 -4.69781374 6.55466522 -6.02001953 6.73388672 C-7.99013733 6.99867444 -9.96187416 7.25132251 -11.93359375 7.50390625 C-14.86659865 7.67156502 -14.86659865 7.67156502 -16 9 C-19.36209065 9.28469316 -22.72414001 9.44895063 -26.09375 9.62109375 C-27.0528125 9.74613281 -28.011875 9.87117188 -29 10 C-29.33 10.66 -29.66 11.32 -30 12 C-71.085 12.99 -71.085 12.99 -113 14 C-113 13.34 -113 12.68 -113 12 C-111.88705566 11.87471924 -110.77411133 11.74943848 -109.62744141 11.62036133 C-85.98382703 8.95650763 -62.34808631 6.2358153 -38.72401428 3.40364075 C-37.12805268 3.21240755 -35.53205539 3.02147184 -33.9360199 2.83085632 C-30.03468185 2.36484136 -26.13396661 1.89445068 -22.23413086 1.41601562 C-20.71338464 1.23172355 -19.19263291 1.04747684 -17.671875 0.86328125 C-16.98607864 0.77782547 -16.30028229 0.69236969 -15.59370422 0.60432434 C-10.35248982 -0.02593564 -5.27157975 -0.16735174 0 0 Z " fill="#2771AA" transform="translate(566,393)"/>
<path d="M0 0 C3.2626886 1.38906544 5.49909615 3.49909615 8 6 C9.01365301 11.68117149 7.83882932 16.31658526 5.265625 21.37109375 C2.95779883 24.3413515 0.63548861 24.90722195 -3.0234375 25.44140625 C-11.71636222 25.75548628 -11.71636222 25.75548628 -15.18359375 23.71484375 C-18.03977726 20.7079743 -19.33413025 18.02964237 -19.5 13.875 C-18.76563702 8.18368692 -17.68915362 4.61507381 -12.97265625 0.953125 C-8.84255215 -1.04241045 -4.43466051 -0.73142246 0 0 Z " fill="#1F6FAC" transform="translate(640,528)"/>
<path d="M0 0 C3.18308909 2.2387935 5.29893013 4.08071847 6.6875 7.8125 C6.6875 10.4525 6.6875 13.0925 6.6875 15.8125 C-5.8525 15.8125 -18.3925 15.8125 -31.3125 15.8125 C-29.17485163 8.3307307 -27.31005083 5.38010303 -21.3125 0.8125 C-14.45017112 -2.7678455 -6.89807196 -3.99030805 0 0 Z " fill="#FBF3F3" transform="translate(954.3125,581.1875)"/>
<path d="M0 0 C0.495 0.495 0.99 0.99 1.5 1.5 C-4.20166559 4.1628658 -9.90074722 5.74694025 -16 7.25 C-24.23749723 9.33458572 -32.38310062 11.61167627 -40.5 14.125 C-44.16608894 15.25188804 -47.83257264 16.37747506 -51.5 17.5 C-52.65411377 17.85336426 -52.65411377 17.85336426 -53.83154297 18.21386719 C-67.27119462 22.27031968 -67.27119462 22.27031968 -74.5 20.5 C-74.17 18.85 -73.84 17.2 -73.5 15.5 C-72.77804443 15.32186768 -72.05608887 15.14373535 -71.31225586 14.96020508 C-63.8737802 13.11419933 -56.4619695 11.18378817 -49.0625 9.1875 C-47.94665527 8.8869873 -46.83081055 8.58647461 -45.68115234 8.27685547 C-35.91499145 5.63506383 -26.18403607 2.87758055 -16.46923828 0.05322266 C-5.1916798 -3.11500788 -5.1916798 -3.11500788 0 0 Z " fill="#D36B12" transform="translate(837.5,340.5)"/>
<path d="M0 0 C0.02361407 8.2175899 0.04115618 16.43516464 0.05181217 24.65278053 C0.05693739 28.47230894 0.06383507 32.29181347 0.07543945 36.11132812 C0.13556651 56.43217814 -0.15904326 76.69466081 -1 97 C-2.98 97.495 -2.98 97.495 -5 98 C-5 65.99 -5 33.98 -5 1 C-2 0 -2 0 0 0 Z " fill="#ED980F" transform="translate(877,338)"/>
<path d="M0 0 C0 0.66 0 1.32 0 2 C0.99 2 1.98 2 3 2 C3 2.99 3 3.98 3 5 C3.7425 5.268125 4.485 5.53625 5.25 5.8125 C7.86636554 6.94229421 9.80187111 8.20893202 12 10 C10.35 10 8.7 10 7 10 C7 9.34 7 8.68 7 8 C5.68 8 4.36 8 3 8 C3 7.34 3 6.68 3 6 C2.28714844 6.02320313 1.57429687 6.04640625 0.83984375 6.0703125 C-7.26144101 6.2229612 -7.26144101 6.2229612 -11.3125 5 C-17.05573783 3.44251178 -23.09188016 3.28734741 -29 4 C-29.99 5.485 -29.99 5.485 -31 7 C-30.01 7 -29.02 7 -28 7 C-28 7.66 -28 8.32 -28 9 C-34.20477864 7.06375702 -40.10825719 4.74390859 -46 2 C-43.35261084 0.5393715 -42.10551666 0 -39 0 C-37.59183503 -0.44161387 -36.19662548 -0.92549606 -34.8125 -1.4375 C-22.7661885 -5.53713182 -12.04924054 -3.29180283 0 0 Z " fill="#FEE21F" transform="translate(766,334)"/>
<path d="M0 0 C0.99 1.98 1.98 3.96 3 6 C-3.5020383 7.18107421 -9.90181112 7.12737969 -16.49609375 7.09765625 C-18.27911644 7.09553383 -18.27911644 7.09553383 -20.09815979 7.09336853 C-23.87796594 7.08779114 -27.65771189 7.07524275 -31.4375 7.0625 C-34.0071606 7.05748208 -36.57682213 7.05291968 -39.14648438 7.04882812 C-45.43100997 7.03782911 -51.71550068 7.0211135 -58 7 C-49.79171474 0.51689422 -37.05452951 1.49452152 -27 0.875 C-25.72382812 0.78863281 -24.44765625 0.70226562 -23.1328125 0.61328125 C-15.41013391 0.11580809 -7.73804371 -0.1134769 0 0 Z " fill="#133974" transform="translate(637,395)"/>
<path d="M0 0 C1.65 0 3.3 0 5 0 C5 0.66 5 1.32 5 2 C5.86753906 1.78859375 6.73507812 1.5771875 7.62890625 1.359375 C11.54330108 0.94208146 13.38846281 1.62705001 16.9375 3.25 C17.91589844 3.68828125 18.89429688 4.1265625 19.90234375 4.578125 C21.43568359 5.28195312 21.43568359 5.28195312 23 6 C25.33179146 7.00359006 27.66524066 8.00333392 30 9 C32.73160111 10.18193956 35.45982102 11.37154157 38.1875 12.5625 C38.88552734 12.86607422 39.58355469 13.16964844 40.30273438 13.48242188 C42.98760721 14.65497814 45.6554937 15.82028354 48.25390625 17.17578125 C51.04116838 18.49146874 53.96470994 18.64977422 57 19 C57 19.33 57 19.66 57 20 C55.02 20 53.04 20 51 20 C50.67 21.32 50.34 22.64 50 24 C45.96522166 23.36602966 42.67406083 22.0750722 38.984375 20.33984375 C37.82260742 19.79674561 36.66083984 19.25364746 35.46386719 18.6940918 C34.22585124 18.10868852 32.98789657 17.52315567 31.75 16.9375 C30.48883319 16.34562733 29.2274389 15.75423915 27.96582031 15.16333008 C25.46659962 13.99160135 22.9688799 12.81677191 20.47265625 11.63867188 C17.44184148 10.2084955 14.4090912 8.78258273 11.375 7.359375 C7.58066564 5.57852544 3.78919872 3.79174968 0 2 C0 1.34 0 0.68 0 0 Z " fill="#EF9014" transform="translate(713,336)"/>
<path d="M0 0 C0.72963959 0.00141495 1.45927917 0.0028299 2.21102905 0.00428772 C4.54437335 0.00989094 6.87762214 0.0224439 9.2109375 0.03515625 C10.79166528 0.04017084 12.37239457 0.04473382 13.953125 0.04882812 C17.83076604 0.05986141 21.70833557 0.07712814 25.5859375 0.09765625 C25.5859375 2.07765625 25.5859375 4.05765625 25.5859375 6.09765625 C4.1359375 6.09765625 -17.3140625 6.09765625 -39.4140625 6.09765625 C-39.4140625 5.76765625 -39.4140625 5.43765625 -39.4140625 5.09765625 C-38.51574707 4.98172119 -37.61743164 4.86578613 -36.69189453 4.74633789 C-33.36305547 4.3149814 -30.03467127 3.88039664 -26.70654297 3.44360352 C-25.26530612 3.25512909 -23.82389957 3.06794767 -22.38232422 2.88208008 C-20.31171558 2.61488178 -18.24175933 2.34305786 -16.171875 2.0703125 C-14.9255127 1.90797119 -13.67915039 1.74562988 -12.39501953 1.57836914 C-2.49512965 -0.01809959 -2.49512965 -0.01809959 0 0 Z " fill="#123670" transform="translate(614.4140625,376.90234375)"/>
<path d="M0 0 C7.76570538 0.37115504 13.99951172 3.35093579 21 6.5625 C22.15628906 7.08263672 23.31257812 7.60277344 24.50390625 8.13867188 C27.34040943 9.41627041 30.17207611 10.70354976 33 12 C32.34 12.99 31.68 13.98 31 15 C25.978637 14.42135382 21.59774138 13.34706069 16.8125 11.625 C15.62269531 11.20476562 14.43289063 10.78453125 13.20703125 10.3515625 C10.35083337 9.14785426 8.39947106 7.90375616 6 6 C4.01985568 5.27648573 2.02178685 4.59734611 0 4 C0 2.68 0 1.36 0 0 Z " fill="#FCAD11" transform="translate(818,306)"/>
<path d="M0 0 C-3.75 2 -3.75 2 -6 2 C-6 2.66 -6 3.32 -6 4 C-6.60328125 4.09796875 -7.2065625 4.1959375 -7.828125 4.296875 C-12.70578282 5.20946904 -15.83823388 5.87595723 -19 10 C-18.34 10.66 -17.68 11.32 -17 12 C-21.03972867 12.84291786 -25.08206109 13.67262865 -29.125 14.5 C-30.83816406 14.85771484 -30.83816406 14.85771484 -32.5859375 15.22265625 C-33.69453125 15.44824219 -34.803125 15.67382812 -35.9453125 15.90625 C-36.96125488 16.11572266 -37.97719727 16.32519531 -39.02392578 16.54101562 C-42.06412599 17.00988982 -44.92898194 17.0800787 -48 17 C-46.66763274 14.33526549 -45.56212301 14.28020849 -42.78735352 13.28833008 C-41.89295059 12.96492142 -40.99854767 12.64151276 -40.07704163 12.30830383 C-39.10415695 11.96550888 -38.13127228 11.62271393 -37.12890625 11.26953125 C-36.13624252 10.91485275 -35.1435788 10.56017426 -34.12083435 10.19474792 C-32.01795372 9.44564362 -29.91374849 8.7002491 -27.80834961 7.95825195 C-24.57586038 6.81721608 -21.34931819 5.66043642 -18.12304688 4.50195312 C-16.08367277 3.77768933 -14.04396984 3.05435066 -12.00390625 2.33203125 C-11.03304581 1.9831636 -10.06218536 1.63429596 -9.06190491 1.27485657 C-8.16434982 0.96090439 -7.26679474 0.64695221 -6.34204102 0.32348633 C-5.55007828 0.04305984 -4.75811554 -0.23736664 -3.94215393 -0.52629089 C-2 -1 -2 -1 0 0 Z " fill="#D55C22" transform="translate(845,465)"/>
<path d="M0 0 C-1 2 -1 2 -3.5 3.4375 C-6.29155483 4.81319541 -6.29155483 4.81319541 -7 8 C-9.55921336 9.05888199 -11.98168953 9.90769985 -14.625 10.6875 C-15.32496094 10.91244141 -16.02492188 11.13738281 -16.74609375 11.36914062 C-21.32255673 12.76585335 -25.22049415 13.23207574 -30 13 C-30 10 -30 10 -28.5625 8.375 C-24.85393467 6.38503812 -21.15364317 6.25738387 -17 6 C-17 5.34 -17 4.68 -17 4 C-15.33333333 3.33333333 -13.66666667 2.66666667 -12 2 C-10.824375 1.443125 -10.824375 1.443125 -9.625 0.875 C-6.33329436 -0.22223521 -3.44580023 -0.13512942 0 0 Z " fill="#C44C10" transform="translate(856,463)"/>
<path d="M0 0 C0.66 0.33 1.32 0.66 2 1 C1.28972656 1.34933594 0.57945312 1.69867188 -0.15234375 2.05859375 C-1.07144531 2.51363281 -1.99054687 2.96867187 -2.9375 3.4375 C-3.85402344 3.88996094 -4.77054688 4.34242188 -5.71484375 4.80859375 C-7.90528904 5.80525394 -7.90528904 5.80525394 -9 7 C-9.12396871 9.14668285 -9.1780072 11.29742387 -9.20532227 13.44750977 C-9.21522186 14.12065216 -9.22512146 14.79379456 -9.23532104 15.48733521 C-9.26701838 17.72198925 -9.29172574 19.95666458 -9.31640625 22.19140625 C-9.33696869 23.73697984 -9.35796496 25.28254772 -9.37937927 26.82810974 C-9.43467337 30.90350732 -9.48405013 34.97895625 -9.53222656 39.05444336 C-9.58238817 43.2101704 -9.63810204 47.36582252 -9.69335938 51.52148438 C-9.80103064 59.6809263 -9.90245552 67.84043076 -10 76 C-10.33 76 -10.66 76 -11 76 C-12.39803808 61.38443396 -12.11140702 46.72814579 -12.0625 32.0625 C-12.05747527 29.43294356 -12.05291408 26.80338619 -12.04882812 24.17382812 C-12.03789896 17.78253155 -12.02123794 11.3912702 -12 5 C-10.56328432 4.35242375 -9.12559584 3.70700547 -7.6875 3.0625 C-6.88699219 2.70285156 -6.08648438 2.34320313 -5.26171875 1.97265625 C-3 1 -3 1 0 0 Z " fill="#E34644" transform="translate(789,374)"/>
<path d="M0 0 C4.97809526 0.63673311 9.75327871 1.56728407 14.625 2.8125 C16.53152344 3.28623047 16.53152344 3.28623047 18.4765625 3.76953125 C22.05049557 5.01763426 24.225348 6.46454213 27 9 C26.34 9 25.68 9 25 9 C25 9.99 25 10.98 25 12 C20.35842854 10.67383673 16.98319666 8.68432819 13 6 C10.77397385 5.23060319 10.77397385 5.23060319 9 5 C9 5.66 9 6.32 9 7 C6.15038233 8.16095535 5.16054927 8.06567925 2.25 6.875 C0 5 0 5 -0.3125 2.3125 C-0.209375 1.549375 -0.10625 0.78625 0 0 Z " fill="#FA9B12" transform="translate(793,297)"/>
<path d="M0 0 C3.57641765 0.58462191 6.40536462 1.53202825 9.609375 3.21484375 C10.44597656 3.65376953 11.28257812 4.09269531 12.14453125 4.54492188 C13.00433594 5.00447266 13.86414063 5.46402344 14.75 5.9375 C15.62527344 6.39318359 16.50054688 6.84886719 17.40234375 7.31835938 C23.87184123 10.74368246 23.87184123 10.74368246 25 13 C19.7079795 12.58220891 15.77047259 10.5181467 11.171875 8.05859375 C9.10305148 6.85395436 9.10305148 6.85395436 7 7 C6.34 12.61 5.68 18.22 5 24 C3 22 3 22 2.77294922 20.02880859 C2.78342285 19.24328613 2.79389648 18.45776367 2.8046875 17.6484375 C2.81113281 16.79765625 2.81757812 15.946875 2.82421875 15.0703125 C2.84097656 14.18085938 2.85773437 13.29140625 2.875 12.375 C2.88402344 11.4778125 2.89304687 10.580625 2.90234375 9.65625 C2.9259503 7.43723414 2.9588769 5.21874923 3 3 C2.34 3 1.68 3 1 3 C0.67 2.01 0.34 1.02 0 0 Z " fill="#FDEB31" transform="translate(687,347)"/>
<path d="M0 0 C7.15589679 -0.18322353 13.93967107 -0.35398286 20.890625 1.48828125 C24.54909186 2.37579821 28.25733758 2.64355596 32 3 C32 3.66 32 4.32 32 5 C33.32 5 34.64 5 36 5 C36 5.66 36 6.32 36 7 C23.68758399 7.78220055 11.72728001 4.43772657 0 1 C0 0.67 0 0.34 0 0 Z " fill="#FEED47" transform="translate(737,337)"/>
<path d="M0 0 C0 0.99 0 1.98 0 3 C-2.94475258 4.69806598 -4.88931204 5.22561466 -8.2734375 5.01171875 C-9.09231445 4.96523193 -9.91119141 4.91874512 -10.75488281 4.87084961 C-11.61952148 4.81034424 -12.48416016 4.74983887 -13.375 4.6875 C-14.70289551 4.60737671 -14.70289551 4.60737671 -16.05761719 4.52563477 C-18.70603691 4.36256299 -21.35293698 4.18366964 -24 4 C-24.76022461 3.94908203 -25.52044922 3.89816406 -26.30371094 3.84570312 C-30.20411605 3.58412336 -34.10262081 3.30327288 -38 3 C-38 2.34 -38 1.68 -38 1 C-34.03482156 0.85551826 -30.06957169 0.71319544 -26.10424805 0.57275391 C-24.10266212 0.5014311 -22.10113491 0.42846672 -20.09960938 0.35546875 C-13.39485028 0.11902888 -6.70890788 -0.05891467 0 0 Z " fill="#4371A2" transform="translate(558,423)"/>
<path d="M0 0 C5.06998019 0.65419099 9.41990777 2.8546409 14 5 C14 5.33 14 5.66 14 6 C6.38422812 6.02332525 -1.23153999 6.0410168 -8.84733963 6.05181217 C-12.38489304 6.05699733 -15.92242174 6.06401409 -19.45996094 6.07543945 C-23.54101783 6.08853548 -27.62204938 6.09326427 -31.703125 6.09765625 C-32.95361633 6.10281754 -34.20410767 6.10797882 -35.49249268 6.11329651 C-43.04677501 6.11377186 -50.48372774 5.76253212 -58 5 C-58 4.67 -58 4.34 -58 4 C-36.88 4 -15.76 4 6 4 C4.02 3.01 2.04 2.02 0 1 C0 0.67 0 0.34 0 0 Z " fill="#0F2C5F" transform="translate(727,475)"/>
<path d="M0 0 C5.10454793 0.5537478 8.96575557 3.02592796 13.3125 5.5625 C14.05306641 5.98724609 14.79363281 6.41199219 15.55664062 6.84960938 C17.37468118 7.89351653 19.18783748 8.94592192 21 10 C20.67 10.99 20.34 11.98 20 13 C12.33204498 10.66062389 5.22862726 7.45231194 -2 4 C-2 3.34 -2 2.68 -2 2 C-1.34 2 -0.68 2 0 2 C0 1.34 0 0.68 0 0 Z " fill="#E07114" transform="translate(802,302)"/>
<path d="M0 0 C0.75410156 0.00451172 1.50820313 0.00902344 2.28515625 0.01367188 C4.14847127 0.02546501 6.01174555 0.04340058 7.875 0.0625 C7.875 0.3925 7.875 0.7225 7.875 1.0625 C6.88757813 1.09988281 5.90015625 1.13726562 4.8828125 1.17578125 C2.96082031 1.27439453 2.96082031 1.27439453 1 1.375 C-0.27617188 1.43300781 -1.55234375 1.49101562 -2.8671875 1.55078125 C-3.94226563 1.71964844 -5.01734375 1.88851563 -6.125 2.0625 C-6.785 3.0525 -7.445 4.0425 -8.125 5.0625 C-18.40227227 7.06595635 -29.6844298 6.16903643 -40.125 6.0625 C-40.125 5.7325 -40.125 5.4025 -40.125 5.0625 C-39.22668457 4.94656494 -38.32836914 4.83062988 -37.40283203 4.71118164 C-34.07399297 4.27982515 -30.74560877 3.84524039 -27.41748047 3.40844727 C-25.97624362 3.21997284 -24.53483707 3.03279142 -23.09326172 2.84692383 C-21.02265308 2.57972553 -18.95269683 2.30790161 -16.8828125 2.03515625 C-15.6364502 1.87281494 -14.39008789 1.71047363 -13.10595703 1.54321289 C-3.30615393 -0.03711572 -3.30615393 -0.03711572 0 0 Z " fill="#1B548E" transform="translate(615.125,376.9375)"/>
<path d="M0 0 C-1.86967605 0.98929461 -3.74601378 1.96600469 -5.625 2.9375 C-6.66914062 3.48277344 -7.71328125 4.02804687 -8.7890625 4.58984375 C-11.98141267 5.99183695 -14.57335913 6.46762423 -18 7 C-21.05354171 7.88325883 -24.05529877 8.90878555 -27.0625 9.9375 C-27.85205078 10.20240234 -28.64160156 10.46730469 -29.45507812 10.74023438 C-32.63651013 11.81493437 -35.73995228 12.88390081 -38.80859375 14.25390625 C-41.36587193 15.12456602 -42.46590621 14.74352457 -45 14 C-44.46745605 13.8141333 -43.93491211 13.6282666 -43.38623047 13.43676758 C-30.33600279 8.88120151 -30.33600279 8.88120151 -17.3125 4.25 C-15.20841113 3.49978177 -13.10425233 2.74975961 -11 2 C-10.08089844 1.66742188 -9.16179688 1.33484375 -8.21484375 0.9921875 C-2.22813953 -1.11406977 -2.22813953 -1.11406977 0 0 Z " fill="#A40D0F" transform="translate(833,448)"/>
<path d="M0 0 C7.92 0 15.84 0 24 0 C23.67 2.97 23.34 5.94 23 9 C22.01 9.495 22.01 9.495 21 10 C20.67 7.36 20.34 4.72 20 2 C17.04132082 2.14046255 14.08317736 2.28712224 11.125 2.4375 C10.28324219 2.47681641 9.44148437 2.51613281 8.57421875 2.55664062 C7.76855469 2.59853516 6.96289062 2.64042969 6.1328125 2.68359375 C5.01737061 2.73858032 5.01737061 2.73858032 3.87939453 2.79467773 C1.91135688 2.89955865 1.91135688 2.89955865 0 4 C0 2.68 0 1.36 0 0 Z " fill="#3A8AC0" transform="translate(619,563)"/>
<path d="M0 0 C0.33 0 0.66 0 1 0 C1.33 17.82 1.66 35.64 2 54 C-0.97 53.01 -3.94 52.02 -7 51 C-7 50.34 -7 49.68 -7 49 C-5.02 49.33 -3.04 49.66 -1 50 C-0.67 33.5 -0.34 17 0 0 Z " fill="#EE800E" transform="translate(755,415)"/>
<path d="M0 0 C1.18239258 0.01353516 1.18239258 0.01353516 2.38867188 0.02734375 C4.32174666 0.05077496 6.2546638 0.08664162 8.1875 0.125 C1.87205288 4.33529808 -3.84460098 4.38617359 -11.1875 4.25 C-12.57775391 4.23646484 -12.57775391 4.23646484 -13.99609375 4.22265625 C-16.26850077 4.19922937 -18.5403618 4.16642748 -20.8125 4.125 C-20.8125 3.795 -20.8125 3.465 -20.8125 3.125 C-19.760625 3.00125 -18.70875 2.8775 -17.625 2.75 C-13.99716607 2.33436465 -13.99716607 2.33436465 -11.625 1.09375 C-7.71309721 -0.25368318 -4.10295014 -0.08941886 0 0 Z " fill="#0F427D" transform="translate(571.8125,398.875)"/>
<path d="M0 0 C0 0.66 0 1.32 0 2 C0.99 2.33 1.98 2.66 3 3 C1.88625 2.855625 0.7725 2.71125 -0.375 2.5625 C-1.10976563 2.47484375 -1.84453125 2.3871875 -2.6015625 2.296875 C-4.18270983 2.10116295 -5.76125011 1.8828846 -7.3359375 1.640625 C-16.67481373 0.37126318 -25.56707681 1.78353841 -34 6 C-34.99 5.01 -35.98 4.02 -37 3 C-25.45517977 -0.05937736 -11.84396159 -3.62218243 0 0 Z " fill="#FEC00D" transform="translate(759,330)"/>
<path d="M0 0 C8.91 0 17.82 0 27 0 C27.33 1.32 27.66 2.64 28 4 C27.34 3.67 26.68 3.34 26 3 C22.339063 2.73366199 18.66954746 2.76848639 15 2.75 C13.97648438 2.729375 12.95296875 2.70875 11.8984375 2.6875 C10.92132812 2.68234375 9.94421875 2.6771875 8.9375 2.671875 C8.03902344 2.6625293 7.14054688 2.65318359 6.21484375 2.64355469 C5.48394531 2.76118164 4.75304687 2.87880859 4 3 C3.01 4.485 3.01 4.485 2 6 C1.34 4.02 0.68 2.04 0 0 Z " fill="#3C8EC5" transform="translate(653,563)"/>
<path d="M0 0 C2.70556641 -0.34057617 2.70556641 -0.34057617 6.1015625 -0.29296875 C7.31328125 -0.28330078 8.525 -0.27363281 9.7734375 -0.26367188 C11.04445313 -0.23853516 12.31546875 -0.21339844 13.625 -0.1875 C14.90375 -0.17396484 16.1825 -0.16042969 17.5 -0.14648438 C20.66708282 -0.11103196 23.83333541 -0.06161441 27 0 C25.25 3.875 25.25 3.875 23 5 C23 4.01 23 3.02 23 2 C10.625 2.495 10.625 2.495 -2 3 C-1.34 2.01 -0.68 1.02 0 0 Z " fill="#3486BE" transform="translate(713,563)"/>
<path d="M0 0 C11.55 0 23.1 0 35 0 C35 0.33 35 0.66 35 1 C32.27172635 1.50534727 29.54255306 2.00443845 26.8125 2.5 C26.04357422 2.64308594 25.27464844 2.78617187 24.48242188 2.93359375 C20.60578227 3.63238715 16.958529 4.19039017 13 4 C13 3.34 13 2.68 13 2 C8.71 1.67 4.42 1.34 0 1 C0 0.67 0 0.34 0 0 Z " fill="#2F5085" transform="translate(943,487)"/>
<path d="M0 0 C0.02685095 2.47923801 0.04676547 4.9581884 0.0625 7.4375 C0.07087891 8.14455078 0.07925781 8.85160156 0.08789062 9.58007812 C0.09653588 11.38693559 0.05220011 13.19387603 0 15 C-0.33 15.33 -0.66 15.66 -1 16 C-1.23481693 18.18292774 -1.41363323 20.37203174 -1.5625 22.5625 C-1.64628906 23.76003906 -1.73007812 24.95757812 -1.81640625 26.19140625 C-1.87699219 27.11824219 -1.93757812 28.04507812 -2 29 C-2.33 29 -2.66 29 -3 29 C-3.33 19.76 -3.66 10.52 -4 1 C-1 0 -1 0 0 0 Z " fill="#F0B725" transform="translate(876,338)"/>
<path d="M0 0 C16.5 0 33 0 50 0 C50 0.33 50 0.66 50 1 C45.39599118 1.14499601 40.79190859 1.28727873 36.18774414 1.42724609 C34.62750081 1.47503646 33.06727845 1.52351753 31.50708008 1.57275391 C22.00035187 1.87222654 12.51249866 2.07540459 3 2 C2.67 2.66 2.34 3.32 2 4 C1.34 4 0.68 4 0 4 C0 2.68 0 1.36 0 0 Z " fill="#096EB5" transform="translate(392,533)"/>
<path d="M0 0 C0.99 0.33 1.98 0.66 3 1 C3.10841951 2.91541138 3.18578079 4.83259773 3.25 6.75 C3.29640625 7.81734375 3.3428125 8.8846875 3.390625 9.984375 C2.91735478 13.63802112 1.80844958 14.72228105 -1 17 C-1.02691685 14.54159395 -1.04679802 12.08348118 -1.0625 9.625 C-1.07087891 8.92632812 -1.07925781 8.22765625 -1.08789062 7.5078125 C-1.11328125 2.2265625 -1.11328125 2.2265625 0 0 Z " fill="#DE7714" transform="translate(873,434)"/>
<path d="M0 0 C0.66 0.33 1.32 0.66 2 1 C0.02 3.31 -1.96 5.62 -4 8 C-0.20834926 8.0289337 3.58327327 8.04677601 7.375 8.0625 C8.99535156 8.07506836 8.99535156 8.07506836 10.6484375 8.08789062 C11.6796875 8.09111328 12.7109375 8.09433594 13.7734375 8.09765625 C15.20308838 8.10551147 15.20308838 8.10551147 16.66162109 8.11352539 C19.02324406 8.15642599 19.02324406 8.15642599 21 7 C20.67 7.99 20.34 8.98 20 10 C10.76 10 1.52 10 -8 10 C-5.77502475 5.55004949 -3.55366005 3.39915309 0 0 Z " fill="#154684" transform="translate(646,635)"/>
<path d="M0 0 C2.24973447 -0.054138 4.49984383 -0.09285491 6.75 -0.125 C8.00296875 -0.14820313 9.2559375 -0.17140625 10.546875 -0.1953125 C13.72820492 -0.01537302 15.36521896 0.31001418 18 2 C10.27111181 3.95403042 2.94957992 4.22428282 -5 4 C-5 3.67 -5 3.34 -5 3 C-2.69 3 -0.38 3 2 3 C2 2.34 2 1.68 2 1 C1.34 0.67 0.68 0.34 0 0 Z " fill="#0E2E66" transform="translate(942,488)"/>
<path d="M0 0 C0.66 0.66 1.32 1.32 2 2 C-2.35590568 3.62849969 -6.23934612 4.34118446 -10.875 4.625 C-12.02742187 4.69976562 -13.17984375 4.77453125 -14.3671875 4.8515625 C-15.23601563 4.90054687 -16.10484375 4.94953125 -17 5 C-15.49200696 1.98401393 -13.32266466 1.86260957 -10.1875 0.8125 C-9.12917969 0.44769531 -8.07085938 0.08289063 -6.98046875 -0.29296875 C-4.05202227 -0.9876592 -2.72876064 -1.15895677 0 0 Z " fill="#D2472D" transform="translate(814,477)"/>
<path d="M0 0 C0 0.99 0 1.98 0 3 C-9.9 3 -19.8 3 -30 3 C-30 2.67 -30 2.34 -30 2 C-26.68821046 1.65935361 -23.37547963 1.32885378 -20.0625 1 C-19.13630859 0.90460938 -18.21011719 0.80921875 -17.25585938 0.7109375 C-11.47088893 0.14258953 -5.81269724 -0.09538785 0 0 Z " fill="#105A98" transform="translate(556,379)"/>
<path d="M0 0 C4.54748603 -0.36871508 4.54748603 -0.36871508 6.6875 1.375 C7.120625 1.91125 7.55375 2.4475 8 3 C8.66 3.66 9.32 4.32 10 5 C9.01 5.99 8.02 6.98 7 8 C1.125 6.125 1.125 6.125 0 5 C-0.04063832 3.33382885 -0.042721 1.66611905 0 0 Z " fill="#F48712" transform="translate(793,297)"/>
<path d="M0 0 C-0.33 0.33 -0.66 0.66 -1 1 C5.27 1.33 11.54 1.66 18 2 C18 2.33 18 2.66 18 3 C8.1 3 -1.8 3 -12 3 C-11 1 -11 1 -9.2578125 0.33203125 C-8.55398438 0.16058594 -7.85015625 -0.01085937 -7.125 -0.1875 C-6.42632813 -0.36667969 -5.72765625 -0.54585938 -5.0078125 -0.73046875 C-3 -1 -3 -1 0 0 Z " fill="#274E81" transform="translate(583,400)"/>
<path d="M0 0 C2.3125 -0.1875 2.3125 -0.1875 5 0 C6.625 1.4375 6.625 1.4375 8 3 C8.99 3.33 9.98 3.66 11 4 C11 4.66 11 5.32 11 6 C12.98 6 14.96 6 17 6 C17.33 6.99 17.66 7.98 18 9 C18.99 9.66 19.98 10.32 21 11 C19.35 11.66 17.7 12.32 16 13 C16 11.35 16 9.7 16 8 C15.21625 7.95875 14.4325 7.9175 13.625 7.875 C8.49140154 6.63585554 4.31758632 4.00353831 0 1 C0 0.67 0 0.34 0 0 Z " fill="#FDC416" transform="translate(769,338)"/>
<path d="M0 0 C0 0.66 0 1.32 0 2 C-6.340671 6.57118142 -12.31796353 6.76896131 -20 7 C-16.73726211 4.82484141 -13.69089287 3.68988059 -10 2.375 C-8.14375 1.70597656 -8.14375 1.70597656 -6.25 1.0234375 C-3 0 -3 0 0 0 Z " fill="#E47D31" transform="translate(865,457)"/>
<path d="M0 0 C0.99 0.33 1.98 0.66 3 1 C2.34 1.66 1.68 2.32 1 3 C0.75443629 5.72000357 0.62643514 8.34574257 0.5859375 11.0703125 C0.56657135 11.86654022 0.5472052 12.66276794 0.5272522 13.48312378 C0.46739526 16.03030634 0.42104721 18.57753395 0.375 21.125 C0.33682579 22.8502803 0.29777439 24.57554143 0.2578125 26.30078125 C0.16168891 30.53369876 0.07768092 34.76670549 0 39 C-0.33 39 -0.66 39 -1 39 C-1.02464849 33.60653012 -1.04283531 28.21309275 -1.05493164 22.81958008 C-1.05997231 20.98331125 -1.06680477 19.14704646 -1.07543945 17.31079102 C-1.08751672 14.67723599 -1.09323081 12.04373384 -1.09765625 9.41015625 C-1.10281754 8.58411392 -1.10797882 7.75807159 -1.11329651 6.90699768 C-1.11349205 4.93763632 -1.06204152 2.96838386 -1 1 C-0.67 0.67 -0.34 0.34 0 0 Z " fill="#E17B10" transform="translate(757,376)"/>
<path d="M0 0 C10.55808656 -0.55353075 10.55808656 -0.55353075 15 3 C11.81175432 4.59412284 8.37103338 4.10174735 4.875 4.0625 C4.12089844 4.05798828 3.36679687 4.05347656 2.58984375 4.04882812 C0.72652873 4.03703499 -1.13674555 4.01909942 -3 4 C-3 3.34 -3 2.68 -3 2 C-2.01 2 -1.02 2 0 2 C0 1.34 0 0.68 0 0 Z " fill="#FFEB2A" transform="translate(738,334)"/>
<path d="M0 0 C-0.33 0.66 -0.66 1.32 -1 2 C-5.49348553 3.38730913 -10.15909157 3.11320772 -14.8125 3.0625 C-15.99489258 3.05573242 -15.99489258 3.05573242 -17.20117188 3.04882812 C-19.13414761 3.03711312 -21.06708393 3.01917998 -23 3 C-23 2.67 -23 2.34 -23 2 C-15.27279225 0.76892281 -7.8316181 -0.2700558 0 0 Z " fill="#3D5D90" transform="translate(720,291)"/>
<path d="M0 0 C-0.71027344 0.34933594 -1.42054688 0.69867188 -2.15234375 1.05859375 C-3.07144531 1.51363281 -3.99054687 1.96867187 -4.9375 2.4375 C-5.85402344 2.88996094 -6.77054688 3.34242188 -7.71484375 3.80859375 C-9.90528904 4.80525394 -9.90528904 4.80525394 -11 6 C-11.03173414 8.7835375 -10.93159925 11.55391063 -10.83984375 14.3359375 C-11 17 -11 17 -13 20 C-13 14.39 -13 8.78 -13 3 C-2.25 -1.125 -2.25 -1.125 0 0 Z " fill="#E52F2C" transform="translate(791,375)"/>
<path d="M0 0 C-0.33 0.66 -0.66 1.32 -1 2 C-4.63043751 3.16447996 -8.30356797 4.07589199 -12 5 C-12.99 5.33 -13.98 5.66 -15 6 C-15.66 5.34 -16.32 4.68 -17 4 C-15.33333333 3.33333333 -13.66666667 2.66666667 -12 2 C-10.824375 1.443125 -10.824375 1.443125 -9.625 0.875 C-6.33329436 -0.22223521 -3.44580023 -0.13512942 0 0 Z " fill="#D0530C" transform="translate(856,463)"/>
<path d="M0 0 C-1.04800781 0.61488281 -1.04800781 0.61488281 -2.1171875 1.2421875 C-3.02726563 1.78101563 -3.93734375 2.31984375 -4.875 2.875 C-6.23238281 3.67550781 -6.23238281 3.67550781 -7.6171875 4.4921875 C-10.06603282 5.91975352 -10.06603282 5.91975352 -12 8 C-15 6 -15 6 -16 4 C-13.71144298 3.13656269 -11.4198072 2.2840189 -9.125 1.4375 C-8.47402344 1.19064453 -7.82304688 0.94378906 -7.15234375 0.68945312 C-2.2265625 -1.11328125 -2.2265625 -1.11328125 0 0 Z " fill="#DE6233" transform="translate(828,471)"/>
<path d="M0 0 C6.93 0 13.86 0 21 0 C16.09396701 3.67952474 14.82490317 3.29124516 9 3 C9 2.67 9 2.34 9 2 C6.03 1.67 3.06 1.34 0 1 C0 0.67 0 0.34 0 0 Z " fill="#98B1CD" transform="translate(963,486)"/>
<path d="M0 0 C1.39456452 0.00667256 2.78911118 0.01863093 4.18359375 0.03515625 C4.89451172 0.03966797 5.60542969 0.04417969 6.33789062 0.04882812 C8.09899388 0.06064761 9.86005411 0.07858362 11.62109375 0.09765625 C5.62533691 4.09482748 -1.41824927 3.20912585 -8.37890625 3.09765625 C-7.73953125 2.78828125 -7.10015625 2.47890625 -6.44140625 2.16015625 C-2.38178809 0.06883781 -2.38178809 0.06883781 0 0 Z " fill="#153C70" transform="translate(901.37890625,494.90234375)"/>
<path d="M0 0 C-0.99 1.485 -0.99 1.485 -2 3 C-4.77262255 3.38394667 -7.34323528 3.60342248 -10.125 3.6875 C-10.87910156 3.72166016 -11.63320313 3.75582031 -12.41015625 3.79101562 C-14.27291201 3.87354278 -16.13643326 3.93844711 -18 4 C-18 3.67 -18 3.34 -18 3 C-16.948125 2.87625 -15.89625 2.7525 -14.8125 2.625 C-11.13854565 2.17182759 -11.13854565 2.17182759 -8.4375 0.9375 C-5.5087509 -0.18894196 -3.11110233 -0.14470243 0 0 Z " fill="#0F4D88" transform="translate(569,399)"/>
<path d="M0 0 C0.598125 0.20625 1.19625 0.4125 1.8125 0.625 C1.4825 1.285 1.1525 1.945 0.8125 2.625 C3.1225 3.285 5.4325 3.945 7.8125 4.625 C6.8225 5.285 5.8325 5.945 4.8125 6.625 C1.13533729 5.56055816 -1.96032884 3.65350758 -5.1875 1.625 C-2.1875 -0.375 -2.1875 -0.375 0 0 Z " fill="#F9AF25" transform="translate(708.1875,330.375)"/>
<path d="M0 0 C6.27 0 12.54 0 19 0 C15.36804504 2.42130331 13.61650652 2.21022785 9.3125 2.125 C8.13300781 2.10695313 6.95351563 2.08890625 5.73828125 2.0703125 C4.83464844 2.04710937 3.93101562 2.02390625 3 2 C2.67 2.66 2.34 3.32 2 4 C1.34 4 0.68 4 0 4 C0 2.68 0 1.36 0 0 Z " fill="#1B7CBE" transform="translate(392,533)"/>
<path d="M0 0 C0 0.66 0 1.32 0 2 C-1.50197356 3.24076077 -3.00612315 4.47921817 -4.53125 5.69140625 C-6.28660135 7.25534961 -7.18614864 8.80260134 -8 11 C-8.8125 9.375 -8.8125 9.375 -9 7 C-3.92156863 0 -3.92156863 0 0 0 Z " fill="#2F7DB4" transform="translate(651,300)"/>
<path d="M0 0 C0 3 0 3 -1.53125 4.82421875 C-2.1809375 5.43910156 -2.830625 6.05398438 -3.5 6.6875 C-4.1496875 7.31011719 -4.799375 7.93273437 -5.46875 8.57421875 C-5.9740625 9.04472656 -6.479375 9.51523437 -7 10 C-7.66 9.67 -8.32 9.34 -9 9 C-7.87895467 7.68412059 -6.75303035 6.37239647 -5.625 5.0625 C-4.99851562 4.33160156 -4.37203125 3.60070312 -3.7265625 2.84765625 C-2 1 -2 1 0 0 Z " fill="#D11D21" transform="translate(1004,568)"/>
<path d="M0 0 C0.33 0.99 0.66 1.98 1 3 C2.98 3 4.96 3 7 3 C4.06337384 4.95775078 2.4262944 5.56073149 -1 6 C-1.66 5.67 -2.32 5.34 -3 5 C-3 4.34 -3 3.68 -3 3 C-2.34 3 -1.68 3 -1 3 C-0.67 2.01 -0.34 1.02 0 0 Z " fill="#AC1C1C" transform="translate(782,465)"/>
<path d="M0 0 C0.56203125 0.32742188 1.1240625 0.65484375 1.703125 0.9921875 C4.26859964 2.11785494 5.96842277 2.2068111 8.75 2.125 C9.94882812 2.09792969 9.94882812 2.09792969 11.171875 2.0703125 C12.07679688 2.03550781 12.07679688 2.03550781 13 2 C10.02534237 3.70754834 7.86139168 4.27317355 4.4375 4.25 C3.29087891 4.25773437 3.29087891 4.25773437 2.12109375 4.265625 C0 4 0 4 -3 2 C-2.01 2 -1.02 2 0 2 C0 1.34 0 0.68 0 0 Z " fill="#FDDF4B" transform="translate(763,351)"/>
<path d="M0 0 C2.97 0.33 5.94 0.66 9 1 C9 1.66 9 2.32 9 3 C10.32 3.33 11.64 3.66 13 4 C8.17639811 4.19294408 4.50353262 3.75747614 0 2 C0 1.34 0 0.68 0 0 Z " fill="#FFE837" transform="translate(760,339)"/>
<path d="M0 0 C5.06998019 0.65419099 9.41990777 2.8546409 14 5 C14 5.33 14 5.66 14 6 C8.29290936 5.53411505 4.84060277 4.06242216 0 1 C0 0.67 0 0.34 0 0 Z " fill="#133067" transform="translate(727,475)"/>
<path d="M0 0 C4.23429756 1.31061591 8.07407404 2.94356259 12 5 C8.34475772 6.21841409 8.23784337 5.61892168 5 4 C2.33290931 3.83249586 2.33290931 3.83249586 0 4 C0 2.68 0 1.36 0 0 Z " fill="#FDD114" transform="translate(684,341)"/>
<path d="M0 0 C2.64 0.33 5.28 0.66 8 1 C8.33 2.32 8.66 3.64 9 5 C6.03 4.01 3.06 3.02 0 2 C0 1.34 0 0.68 0 0 Z " fill="#E47D28" transform="translate(748,464)"/>
<path d="M0 0 C3.3 0 6.6 0 10 0 C10 0.66 10 1.32 10 2 C10.99 2.33 11.98 2.66 13 3 C8.62065881 2.48041715 4.31196609 1.94324258 0 1 C0 0.67 0 0.34 0 0 Z " fill="#FECD16" transform="translate(749,330)"/>
<path d="M0 0 C1.65 0.33 3.3 0.66 5 1 C4.34 2.32 3.68 3.64 3 5 C1.35 4.67 -0.3 4.34 -2 4 C-2 3.34 -2 2.68 -2 2 C-1.34 2 -0.68 2 0 2 C0 1.34 0 0.68 0 0 Z " fill="#E67911" transform="translate(802,302)"/>
<path d="M0 0 C2.31 0 4.62 0 7 0 C7.33 0.99 7.66 1.98 8 3 C5.125 3.1875 5.125 3.1875 2 3 C1.34 2.01 0.68 1.02 0 0 Z " fill="#FBA41E" transform="translate(808,302)"/>
<path d="M0 0 C-2.31856917 1.54571278 -4.50638429 2.79618552 -7 4 C-7.99 3.01 -8.98 2.02 -10 1 C-6.78548731 -0.60725635 -3.56387464 -0.05748185 0 0 Z " fill="#FDCE0B" transform="translate(732,332)"/>
<path d="M0 0 C0.66 0 1.32 0 2 0 C0.70700306 2.88437779 -0.65941363 4.87219421 -3 7 C-3.66 6.67 -4.32 6.34 -5 6 C-3.38405168 3.95880212 -1.7143618 1.95927063 0 0 Z " fill="#D4272A" transform="translate(914,573)"/>
<path d="M0 0 C2.475 0.495 2.475 0.495 5 1 C5.33 2.32 5.66 3.64 6 5 C4.68 5.33 3.36 5.66 2 6 C1.855625 5.38125 1.71125 4.7625 1.5625 4.125 C1.06847775 1.96741678 1.06847775 1.96741678 0 0 Z " fill="#123B79" transform="translate(653,494)"/>
<path d="M0 0 C0 0.33 0 0.66 0 1 C-1.6396875 1.2165625 -1.6396875 1.2165625 -3.3125 1.4375 C-6.93122987 1.88288104 -6.93122987 1.88288104 -10 3 C-12.1875 2.0625 -12.1875 2.0625 -14 1 C-9.32798795 -0.20568053 -4.78503708 -0.09382426 0 0 Z " fill="#4A5F90" transform="translate(756,286)"/>
<path d="M0 0 C0.33 0 0.66 0 1 0 C1.92470553 4.71599818 2.22923777 7.67265609 0 12 C-0.33 12 -0.66 12 -1 12 C-1.14285714 3.42857143 -1.14285714 3.42857143 0 0 Z " fill="#E06B6D" transform="translate(734,665)"/>
<path d="M0 0 C1.98 0.495 1.98 0.495 4 1 C3.34 1.66 2.68 2.32 2 3 C1.3574765 5.06874034 1.3574765 5.06874034 1 7 C0.34 7 -0.32 7 -1 7 C-0.67 4.69 -0.34 2.38 0 0 Z " fill="#D41F20" transform="translate(848,565)"/>
<path d="M0 0 C0.99 0 1.98 0 3 0 C3 2.31 3 4.62 3 7 C2.01 7.495 2.01 7.495 1 8 C0.67 5.36 0.34 2.72 0 0 Z " fill="#1778B7" transform="translate(639,565)"/>
</svg>
