<?xml version="1.0" encoding="UTF-8"?>
<svg version="1.1" xmlns="http://www.w3.org/2000/svg" width="400" height="400">
<path d="M0 0 C132 0 264 0 400 0 C400 132 400 264 400 400 C268 400 136 400 0 400 C0 268 0 136 0 0 Z " fill="#FDFDFD" transform="translate(0,0)"/>
<path d="M0 0 C3 2.0625 3 2.0625 5 5 C5.3125 8.8125 5.3125 8.8125 5 12 C0.89446397 13.80706991 -3.26130019 14.80357009 -7.625 15.75 C-16.56406889 17.76291382 -25.21737566 20.49010274 -33.91894531 23.34082031 C-35.93302699 23.97878612 -37.95543931 24.55643393 -39.9921875 25.1171875 C-42.856735 25.69695302 -42.856735 25.69695302 -44 27 C-44.12164135 29.52897259 -44.1785997 32.03113414 -44.19287109 34.56152344 C-44.20104858 35.35343079 -44.20922607 36.14533813 -44.21765137 36.96124268 C-44.242556 39.59394565 -44.25903569 42.22659447 -44.2734375 44.859375 C-44.28142302 46.20564342 -44.28142302 46.20564342 -44.28956985 47.57910919 C-44.31632559 52.3310511 -44.33569124 57.08296653 -44.35009766 61.83496094 C-44.36673652 66.74586211 -44.4115007 71.656091 -44.4624691 76.56673813 C-44.49611865 80.33970922 -44.50767268 84.1125205 -44.51332474 87.88562775 C-44.5200454 89.69575376 -44.53528864 91.50586896 -44.55921555 93.3158493 C-44.5908171 95.8514225 -44.59091178 98.38518021 -44.58349609 100.92089844 C-44.59990143 101.66811157 -44.61630676 102.41532471 -44.63320923 103.18518066 C-44.58577323 107.15062307 -44.15698661 108.81040316 -41.59335327 111.90657043 C-39.3998516 113.67722826 -37.24876804 115.36093862 -34.890625 116.90234375 C-34.13523437 117.40056641 -33.37984375 117.89878906 -32.6015625 118.41210938 C-31.82554687 118.91548828 -31.04953125 119.41886719 -30.25 119.9375 C-28.71354167 120.94661458 -27.17708333 121.95572917 -25.640625 122.96484375 C-23.23442562 124.53974535 -20.82694668 126.1125239 -18.41601562 127.68017578 C-17.59294922 128.22013184 -16.76988281 128.76008789 -15.921875 129.31640625 C-15.1700293 129.8069751 -14.41818359 130.29754395 -13.64355469 130.80297852 C-13.10118164 131.19799561 -12.55880859 131.5930127 -12 132 C-12 132.33 -12 132.66 -12 133 C-16.57143402 133.1242965 -21.14186878 133.21466121 -25.71459961 133.2746582 C-27.26750845 133.29968689 -28.82030084 133.33372131 -30.37280273 133.37719727 C-44.93751384 133.77462919 -44.93751384 133.77462919 -49.41015625 130.734375 C-51.55766887 128.46701628 -53.14510193 126.77529234 -54.375 123.9375 C-54.67148438 123.28652344 -54.96796875 122.63554687 -55.2734375 121.96484375 C-56.97861363 117.35353411 -57.12263436 113.1440121 -57.0625 108.25 C-57.05798828 107.55261719 -57.05347656 106.85523438 -57.04882812 106.13671875 C-57.0371002 104.42444197 -57.01916653 102.71220967 -57 101 C-57.98355469 100.96261719 -58.96710938 100.92523438 -59.98046875 100.88671875 C-70.93056169 100.39525683 -81.62409895 99.01114079 -92.45507812 97.37304688 C-98.62147302 96.46914709 -104.81264778 95.74388252 -111 95 C-111 94.67 -111 94.34 -111 94 C-103.79187695 93.42870035 -96.58361184 92.85921996 -89.37524414 92.29101562 C-86.92208586 92.09742644 -84.46896065 91.90341785 -82.01586914 91.70898438 C-78.4937381 91.42989091 -74.97149166 91.15229652 -71.44921875 90.875 C-70.34913986 90.78750488 -69.24906097 90.70000977 -68.11564636 90.60986328 C-67.09481461 90.52978027 -66.07398285 90.44969727 -65.0222168 90.3671875 C-64.12286911 90.29612793 -63.22352142 90.22506836 -62.29692078 90.15185547 C-60.53440276 90.03533077 -58.76636569 90 -57 90 C-57 86.37 -57 82.74 -57 79 C-63.43728825 79.26383588 -69.87445257 79.53047301 -76.31152344 79.79956055 C-78.4954118 79.89047544 -80.67933061 79.98066206 -82.86328125 80.07006836 C-97.31657361 80.63975721 -97.31657361 80.63975721 -111.75 81.5625 C-117.96784078 82.04257823 -124.14115153 82.11581581 -130.375 82.0625 C-131.40882813 82.05798828 -132.44265625 82.05347656 -133.5078125 82.04882812 C-136.00527499 82.0372658 -138.50260203 82.0209784 -141 82 C-141 81.67 -141 81.34 -141 81 C-124.51428533 77.94839224 -108.03268013 74.93031759 -91.46728516 72.33789062 C-82.95693754 71.00571298 -74.47520306 69.53882642 -66 68 C-74.9119526 67.15817787 -83.80433167 66.72230468 -92.75 66.4375 C-94.03132813 66.39431641 -95.31265625 66.35113281 -96.6328125 66.30664062 C-99.75513066 66.20178666 -102.87751121 66.09961982 -106 66 C-105.67 65.34 -105.34 64.68 -105 64 C-102.94970703 63.4375 -102.94970703 63.4375 -100.2578125 63 C-99.27296875 62.835 -98.288125 62.67 -97.2734375 62.5 C-95.71496094 62.2525 -95.71496094 62.2525 -94.125 62 C-92.10670181 61.66708484 -90.08847239 61.33375254 -88.0703125 61 C-86.54712402 60.75443359 -86.54712402 60.75443359 -84.99316406 60.50390625 C-82.18885292 60.03179384 -79.40656405 59.48985179 -76.6171875 58.9375 C-70.12563109 57.7288833 -63.58455091 57.36527436 -57 57 C-57.01571045 55.75387939 -57.0314209 54.50775879 -57.04760742 53.22387695 C-57.10198073 48.59275802 -57.13637711 43.96166722 -57.16479492 39.33032227 C-57.17986465 37.32734428 -57.2003241 35.3243992 -57.22631836 33.3215332 C-57.26278127 30.43953319 -57.27974461 27.55797016 -57.29296875 24.67578125 C-57.30845261 23.78288895 -57.32393646 22.88999664 -57.33988953 21.970047 C-57.34219801 13.40725497 -57.34219801 13.40725497 -54 10 C-51.23628521 9.09041599 -48.83353897 8.48415019 -46 8 C-44.64167161 7.7178077 -43.28383666 7.43322944 -41.92651367 7.14624023 C-40.50737311 6.86512792 -39.08784312 6.58597586 -37.66796875 6.30859375 C-36.90954178 6.158423 -36.15111481 6.00825226 -35.3697052 5.85353088 C-32.97600575 5.37962859 -30.58182148 4.90824877 -28.1875 4.4375 C-25.01388005 3.8134149 -21.84077929 3.18677924 -18.66796875 2.55859375 C-17.94296677 2.41691269 -17.21796478 2.27523163 -16.47099304 2.1292572 C-3.08379399 -0.52196513 -3.08379399 -0.52196513 0 0 Z " fill="#194B89" transform="translate(205,53)"/>
<path d="M0 0 C4.04142215 -0.11662261 8.08240865 -0.1873935 12.125 -0.25 C13.26710938 -0.28351563 14.40921875 -0.31703125 15.5859375 -0.3515625 C22.05478163 -0.42678162 26.10424863 -0.40617624 31 4 C31.5775 4.474375 32.155 4.94875 32.75 5.4375 C36.602257 10.25282125 36.4736807 15.79806177 36.38671875 21.69140625 C35.82514106 26.49601537 34.18146764 30.34131221 31 34 C28.828125 35.23828125 28.828125 35.23828125 27 36 C27 36.66 27 37.32 27 38 C27.5775 38.20625 28.155 38.4125 28.75 38.625 C31.97152703 40.59371096 33.73594796 42.48236023 35 46 C36.26800357 54.58588858 35.31946369 61.39158319 30.72265625 68.78125 C27.68132077 72.69843493 24.72208929 74.42597024 20 76 C18.0079697 76.08291953 16.01326287 76.10738177 14.01953125 76.09765625 C12.85615234 76.09443359 11.69277344 76.09121094 10.49414062 76.08789062 C9.27919922 76.07951172 8.06425781 76.07113281 6.8125 76.0625 C5.58595703 76.05798828 4.35941406 76.05347656 3.09570312 76.04882812 C0.06375332 76.03703065 -2.96809906 76.02056921 -6 76 C-6.54842318 61.69412365 -5.01224788 47.49166473 -3.74047852 33.25830078 C-3.50117097 30.55796627 -3.26949761 27.85699843 -3.03788853 25.15599442 C-2.75970274 21.92135569 -2.47544145 18.68725456 -2.19140625 15.453125 C-2.08719864 14.24698547 -1.98299103 13.04084595 -1.87562561 11.79815674 C-1.77559738 10.68559509 -1.67556915 9.57303345 -1.57250977 8.42675781 C-1.48590591 7.44829895 -1.39930206 6.46984009 -1.31007385 5.46173096 C-1 3 -1 3 0 0 Z " fill="#1D63A1" transform="translate(37,220)"/>
<path d="M0 0 C0.02501477 5.99161487 0.04300652 11.98319827 0.05493164 17.97485352 C0.0599114 20.00643443 0.06669762 22.03801186 0.07543945 24.06958008 C0.09965553 29.84867675 0.08658669 35.6253272 0.01934814 41.40411377 C0.00153548 43.79398936 0.02523412 46.18017033 0.05419922 48.56982422 C-0.07885808 57.70381612 -0.07885808 57.70381612 -2.43432617 61.01831055 C-4.52938251 62.70067563 -6.58492975 63.82286702 -9 65 C-10.3602832 65.7729541 -10.3602832 65.7729541 -11.74804688 66.56152344 C-14.71632128 68.2360109 -17.72145345 69.81250146 -20.75 71.375 C-21.77738281 71.92027344 -22.80476562 72.46554688 -23.86328125 73.02734375 C-24.85199219 73.54167969 -25.84070313 74.05601562 -26.859375 74.5859375 C-27.75108398 75.0504834 -28.64279297 75.5150293 -29.56152344 75.99365234 C-32 77 -32 77 -36 77 C-37 76 -37 76 -37.12025452 73.56394958 C-37.11803391 72.48251175 -37.11581329 71.40107391 -37.11352539 70.28686523 C-37.11344986 69.0656749 -37.11337433 67.84448456 -37.11329651 66.58628845 C-37.10818911 65.24372314 -37.10297311 63.90115825 -37.09765625 62.55859375 C-37.09579199 61.19238842 -37.09436813 59.82618243 -37.09336853 58.4599762 C-37.08954394 54.85798305 -37.07971417 51.25603 -37.06866455 47.65405273 C-37.05844916 43.98096255 -37.05387064 40.30786591 -37.04882812 36.63476562 C-37.03809184 29.42315877 -37.02101614 22.211585 -37 15 C-32.54330075 12.68504415 -28.07766108 10.38874924 -23.6027832 8.10913086 C-22.08228849 7.33129756 -20.56434615 6.54845354 -19.04907227 5.76049805 C-16.86868816 4.62778457 -14.67971614 3.5134945 -12.48828125 2.40234375 C-11.81412674 2.047202 -11.13997223 1.69206024 -10.44538879 1.32615662 C-6.57642379 -0.60992328 -4.16217536 -1.45973686 0 0 Z " fill="#C60D11" transform="translate(245,101)"/>
<path d="M0 0 C1.72905387 1.09065948 3.45682891 2.18334642 5.18408203 3.27685547 C6.14637726 3.88512177 7.10867249 4.49338806 8.10012817 5.12008667 C12.48022737 7.95959385 16.68230289 11.0180339 20.875 14.125 C21.6896875 14.71925781 22.504375 15.31351563 23.34375 15.92578125 C24.13523438 16.50972656 24.92671875 17.09367187 25.7421875 17.6953125 C26.4419873 18.21109863 27.14178711 18.72688477 27.86279297 19.25830078 C28.56807129 19.83306152 29.27334961 20.40782227 30 21 C30.90274658 21.60787354 31.80549316 22.21574707 32.7355957 22.84204102 C36.46394569 28.04163208 35.6110635 33.60645615 35.48828125 39.83203125 C35.47894812 41.1925069 35.47183436 42.55299942 35.46684265 43.91349792 C35.44781131 47.48301117 35.3987468 51.05149653 35.34332275 54.62060547 C35.29204504 58.26711117 35.26931062 61.91378405 35.24414062 65.56054688 C35.19062213 72.7074501 35.10535818 79.85365771 35 87 C31.57461678 86.22742647 29.26412157 85.04930927 26.33203125 83.0859375 C25.43806641 82.48910156 24.54410156 81.89226562 23.62304688 81.27734375 C22.69556641 80.64957031 21.76808594 80.02179688 20.8125 79.375 C19.90435547 78.77042969 18.99621094 78.16585937 18.06054688 77.54296875 C4.31096814 68.31096814 4.31096814 68.31096814 0 64 C-0.09405142 62.0056827 -0.11743249 60.00800457 -0.11352539 58.01147461 C-0.11344986 56.73022202 -0.11337433 55.44896942 -0.11329651 54.12889099 C-0.10818909 52.72004152 -0.10297309 51.31119244 -0.09765625 49.90234375 C-0.09579202 48.46887766 -0.09436814 47.03541093 -0.09336853 45.60194397 C-0.08954372 41.82240043 -0.07971377 38.0428951 -0.06866455 34.2633667 C-0.05844963 30.40930702 -0.05387074 26.55524118 -0.04882812 22.70117188 C-0.03809146 15.13409713 -0.02101549 7.56705391 0 0 Z " fill="#FBAC13" transform="translate(167,91)"/>
<path d="M0 0 C5.25412045 1.68131854 7.30837286 4.41115054 10.01953125 8.96484375 C14.23723754 17.71952493 12.95531068 31.95031806 10 41 C7.19739416 48.18101647 4.07780187 53.46109907 -3 57 C-8.42942153 57.55467568 -12.54834818 57.47785298 -17 54 C-17.33 53.67 -17.66 53.34 -18 53 C-18.99 61.58 -19.98 70.16 -21 79 C-24.63 79 -28.26 79 -32 79 C-31.33864234 63.4660895 -29.70449907 48.01898283 -28.14996338 32.55541992 C-27.79212743 28.98836807 -27.43824266 25.42092424 -27.08398438 21.85351562 C-26.39309953 14.90196433 -25.6979703 7.95084377 -25 1 C-21.7 1 -18.4 1 -15 1 C-15 2.98 -15 4.96 -15 7 C-14.236875 6.21625 -13.47375 5.4325 -12.6875 4.625 C-8.32590922 0.36484157 -6.05681685 -0.51328956 0 0 Z " fill="#CB171A" transform="translate(221,240)"/>
<path d="M0 0 C5.21526086 2.60763043 8.74461561 6.12345376 11.0859375 11.48828125 C12.33724519 16.29565565 12.36834498 20.86449592 12.375 25.8125 C12.39949219 26.75931641 12.42398438 27.70613281 12.44921875 28.68164062 C12.49052837 38.68545395 8.80965602 46.69291319 2 54 C-3.11152151 57.80392298 -8.85871538 57.80541438 -15 57 C-20.34779479 54.56918419 -22.63394174 51.15300187 -25 46 C-25.4125 45.113125 -25.825 44.22625 -26.25 43.3125 C-28.77937584 32.14109003 -26.8786048 20.38947147 -21.56640625 10.3359375 C-16.02369494 2.07024832 -9.7418724 -1.07909971 0 0 Z " fill="#1D609D" transform="translate(101,240)"/>
<path d="M0 0 C1.18331753 1.7749763 2.32688612 3.57947994 3.375 5.4375 C5.89102734 9.40508158 8.57569265 12.31435354 13 14 C15.65780544 14.17828063 18.19000314 14.25049856 20.84375 14.20703125 C21.60167847 14.200168 22.35960693 14.19330475 23.14050293 14.18623352 C30.30257611 14.07765904 37.3774244 13.42201843 44.5 12.6875 C64.85560024 10.70902407 85.28895534 9.96060305 105.71511269 9.09420109 C108.52069802 8.97500363 111.32620749 8.85406025 114.13172531 8.7332859 C116.07579264 8.65085521 118.02002726 8.57239965 119.96426392 8.49406433 C126.35713104 8.22299931 132.64751345 7.75699505 139 7 C141.85682481 6.90255166 144.70449948 6.902679 147.5625 6.9375 C148.28501953 6.94201172 149.00753906 6.94652344 149.75195312 6.95117188 C151.50133944 6.96275721 153.25068199 6.98068238 155 7 C152.53934234 9.46065766 151.11164585 9.56585908 147.72265625 10.21875 C146.65080078 10.42886719 145.57894531 10.63898438 144.47460938 10.85546875 C143.34861328 11.06816406 142.22261719 11.28085938 141.0625 11.5 C139.97130859 11.71269531 138.88011719 11.92539063 137.75585938 12.14453125 C131.68275207 13.32230221 125.60049257 14.44674379 119.51245117 15.54443359 C117.22769549 15.95871346 114.94565921 16.38513369 112.6640625 16.81640625 C104.10212093 18.41069882 95.71115624 19.56065473 87 20 C87 20.66 87 21.32 87 22 C86.39937744 22.08564209 85.79875488 22.17128418 85.17993164 22.25952148 C82.47348342 22.64788015 79.76800164 23.04260329 77.0625 23.4375 C76.11697266 23.57220703 75.17144531 23.70691406 74.19726562 23.84570312 C73.29814453 23.97783203 72.39902344 24.10996094 71.47265625 24.24609375 C70.64000244 24.36654053 69.80734863 24.4869873 68.94946289 24.61108398 C67.00312641 24.81183994 67.00312641 24.81183994 66 26 C63.77633243 26.33099247 61.54539317 26.61338662 59.3125 26.875 C51.76542076 27.80888319 44.42235412 29.34764259 37 31 C29.04635934 32.70584662 21.34423311 33.97167875 13.25 32.5 C5.02528599 27.01685733 2.29474622 17.12931506 0 8 C-0.31942495 5.15752225 -0.29114108 2.85318258 0 0 Z " fill="#1A4986" transform="translate(145,182)"/>
<path d="M0 0 C4.8324041 2.5091329 8.75630389 5.6293009 10.6875 10.86328125 C12.35909303 17.21301309 14.00206048 26.99587904 11 33 C2.42 33 -6.16 33 -15 33 C-13.98427174 41.37364526 -13.98427174 41.37364526 -11 44 C-5.27385622 44.68590324 -5.27385622 44.68590324 -0.5 42 C-0.005 41.34 0.49 40.68 1 40 C3.41103827 40.96441531 4.77404758 41.68797047 6.3125 43.8125 C7.23991161 46.76335512 7.13098759 48.1018443 6 51 C0.18891085 56.5584331 -4.15142376 57.50414603 -11.984375 57.390625 C-15.9007855 56.88331794 -17.89010198 55.84895808 -20.59765625 53.015625 C-26.6404627 44.33014274 -26.89101273 34.72617885 -25.71484375 24.52734375 C-24.05610922 15.3962517 -20.00244586 8.17711963 -12.8671875 2.27734375 C-8.93140253 -0.41512839 -4.61481684 -0.63048731 0 0 Z " fill="#CA1618" transform="translate(288,240)"/>
<path d="M0 0 C3.96 0 7.92 0 12 0 C12.34933594 0.92683594 12.69867188 1.85367188 13.05859375 2.80859375 C13.74115234 4.60490234 13.74115234 4.60490234 14.4375 6.4375 C15.11619141 8.22994141 15.11619141 8.22994141 15.80859375 10.05859375 C16.7144826 12.84445723 16.7144826 12.84445723 18 14 C18.51046875 12.989375 19.0209375 11.97875 19.546875 10.9375 C23.91910856 2.91612126 23.91910856 2.91612126 27 0 C31.23459069 -1.20410106 34.7244672 -0.91153491 39 0 C37.68144569 3.62111633 36.07501789 6.55167847 33.85546875 9.6953125 C33.26185547 10.57703125 32.66824219 11.45875 32.05664062 12.3671875 C30.81517501 14.19890061 29.54950189 16.01444823 28.25976562 17.8125 C24.86593999 22.89727102 24.86593999 22.89727102 24.15405273 28.81103516 C24.89806179 31.66793022 25.85053197 34.28216234 27 37 C27.30623291 37.80614746 27.61246582 38.61229492 27.92797852 39.44287109 C28.79956245 41.69412657 29.72961432 43.90926445 30.6875 46.125 C34 53.90970825 34 53.90970825 34 55 C29.71 55 25.42 55 21 55 C20.16280617 52.70967689 19.3301071 50.41789043 18.5 48.125 C18.26152344 47.47402344 18.02304688 46.82304687 17.77734375 46.15234375 C16 41.2265625 16 41.2265625 16 39 C15.34 39 14.68 39 14 39 C13.79375 39.78375 13.5875 40.5675 13.375 41.375 C9.50684932 51.57285181 9.50684932 51.57285181 6 55 C1.8778809 55.86228002 -1.85206428 55.60406831 -6 55 C-4.34357064 50.42255541 -2.03317045 46.33536336 0.375 42.125 C0.95507812 41.10212891 0.95507812 41.10212891 1.546875 40.05859375 C1.93101562 39.38183594 2.31515625 38.70507812 2.7109375 38.0078125 C3.08847168 37.33854736 3.46600586 36.66928223 3.85498047 35.97973633 C4.6141541 34.66712673 5.39968045 33.3693877 6.21142578 32.08862305 C8.3991173 28.64300895 8.3991173 28.64300895 8.9453125 24.69140625 C8.67460937 23.98886719 8.40390625 23.28632813 8.125 22.5625 C7.82207031 21.72976563 7.51914063 20.89703125 7.20703125 20.0390625 C6.80871094 19.03617187 6.41039062 18.03328125 6 17 C5.48015529 15.61306924 4.96345091 14.224959 4.44921875 12.8359375 C3.38494197 9.96608869 2.30277477 7.10406041 1.20703125 4.24609375 C0 1 0 1 0 0 Z " fill="#1C5F9C" transform="translate(153,241)"/>
<path d="M0 0 C2.02462164 0.959224 3.83101863 1.83176088 5.59765625 3.2109375 C6.81152561 6.85254558 6.26512575 7.54259219 4.66015625 10.8984375 C4.27988281 11.70667969 3.89960938 12.51492187 3.5078125 13.34765625 C3.20746094 13.96253906 2.90710938 14.57742187 2.59765625 15.2109375 C1.77265625 14.7159375 0.94765625 14.2209375 0.09765625 13.7109375 C-4.22202913 11.85964377 -6.74643809 11.82294536 -11.40234375 12.2109375 C-12.06234375 12.8709375 -12.72234375 13.5309375 -13.40234375 14.2109375 C-13.53417551 16.72436972 -13.53417551 16.72436972 -12.40234375 19.2109375 C-9.79590876 20.98480622 -9.79590876 20.98480622 -6.58984375 22.2734375 C-2.41520529 24.10905806 0.64667844 25.68214586 3.59765625 29.2109375 C5.50713901 34.93938579 5.5095134 40.98656255 2.97265625 46.5234375 C0.29213491 51.23581309 -3.19092054 54.47379643 -8.40234375 56.2109375 C-15.02312973 56.92645336 -20.72569037 57.39174429 -26.21484375 53.2109375 C-27.30437953 52.2404644 -28.3783832 51.25036573 -29.40234375 50.2109375 C-28.17707346 46.15812038 -26.70353881 42.76732986 -24.40234375 39.2109375 C-23.43296875 39.8709375 -22.46359375 40.5309375 -21.46484375 41.2109375 C-17.21269235 43.67179404 -13.21944832 43.84150269 -8.40234375 43.2109375 C-7.10600754 42.14448635 -7.10600754 42.14448635 -7.33984375 39.6484375 C-7.36046875 38.8440625 -7.38109375 38.0396875 -7.40234375 37.2109375 C-8.2221875 36.83582031 -9.04203125 36.46070313 -9.88671875 36.07421875 C-10.964375 35.56246094 -12.04203125 35.05070312 -13.15234375 34.5234375 C-14.2196875 34.02457031 -15.28703125 33.52570313 -16.38671875 33.01171875 C-20.18169231 30.74554931 -22.43229537 28.15103426 -24.40234375 24.2109375 C-24.9036863 17.77061393 -25.38183293 11.60250349 -21.40234375 6.2109375 C-14.96385286 -0.09341816 -9.10879192 -2.99183084 0 0 Z " fill="#CC171A" transform="translate(362.40234375,240.7890625)"/>
<path d="M0 0 C2.8030823 1.44224981 4.55642199 2.73880841 5.9453125 5.59375 C5.77036759 9.35506556 4.47545684 11.90475554 2.8203125 15.28125 C2.2221875 14.971875 1.6240625 14.6625 1.0078125 14.34375 C-3.19389119 12.30292249 -6.53618127 12.02796784 -11.1796875 12.28125 C-11.8396875 12.94125 -12.4996875 13.60125 -13.1796875 14.28125 C-13.31622865 16.79234908 -13.31622865 16.79234908 -12.1796875 19.28125 C-9.54073923 21.09008072 -9.54073923 21.09008072 -6.3046875 22.40625 C0.89429209 25.61543367 0.89429209 25.61543367 2.8203125 28.28125 C4.71111588 34.83824651 5.10701208 42.61253975 2.1328125 48.78125 C-1.77084606 53.00142141 -4.94049699 55.94533395 -10.81640625 56.5546875 C-17.20769241 56.76745759 -21.44064886 56.33114621 -26.75390625 52.66796875 C-28.1796875 51.28125 -28.1796875 51.28125 -29.1796875 48.28125 C-28.18359375 46.01953125 -28.18359375 46.01953125 -26.7421875 43.59375 C-26.03255859 42.38138672 -26.03255859 42.38138672 -25.30859375 41.14453125 C-24.93605469 40.52964844 -24.56351562 39.91476562 -24.1796875 39.28125 C-23.1690625 40.10625 -22.1584375 40.93125 -21.1171875 41.78125 C-17.39921572 44.44340829 -14.79080153 44.90197689 -10.1796875 44.28125 C-9.1896875 43.62125 -8.1996875 42.96125 -7.1796875 42.28125 C-6.92937773 39.69744823 -6.92937773 39.69744823 -7.1796875 37.28125 C-7.99953125 36.90613281 -8.819375 36.53101563 -9.6640625 36.14453125 C-10.74171875 35.63277344 -11.819375 35.12101562 -12.9296875 34.59375 C-13.99703125 34.09488281 -15.064375 33.59601563 -16.1640625 33.08203125 C-19.95903606 30.81586181 -22.20963912 28.22134676 -24.1796875 24.28125 C-24.91070071 17.16285909 -24.53676235 11.13939027 -20.1796875 5.28125 C-14.39761573 -0.63357341 -8.06337701 -2.65889134 0 0 Z " fill="#CB1618" transform="translate(328.1796875,240.71875)"/>
<path d="M0 0 C0.80630859 0.53431641 1.61261719 1.06863281 2.44335938 1.61914062 C6.25495072 4.19505398 9.1774425 6.36035588 11.8125 10.1875 C8.29224504 11.79293801 4.77119262 13.3966197 1.25 15 C0.25935547 15.45181641 -0.73128906 15.90363281 -1.75195312 16.36914062 C-3.68918181 17.25086929 -5.62875665 18.12746398 -7.57080078 18.99853516 C-9.1431821 19.7129872 -10.70742528 20.44641812 -12.25341797 21.21630859 C-16.35673383 23.20076386 -18.84557064 23.65131902 -23.1875 22.1875 C-26.10500484 20.50315198 -28.79371497 18.56474758 -31.5 16.5625 C-32.24822021 16.02141602 -32.99644043 15.48033203 -33.76733398 14.92285156 C-38.99392374 11.12479112 -44.16424535 7.25189977 -49.1875 3.1875 C-46.04391415 1.47828893 -42.94760115 0.45318708 -39.50390625 -0.50390625 C-38.41142578 -0.80876953 -37.31894531 -1.11363281 -36.19335938 -1.42773438 C-35.05705078 -1.74033203 -33.92074219 -2.05292969 -32.75 -2.375 C-31.61755859 -2.69146484 -30.48511719 -3.00792969 -29.31835938 -3.33398438 C-16.84965156 -6.79465696 -10.92937704 -7.50785268 0 0 Z " fill="#FCA111" transform="translate(224.1875,81.8125)"/>
<path d="M0 0 C3.63 0 7.26 0 11 0 C9.99984844 14.89699435 8.67062549 29.72762575 7 44.5625 C6.91641235 45.30487915 6.83282471 46.0472583 6.7467041 46.81213379 C5.5334035 57.54554268 4.26825369 68.27296865 3 79 C-0.3 79 -3.6 79 -7 79 C-5.91042108 58.06130558 -4.43322206 37.21438679 -2.32763672 16.35205078 C-1.92846374 12.26811259 -1.58808713 8.18028441 -1.26586914 4.08959961 C-1 2 -1 2 0 0 Z " fill="#1A609D" transform="translate(122,217)"/>
<path d="M0 0 C13.54493337 3.38623334 25.77726605 12.77042948 36 22 C36.86230225 22.61786377 37.72460449 23.23572754 38.61303711 23.87231445 C42.28594231 28.6849961 41.63969276 33.25681081 41.5234375 39.1484375 C41.51873444 40.35198883 41.51403137 41.55554016 41.50918579 42.79556274 C41.48785111 46.65595604 41.43142462 50.51497711 41.375 54.375 C41.35847934 56.90363243 41.34413478 59.43228007 41.33203125 61.9609375 C41.28446183 69.30892211 41.16012752 76.65367438 41 84 C40.97715942 85.14166626 40.95431885 86.28333252 40.93078613 87.45959473 C40.85982444 90.65357006 40.76674235 93.84596641 40.6640625 97.0390625 C40.63256607 98.45038956 40.63256607 98.45038956 40.60043335 99.89022827 C40.41503061 104.67866068 40.18464862 108.16704125 37 112 C34.53212175 113.52580763 32.23510217 114.78495244 29.625 116 C28.91617676 116.3410376 28.20735352 116.6820752 27.47705078 117.03344727 C19.2841425 120.91521602 11.03730171 124.72619635 2 126 C2 125.34 2 124.68 2 124 C3.17973389 123.40312378 3.17973389 123.40312378 4.38330078 122.79418945 C7.32741889 121.29999417 10.267821 119.79892561 13.20605469 118.29321289 C14.47320952 117.64560971 15.74174326 117.0006967 17.01171875 116.35864258 C18.84753483 115.42991015 20.67800771 114.49129124 22.5078125 113.55078125 C23.60754395 112.99044189 24.70727539 112.43010254 25.84033203 111.8527832 C30.83312385 108.93596255 30.83312385 108.93596255 35 105 C35.93004259 101.5070105 35.93004259 101.5070105 35.83984375 97.58276367 C35.86525238 96.48903694 35.86525238 96.48903694 35.89117432 95.37321472 C35.93784436 92.97074966 35.93996113 90.57085217 35.9375 88.16796875 C35.95171081 86.49033087 35.96710992 84.81270267 35.98364258 83.13508606 C36.01051724 79.62030021 36.01367933 76.10641249 36.00195312 72.59155273 C35.990175 68.10114316 36.05125809 63.61506998 36.13218689 59.12549877 C36.18406875 55.66015186 36.18968505 52.19583956 36.18240356 48.73015785 C36.18577618 47.07596266 36.20496928 45.42171715 36.24069214 43.76790428 C36.62097083 34.4501132 36.62097083 34.4501132 32.84010315 26.26104736 C30.31546677 24.2142622 27.82859456 22.59043225 25 21 C23.60361942 20.0214571 22.21482652 19.03182597 20.83984375 18.0234375 C19.54159922 17.13689877 18.24082221 16.25405688 16.9375 15.375 C16.25429687 14.90698975 15.57109375 14.43897949 14.8671875 13.95678711 C10.45891451 10.94596594 5.99479619 8.04727609 1.40625 5.31640625 C0.9421875 4.88199219 0.478125 4.44757813 0 4 C0 2.68 0 1.36 0 0 Z " fill="#C86809" transform="translate(215,61)"/>
<path d="M0 0 C-0.14183696 1.75032844 -0.28863429 3.50025534 -0.4375 5.25 C-0.51871094 6.22453125 -0.59992188 7.1990625 -0.68359375 8.203125 C-0.95074584 10.56461753 -1.35371968 12.71901065 -2 15 C-3.953125 15.35807292 -5.90625 15.71614583 -7.859375 16.07421875 C-11.08289676 17.46833309 -12.17679587 18.98455198 -14 22 C-14.88103335 25.29922828 -15.2938889 28.61205786 -15.6875 32 C-15.80778564 32.93030029 -15.92807129 33.86060059 -16.05200195 34.8190918 C-16.93825938 41.86822821 -17.57275076 48.9076627 -18 56 C-21.63 56 -25.26 56 -29 56 C-27.75915305 37.60626871 -26.08362674 19.31629 -24 1 C-20.7 1 -17.4 1 -14 1 C-14 3.64 -14 6.28 -14 9 C-13.443125 8.071875 -12.88625 7.14375 -12.3125 6.1875 C-8.71688113 1.23137669 -6.01804523 -0.18084276 0 0 Z " fill="#CA1416" transform="translate(264,240)"/>
<path d="M0 0 C3.63 0 7.26 0 11 0 C10.30959841 12.01575391 9.16314732 23.9661862 7.9375 35.9375 C7.74911493 37.79620025 7.56096244 39.6549241 7.37304688 41.51367188 C6.91803785 46.00939026 6.45990907 50.50478036 6 55 C2.37 55 -1.26 55 -5 55 C-5.0805094 48.95205925 -4.82731711 43.09771634 -4.16015625 37.08984375 C-4.07374374 36.27810196 -3.98733124 35.46636017 -3.89830017 34.63002014 C-3.62412565 32.06534821 -3.34335141 29.50144837 -3.0625 26.9375 C-2.87783633 25.21553966 -2.69358825 23.4935347 -2.50976562 21.77148438 C-1.72988647 14.50623 -0.92243316 7.2487146 0 0 Z " fill="#1E5E9A" transform="translate(138,241)"/>
<path d="M0 0 C0.99 0.33 1.98 0.66 3 1 C3 3.31 3 5.62 3 8 C-1.10553603 9.80706991 -5.26130019 10.80357009 -9.625 11.75 C-18.56406889 13.76291382 -27.21737566 16.49010274 -35.91894531 19.34082031 C-37.93302699 19.97878612 -39.95543931 20.55643393 -41.9921875 21.1171875 C-44.856735 21.69695302 -44.856735 21.69695302 -46 23 C-46.12164135 25.52897259 -46.1785997 28.03113414 -46.19287109 30.56152344 C-46.20104858 31.35343079 -46.20922607 32.14533813 -46.21765137 32.96124268 C-46.242556 35.59394565 -46.25903569 38.22659447 -46.2734375 40.859375 C-46.27876118 41.75688728 -46.28408485 42.65439957 -46.28956985 43.57910919 C-46.31632559 48.3310511 -46.33569124 53.08296653 -46.35009766 57.83496094 C-46.36673652 62.74586211 -46.4115007 67.656091 -46.4624691 72.56673813 C-46.49611865 76.33970922 -46.50767268 80.1125205 -46.51332474 83.88562775 C-46.5200454 85.69575376 -46.53528864 87.50586896 -46.55921555 89.3158493 C-46.5908171 91.8514225 -46.59091178 94.38518021 -46.58349609 96.92089844 C-46.6081041 98.04171814 -46.6081041 98.04171814 -46.63320923 99.18518066 C-46.58577323 103.15062307 -46.15698661 104.81040316 -43.59335327 107.90657043 C-41.3998516 109.67722826 -39.24876804 111.36093862 -36.890625 112.90234375 C-36.13523438 113.40056641 -35.37984375 113.89878906 -34.6015625 114.41210938 C-33.82554687 114.91548828 -33.04953125 115.41886719 -32.25 115.9375 C-30.71354167 116.94661458 -29.17708333 117.95572917 -27.640625 118.96484375 C-25.23442562 120.53974535 -22.82694668 122.1125239 -20.41601562 123.68017578 C-19.59294922 124.22013184 -18.76988281 124.76008789 -17.921875 125.31640625 C-17.1700293 125.8069751 -16.41818359 126.29754395 -15.64355469 126.80297852 C-15.10118164 127.19799561 -14.55880859 127.5930127 -14 128 C-14 128.33 -14 128.66 -14 129 C-24.89 129 -35.78 129 -47 129 C-47.33 128.01 -47.66 127.02 -48 126 C-38.1 125.01 -38.1 125.01 -28 124 C-29.815 122.63875 -31.63 121.2775 -33.5 119.875 C-34.09280762 119.42930664 -34.68561523 118.98361328 -35.29638672 118.52441406 C-37.68969597 116.72536451 -40.08833431 114.93560677 -42.5078125 113.171875 C-43.55582031 112.40617187 -43.55582031 112.40617187 -44.625 111.625 C-45.54152344 110.96371094 -45.54152344 110.96371094 -46.4765625 110.2890625 C-48.70868563 108.40034292 -49.91868408 106.72430035 -50.24723816 103.79779053 C-50.24581314 102.93865051 -50.24438812 102.0795105 -50.24291992 101.19433594 C-50.24593613 100.21250336 -50.24895233 99.23067078 -50.25205994 98.21908569 C-50.24493484 97.15163116 -50.23780975 96.08417664 -50.23046875 94.984375 C-50.23055435 93.87252838 -50.23063995 92.76068176 -50.23072815 91.61514282 C-50.22743943 87.99330478 -50.2085946 84.37177525 -50.1875 80.75 C-50.17797459 78.27945996 -50.16853456 75.8089196 -50.15917969 73.33837891 C-50.13125532 67.30626853 -50.08583704 61.27446634 -50.02996826 55.24255371 C-50.00296578 52.32089609 -49.9799858 49.39923404 -49.95751953 46.47753906 C-49.91959789 42.10905245 -49.84223303 37.74268007 -49.75 33.375 C-49.73606201 32.14104492 -49.72212402 30.90708984 -49.70776367 29.63574219 C-49.65906128 27.97140137 -49.65906128 27.97140137 -49.609375 26.2734375 C-49.58842773 25.33935059 -49.56748047 24.40526367 -49.54589844 23.44287109 C-48.82150754 20.20125424 -47.58915029 19.0373917 -45 17 C-42.72924805 15.99511719 -42.72924805 15.99511719 -40.26171875 15.296875 C-39.35873047 15.0390625 -38.45574219 14.78125 -37.52539062 14.515625 C-36.58888672 14.26296875 -35.65238281 14.0103125 -34.6875 13.75 C-33.76259766 13.481875 -32.83769531 13.21375 -31.88476562 12.9375 C-26.73350011 11.50232155 -22.37038208 10.92480212 -17 11 C-14.20629403 10.48799787 -11.48659054 9.75562575 -8.75 9 C-1.34459459 7 -1.34459459 7 2 7 C1.34 4.69 0.68 2.38 0 0 Z " fill="#0E275E" transform="translate(207,57)"/>
<path d="M0 0 C-1.97746603 0.73080266 -3.98072489 1.39421747 -6 2 C-6.66 1.67 -7.32 1.34 -8 1 C-8.144375 1.763125 -8.28875 2.52625 -8.4375 3.3125 C-9 6 -9 6 -10 9 C-10.13021575 11.72006236 -10.20929137 14.41920159 -10.24609375 17.140625 C-10.27904531 18.78516131 -10.31225673 20.42969243 -10.34570312 22.07421875 C-10.39298831 24.65897907 -10.43740428 27.24372035 -10.47680664 29.82861328 C-10.51677509 32.32867574 -10.56826942 34.82830559 -10.62109375 37.328125 C-10.6295079 38.09191467 -10.63792206 38.85570435 -10.64659119 39.64263916 C-10.794436 46.13278063 -12.22224856 52.0972782 -15 58 C-17.44001726 59.22000863 -18.82348626 59.0534779 -21.54150391 58.92993164 C-22.48232819 58.88981461 -23.42315247 58.84969757 -24.39248657 58.80836487 C-25.91910416 58.7350016 -25.91910416 58.7350016 -27.4765625 58.66015625 C-28.51694672 58.61434921 -29.55733093 58.56854218 -30.62924194 58.52134705 C-33.96141088 58.37346492 -37.29318174 58.21806475 -40.625 58.0625 C-42.88018616 57.96109425 -45.13539432 57.86017646 -47.390625 57.75976562 C-52.9273513 57.51217787 -58.46376893 57.25841215 -64 57 C-63.67 56.34 -63.34 55.68 -63 55 C-60.94970703 54.4375 -60.94970703 54.4375 -58.2578125 54 C-56.78054687 53.7525 -56.78054687 53.7525 -55.2734375 53.5 C-53.71496094 53.2525 -53.71496094 53.2525 -52.125 53 C-50.10670181 52.66708484 -48.08847239 52.33375254 -46.0703125 52 C-45.05485352 51.83628906 -44.03939453 51.67257813 -42.99316406 51.50390625 C-40.18885292 51.03179384 -37.40656405 50.48985179 -34.6171875 49.9375 C-28.12563109 48.7288833 -21.58455091 48.36527436 -15 48 C-15.01571045 46.75387939 -15.0314209 45.50775879 -15.04760742 44.22387695 C-15.10198073 39.59275802 -15.13637711 34.96166722 -15.16479492 30.33032227 C-15.17986465 28.32734428 -15.2003241 26.3243992 -15.22631836 24.3215332 C-15.26278127 21.43953319 -15.27974461 18.55797016 -15.29296875 15.67578125 C-15.30845261 14.78288895 -15.32393646 13.88999664 -15.33988953 12.970047 C-15.34118542 8.16321609 -15.17795942 4.88228753 -12 1 C-10.09765625 0.0390625 -10.09765625 0.0390625 -8.0625 -0.375 C-7.05896484 -0.60316406 -7.05896484 -0.60316406 -6.03515625 -0.8359375 C-3.79619867 -1.01642928 -2.13490969 -0.65909963 0 0 Z " fill="#206CA8" transform="translate(163,62)"/>
<path d="M0 0 C2.89349469 0.94353088 4.1041231 1.51419477 5.875 3.9375 C8.39284695 11.49104084 7.29387202 19.83449866 3.875 26.9375 C2.125 29.5 2.125 29.5 -0.125 30.9375 C-3.625 31.5 -3.625 31.5 -7.125 30.9375 C-10.22208024 28.0557248 -11.0657526 26.38861994 -11.62109375 22.16015625 C-11.6224108 20.77330059 -11.60240227 19.38628214 -11.5625 18 C-11.56958984 17.30970703 -11.57667969 16.61941406 -11.58398438 15.90820312 C-11.50986682 9.89327843 -9.9331353 5.84337235 -5.8125 1.5 C-3.125 -0.0625 -3.125 -0.0625 0 0 Z " fill="#FCF8F8" transform="translate(215.125,253.0625)"/>
<path d="M0 0 C3.375 1.125 3.375 1.125 5.05859375 3.3046875 C7.72428884 9.01576126 7.26107644 15.82365068 5.6484375 21.83203125 C3.80997544 26.33850531 1.78967729 29.75614877 -2.625 32.125 C-5.60479575 32.05405248 -7.03832953 31.58595537 -9.375 29.75 C-12.7745952 25.33052625 -12.01253845 19.39552285 -11.625 14.125 C-10.29507836 7.29737079 -7.88979707 0.27206197 0 0 Z " fill="#F6F9FB" transform="translate(96.625,252.875)"/>
<path d="M0 0 C15.15555919 3.7888898 29.25971361 15.01337676 40 26 C39.505 26.495 39.505 26.495 39 27 C38.88290813 28.40262571 38.8327751 29.81093259 38.81054688 31.21826172 C38.78547058 32.56765335 38.78547058 32.56765335 38.7598877 33.94430542 C38.74631226 34.92948151 38.73273682 35.91465759 38.71875 36.9296875 C38.70034058 37.94862091 38.68193115 38.96755432 38.66296387 40.0173645 C38.60402431 43.3031821 38.55147063 46.58905752 38.5 49.875 C38.26238775 64.60473877 37.90387309 79.29451135 37 94 C36.67 94 36.34 94 36 94 C36.00967804 93.20343994 36.01935608 92.40687988 36.02932739 91.58618164 C36.11192542 84.05345583 36.14614254 76.52275385 36.12697029 68.98965454 C36.11879567 65.11720532 36.12886718 61.246648 36.18164062 57.37451172 C36.23195398 53.63240131 36.23302705 49.8931274 36.20095444 46.15084839 C36.19722308 44.72836157 36.21079106 43.30571378 36.24249649 41.88357544 C36.51832852 33.54785102 36.51832852 33.54785102 32.84004211 26.39761353 C30.31471465 24.35329736 27.79159998 22.655586 25 21 C23.60613119 20.01788256 22.21787678 19.02765356 20.83984375 18.0234375 C19.54159922 17.13689877 18.24082221 16.25405688 16.9375 15.375 C16.25429687 14.90698975 15.57109375 14.43897949 14.8671875 13.95678711 C10.45891451 10.94596594 5.99479619 8.04727609 1.40625 5.31640625 C0.9421875 4.88199219 0.478125 4.44757813 0 4 C0 2.68 0 1.36 0 0 Z " fill="#EC901B" transform="translate(215,61)"/>
<path d="M0 0 C0.99 0.33 1.98 0.66 3 1 C3.02501477 6.99161487 3.04300652 12.98319827 3.05493164 18.97485352 C3.0599114 21.00643443 3.06669762 23.03801186 3.07543945 25.06958008 C3.09965553 30.84867675 3.08658669 36.6253272 3.01934814 42.40411377 C3.00153548 44.79398936 3.02523412 47.18017033 3.05419922 49.56982422 C2.92119252 58.70034277 2.92119252 58.70034277 0.56787109 62.02050781 C-1.52826055 63.70715 -3.57918092 64.82642798 -6 66 C-6.91217285 66.50998535 -7.8243457 67.0199707 -8.76416016 67.54541016 C-11.750284 69.19974358 -14.77052872 70.76354443 -17.8125 72.3125 C-19.36614258 73.1178418 -19.36614258 73.1178418 -20.95117188 73.93945312 C-28.52307478 77.84102493 -28.52307478 77.84102493 -32 79 C-31.125 74.25 -31.125 74.25 -30 72 C-28.1063953 71.27541711 -26.20992029 70.55739864 -24.29931641 69.87890625 C-20.43325407 68.40111644 -16.83247074 66.44956069 -13.1875 64.5 C-12.43791016 64.10941406 -11.68832031 63.71882813 -10.91601562 63.31640625 C-10.19478516 62.93355469 -9.47355469 62.55070312 -8.73046875 62.15625 C-7.76210083 61.64288086 -7.76210083 61.64288086 -6.77416992 61.11914062 C-4.74884811 59.8415742 -3.42128502 58.94882695 -2 57 C-1.4281117 53.84838491 -1.4281117 53.84838491 -1.34765625 50.15625 C-1.31535416 49.459552 -1.28305206 48.762854 -1.24977112 48.04504395 C-1.14799523 45.69700557 -1.07132278 43.34915384 -1 41 C-0.97282898 40.16162598 -0.94565796 39.32325195 -0.91766357 38.45947266 C-0.71875349 32.14042283 -0.57369719 25.82066137 -0.4375 19.5 C-0.39416887 17.59764965 -0.35055076 15.69530582 -0.30664062 13.79296875 C-0.20112967 9.19538063 -0.09946381 4.59772275 0 0 Z " fill="#900C0C" transform="translate(242,100)"/>
<path d="M0 0 C0.66 0 1.32 0 2 0 C3.35144654 2.70289308 3.11975165 4.80069806 3.11352539 7.82666016 C3.11344986 9.04777496 3.11337433 10.26888977 3.11329651 11.52700806 C3.10818952 12.86435995 3.10297352 14.20171143 3.09765625 15.5390625 C3.0957914 16.90383859 3.09436781 18.26861534 3.09336853 19.63339233 C3.08954863 23.22715093 3.07972283 26.82086917 3.06866455 30.41461182 C3.05843911 34.08108982 3.05386848 37.74757435 3.04882812 41.4140625 C3.0381001 48.60939341 3.02102999 55.80469105 3 63 C-0.42538322 62.22742647 -2.73587843 61.04930927 -5.66796875 59.0859375 C-6.56193359 58.48910156 -7.45589844 57.89226562 -8.37695312 57.27734375 C-9.30443359 56.64957031 -10.23191406 56.02179688 -11.1875 55.375 C-12.09564453 54.77042969 -13.00378906 54.16585937 -13.93945312 53.54296875 C-19.82092407 49.59392097 -25.4702531 45.42753671 -31 41 C-24.09138225 41 -18.79858639 45.3703588 -13.4296875 49.28125 C-11.04264144 51.03166841 -11.04264144 51.03166841 -8.5078125 52.40625 C-5.58073681 54.26644764 -3.41639875 56.52468926 -1 59 C-1.00785522 57.38496582 -1.00785522 57.38496582 -1.01586914 55.73730469 C-1.19097687 16.35466446 -1.19097687 16.35466446 0 0 Z " fill="#D36D1D" transform="translate(199,115)"/>
<path d="M0 0 C2.08218362 -0.10832169 4.16599129 -0.18573541 6.25 -0.25 C7.99023438 -0.31960938 7.99023438 -0.31960938 9.765625 -0.390625 C13 0 13 0 15.38671875 1.73828125 C17.65006985 4.911357 17.61877551 7.01419856 17.46875 10.80859375 C16.72863975 14.26860916 14.71146819 15.88373214 12 18 C11.67 18.33 11.34 18.66 11 19 C8.81360547 19.07258946 6.62499611 19.08373783 4.4375 19.0625 C2.64119141 19.04896484 2.64119141 19.04896484 0.80859375 19.03515625 C-0.11824219 19.02355469 -1.04507813 19.01195312 -2 19 C-1.85913398 16.39547729 -1.71251536 13.79149803 -1.5625 11.1875 C-1.50352539 10.08051758 -1.50352539 10.08051758 -1.44335938 8.95117188 C-1.25618965 5.76928658 -1.01279207 3.03837622 0 0 Z " fill="#F0F4F7" transform="translate(44,264)"/>
<path d="M0 0 C0.33 0 0.66 0 1 0 C0.9969838 0.63813629 0.99396759 1.27627258 0.99085999 1.93374634 C0.96626684 8.58543486 0.99043694 15.23568784 1.04272461 21.88720703 C1.05585119 24.36829218 1.05661077 26.84947523 1.04467773 29.33056641 C1.02966371 32.90104472 1.05935363 36.46880666 1.09765625 40.0390625 C1.08340103 41.14553131 1.06914581 42.25200012 1.05445862 43.39199829 C1.06937131 49.03780903 1.06937131 49.03780903 3.46704102 53.96844482 C5.23447203 55.51382098 7.00195472 56.77221851 9 58 C9.76038574 58.556875 10.52077148 59.11375 11.30419922 59.6875 C11.96436035 60.120625 12.62452148 60.55375 13.3046875 61 C14.05363281 61.495 14.80257812 61.99 15.57421875 62.5 C16.33347656 62.995 17.09273437 63.49 17.875 64 C19.39322917 65 20.91145833 66 22.4296875 67 C24.8085657 68.56323336 27.1893394 70.12321063 29.57519531 71.67578125 C30.81027832 72.48595703 30.81027832 72.48595703 32.0703125 73.3125 C32.82328613 73.80363281 33.57625977 74.29476562 34.35205078 74.80078125 C34.89587402 75.19652344 35.43969727 75.59226562 36 76 C36 76.33 36 76.66 36 77 C25.11 77 14.22 77 3 77 C2.67 76.01 2.34 75.02 2 74 C11.9 73.01 11.9 73.01 22 72 C20.185 70.63875 18.37 69.2775 16.5 67.875 C15.90719238 67.42930664 15.31438477 66.98361328 14.70361328 66.52441406 C12.31030403 64.72536451 9.91166569 62.93560677 7.4921875 61.171875 C6.44417969 60.40617187 6.44417969 60.40617187 5.375 59.625 C4.76398438 59.18414062 4.15296875 58.74328125 3.5234375 58.2890625 C1.18886466 56.31365471 0.06377245 54.63924176 -0.24050903 51.58918762 C-0.23606781 50.63654526 -0.23162659 49.68390289 -0.22705078 48.70239258 C-0.22689972 47.62149857 -0.22674866 46.54060455 -0.22659302 45.42695618 C-0.21627045 44.26125595 -0.20594788 43.09555573 -0.1953125 41.89453125 C-0.1924826 40.70018967 -0.18965271 39.50584808 -0.18673706 38.27531433 C-0.17552677 34.45427503 -0.15042037 30.63346866 -0.125 26.8125 C-0.11497131 24.22461276 -0.10584527 21.63672184 -0.09765625 19.04882812 C-0.07558465 12.69913904 -0.0420986 6.34958616 0 0 Z " fill="#1C3A71" transform="translate(157,109)"/>
<path d="M0 0 C1.7492214 -0.08142927 3.49954542 -0.13938541 5.25 -0.1875 C6.22453125 -0.22230469 7.1990625 -0.25710937 8.203125 -0.29296875 C11.45088295 0.04722936 12.76030861 0.63995136 15 3 C15.7751374 6.04355419 15.5509819 8.92098351 15 12 C13.20606332 14.87029869 12.01736724 16.49131638 9 18 C7.12620395 18.07033769 5.24998898 18.0843022 3.375 18.0625 C2.37210938 18.05347656 1.36921875 18.04445312 0.3359375 18.03515625 C-0.43492188 18.02355469 -1.20578125 18.01195312 -2 18 C-1.85860519 15.74971671 -1.71171997 13.49977794 -1.5625 11.25 C-1.48128906 9.99703125 -1.40007813 8.7440625 -1.31640625 7.453125 C-1.07484478 4.81682447 -0.75716066 2.51962706 0 0 Z " fill="#F4F8FA" transform="translate(47,234)"/>
<path d="M0 0 C0.495 1.485 0.495 1.485 1 3 C-4.72956203 8.58632298 -11.2891427 12.14607223 -18.2578125 15.94921875 C-18.89984619 16.30765869 -19.54187988 16.66609863 -20.20336914 17.03540039 C-21.74423599 17.86268194 -23.33957469 18.5870646 -24.94140625 19.2890625 C-27.38043456 20.95049081 -27.38043456 20.95049081 -27.70703125 24.57421875 C-27.76660733 25.94446863 -27.80097482 27.31600403 -27.8125 28.6875 C-27.83763672 29.38939453 -27.86277344 30.09128906 -27.88867188 30.81445312 C-27.94744448 32.54236781 -27.9766097 34.2712443 -28 36 C-28.33 36 -28.66 36 -29 36 C-29.33 30.06 -29.66 24.12 -30 18 C-30.33 37.47 -30.66 56.94 -31 77 C-31.33 77 -31.66 77 -32 77 C-32 56.87 -32 36.74 -32 16 C-21.44 10.72 -10.88 5.44 0 0 Z " fill="#E53B39" transform="translate(240,100)"/>
<path d="M0 0 C6.7721975 1.72174513 11.78027765 4.63730252 17.2175293 8.95092773 C19.83779718 10.92803526 21.90374951 11.98190059 25.13671875 12.58984375 C32.03827629 11.53611757 38.14959977 8.26427258 44.45898438 5.37890625 C46.01649414 4.69248047 46.01649414 4.69248047 47.60546875 3.9921875 C48.54543701 3.56276855 49.48540527 3.13334961 50.45385742 2.69091797 C53 2 53 2 55.3371582 2.87548828 C55.885896 3.24657715 56.43463379 3.61766602 57 4 C52.07916087 7.97110113 46.36366894 10.19439686 40.625 12.75 C39.5009375 13.26949219 38.376875 13.78898437 37.21875 14.32421875 C36.12820312 14.81019531 35.03765625 15.29617187 33.9140625 15.796875 C32.9235791 16.24385742 31.9330957 16.69083984 30.91259766 17.15136719 C26.72711555 18.37087564 23.6817868 17.88333208 19.83764648 15.86425781 C19.18868408 15.39858398 18.53972168 14.93291016 17.87109375 14.453125 C17.14599609 13.9375 16.42089844 13.421875 15.67382812 12.890625 C14.93583984 12.34921875 14.19785156 11.8078125 13.4375 11.25 C12.69564453 10.7240625 11.95378906 10.198125 11.18945312 9.65625 C7.09510324 6.71035979 3.44561675 3.68442187 0 0 Z " fill="#D16710" transform="translate(179,87)"/>
<path d="M0 0 C-2.46065766 2.46065766 -3.88835415 2.56585908 -7.27734375 3.21875 C-8.88512695 3.53392578 -8.88512695 3.53392578 -10.52539062 3.85546875 C-11.65138672 4.06816406 -12.77738281 4.28085938 -13.9375 4.5 C-15.02869141 4.71269531 -16.11988281 4.92539063 -17.24414062 5.14453125 C-23.34374723 6.32744128 -29.45216221 7.45442409 -35.57080078 8.53442383 C-38.75598059 9.14488995 -41.88921467 9.91514176 -45.02734375 10.73046875 C-47.27910807 11.03813556 -48.8480213 10.67881207 -51 10 C-50.67 9.34 -50.34 8.68 -50 8 C-50.66 7.67 -51.32 7.34 -52 7 C-49.69 6.34 -47.38 5.68 -45 5 C-45.66 4.34 -46.32 3.68 -47 3 C-41.54805297 1.45052487 -35.87734704 1.34813292 -30.25 0.9375 C-29.04110107 0.84807129 -27.83220215 0.75864258 -26.58666992 0.66650391 C-17.70146532 0.04300161 -8.90398746 -0.24543916 0 0 Z " fill="#274E84" transform="translate(300,189)"/>
<path d="M0 0 C-5.78526169 2.14268951 -11.41790039 3.54816673 -17.51953125 4.47265625 C-19.98521236 4.86949727 -19.98521236 4.86949727 -21.8984375 6.05859375 C-24.92072764 7.41244491 -27.52300027 7.11404549 -30.8125 7 C-36.02986793 6.91295319 -40.13608855 7.14708135 -45 9 C-44.01 9.99 -43.02 10.98 -42 12 C-54.33173224 13.19684056 -66.62367928 13.10396237 -79 13 C-79 12.67 -79 12.34 -79 12 C-62.51208655 8.94798523 -46.02925028 5.91388861 -29.45849609 3.34008789 C-24.90242091 2.63120528 -20.35739198 1.89892219 -15.82421875 1.0546875 C-14.63892578 0.83462036 -14.63892578 0.83462036 -13.4296875 0.61010742 C-11.99205229 0.33914199 -10.55569107 0.06127258 -9.12109375 -0.2253418 C-5.79384353 -0.85306811 -3.21812274 -1.19159709 0 0 Z " fill="#3B81B4" transform="translate(143,122)"/>
<path d="M0 0 C0.33 0 0.66 0 1 0 C1.24805039 5.01672377 1.42900266 10.02985501 1.54931641 15.05126953 C1.59947485 16.7569801 1.66762724 18.46226336 1.75439453 20.16650391 C2.45459592 34.27762132 2.45459592 34.27762132 -0.98925781 38.35546875 C-3.61123579 39.95817915 -6.09697948 41.00577181 -9 42 C-10.38136618 42.66930889 -11.75707978 43.35049781 -13.125 44.046875 C-14.41238795 44.62422048 -15.70409918 45.19202456 -17 45.75 C-17.680625 46.04656494 -18.36125 46.34312988 -19.0625 46.64868164 C-24.25970409 48.84309771 -29.3769752 50.33767256 -35 51 C-35 50.34 -35 49.68 -35 49 C-33.82026611 48.40312378 -33.82026611 48.40312378 -32.61669922 47.79418945 C-29.67258111 46.29999417 -26.732179 44.79892561 -23.79394531 43.29321289 C-22.52679048 42.64560971 -21.25825674 42.0006967 -19.98828125 41.35864258 C-18.15246517 40.42991015 -16.32199229 39.49129124 -14.4921875 38.55078125 C-12.84259033 37.71027222 -12.84259033 37.71027222 -11.15966797 36.8527832 C-7.56783777 34.74658637 -4.92087961 32.98740957 -2 30 C-1.00283694 26.64795654 -1.00283694 26.64795654 -0.9765625 22.94921875 C-0.9406601 22.29041214 -0.90475769 21.63160553 -0.86776733 20.95283508 C-0.76007675 18.8646449 -0.69197163 16.7773522 -0.625 14.6875 C-0.55860425 13.26484952 -0.48962018 11.84231734 -0.41796875 10.41992188 C-0.24867956 6.94747876 -0.11481958 3.47471966 0 0 Z " fill="#D26910" transform="translate(252,136)"/>
<path d="M0 0 C9.38494634 -0.59586961 16.64286093 2.15201767 24 8 C24 8.99 24 9.98 24 11 C20.26403517 13.39101749 17.36502295 13.63363236 13 13 C9.43981357 10.94836714 6.23261967 8.52869913 3 6 C1.66802474 4.99819179 0.33517269 3.99754281 -1 3 C-0.67 2.01 -0.34 1.02 0 0 Z " fill="#FEEC44" transform="translate(188,87)"/>
<path d="M0 0 C3 0.5625 3 0.5625 4.875 2 C6.56730912 5.8547041 6.54726039 9.42004289 6 13.5625 C4.875 16.125 4.875 16.125 3 17.5625 C0 18.0625 0 18.0625 -3 17.5625 C-4.875 16.0625 -4.875 16.0625 -6 13.5625 C-6.41230471 9.23330052 -6.3937569 6.6125184 -4.875 2.5625 C-3 0.5625 -3 0.5625 0 0 Z " fill="#1D6EAB" transform="translate(145,216.4375)"/>
<path d="M0 0 C3.52312834 0.74960177 4.72290025 1.83624476 6.9375 4.625 C7.9375 6.625 7.9375 6.625 7.9375 12.625 C2.3275 12.625 -3.2825 12.625 -9.0625 12.625 C-8.01438545 6.33631269 -6.9779736 1.42407625 0 0 Z " fill="#F9EBEB" transform="translate(283.0625,251.375)"/>
<path d="M0 0 C0.99 0.33 1.98 0.66 3 1 C3.02501477 6.99161487 3.04300652 12.98319827 3.05493164 18.97485352 C3.0599114 21.00643443 3.06669762 23.03801186 3.07543945 25.06958008 C3.12442735 36.7603968 3.01959808 48.34761471 2 60 C1.67 60 1.34 60 1 60 C0.02296822 46.80070818 -0.12136452 33.66868811 -0.0625 20.4375 C-0.0574688 18.44336051 -0.05290879 16.44921978 -0.04882812 14.45507812 C-0.03796501 9.63668716 -0.02079222 4.81835793 0 0 Z " fill="#9A2D2D" transform="translate(242,100)"/>
<path d="M0 0 C-3.56616587 4.51714343 -6.54475197 5.90389353 -12.21484375 6.7890625 C-17.22075348 7.16819171 -22.03246198 6.62524439 -27 6 C-28.4400598 5.82645433 -29.88016665 5.65329889 -31.3203125 5.48046875 C-35.2162138 5.00663136 -39.10850042 4.50866048 -43 4 C-43 3.67 -43 3.34 -43 3 C-38.16233149 2.56828401 -33.32428315 2.14120592 -28.48583984 1.71826172 C-26.84282615 1.57400182 -25.19991961 1.4285157 -23.55712891 1.28173828 C-21.18419658 1.06994651 -18.81090297 0.8626926 -16.4375 0.65625 C-15.35106201 0.55781799 -15.35106201 0.55781799 -14.24267578 0.45739746 C-9.47738223 0.04859121 -4.78302836 -0.05649246 0 0 Z " fill="#296198" transform="translate(137,144)"/>
<path d="M0 0 C0 0.66 0 1.32 0 2 C0.83144531 1.89300781 1.66289062 1.78601563 2.51953125 1.67578125 C3.60621094 1.55589844 4.69289062 1.43601562 5.8125 1.3125 C6.89144531 1.18488281 7.97039062 1.05726562 9.08203125 0.92578125 C12 1 12 1 13.88671875 2.35546875 C15 4 15 4 15 6 C15.66 6 16.32 6 17 6 C17 7.32 17 8.64 17 10 C10.125 8.125 10.125 8.125 9 7 C6.93227266 6.80058132 6.93227266 6.80058132 4.5625 6.8125 C3.75941406 6.79832031 2.95632812 6.78414063 2.12890625 6.76953125 C-0.21630633 6.79837644 -0.21630633 6.79837644 -2 9 C-3.6490302 8.38348417 -5.29415841 7.75652258 -6.9375 7.125 C-7.85402344 6.77695313 -8.77054688 6.42890625 -9.71484375 6.0703125 C-12 5 -12 5 -13 3 C-11.39743892 2.49487756 -9.79288208 1.99608373 -8.1875 1.5 C-7.29417969 1.2215625 -6.40085938 0.943125 -5.48046875 0.65625 C-3 0 -3 0 0 0 Z " fill="#FCB511" transform="translate(188,81)"/>
<path d="M0 0 C0.33 0 0.66 0 1 0 C1 13.2 1 26.4 1 40 C-3.11715646 40 -3.81214583 39.79012119 -7.01171875 37.62109375 C-7.76598145 37.11481445 -8.52024414 36.60853516 -9.29736328 36.08691406 C-10.0861084 35.54260742 -10.87485352 34.99830078 -11.6875 34.4375 C-12.49171387 33.8919043 -13.29592773 33.34630859 -14.12451172 32.78417969 C-19.57605509 29.0585351 -24.91735299 25.22067763 -30 21 C-23.09138225 21 -17.79858639 25.3703588 -12.4296875 29.28125 C-10.04264144 31.03166841 -10.04264144 31.03166841 -7.5078125 32.40625 C-5 34 -5 34 0 39 C0 26.13 0 13.26 0 0 Z " fill="#F1830F" transform="translate(198,135)"/>
<path d="M0 0 C-1.98 0.66 -3.96 1.32 -6 2 C-6 2.66 -6 3.32 -6 4 C-7.98 4.33 -9.96 4.66 -12 5 C-12 5.66 -12 6.32 -12 7 C-20.91 7 -29.82 7 -39 7 C-38.67 6.34 -38.34 5.68 -38 5 C-35.94970703 4.4375 -35.94970703 4.4375 -33.2578125 4 C-32.27296875 3.835 -31.288125 3.67 -30.2734375 3.5 C-29.23445313 3.335 -28.19546875 3.17 -27.125 3 C-25.10670181 2.66708484 -23.08847239 2.33375254 -21.0703125 2 C-20.06774414 1.83886719 -19.06517578 1.67773438 -18.03222656 1.51171875 C-14.12707113 0.85268447 -10.24851716 0.07270462 -6.37060547 -0.73046875 C-3.93510517 -1.00737836 -2.31308772 -0.75474774 0 0 Z " fill="#2067A1" transform="translate(138,112)"/>
<path d="M0 0 C0 0.99 0 1.98 0 3 C1.98 3 3.96 3 6 3 C6 4.65 6 6.3 6 8 C-0.93 8 -7.86 8 -15 8 C-15 7.34 -15 6.68 -15 6 C-13.02 5.67 -11.04 5.34 -9 5 C-9 4.34 -9 3.68 -9 3 C-9.99 2.67 -10.98 2.34 -12 2 C-10.56342755 1.66269158 -9.12569907 1.33030409 -7.6875 1 C-6.88699219 0.814375 -6.08648437 0.62875 -5.26171875 0.4375 C-3 0 -3 0 0 0 Z " fill="#155896" transform="translate(141,111)"/>
<path d="M0 0 C4.5373289 2.5150737 8.76075337 5.15611361 12.9375 8.25 C13.89527344 8.95640625 14.85304687 9.6628125 15.83984375 10.390625 C16.90912109 11.18726562 16.90912109 11.18726562 18 12 C17.67 12.66 17.34 13.32 17 14 C16.401875 13.67 15.80375 13.34 15.1875 13 C12.94613529 11.79212012 12.94613529 11.79212012 10 12 C7.55766765 10.82851724 5.32311159 9.40263342 3 8 C3.33 8.66 3.66 9.32 4 10 C3.91255632 11.87862875 3.75824458 13.75455181 3.5625 15.625 C3.40974609 17.12933594 3.40974609 17.12933594 3.25390625 18.6640625 C3.17011719 19.43492188 3.08632812 20.20578125 3 21 C0.38462703 17.04504575 0.55735726 12.83172627 0.375 8.25 C0.33632812 7.45722656 0.29765625 6.66445312 0.2578125 5.84765625 C0.163892 3.89880584 0.08087178 1.94943549 0 0 Z " fill="#FDE216" transform="translate(168,92)"/>
<path d="M0 0 C0.66 0 1.32 0 2 0 C3.4242289 6.80594631 3.3081011 13.75165167 3.4296875 20.67773438 C3.57968776 27.83397191 3.57968776 27.83397191 7 34 C4 34 4 34 0 32 C0 21.44 0 10.88 0 0 Z " fill="#FA920C" transform="translate(167,123)"/>
<path d="M0 0 C0 0.33 0 0.66 0 1 C-12.33173224 2.19684056 -24.62367928 2.10396237 -37 2 C-37 1.67 -37 1.34 -37 1 C-33.50221037 0.32137828 -30.00147657 -0.34068889 -26.5 -1 C-25.51773438 -1.19078125 -24.53546875 -1.3815625 -23.5234375 -1.578125 C-14.81137785 -3.20437614 -8.09220052 -4.04610026 0 0 Z " fill="#397AAF" transform="translate(101,133)"/>
<path d="M0 0 C1.04736328 0.00902344 2.09472656 0.01804687 3.17382812 0.02734375 C5.72030514 0.05059925 8.26627031 0.08327431 10.8125 0.125 C10.8125 0.455 10.8125 0.785 10.8125 1.125 C4.3775 1.62 4.3775 1.62 -2.1875 2.125 C-2.1875 2.785 -2.1875 3.445 -2.1875 4.125 C0.1225 4.125 2.4325 4.125 4.8125 4.125 C4.8125 4.455 4.8125 4.785 4.8125 5.125 C-4.4275 5.125 -13.6675 5.125 -23.1875 5.125 C-23.1875 4.135 -23.1875 3.145 -23.1875 2.125 C-15.3714773 0.41340584 -7.9877077 -0.13321386 0 0 Z " fill="#145A96" transform="translate(117.1875,127.875)"/>
<path d="M0 0 C0.99 0.33 1.98 0.66 3 1 C2.01 1.495 2.01 1.495 1 2 C0.67 2.99 0.34 3.98 0 5 C-1.60717773 6.04321289 -1.60717773 6.04321289 -3.68359375 6.97265625 C-4.44236816 7.31425781 -5.20114258 7.65585938 -5.98291016 8.0078125 C-6.7929248 8.35585937 -7.60293945 8.70390625 -8.4375 9.0625 C-9.2526709 9.41957031 -10.0678418 9.77664062 -10.90771484 10.14453125 C-16.56010009 12.5542974 -21.88092277 14.21044165 -28 15 C-28 14.34 -28 13.68 -28 13 C-19.51826032 8.07807279 -11.97876493 3.82983492 -2 3 C-2 2.34 -2 1.68 -2 1 C-1.34 0.67 -0.68 0.34 0 0 Z " fill="#C2480B" transform="translate(245,172)"/>
<path d="M0 0 C4.12494151 -0.05784708 8.24977944 -0.09354407 12.375 -0.125 C13.550625 -0.14175781 14.72625 -0.15851563 15.9375 -0.17578125 C17.61972656 -0.18544922 17.61972656 -0.18544922 19.3359375 -0.1953125 C20.37282715 -0.20578613 21.4097168 -0.21625977 22.47802734 -0.22705078 C25 0 25 0 27 2 C26.34926514 1.99476318 25.69853027 1.98952637 25.02807617 1.98413086 C22.08122726 1.96335062 19.13439377 1.9503365 16.1875 1.9375 C15.16333984 1.92912109 14.13917969 1.92074219 13.08398438 1.91210938 C12.10107422 1.90888672 11.11816406 1.90566406 10.10546875 1.90234375 C9.19949951 1.89710693 8.29353027 1.89187012 7.36010742 1.88647461 C4.84715961 1.90079019 4.84715961 1.90079019 2 3 C1.01 13.56 0.02 24.12 -1 35 C-3 33 -3 33 -3.01171875 29.796875 C-2.91449786 28.44709115 -2.80566992 27.09811135 -2.6875 25.75 C-2.63335937 25.04141846 -2.57921875 24.33283691 -2.5234375 23.6027832 C-2.41068045 22.13087759 -2.29392636 20.65927315 -2.17333984 19.18798828 C-2.00823572 17.10395561 -1.86769773 15.02011472 -1.73828125 12.93359375 C-1.13152384 3.39457152 -1.13152384 3.39457152 0 0 Z " fill="#3C8EC3" transform="translate(37,220)"/>
<path d="M0 0 C0.33 0 0.66 0 1 0 C1.79541627 12.68404881 2.12807946 25.29167137 2 38 C1.01 37.34 0.02 36.68 -1 36 C-1.27937074 33.31631871 -1.3721651 30.86635809 -1.328125 28.18359375 C-1.32625183 27.41193375 -1.32437866 26.64027374 -1.32244873 25.8452301 C-1.31572316 24.21358929 -1.30179858 22.58196473 -1.28125 20.95043945 C-1.2500811 18.44402196 -1.24027923 15.93823273 -1.234375 13.43164062 C-1.22520585 11.84895061 -1.21483035 10.26626704 -1.203125 8.68359375 C-1.19887512 7.92944687 -1.19462524 7.17529999 -1.19024658 6.39830017 C-1.11715647 1.11715647 -1.11715647 1.11715647 0 0 Z " fill="#E21615" transform="translate(210,117)"/>
<path d="M0 0 C-0.33 0.99 -0.66 1.98 -1 3 C-17.70842825 3.3690205 -17.70842825 3.3690205 -26 1 C-26 0.67 -26 0.34 -26 0 C-17.30548921 -2.11233234 -8.40184498 -3.80119378 0 0 Z " fill="#1B407B" transform="translate(148,150)"/>
<path d="M0 0 C6.77960622 1.7236287 11.8502481 4.68700536 17.39331055 8.86303711 C20.57114756 11.21191557 23.04656302 12.57537158 27 13 C26.01 14.32 25.02 15.64 24 17 C20.49246243 15.7164167 17.63369505 14.21675685 14.609375 12.03125 C13.81789062 11.46019531 13.02640625 10.88914062 12.2109375 10.30078125 C11.39882812 9.70652344 10.58671875 9.11226562 9.75 8.5 C8.92242187 7.90574219 8.09484375 7.31148438 7.2421875 6.69921875 C1.13028877 2.26057754 1.13028877 2.26057754 0 0 Z " fill="#ED8B10" transform="translate(179,87)"/>
<path d="M0 0 C5.92639944 1.51516361 10.40514191 4.70871796 15.375 8.125 C16.20644531 8.68832031 17.03789062 9.25164062 17.89453125 9.83203125 C19.93403557 11.21514337 21.96892541 12.60455176 24 14 C23.67 14.66 23.34 15.32 23 16 C17.75637578 14.58671078 14.09024276 12.19575233 9.8125 9 C8.59001275 8.10393605 7.36736237 7.20809462 6.14453125 6.3125 C5.10683594 5.549375 4.06914062 4.78625 3 4 C2.01 3.34 1.02 2.68 0 2 C0 1.34 0 0.68 0 0 Z " fill="#FBA810" transform="translate(220,63)"/>
<path d="M0 0 C0.33 0 0.66 0 1 0 C2.47773994 11.39970808 3.28189885 22.50479125 3 34 C2.67 33.34 2.34 32.68 2 32 C1.34 32 0.68 32 0 32 C0 21.44 0 10.88 0 0 Z " fill="#FDB70D" transform="translate(167,91)"/>
<path d="M0 0 C-2.31728637 2.31728637 -3.35146373 2.46439794 -6.5078125 3.0703125 C-7.41273438 3.24433594 -8.31765625 3.41835937 -9.25 3.59765625 C-10.19875 3.77167969 -11.1475 3.94570312 -12.125 4.125 C-13.05054688 4.30675781 -13.97609375 4.48851562 -14.9296875 4.67578125 C-20.38421167 5.70043056 -25.45225185 6.19580288 -31 6 C-24.1413313 -2.13470009 -9.65963884 -0.33097747 0 0 Z " fill="#153975" transform="translate(205,207)"/>
<path d="M0 0 C0 1.32 0 2.64 0 4 C-10.23 4 -20.46 4 -31 4 C-31 3.67 -31 3.34 -31 3 C-30.00097656 2.93941406 -29.00195312 2.87882813 -27.97265625 2.81640625 C-26.68230469 2.73261719 -25.39195313 2.64882812 -24.0625 2.5625 C-22.77472656 2.48128906 -21.48695312 2.40007812 -20.16015625 2.31640625 C-17.13976043 2.35080812 -17.13976043 2.35080812 -16 1 C-10.69282159 0.07750762 -5.37343833 -0.11432848 0 0 Z " fill="#0C326E" transform="translate(146,128)"/>
<path d="M0 0 C3.7806643 1.93233953 6.69646946 4.581887 9.8125 7.4375 C8.8225 8.7575 7.8325 10.0775 6.8125 11.4375 C2.3395897 9.44953987 -1.34911102 7.19412454 -3.5 2.6875 C-3.726875 1.945 -3.95375 1.2025 -4.1875 0.4375 C-2.1875 -0.5625 -2.1875 -0.5625 0 0 Z " fill="#ED860C" transform="translate(245.1875,78.5625)"/>
<path d="M0 0 C0.33 0 0.66 0 1 0 C1.0493651 4.94790177 1.08570269 9.89566083 1.10986328 14.84375 C1.11993317 16.52769466 1.13358988 18.21162179 1.15087891 19.89550781 C1.17508426 22.31319501 1.18647296 24.73065143 1.1953125 27.1484375 C1.20563507 27.9036972 1.21595764 28.65895691 1.22659302 29.43710327 C1.22699318 31.2929398 1.12222716 33.1481928 1 35 C0.34 35.66 -0.32 36.32 -1 37 C-2.21300162 33.2648926 -2.03974779 29.7986558 -1.9140625 25.8984375 C-1.89282318 25.22076324 -1.87158386 24.54308899 -1.84970093 23.84487915 C-1.80358181 22.4176538 -1.75466594 20.9905164 -1.703125 19.56347656 C-1.62502973 17.37583275 -1.55798596 15.18804447 -1.4921875 13 C-1.44597078 11.61195709 -1.39911778 10.22393519 -1.3515625 8.8359375 C-1.30854004 7.57313965 -1.26551758 6.3103418 -1.22119141 5.00927734 C-1 2 -1 2 0 0 Z " fill="#BF5706" transform="translate(254,133)"/>
<path d="M0 0 C2.90775791 1.24393253 4.96305042 2.55566051 7 5 C7 5.66 7 6.32 7 7 C0.125 5.125 0.125 5.125 -1 4 C-3.06772734 3.80058132 -3.06772734 3.80058132 -5.4375 3.8125 C-6.24058594 3.79832031 -7.04367188 3.78414063 -7.87109375 3.76953125 C-10.21630633 3.79837644 -10.21630633 3.79837644 -12 6 C-12.99 5.01 -13.98 4.02 -15 3 C-10.02881544 -0.0591905 -5.71237352 -0.79973229 0 0 Z " fill="#FEE11B" transform="translate(198,84)"/>
<path d="M0 0 C0 0.99 0 1.98 0 3 C-1.11375 3.309375 -2.2275 3.61875 -3.375 3.9375 C-6.7945155 4.82326483 -6.7945155 4.82326483 -9 6 C-9.33 15.24 -9.66 24.48 -10 34 C-10.33 34 -10.66 34 -11 34 C-11.09907258 29.80084693 -11.17156173 25.60231748 -11.21972656 21.40234375 C-11.23980982 19.97448879 -11.26708252 18.54671575 -11.30175781 17.11914062 C-11.35042669 15.06359632 -11.37299967 13.00914145 -11.390625 10.953125 C-11.41157227 9.71723633 -11.43251953 8.48134766 -11.45410156 7.20800781 C-10.91748174 3.41704839 -9.99250504 2.29818832 -7 0 C-3.97025652 -1.19353531 -3.19632902 -1.06544301 0 0 Z " fill="#153268" transform="translate(169,74)"/>
<path d="M0 0 C-1.97746603 0.73080266 -3.98072489 1.39421747 -6 2 C-6.66 1.67 -7.32 1.34 -8 1 C-8.89980404 5.4291325 -9.73273029 9.86985736 -10.5625 14.3125 C-10.70107422 15.05306641 -10.83964844 15.79363281 -10.98242188 16.55664062 C-11.32189055 18.37104214 -11.66098323 20.18551399 -12 22 C-12.33 22 -12.66 22 -13 22 C-13.27603012 19.08368173 -13.52158705 16.17010285 -13.75 13.25 C-13.83121094 12.425 -13.91242188 11.6 -13.99609375 10.75 C-14.44099371 4.62026724 -14.44099371 4.62026724 -12.203125 1.47265625 C-8.2887275 -1.1438825 -4.42841069 -1.53291139 0 0 Z " fill="#2D77B0" transform="translate(163,62)"/>
<path d="M0 0 C0.84290604 2.37498055 1.14620332 3.59095027 0.28515625 6 C-0.11832031 6.66 -0.52179688 7.32 -0.9375 8 C-1.50791016 8.99 -1.50791016 8.99 -2.08984375 10 C-5.81404317 13.89936627 -9.69701462 15.76531014 -15.08569336 16.31445312 C-18.56591718 16.39281279 -22.02042132 16.34941653 -25.5 16.25 C-26.70398438 16.23195313 -27.90796875 16.21390625 -29.1484375 16.1953125 C-32.09979605 16.14846554 -35.04947036 16.08288005 -38 16 C-38 15.67 -38 15.34 -38 15 C-37.34515625 14.98541748 -36.6903125 14.97083496 -36.015625 14.95581055 C-33.00986327 14.88071957 -30.00513903 14.78426329 -27 14.6875 C-25.97003906 14.66494141 -24.94007812 14.64238281 -23.87890625 14.61914062 C-13.99937312 14.28646866 -13.99937312 14.28646866 -5.48095703 9.65551758 C-2.88458475 6.7248986 -1.2001547 3.70956906 0 0 Z " fill="#113D7A" transform="translate(69,280)"/>
<path d="M0 0 C1.875 -0.36328125 1.875 -0.36328125 4 -0.3125 C4.70125 -0.30863281 5.4025 -0.30476563 6.125 -0.30078125 C8 0 8 0 10 2 C10 2.99 10 3.98 10 5 C6.95016004 6.52491998 4.3576631 6.23562548 1 6 C-0.9375 4.5 -0.9375 4.5 -2 3 C-1.34 2.01 -0.68 1.02 0 0 Z " fill="#FEF276" transform="translate(202,93)"/>
<path d="M0 0 C0.66 0.33 1.32 0.66 2 1 C1.34 1.66 0.68 2.32 0 3 C0.66 3.66 1.32 4.32 2 5 C0.21118264 6.00508801 -1.58114696 7.00392736 -3.375 8 C-4.37273437 8.556875 -5.37046875 9.11375 -6.3984375 9.6875 C-9 11 -9 11 -11 11 C-10.125 6.25 -10.125 6.25 -9 4 C-7.1875 3.18359375 -7.1875 3.18359375 -5 2.4375 C-2.26066983 1.60962158 -2.26066983 1.60962158 0 0 Z " fill="#9D1214" transform="translate(221,168)"/>
<path d="M0 0 C0 1.32 0 2.64 0 4 C-6.93 4 -13.86 4 -21 4 C-17.03046127 2.01523064 -14.28843193 1.45146417 -9.9375 0.875 C-8.70902344 0.70742187 -7.48054687 0.53984375 -6.21484375 0.3671875 C-3 0 -3 0 0 0 Z " fill="#0F346E" transform="translate(147,115)"/>
<path d="M0 0 C2.1640625 0.0234375 2.1640625 0.0234375 4.625 0.375 C5.85089844 0.54128906 5.85089844 0.54128906 7.1015625 0.7109375 C7.72804687 0.80632812 8.35453125 0.90171875 9 1 C8.34 2.65 7.68 4.3 7 6 C9.31 6.66 11.62 7.32 14 8 C14 8.33 14 8.66 14 9 C9.99973882 9.59578358 8.01367988 9.63996562 4.53125 7.44140625 C2.29667053 5.68414992 0.1245113 3.88845449 -2 2 C-1.34 1.34 -0.68 0.68 0 0 Z " fill="#FDEC59" transform="translate(194,91)"/>
<path d="M0 0 C-2.7655251 1.50233625 -4.61778676 2.11140417 -7.8125 2.6875 C-12.85754365 3.86624852 -15.8756801 6.99749289 -19 11 C-19.70509683 12.31341566 -20.38404025 13.64249648 -21 15 C-21.66 15 -22.32 15 -23 15 C-21.22073112 9.12841269 -17.31343109 4.99212122 -12.75 1.0625 C-8.55442303 -0.55851838 -4.44402552 -0.23298775 0 0 Z " fill="#2077B5" transform="translate(101,240)"/>
<path d="M0 0 C1.61841797 0.08701172 1.61841797 0.08701172 3.26953125 0.17578125 C4.35621094 0.22089844 5.44289062 0.26601562 6.5625 0.3125 C7.39394531 0.37050781 8.22539062 0.42851562 9.08203125 0.48828125 C7.43645737 4.78011584 5.40802949 8.53408424 3.08203125 12.48828125 C2.42203125 11.82828125 1.76203125 11.16828125 1.08203125 10.48828125 C2.40203125 7.84828125 3.72203125 5.20828125 5.08203125 2.48828125 C1.0259696 2.95628836 -2.38385554 3.36781333 -5.91796875 5.48828125 C-3.7352554 0.62504274 -3.7352554 0.62504274 0 0 Z " fill="#126EB2" transform="translate(182.91796875,240.51171875)"/>
<path d="M0 0 C-1.98 0.66 -3.96 1.32 -6 2 C-6 2.66 -6 3.32 -6 4 C-9.3 4.33 -12.6 4.66 -16 5 C-16 4.34 -16 3.68 -16 3 C-17.65 3 -19.3 3 -21 3 C-21 2.67 -21 2.34 -21 2 C-18.25162151 1.46892686 -15.50187625 0.94984119 -12.75 0.4375 C-11.97269531 0.28603516 -11.19539063 0.13457031 -10.39453125 -0.02148438 C-9.64042969 -0.16005859 -8.88632813 -0.29863281 -8.109375 -0.44140625 C-7.07248535 -0.63778687 -7.07248535 -0.63778687 -6.01464844 -0.83813477 C-3.78712058 -1.01710362 -2.12493038 -0.65206197 0 0 Z " fill="#4085B8" transform="translate(138,112)"/>
<path d="M0 0 C2.31 0 4.62 0 7 0 C7 2.97 7 5.94 7 9 C4.59564994 10.20217503 3.31618631 10.03897118 0.6484375 9.87890625 C-0.20234375 9.83056641 -1.053125 9.78222656 -1.9296875 9.73242188 C-2.81914062 9.67634766 -3.70859375 9.62027344 -4.625 9.5625 C-5.5221875 9.51029297 -6.419375 9.45808594 -7.34375 9.40429688 C-9.56284012 9.2744565 -11.78149871 9.13948661 -14 9 C-14 8.67 -14 8.34 -14 8 C-7.4 8 -0.8 8 6 8 C6 6.35 6 4.7 6 3 C3.36 3.33 0.72 3.66 -2 4 C-1.34 2.68 -0.68 1.36 0 0 Z " fill="#3B6B9E" transform="translate(141,111)"/>
<path d="M0 0 C-2.49496701 2.49496701 -3.50629716 2.58924762 -7 3 C-10.11309756 2.97166609 -13.20722288 2.7757274 -16.3125 2.5625 C-17.14845703 2.51029297 -17.98441406 2.45808594 -18.84570312 2.40429688 C-20.89750789 2.27532629 -22.94881306 2.13844979 -25 2 C-25 1.67 -25 1.34 -25 1 C-16.65667456 -0.19190363 -8.40676978 -0.09283549 0 0 Z " fill="#516896" transform="translate(300,189)"/>
<path d="M0 0 C1.66666667 0.66666667 3.33333333 1.33333333 5 2 C5.804375 2.268125 6.60875 2.53625 7.4375 2.8125 C10.883762 4.40954824 13.21515565 6.40944712 16 9 C16 9.66 16 10.32 16 11 C12.04326153 10.38910214 9.49283525 8.41059799 6.3125 6.0625 C5.33925781 5.35222656 4.36601562 4.64195312 3.36328125 3.91015625 C1 2 1 2 0 0 Z " fill="#E8750D" transform="translate(168,155)"/>
<path d="M0 0 C2.09647443 0.14678114 4.19641323 0.24705138 6.296875 0.31640625 C7.50214844 0.35830078 8.70742187 0.40019531 9.94921875 0.44335938 C11.83060547 0.50233398 11.83060547 0.50233398 13.75 0.5625 C15.65458984 0.62727539 15.65458984 0.62727539 17.59765625 0.69335938 C20.73166365 0.79939722 23.86574933 0.90146058 27 1 C27 1.33 27 1.66 27 2 C15.78 2 4.56 2 -7 2 C-7 1.34 -7 0.68 -7 0 C-3.68929016 -1.10356995 -3.19507341 -0.84332117 0 0 Z " fill="#9FBAD3" transform="translate(100,118)"/>
<path d="M0 0 C0.33 0.99 0.66 1.98 1 3 C-0.07543783 3.98783194 -1.16073217 4.96493943 -2.25 5.9375 C-3.15492188 6.75541016 -3.15492188 6.75541016 -4.078125 7.58984375 C-6.08467305 9.06212799 -7.57002449 9.57529189 -10 10 C-9.5 7.25 -9.5 7.25 -8 4 C-5.47574469 2.29999132 -2.82483159 1.11679388 0 0 Z " fill="#D61312" transform="translate(240,100)"/>
<path d="M0 0 C0.89847656 0.00257813 1.79695312 0.00515625 2.72265625 0.0078125 C3.61855469 0.00523437 4.51445312 0.00265625 5.4375 0 C7.78515625 0.1328125 7.78515625 0.1328125 9.78515625 1.1328125 C9.45515625 2.1228125 9.12515625 3.1128125 8.78515625 4.1328125 C7.34859771 4.21412713 5.91070795 4.27214809 4.47265625 4.3203125 C3.27189453 4.37251953 3.27189453 4.37251953 2.046875 4.42578125 C-0.69335959 4.07082858 -1.50655454 3.23914968 -3.21484375 1.1328125 C-2.21484375 0.1328125 -2.21484375 0.1328125 0 0 Z " fill="#122F6D" transform="translate(138.21484375,148.8671875)"/>
<path d="M0 0 C4.99923422 0.34878378 8.00609165 2.05211527 12 5 C11.01 5.495 11.01 5.495 10 6 C9.67 6.66 9.34 7.32 9 8 C8.52949219 7.66226563 8.05898437 7.32453125 7.57421875 6.9765625 C6.95160156 6.53054687 6.32898438 6.08453125 5.6875 5.625 C5.07261719 5.18414062 4.45773438 4.74328125 3.82421875 4.2890625 C2.2347608 3.16589093 0.61937829 2.07958553 -1 1 C-0.67 0.67 -0.34 0.34 0 0 Z " fill="#FA8E10" transform="translate(209,75)"/>
<path d="M0 0 C1.98 0.99 1.98 0.99 4 2 C3.01 2.495 3.01 2.495 2 3 C2.08378906 3.59167969 2.16757813 4.18335937 2.25390625 4.79296875 C2.80889424 9.09939457 3.23226652 12.75552644 2 17 C-0.25998595 13.40537669 -0.20868087 10.43404325 -0.125 6.25 C-0.09792969 4.49429688 -0.09792969 4.49429688 -0.0703125 2.703125 C-0.04710937 1.81109375 -0.02390625 0.9190625 0 0 Z " fill="#FCE32D" transform="translate(169,96)"/>
<path d="M0 0 C0.33 0 0.66 0 1 0 C0.47662174 8.35178073 -0.07999551 16.6808105 -1 25 C-1.33 25 -1.66 25 -2 25 C-2 18.07 -2 11.14 -2 4 C-1.34 4 -0.68 4 0 4 C0 2.68 0 1.36 0 0 Z " fill="#5190BC" transform="translate(148,241)"/>
<path d="M0 0 C3.96 0 7.92 0 12 0 C10.66697708 2.66604583 9.81009519 2.99124788 7 4 C4.30840157 4.16468671 1.70156394 4.09005213 -1 4 C-0.01 3.34 0.98 2.68 2 2 C1.34 1.34 0.68 0.68 0 0 Z " fill="#0E3F7D" transform="translate(253,192)"/>
<path d="M0 0 C-3.01447835 2.57075841 -5.35979771 3.52207066 -9.25 4.1875 C-10.58804688 4.42533203 -10.58804688 4.42533203 -11.953125 4.66796875 C-12.96632812 4.83232422 -12.96632812 4.83232422 -14 5 C-14 4.34 -14 3.68 -14 3 C-9.05485878 0.07558908 -5.81671503 -1.74501451 0 0 Z " fill="#D55B3F" transform="translate(231,182)"/>
<path d="M0 0 C3.465 1.485 3.465 1.485 7 3 C6.01 4.32 5.02 5.64 4 7 C1.11562221 5.70700306 -0.87219421 4.34058637 -3 2 C-2.01 2 -1.02 2 0 2 C0 1.34 0 0.68 0 0 Z " fill="#EA8D19" transform="translate(248,83)"/>
<path d="M0 0 C3.96 0 7.92 0 12 0 C12.33 1.32 12.66 2.64 13 4 C12.34 4 11.68 4 11 4 C11 3.34 11 2.68 11 2 C9.5199159 2.11362262 8.04089926 2.24122908 6.5625 2.375 C5.73878906 2.44460937 4.91507813 2.51421875 4.06640625 2.5859375 C3.04353516 2.79089844 3.04353516 2.79089844 2 3 C1.67 3.66 1.34 4.32 1 5 C0.67 3.35 0.34 1.7 0 0 Z " fill="#1C79BA" transform="translate(153,241)"/>
<path d="M0 0 C4.62 0 9.24 0 14 0 C14 0.66 14 1.32 14 2 C9.59085217 3.10228696 5.51617599 3.07654536 1 3 C0.67 2.01 0.34 1.02 0 0 Z " fill="#11326D" transform="translate(272,191)"/>
<path d="M0 0 C0.66 0 1.32 0 2 0 C1.3125 1.9375 1.3125 1.9375 0 4 C-2.625 4.75 -2.625 4.75 -5 5 C-5 5.66 -5 6.32 -5 7 C-8.52948291 8.66670026 -10.28272326 9.13583456 -14 8 C-13.07316406 7.50628906 -12.14632812 7.01257813 -11.19140625 6.50390625 C-9.98172045 5.85686501 -8.77208778 5.20972446 -7.5625 4.5625 C-6.95083984 4.23701172 -6.33917969 3.91152344 -5.70898438 3.57617188 C-2.66283794 2.06284858 -2.66283794 2.06284858 0 0 Z " fill="#D75E13" transform="translate(248,168)"/>
<path d="M0 0 C3.40755272 1.92880342 6.74147635 3.8276509 10 6 C10 6.99 10 7.98 10 9 C6.41275276 7.66759388 3.08350711 6.29060528 0 4 C0 2.68 0 1.36 0 0 Z " fill="#FCDB08" transform="translate(168,92)"/>
<path d="M0 0 C0 0.33 0 0.66 0 1 C-1.60875 1.2165625 -1.60875 1.2165625 -3.25 1.4375 C-6.70920397 1.85959758 -6.70920397 1.85959758 -8.8125 2.5625 C-11.87082265 3.17416453 -14.65104346 2.84140609 -17.75 2.5625 C-18.92046875 2.46066406 -20.0909375 2.35882813 -21.296875 2.25390625 C-22.63492188 2.12822266 -22.63492188 2.12822266 -24 2 C-24 1.67 -24 1.34 -24 1 C-15.97875848 0.28586721 -8.05358138 -0.14525497 0 0 Z " fill="#6793BC" transform="translate(221,193)"/>
<path d="M0 0 C2.16483561 3.24725341 4.25338656 6.50677312 6 10 C5.01 10.495 5.01 10.495 4 11 C3.01 12.485 3.01 12.485 2 14 C0.02905192 9.07262981 -0.1799928 5.21979128 0 0 Z " fill="#37548B" transform="translate(145,182)"/>
<path d="M0 0 C3.3 0 6.6 0 10 0 C9.67 0.99 9.34 1.98 9 3 C6.69 3 4.38 3 2 3 C1.67 5.31 1.34 7.62 1 10 C0.67 10 0.34 10 0 10 C0 6.7 0 3.4 0 0 Z " fill="#0A6BAF" transform="translate(138,241)"/>
<path d="M0 0 C0.33 0 0.66 0 1 0 C2.68072719 6.72290876 2.56634962 12.58412596 0 19 C-0.33 19 -0.66 19 -1 19 C-0.67 12.73 -0.34 6.46 0 0 Z " fill="#4F96C5" transform="translate(121,219)"/>
<path d="M0 0 C-0.33 0.99 -0.66 1.98 -1 3 C-3.64 3 -6.28 3 -9 3 C-8.67 2.01 -8.34 1.02 -8 0 C-5.13822943 -1.43088528 -3.06624227 -0.59991697 0 0 Z " fill="#123773" transform="translate(250,197)"/>
<path d="M0 0 C-3.07691766 2.05127844 -3.93644999 2.27260872 -7.44921875 2.4140625 C-8.29677734 2.45273438 -9.14433594 2.49140625 -10.01757812 2.53125 C-11.33918945 2.57765625 -11.33918945 2.57765625 -12.6875 2.625 C-13.58017578 2.66367188 -14.47285156 2.70234375 -15.39257812 2.7421875 C-17.5948462 2.83640218 -19.79710722 2.92201588 -22 3 C-22 2.67 -22 2.34 -22 2 C-19.08483516 1.46915208 -16.16839443 0.95000945 -13.25 0.4375 C-12.425 0.28603516 -11.6 0.13457031 -10.75 -0.02148438 C-9.95078125 -0.16005859 -9.1515625 -0.29863281 -8.328125 -0.44140625 C-7.5949707 -0.57232666 -6.86181641 -0.70324707 -6.10644531 -0.83813477 C-3.83766713 -1.01247412 -2.16221421 -0.66874807 0 0 Z " fill="#5595C3" transform="translate(113,127)"/>
<path d="M0 0 C6.27 0 12.54 0 19 0 C15 3 15 3 11.328125 2.85546875 C9.96597312 2.65048473 8.60646402 2.42725309 7.25 2.1875 C6.55261719 2.07857422 5.85523438 1.96964844 5.13671875 1.85742188 C3.42193705 1.58728503 1.71055369 1.29573005 0 1 C0 0.67 0 0.34 0 0 Z " fill="#295E97" transform="translate(234,192)"/>
<path d="M0 0 C6.52307692 0.61538462 6.52307692 0.61538462 8.9375 2.5625 C9.288125 3.036875 9.63875 3.51125 10 4 C9.67 4.99 9.34 5.98 9 7 C7.4972763 6.02501855 5.99788037 5.04490611 4.5 4.0625 C3.6646875 3.51722656 2.829375 2.97195312 1.96875 2.41015625 C1.3190625 1.94480469 0.669375 1.47945312 0 1 C0 0.67 0 0.34 0 0 Z " fill="#193D77" transform="translate(161,167)"/>
<path d="M0 0 C2.00841268 0.01421885 4.01537247 0.13420475 6.01953125 0.265625 C5.01953125 2.265625 5.01953125 2.265625 3.01953125 4.265625 C0.26580216 4.63496145 -2.18412536 4.44899178 -4.98046875 4.265625 C-3.72152968 1.74774686 -2.88459378 0.38688832 0 0 Z " fill="#307BB2" transform="translate(115.98046875,124.734375)"/>
<path d="M0 0 C2.97 0 5.94 0 9 0 C9.33 0.66 9.66 1.32 10 2 C7.69 2 5.38 2 3 2 C2.67 2.99 2.34 3.98 2 5 C1.01 4.34 0.02 3.68 -1 3 C-0.67 2.01 -0.34 1.02 0 0 Z " fill="#FEEC2D" transform="translate(188,87)"/>
<path d="M0 0 C0.66 0.99 1.32 1.98 2 3 C0.90554162 3.86657116 -0.20097781 4.71792724 -1.3125 5.5625 C-1.92738281 6.03816406 -2.54226562 6.51382813 -3.17578125 7.00390625 C-3.77777344 7.33261719 -4.37976563 7.66132813 -5 8 C-5.99 7.67 -6.98 7.34 -8 7 C-7.01 6.01 -6.02 5.02 -5 4 C-4.34 4.33 -3.68 4.66 -3 5 C-2.690625 4.360625 -2.38125 3.72125 -2.0625 3.0625 C-1 1 -1 1 0 0 Z " fill="#881313" transform="translate(241,158)"/>
<path d="M0 0 C-0.33 0.66 -0.66 1.32 -1 2 C-2.41623216 2.05447047 -3.83308191 2.09300508 -5.25 2.125 C-6.03890625 2.14820312 -6.8278125 2.17140625 -7.640625 2.1953125 C-10.20731941 1.9828378 -11.7916067 1.28654105 -14 0 C-8.97703996 -1.13016601 -5.02125926 -0.77916092 0 0 Z " fill="#2875AF" transform="translate(121,116)"/>
<path d="M0 0 C0.33 0 0.66 0 1 0 C1.22084624 6.09781001 1.01167675 11.21642935 -1 17 C-1.33 17 -1.66 17 -2 17 C-2.21824777 10.9981863 -1.5056904 5.80766296 0 0 Z " fill="#29619B" transform="translate(33,272)"/>
<path d="M0 0 C3.63 0 7.26 0 11 0 C10.67 0.66 10.34 1.32 10 2 C7.36 2 4.72 2 2 2 C1.67 2.99 1.34 3.98 1 5 C0.67 5 0.34 5 0 5 C0 3.35 0 1.7 0 0 Z " fill="#267CBB" transform="translate(122,217)"/>
<path d="M0 0 C0.33 0 0.66 0 1 0 C1.22295635 2.39527434 1.42874063 4.79001341 1.625 7.1875 C1.68945312 7.86103516 1.75390625 8.53457031 1.8203125 9.22851562 C2.14362111 13.37090718 1.89095265 16.28305109 0 20 C-0.33 20 -0.66 20 -1 20 C-0.67 13.4 -0.34 6.8 0 0 Z " fill="#6590B9" transform="translate(117,262)"/>
<path d="M0 0 C2 1 2 1 4 4 C1.04335481 5.4783226 -1.74229737 5.06032783 -5 5 C-5 4.34 -5 3.68 -5 3 C-2.625 1.3125 -2.625 1.3125 0 0 Z " fill="#CA4B15" transform="translate(232,177)"/>
<path d="M0 0 C-0.33 0.99 -0.66 1.98 -1 3 C-3.97 2.67 -6.94 2.34 -10 2 C-10 2.66 -10 3.32 -10 4 C-11.32 3.34 -12.64 2.68 -14 2 C-12.23225581 1.46877637 -10.46065917 0.95035927 -8.6875 0.4375 C-7.70136719 0.14746094 -6.71523437 -0.14257812 -5.69921875 -0.44140625 C-3 -1 -3 -1 0 0 Z " fill="#15376E" transform="translate(186,69)"/>
<path d="M0 0 C0.96661363 3.12180401 0.98988909 5.52083795 0.5625 8.75 C0.40974609 9.94882813 0.40974609 9.94882813 0.25390625 11.171875 C0.12822266 12.07679688 0.12822266 12.07679688 0 13 C-2.60704898 10.39295102 -2.23905333 8.52661759 -2.265625 4.97265625 C-2 3 -2 3 0 0 Z " fill="#2B7BB5" transform="translate(36,242)"/>
<path d="M0 0 C0.33 0 0.66 0 1 0 C1.18451025 10.55808656 1.18451025 10.55808656 0 15 C-0.33 15 -0.66 15 -1 15 C-1.33 12.03 -1.66 9.06 -2 6 C-1.34 6 -0.68 6 0 6 C0 4.02 0 2.04 0 0 Z " fill="#D14B4C" transform="translate(247,268)"/>
<path d="M0 0 C0 0.66 0 1.32 0 2 C-2.75078884 2.91692961 -4.35948913 3.10886083 -7.1875 3.0625 C-9.0746875 3.0315625 -9.0746875 3.0315625 -11 3 C-8.21756596 -1.17365106 -4.53441502 -0.22300402 0 0 Z " fill="#153872" transform="translate(185,210)"/>
<path d="M0 0 C-1.20703125 1.51953125 -1.20703125 1.51953125 -3 3 C-5.26171875 3.07421875 -5.26171875 3.07421875 -7.6875 2.6875 C-8.89986328 2.50767578 -8.89986328 2.50767578 -10.13671875 2.32421875 C-10.75160156 2.21722656 -11.36648437 2.11023438 -12 2 C-12 1.67 -12 1.34 -12 1 C-7.95858806 0.36605303 -4.0934693 -0.12404452 0 0 Z " fill="#125B9B" transform="translate(142,144)"/>
<path d="M0 0 C0.99 0.33 1.98 0.66 3 1 C2.01 1.495 2.01 1.495 1 2 C0.67 2.99 0.34 3.98 0 5 C-2.0625 5.6875 -2.0625 5.6875 -4 6 C-4.33 5.01 -4.66 4.02 -5 3 C-4.01 3 -3.02 3 -2 3 C-2 2.34 -2 1.68 -2 1 C-1.34 0.67 -0.68 0.34 0 0 Z " fill="#C15411" transform="translate(245,172)"/>
<path d="M0 0 C4.40114397 0.50298788 6.71195019 2.08772731 10 5 C5.27635085 5 3.7011388 3.7758541 0 1 C0 0.67 0 0.34 0 0 Z " fill="#E98320" transform="translate(189,170)"/>
<path d="M0 0 C5 2 5 2 10 4 C8.02 4.99 8.02 4.99 6 6 C3.97945196 4.35830472 1.97956942 2.69088222 0 1 C0 0.67 0 0.34 0 0 Z " fill="#EE7F13" transform="translate(168,155)"/>
<path d="M0 0 C0.66 0.33 1.32 0.66 2 1 C1.75 2.875 1.75 2.875 1 5 C-1.0625 6.25 -1.0625 6.25 -3 7 C-1.125 1.125 -1.125 1.125 0 0 Z " fill="#CE2C2F" transform="translate(338,280)"/>
<path d="M0 0 C3.45925163 1.2491742 6.14693203 2.67527795 9 5 C8.360625 5.12375 7.72125 5.2475 7.0625 5.375 C6.0415625 5.684375 6.0415625 5.684375 5 6 C4.67 6.66 4.34 7.32 4 8 C4 6.68 4 5.36 4 4 C2.08333079 1.74934898 2.08333079 1.74934898 0 0 Z " fill="#0F3573" transform="translate(149,192)"/>
<path d="M0 0 C0.33 0.99 0.66 1.98 1 3 C-2.80504787 4.79682816 -3.70600835 5.07349791 -8 4 C-5.36 2.68 -2.72 1.36 0 0 Z " fill="#D92526" transform="translate(240,100)"/>
<path d="M0 0 C0.66 0 1.32 0 2 0 C0.7508258 3.45925163 -0.67527795 6.14693203 -3 9 C-3.33 8.34 -3.66 7.68 -4 7 C-3.22265625 5.2734375 -3.22265625 5.2734375 -2.0625 3.375 C-1.381875 2.26125 -0.70125 1.1475 0 0 Z " fill="#2876B1" transform="translate(188,244)"/>
<path d="M0 0 C2.625 0.9375 2.625 0.9375 5 2 C4.34 2.66 3.68 3.32 3 4 C1.68 4 0.36 4 -1 4 C-1.33 3.01 -1.66 2.02 -2 1 C-1.34 0.67 -0.68 0.34 0 0 Z " fill="#D46F17" transform="translate(204,101)"/>
</svg>
